<svg width="70" height="70" viewBox="0 0 70 70" fill="none" xmlns="http://www.w3.org/2000/svg">
<path d="M45.8455 36.6543H23.2027C22.6987 36.6549 22.2155 36.8553 21.8592 37.2117C21.5028 37.5681 21.3023 38.0513 21.3018 38.5552V42.7126C21.3018 43.7604 22.1549 44.6135 23.2027 44.6135H30.2235V58.876C30.2246 59.9742 30.6614 61.0271 31.4379 61.8036C32.2145 62.5801 33.2673 63.0169 34.3655 63.018H34.6805C35.7788 63.0169 36.8318 62.5802 37.6085 61.8037C38.3852 61.0272 38.8222 59.9743 38.8236 58.876V44.6135H45.8444C46.3484 44.6129 46.8316 44.4125 47.1879 44.0561C47.5443 43.6997 47.7448 43.2166 47.7454 42.7126V38.5552C47.7454 38.0513 47.5452 37.5679 47.189 37.2115C46.8327 36.855 46.3495 36.6546 45.8455 36.6543ZM36.7061 58.876C36.7056 59.4128 36.4921 59.9274 36.1125 60.3069C35.733 60.6865 35.2184 60.9 34.6816 60.9005H34.3666C33.8298 60.9 33.3152 60.6865 32.9357 60.3069C32.5561 59.9274 32.3426 59.4128 32.3421 58.876V44.6135H36.7061V58.876ZM45.6279 42.496H23.4193V38.7707H45.6279V42.496Z" fill="#F56F18" stroke="#F56F18"/>
<path d="M68.8267 14.4605C68.9247 14.0158 68.9336 13.5561 68.8529 13.108C68.7721 12.6599 68.6034 12.2322 68.3564 11.8497L66.369 8.75439C66.1241 8.371 65.8057 8.03993 65.4321 7.7803C65.0585 7.52067 64.6372 7.33762 64.1925 7.24173C63.748 7.14404 63.2885 7.13531 62.8406 7.21603C62.3927 7.29675 61.9652 7.46533 61.5828 7.71204L55.4589 11.643L53.874 9.17329C51.5334 5.52782 46.6629 4.4647 43.0175 6.80532L40.9907 8.10689C40.8737 8.18206 40.7727 8.27954 40.6933 8.39378C40.614 8.50802 40.558 8.63676 40.5284 8.77266C40.4989 8.90857 40.4964 9.04896 40.5211 9.18583C40.5458 9.32269 40.5972 9.45334 40.6725 9.57032L56.919 34.8764C56.994 34.9935 57.0913 35.0946 57.2054 35.174C57.3195 35.2535 57.4482 35.3096 57.584 35.3393C57.7198 35.3689 57.8601 35.3715 57.997 35.3469C58.1338 35.3223 58.2644 35.2709 58.3814 35.1958L58.6351 35.0328V56.2603L51.5443 62.4006C51.3433 62.5876 51.2227 62.8454 51.2079 63.1196C51.1931 63.3938 51.2853 63.663 51.4651 63.8705C51.6448 64.0781 51.8981 64.2078 52.1716 64.2323C52.4451 64.2568 52.7174 64.1742 52.9312 64.0019L58.6329 59.0625V63.2013C58.6329 63.4821 58.7445 63.7514 58.943 63.9499C59.1416 64.1485 59.4109 64.26 59.6917 64.26C59.9725 64.26 60.2418 64.1485 60.4403 63.9499C60.6389 63.7514 60.7504 63.4821 60.7504 63.2013V59.0625L66.4543 64.0019C66.5595 64.0929 66.6815 64.1623 66.8135 64.2061C66.9454 64.2499 67.0847 64.2673 67.2234 64.2573C67.3621 64.2473 67.4975 64.2101 67.6217 64.1478C67.7461 64.0855 67.8569 63.9993 67.9479 63.8941C68.0388 63.789 68.1082 63.667 68.1521 63.535C68.1959 63.4031 68.2133 63.2638 68.2033 63.1251C68.1933 62.9864 68.1561 62.851 68.0938 62.7267C68.0314 62.6024 67.9453 62.4916 67.8401 62.4006L60.7493 56.2603V33.6492C62.3264 32.5237 63.4273 30.8507 63.837 28.957C64.0597 27.949 64.0803 26.9067 63.8974 25.8906C63.7145 24.8745 63.3319 23.9048 62.7717 23.0377L61.1868 20.5691L67.3107 16.637C67.695 16.3927 68.0269 16.0745 68.2871 15.7009C68.5473 15.3272 68.7307 14.9056 68.8267 14.4605ZM61.7698 28.5064C61.6114 29.2436 61.3082 29.9421 60.8779 30.5613C60.4476 31.1805 59.8987 31.7081 59.2629 32.1136L58.1276 32.842L43.024 9.31657L44.1604 8.58704C45.4422 7.7669 46.9968 7.48848 48.4835 7.81284C49.9702 8.1372 51.2676 9.03787 52.0912 10.3174L60.9921 24.1817C61.4013 24.8154 61.6806 25.5239 61.8141 26.2662C61.9476 27.0085 61.9325 27.7699 61.7698 28.5064ZM66.7573 14.0088C66.6807 14.3609 66.4718 14.6606 66.1689 14.8553L60.045 18.7874L58.8954 16.9969L62.5245 14.6672C62.6415 14.592 62.7425 14.4945 62.8218 14.3803C62.9011 14.266 62.9572 14.1373 62.9867 14.0014C63.0163 13.8655 63.0188 13.7251 62.9941 13.5883C62.9694 13.4514 62.918 13.3207 62.8428 13.2038C62.7676 13.0868 62.6701 12.9857 62.5558 12.9064C62.4416 12.8271 62.3129 12.7711 62.177 12.7415C62.0411 12.712 61.9007 12.7095 61.7638 12.7342C61.627 12.7589 61.4963 12.8103 61.3793 12.8855L57.7514 15.2152L56.6018 13.4247L62.7257 9.49376C63.0287 9.30017 63.3896 9.23235 63.7397 9.3111C64.0907 9.38767 64.3915 9.59548 64.5862 9.89845L66.5736 12.9949C66.7693 13.2967 66.8339 13.6577 66.7573 14.0088ZM18.5481 21.7252C18.5481 18.4975 15.922 15.8725 12.6954 15.8725C9.46887 15.8725 6.84277 18.4975 6.84277 21.7252C6.84277 24.9528 9.46887 27.5778 12.6954 27.5778C15.922 27.5778 18.5481 24.9528 18.5481 21.7252ZM8.96027 21.7252C8.96143 20.7351 9.35518 19.7859 10.0552 19.0857C10.7552 18.3855 11.7043 17.9915 12.6943 17.99C14.7539 17.99 16.4295 19.6667 16.4295 21.7252C16.4295 23.7836 14.7539 25.4603 12.6943 25.4603C11.7043 25.4589 10.7552 25.0649 10.0552 24.3647C9.35518 23.6645 8.96143 22.7152 8.96027 21.7252Z" fill="#F56F18" stroke="#F56F18"/>
<path d="M13.7539 56.4873V37.35H15.8462C16.3096 37.3494 16.7538 37.1651 17.0815 36.8374C17.4092 36.5098 17.5935 36.0656 17.5941 35.6022V32.1394H22.5487C23.0121 32.1388 23.4563 31.9545 23.784 31.6268C24.1117 31.2992 24.296 30.8549 24.2966 30.3916V12.3698C24.2966 12.3458 24.2845 12.325 24.2823 12.3009C24.2693 12.0727 24.18 11.8554 24.0286 11.6841C24.0067 11.6589 23.9892 11.6305 23.9652 11.6064C23.9564 11.5977 23.9509 11.5867 23.9411 11.578L17.6225 5.95828C17.4285 5.78641 17.1784 5.69148 16.9192 5.69141H8.47109C8.21194 5.69148 7.96178 5.78641 7.76781 5.95828L1.44922 11.578C1.43938 11.5867 1.435 11.5977 1.42516 11.6064C1.40109 11.6294 1.38359 11.6578 1.36172 11.683C1.30195 11.7511 1.25088 11.8264 1.20969 11.9072C1.15047 12.0302 1.11556 12.1636 1.10687 12.2998C1.10687 12.325 1.09375 12.3458 1.09375 12.3698V30.3905C1.09433 30.8538 1.27866 31.2981 1.60631 31.6257C1.93396 31.9534 2.37819 32.1377 2.84156 32.1383H7.79625V35.6011C7.79683 36.0645 7.98116 36.5087 8.30881 36.8363C8.63646 37.164 9.08069 37.3483 9.54406 37.3489H11.6353V56.4873L3.44531 62.5292C3.21905 62.696 3.06831 62.9459 3.02626 63.2238C2.98422 63.5017 3.0543 63.785 3.22109 64.0113C3.38789 64.2375 3.63774 64.3883 3.91567 64.4303C4.19361 64.4724 4.47686 64.4023 4.70313 64.2355L11.6364 59.1211V63.3834C11.6364 63.6642 11.748 63.9335 11.9465 64.1321C12.1451 64.3306 12.4144 64.4422 12.6952 64.4422C12.976 64.4422 13.2453 64.3306 13.4438 64.1321C13.6424 63.9335 13.7539 63.6642 13.7539 63.3834V59.1211L20.6872 64.2355C20.9138 64.3931 21.1929 64.4562 21.4652 64.4112C21.7376 64.3662 21.9816 64.2168 22.1454 63.9947C22.3093 63.7725 22.38 63.4953 22.3426 63.2218C22.3052 62.9483 22.1625 62.7002 21.945 62.5303L13.7539 56.4873ZM8.87359 7.80891H16.5156L20.4531 11.3111H4.93719L8.87359 7.80891ZM3.21234 13.4286H22.178V30.0219H3.21234V13.4286ZM9.91484 32.1383H15.4766V35.2325H9.91484V32.1383Z" fill="#F56F18" stroke="#F56F18"/>
</svg>
