<svg width="24" height="24" viewBox="0 0 24 24" fill="none" xmlns="http://www.w3.org/2000/svg">
<path d="M3.36133 4.01172C5.28858 2.08434 6.54369 1.57378 7.88281 2.34375C8.26799 2.56525 8.62913 2.87537 9.12012 3.37402L10.627 4.93555C11.4589 5.84338 11.6478 6.71459 11.377 7.73438L11.3398 7.87012L11.2988 8.00391L11.0967 8.59473C10.6657 9.91965 10.8464 10.6671 12.3799 12.2002C13.9744 13.7943 14.7186 13.9253 16.1455 13.4268L16.4004 13.3379L16.708 13.2383L16.8428 13.2012C17.9267 12.9121 18.8424 13.1429 19.8135 14.1133L21.0273 15.2852L21.3838 15.6367C21.7799 16.0407 22.042 16.3609 22.2354 16.6992C23.0005 18.038 22.4888 19.292 20.5059 21.2676L20.3174 21.459C20.0214 21.7442 19.745 21.9487 19.3389 22.1416C18.6567 22.4655 17.8505 22.5873 16.9141 22.457C14.6066 22.1361 11.6799 20.3156 7.97168 16.6084C7.66994 16.3067 7.38104 16.0108 7.10449 15.7207L6.56738 15.1475C1.53768 9.68282 1.09406 6.32607 3.15527 4.2207L3.28906 4.08789L3.36133 4.01172ZM7.13477 3.64453C6.67326 3.37915 6.17506 3.49151 5.25293 4.28516L4.96289 4.54395C4.91235 4.5906 4.86052 4.6392 4.80762 4.68945L4.47559 5.0127L4.44531 5.05078L4.2207 5.27637C3.67635 5.83238 3.41843 6.51168 3.64062 7.67871C4.00543 9.59368 5.67454 12.191 9.03223 15.5479C12.5311 19.0458 15.1965 20.7051 17.1201 20.9727C18.2415 21.1286 18.8132 20.8563 19.3965 20.2588L19.8418 19.8096C20.0503 19.5914 20.2285 19.3936 20.3789 19.2129L20.584 18.9541C21.1084 18.2555 21.1568 17.8368 20.9326 17.4443C20.8472 17.295 20.7228 17.1308 20.542 16.9307L20.2969 16.6719L20.1523 16.5264L18.6211 15.0479C18.1095 14.576 17.7593 14.5088 17.2285 14.6504L17.0752 14.6943L16.4404 14.9102C14.6005 15.5043 13.2731 15.216 11.3184 13.2617C9.29372 11.2376 9.056 9.88565 9.73438 7.93945L9.77832 7.81445L9.89844 7.45215L9.95801 7.2207C10.0628 6.71794 9.94288 6.3668 9.40234 5.82617C9.38016 5.80399 9.35508 5.7793 9.32812 5.75195L7.90625 4.28125C7.58049 3.96009 7.34339 3.76451 7.13477 3.64453Z" fill="#F56F18"/>
</svg>
