<svg width="137" height="352" viewBox="0 0 137 352" fill="none" xmlns="http://www.w3.org/2000/svg">
<g opacity="0.5">
<path d="M-106.76 347.445C-92.769 344.174 -79.3562 339.642 -64.5292 334.488C-27.354 321.567 11.0876 308.208 43.7919 288.132C66.2141 274.367 85.4381 257.652 100.934 238.449C116.429 219.246 127.441 198.487 133.664 176.751L133.847 176.108C139.121 157.387 137.759 137.873 129.909 119.679C122.067 101.508 108.043 85.3183 89.3497 72.8586C37.4696 38.2815 -23.8634 14.4367 -88.0248 3.90268C-136.196 -4.0054 -172.937 0.116836 -197.227 16.1589C-207.541 22.9699 -215.782 32.0253 -222.423 43.8448C-228.613 54.8608 -232.538 66.7305 -235.562 76.888C-247.172 115.914 -254.661 155.966 -257.824 195.936C-258.499 204.462 -259 213.369 -259 222.474C-259 245.564 -255.773 269.89 -243.97 292.224C-235.848 307.593 -222.863 321.792 -207.403 332.204C-190.509 343.584 -171.092 350.329 -151.251 351.713C-137.655 352.662 -123.104 351.266 -106.76 347.445ZM-150.965 349.212C-170.131 347.874 -188.921 341.337 -205.304 330.303C-220.391 320.143 -233.068 306.28 -241.001 291.267C-257.21 260.594 -256.978 225.944 -254.616 196.092C-251.463 156.26 -243.999 116.346 -232.432 77.4554C-229.442 67.4108 -225.566 55.6818 -219.478 44.854C-213.04 33.3935 -205.082 24.6344 -195.153 18.077C-171.658 2.55955 -135.839 -1.38193 -88.6837 6.36046C-25.0494 16.8067 35.7918 40.4631 87.2637 74.7691C105.514 86.935 119.206 102.741 126.862 120.483C131.468 131.155 133.786 142.289 133.786 153.446C133.786 160.854 132.764 168.273 130.71 175.568L130.53 176.201C124.384 197.658 113.514 218.151 98.2144 237.111C82.9149 256.07 63.9384 272.572 41.8056 286.158C9.41626 306.042 -28.8389 319.337 -65.8374 332.193C-80.5615 337.312 -93.8746 341.811 -107.683 345.04C-123.628 348.768 -137.784 350.134 -150.965 349.212Z" fill="url(#paint0_linear_79_1849)"/>
<path d="M-104.411 338.864C-91.1297 335.756 -78.4016 331.455 -64.3299 326.565C-29.0189 314.291 7.49417 301.6 38.5624 282.531C50.3038 275.323 61.2803 267.126 71.1864 258.171C80.9993 249.297 89.8094 239.636 97.3691 229.456L97.5909 229.157C100.027 225.864 102.364 222.469 104.537 219.068C113.238 205.443 119.737 191.118 123.848 176.492L124.018 175.885C128.99 158.12 127.672 139.608 120.203 122.346C112.743 105.106 99.4165 89.7443 81.6711 77.9223C32.433 45.1226 -25.7726 22.503 -86.6556 12.5062C-117.705 7.40985 -143.987 7.59311 -164.776 13.0509C-174.502 15.6066 -183.148 19.3623 -190.474 24.2151C-201.942 31.8019 -210.826 42.469 -217.64 56.8266C-221.818 65.6334 -224.759 74.857 -226.858 81.909C-237.876 118.959 -244.986 156.986 -247.991 194.932C-248.496 201.301 -248.817 207.005 -248.981 212.37C-249.059 214.988 -249.1 217.546 -249.1 220.054C-249.1 234.01 -247.869 246.294 -245.372 257.416C-243.025 267.849 -239.451 277.63 -234.749 286.49C-224.039 306.714 -205.182 323.969 -183.01 333.828C-171.391 338.997 -159.161 342.057 -146.658 342.926C-133.75 343.822 -119.929 342.492 -104.411 338.864ZM-146.372 340.425C-158.415 339.589 -170.205 336.635 -181.419 331.649C-202.98 322.059 -221.336 305.248 -231.779 285.528C-236.391 276.839 -239.901 267.234 -242.206 256.981C-245.115 244.03 -246.281 229.456 -245.767 212.43C-245.606 207.098 -245.285 201.424 -244.784 195.087C-241.791 157.279 -234.707 119.391 -223.728 82.4764C-221.651 75.4972 -218.739 66.3715 -214.625 57.6977C-208.01 43.7569 -199.432 33.4312 -188.394 26.1307C-181.381 21.4837 -173.088 17.8837 -163.751 15.4309C-143.514 10.1162 -117.798 9.95801 -87.3145 14.9639C-26.9586 24.8729 30.7552 47.3042 79.585 79.8328C96.8902 91.361 109.885 106.339 117.159 123.152C121.549 133.299 123.761 143.888 123.761 154.495C123.761 161.479 122.803 168.474 120.878 175.35L120.707 175.955C116.654 190.378 110.245 204.507 101.66 217.946C99.5162 221.302 97.2116 224.651 94.8074 227.902L94.5888 228.196C87.1287 238.24 78.4344 247.775 68.7532 256.529C58.9821 265.364 48.1568 273.448 36.5761 280.557C5.8228 299.434 -30.5039 312.062 -65.6381 324.27C-79.6069 329.126 -92.2354 333.393 -105.333 336.459C-120.453 339.994 -133.878 341.292 -146.372 340.425Z" fill="url(#paint1_linear_79_1849)"/>
<path d="M-102.064 330.28C-89.4937 327.341 -77.447 323.269 -64.1306 318.642C-30.6839 307.016 3.90073 294.995 33.3298 276.932C44.4797 270.089 54.8969 262.304 64.292 253.795C73.6035 245.363 81.9539 236.187 89.1087 226.516L89.3176 226.233C91.6254 223.102 93.8367 219.876 95.8906 216.645C104.103 203.714 110.207 190.119 114.028 176.236L114.186 175.659C123.623 141.28 108.22 105.769 73.9924 82.9835C27.3932 51.9637 -27.685 30.5667 -85.2863 21.1097C-114.731 16.2769 -139.654 16.4577 -159.364 21.6519C-168.582 24.0821 -176.775 27.657 -183.717 32.2713C-194.572 39.4664 -202.98 49.5762 -209.431 63.1781C-213.384 71.5205 -216.171 80.2546 -218.157 86.9275C-228.584 122.004 -235.315 158.005 -238.156 193.928C-238.635 199.965 -238.94 205.375 -239.095 210.464C-239.168 212.93 -239.207 215.337 -239.207 217.697C-239.207 230.957 -238.034 242.626 -235.649 253.188C-233.415 263.079 -230.008 272.356 -225.528 280.756C-215.364 299.896 -197.497 316.219 -176.502 325.541C-165.493 330.426 -153.909 333.321 -142.068 334.137C-129.841 334.98 -116.756 333.72 -102.064 330.28ZM-141.785 331.636C-153.163 330.85 -164.31 328.066 -174.914 323.359C-195.298 314.306 -212.664 298.427 -222.561 279.792C-226.951 271.56 -230.288 262.462 -232.483 252.754C-235.254 240.475 -236.366 226.665 -235.88 210.524C-235.729 205.466 -235.424 200.088 -234.948 194.083C-232.117 158.299 -225.412 122.439 -215.027 87.4974C-213.063 80.8922 -210.308 72.2611 -206.416 64.0493C-200.164 50.8641 -192.058 41.0932 -181.635 34.1843C-175.004 29.7759 -167.164 26.3591 -158.335 24.0319C-139.178 18.9833 -114.825 18.8251 -85.9485 23.5674C-28.8678 32.9391 25.7154 54.1453 71.9064 84.894C98.7544 102.766 113.7 128.672 113.7 155.572C113.7 158.818 113.482 162.082 113.041 165.348C112.601 168.612 111.936 171.878 111.042 175.134L110.888 175.706C107.121 189.386 101.107 202.785 93.0107 215.53C90.9857 218.714 88.8065 221.895 86.5341 224.982L86.3284 225.259C79.2701 234.794 71.0385 243.844 61.8588 252.156C52.5956 260.541 42.3295 268.213 31.3466 274.957C2.22936 292.829 -32.172 304.786 -65.4388 316.347C-88.5713 324.388 -114.789 333.499 -141.785 331.636Z" fill="url(#paint2_linear_79_1849)"/>
<path d="M-99.7148 321.7C-87.8577 318.923 -76.4924 315.084 -63.9313 310.719C-32.3488 299.743 0.307269 288.393 28.1003 271.331C38.6557 264.852 48.5136 257.478 57.4008 249.42C66.2044 241.431 74.0952 232.737 80.8514 223.577L81.0475 223.308C83.2267 220.343 85.3095 217.285 87.2444 214.225C94.9713 201.986 100.68 189.117 104.212 175.975L104.354 175.435C113.122 142.974 98.5455 109.489 66.3137 88.0447C22.3566 58.8048 -29.5942 38.633 -83.9171 29.7131C-111.758 25.144 -135.322 25.3248 -153.951 30.2529C-162.665 32.5626 -170.404 35.9517 -176.961 40.325C-187.202 47.131 -195.137 56.6835 -201.222 69.5297C-204.954 77.4076 -207.58 85.6496 -209.453 91.9485C-219.292 125.052 -225.64 159.024 -228.324 192.923C-228.774 198.632 -229.063 203.749 -229.208 208.561C-229.278 210.871 -229.314 213.13 -229.314 215.342C-229.314 227.905 -228.195 238.958 -225.926 248.963C-223.801 258.309 -220.565 267.076 -216.306 275.019C-206.692 293.075 -189.812 308.469 -169.99 317.253C-159.598 321.858 -148.657 324.582 -137.475 325.35C-125.936 326.141 -113.584 324.948 -99.7148 321.7ZM-137.195 322.849C-147.915 322.114 -158.415 319.495 -168.405 315.069C-187.616 306.556 -203.992 291.606 -213.339 274.053C-217.508 266.278 -220.68 257.689 -222.76 248.526C-225.392 236.922 -226.453 223.868 -225.997 208.619C-225.852 203.839 -225.563 198.755 -225.116 193.079C-222.442 159.318 -216.12 125.484 -206.323 92.5158C-204.471 86.2898 -201.874 78.1457 -198.207 70.4008C-192.319 57.9688 -184.688 48.7578 -174.875 42.2355C-168.63 38.0681 -161.244 34.8371 -152.919 32.6329C-134.843 27.8478 -111.848 27.6922 -84.5792 32.1709C-30.7771 41.0054 20.6788 60.9865 64.2309 89.9577C89.5394 106.796 103.65 131.265 103.65 156.689C103.65 162.74 102.849 168.85 101.21 174.916L101.065 175.46C97.5877 188.397 91.9693 201.065 84.3613 213.113C82.4585 216.128 80.4047 219.138 78.2608 222.058L78.0647 222.321C71.4114 231.347 63.6363 239.912 54.9644 247.78C46.2122 255.719 36.5054 262.976 26.1139 269.358C-1.3641 286.226 -33.837 297.511 -65.2395 308.424C-87.0445 316.003 -111.758 324.594 -137.195 322.849Z" fill="url(#paint3_linear_79_1849)"/>
<path d="M-97.3652 313.119C-86.2185 310.508 -75.5377 306.898 -63.7321 302.795C-34.0137 292.467 -3.28618 281.785 22.8708 265.73C32.8316 259.615 42.1302 252.656 50.5063 245.041C58.8086 237.497 66.2398 229.285 72.5942 220.634L72.7774 220.381C74.8248 217.584 76.7823 214.697 78.5983 211.802C85.8366 200.257 91.1497 188.116 94.3928 175.716L94.5246 175.209C102.624 144.669 88.874 113.207 58.635 93.1083C17.3167 65.6435 -31.5035 46.6992 -82.5479 38.3166C-108.788 34.0086 -130.989 34.1919 -148.541 38.8564C-156.744 41.0405 -164.037 44.2464 -170.208 48.3812C-179.831 54.7931 -187.292 63.7882 -193.013 75.8813C-196.52 83.2923 -198.991 91.0447 -200.749 96.9695C-209.997 128.097 -215.965 160.043 -218.488 191.919C-218.916 197.297 -219.186 202.117 -219.324 206.656C-219.388 208.812 -219.421 210.921 -219.421 212.987C-219.421 224.852 -218.36 235.288 -216.203 244.738C-214.191 253.542 -211.122 261.801 -207.085 269.285C-198.021 286.256 -182.126 300.719 -163.481 308.964C-153.7 313.289 -143.408 315.845 -132.885 316.561C-122.028 317.301 -110.412 316.174 -97.3652 313.119ZM-132.606 314.06C-142.666 313.375 -152.521 310.924 -161.896 306.78C-179.934 298.804 -195.321 284.785 -204.121 268.316C-208.068 260.998 -211.07 252.917 -213.04 244.296C-215.531 233.37 -216.537 221.076 -216.11 206.714C-215.975 202.21 -215.705 197.42 -215.281 192.075C-212.77 160.337 -206.827 128.529 -197.619 97.5369C-195.88 91.6849 -193.444 84.0304 -189.998 76.7499C-184.473 65.0736 -177.315 56.4173 -168.116 50.2892C-162.253 46.3603 -155.32 43.3125 -147.506 41.2313C-130.507 36.7149 -108.875 36.5618 -83.21 40.7744C-32.6895 49.0691 15.6421 67.8276 56.5522 95.0188C80.3275 110.822 93.5989 133.861 93.5989 157.807C93.5989 163.412 92.8693 169.076 91.3779 174.7L91.2429 175.214C88.0576 187.405 82.8314 199.343 75.712 210.698C73.9249 213.545 71.9996 216.384 69.9875 219.136L69.8043 219.387C63.5527 227.9 56.2405 235.981 48.07 243.407C39.8288 250.896 30.6813 257.742 20.8845 263.757C-4.95756 279.619 -35.5019 290.235 -65.037 300.501C-85.5178 307.618 -108.731 315.687 -132.606 314.06Z" fill="url(#paint4_linear_79_1849)"/>
<path d="M-63.5328 294.87C-35.6787 285.189 -6.87964 275.18 17.6381 260.132C27.0075 254.38 35.7468 247.831 43.6151 240.666C51.4127 233.566 58.3843 225.836 64.3338 217.694L64.5073 217.456C66.4262 214.822 68.2583 212.104 69.9521 209.38C76.7051 198.527 81.6228 187.112 84.5767 175.455L84.6249 175.262C84.6474 175.169 84.6699 175.076 84.6956 174.983C92.1268 146.364 79.1993 116.925 50.9563 98.1695C12.2769 72.4846 -33.4127 54.7629 -81.1786 46.9201C-105.815 42.8782 -126.659 43.0565 -143.129 47.4574C-150.788 49.5059 -157.625 52.5286 -163.455 56.4399C-172.481 62.4953 -179.462 70.9331 -184.804 82.2328C-188.089 89.1819 -190.4 96.4423 -192.049 101.99C-200.704 131.142 -206.294 161.063 -208.656 190.915C-209.055 195.971 -209.312 200.498 -209.437 204.753C-209.495 206.754 -209.527 208.709 -209.527 210.63C-209.527 221.797 -208.521 231.62 -206.48 240.512C-204.597 248.692 -201.698 256.444 -197.86 263.554C-189.271 279.47 -174.367 293.002 -156.969 300.677C-147.802 304.719 -138.153 307.106 -128.292 307.774C-105.15 309.335 -83.0397 301.651 -63.5328 294.87ZM-128.016 305.273C-137.417 304.636 -146.626 302.356 -155.388 298.49C-172.179 291.084 -186.581 277.994 -194.9 262.58C-198.644 255.638 -201.476 248.064 -203.318 240.068C-205.67 229.818 -206.622 218.282 -206.223 204.811C-206.098 200.588 -205.844 196.094 -205.448 191.071C-203.096 161.356 -197.535 131.577 -188.918 102.558C-187.292 97.0799 -185.01 89.92 -181.789 83.1015C-176.643 72.2134 -169.961 64.1145 -161.36 58.3429C-155.841 54.6424 -149.358 51.7779 -142.091 49.8323C-126.174 45.582 -105.902 45.4289 -81.8407 49.3779C-34.5987 57.1354 10.6023 74.6687 48.8768 100.083C71.1157 114.852 83.5481 136.457 83.5481 158.926C83.5481 161.509 83.3842 164.103 83.0499 166.699C82.7189 169.295 82.2175 171.893 81.5425 174.484C81.5168 174.584 81.4943 174.685 81.4686 174.785L81.4236 174.971C78.5244 186.414 73.6934 197.623 67.0626 208.283C65.3977 210.959 63.5977 213.627 61.7142 216.216L61.5439 216.449C55.694 224.455 48.8382 232.052 41.1756 239.031C33.4423 246.073 24.8572 252.508 15.6518 258.156C-8.55101 273.013 -37.1669 282.96 -64.8377 292.578C-83.991 299.233 -105.7 306.78 -128.016 305.273Z" fill="url(#paint5_linear_79_1849)"/>
<path d="M-63.3335 286.947C-37.3436 277.914 -10.4699 268.575 12.4087 254.531C21.1834 249.144 29.3635 243.008 36.7239 236.29C44.0169 229.632 50.5256 222.387 56.0765 214.752L56.2405 214.529C58.0275 212.058 59.731 209.51 61.306 206.957C67.5737 196.795 72.0992 186.107 74.7573 175.197L74.8023 175.011C74.8216 174.926 74.8409 174.843 74.8634 174.757C81.6293 148.056 69.5279 120.646 43.2777 103.231C7.24028 79.3257 -35.3251 62.8292 -79.8094 55.5261C-102.842 51.7453 -122.327 51.9236 -137.719 56.0609C-144.861 57.9839 -151.248 60.8208 -156.699 64.4961C-165.114 70.1674 -171.622 78.0453 -176.598 88.5844C-179.655 95.0665 -181.808 101.837 -183.345 107.011C-191.412 134.188 -196.619 162.079 -198.821 189.911C-199.194 194.636 -199.435 198.866 -199.55 202.847C-199.605 204.695 -199.634 206.503 -199.634 208.275C-199.631 218.746 -198.686 227.952 -196.757 236.287C-194.99 243.909 -192.257 251.152 -188.638 257.82C-180.584 272.659 -166.666 285.26 -150.46 292.389C-141.904 296.15 -132.904 298.369 -123.702 298.985C-102.122 300.428 -81.5129 293.266 -63.3335 286.947ZM-123.426 296.484C-132.168 295.899 -140.731 293.785 -148.882 290.203C-164.484 283.339 -177.897 271.178 -185.678 256.841C-189.204 250.344 -191.869 243.279 -193.595 235.84C-195.809 226.263 -196.706 215.49 -196.336 202.905C-196.221 198.956 -195.986 194.756 -195.613 190.066C-193.421 162.373 -188.24 134.619 -180.214 107.579C-178.7 102.475 -176.576 95.8021 -173.58 89.453C-168.8 79.3232 -162.591 71.7816 -154.6 66.3966C-149.457 62.9321 -143.424 60.2534 -136.675 58.4333C-121.838 54.4466 -102.929 54.296 -80.4715 57.9814C-36.5079 65.2016 5.56569 81.5098 41.1981 105.144C61.9038 118.881 73.4974 139.058 73.4974 160.048C73.4974 162.408 73.3527 164.778 73.0538 167.153C72.7581 169.525 72.3114 171.9 71.7103 174.27C71.6878 174.366 71.6653 174.459 71.6428 174.554L71.601 174.725C68.9943 185.424 64.5555 195.901 58.4132 205.868C56.8672 208.373 55.1926 210.871 53.4409 213.294L53.2802 213.512C47.8322 221.008 41.4391 228.123 34.2812 234.658C27.0589 241.251 19.0331 247.271 10.4223 252.558C-12.1412 266.408 -38.8318 275.685 -64.6385 284.655C-82.4675 290.851 -102.672 297.872 -123.426 296.484Z" fill="url(#paint6_linear_79_1849)"/>
<path d="M-63.1342 279.024C-39.0086 270.638 -14.0633 261.97 7.1792 248.93C15.3593 243.909 22.9801 238.183 29.8295 231.914C36.6179 225.7 42.6702 218.937 47.8193 211.812L47.9704 211.601C49.6257 209.299 51.2038 206.919 52.6631 204.534C58.4422 195.06 62.5724 185.101 64.9412 174.933L64.9798 174.762C64.9959 174.685 65.0152 174.607 65.0345 174.529C68.0172 162.411 66.9051 149.888 61.8138 138.317C56.6744 126.634 47.6072 116.25 35.599 108.292C2.20042 86.1668 -37.2343 70.8954 -78.4434 64.1296C-99.8723 60.6099 -117.994 60.7906 -132.31 64.6618C-138.937 66.4594 -144.871 69.113 -149.946 72.5523C-157.747 77.8395 -163.78 85.1601 -168.389 94.936C-171.224 100.954 -173.22 107.232 -174.644 112.032C-182.12 137.235 -186.944 163.099 -188.989 188.907C-189.336 193.3 -189.558 197.239 -189.667 200.942C-189.715 202.636 -189.741 204.293 -189.741 205.92C-189.741 215.694 -188.847 224.285 -187.038 232.062C-185.382 239.124 -182.817 245.862 -179.414 252.088C-171.896 265.848 -158.968 277.517 -143.948 284.102C-136.009 287.582 -127.652 289.633 -119.109 290.198C-99.0912 291.521 -79.9894 284.883 -63.1342 279.024ZM-118.839 287.695C-126.92 287.16 -134.839 285.214 -142.377 281.913C-156.789 275.592 -169.212 264.362 -176.46 251.102C-179.767 245.046 -182.261 238.489 -183.875 231.613C-185.948 222.71 -186.79 212.696 -186.453 201C-186.343 197.329 -186.125 193.423 -185.781 189.06C-183.746 163.392 -178.948 137.667 -171.513 112.6C-170.109 107.87 -168.145 101.689 -165.371 95.8021C-160.958 86.4354 -155.22 79.4512 -147.841 74.4503C-143.074 71.2218 -137.494 68.7263 -131.256 67.0343C-117.502 63.3137 -99.9527 63.1631 -79.1023 66.5849C-38.4172 73.2653 0.529049 88.3509 33.5194 110.207C45.0872 117.872 53.8202 127.876 58.7732 139.133C61.8845 146.205 63.4563 153.644 63.4563 161.123C63.4563 163.282 63.3245 165.446 63.0609 167.605C62.8006 169.764 62.4053 171.918 61.8781 174.057C61.8556 174.147 61.8331 174.238 61.8138 174.328L61.7785 174.484C59.4611 184.433 55.4176 194.181 49.7607 203.452C48.3336 205.79 46.7876 208.117 45.1676 210.371L45.0197 210.577C39.9735 217.561 34.0401 224.192 27.3867 230.285C20.6723 236.428 13.2058 242.036 5.19285 246.957C-15.7347 259.803 -40.4967 268.409 -64.4392 276.731C-80.9408 282.465 -99.6441 288.965 -118.839 287.695Z" fill="url(#paint7_linear_79_1849)"/>
<path d="M-62.9349 271.1C-40.6768 263.366 -17.6568 255.365 1.94651 243.332C9.53519 238.672 16.6 233.358 22.9383 227.536C29.222 221.767 34.8147 215.485 39.5749 208.85L39.7003 208.674C41.227 206.535 42.6798 204.326 44.0169 202.109C49.3139 193.325 53.0488 184.091 55.1251 174.67L55.1573 174.514C55.1733 174.444 55.1862 174.373 55.2023 174.303L55.2023 174.3C57.8604 163.124 56.7836 151.603 52.0877 140.981C47.3307 130.221 38.9739 120.669 27.9203 113.353C-2.83941 93.0054 -39.1436 78.9591 -77.0741 72.7331C-96.8992 69.477 -113.664 69.6577 -126.9 73.2653C-133.014 74.9348 -138.494 77.4077 -143.193 80.6111C-150.383 85.509 -155.937 92.2723 -160.18 101.288C-162.79 106.838 -164.628 112.63 -165.94 117.053C-172.825 140.281 -177.27 164.118 -179.153 187.902C-179.475 191.964 -179.68 195.607 -179.78 199.039C-179.825 200.578 -179.848 202.087 -179.848 203.568C-179.848 212.643 -179.012 220.619 -177.315 227.839C-175.772 234.344 -173.377 240.573 -170.192 246.354C-163.208 259.035 -151.267 269.772 -137.436 275.813C-130.108 279.011 -122.397 280.894 -114.516 281.409C-96.0603 282.614 -78.4627 276.498 -62.9349 271.1ZM-114.249 278.908C-121.671 278.424 -128.945 276.644 -135.868 273.623C-149.094 267.847 -160.527 257.546 -167.238 245.363C-170.33 239.752 -172.657 233.704 -174.152 227.383C-176.087 219.158 -176.878 209.904 -176.566 199.094C-176.466 195.697 -176.264 192.087 -175.946 188.055C-174.075 164.412 -169.655 140.712 -162.809 117.618C-161.52 113.265 -159.711 107.574 -157.162 102.154C-153.112 93.5452 -147.85 87.1183 -141.081 82.5015C-136.691 79.5089 -131.561 77.1993 -125.84 75.6352C-113.166 72.1783 -96.9795 72.0302 -77.733 75.1884C-40.3264 81.3316 -4.51078 95.192 25.844 115.269C36.4572 122.293 44.4798 131.466 49.0471 141.8C51.9463 148.359 53.412 155.276 53.412 162.232C53.412 164.171 53.2995 166.111 53.0713 168.049C52.8431 169.987 52.4991 171.921 52.0427 173.844C52.0234 173.931 52.0042 174.019 51.9849 174.107L51.9559 174.243C49.931 183.444 46.2797 192.459 41.1113 201.04C39.8031 203.204 38.3857 205.36 36.8943 207.452L36.7561 207.642C32.1148 214.117 26.6411 220.263 20.4891 225.911C14.289 231.605 7.3817 236.802 -0.0398512 241.356C-19.3314 253.198 -42.1617 261.134 -64.2399 268.806C-79.414 274.08 -96.6131 280.058 -114.249 278.908Z" fill="url(#paint8_linear_79_1849)"/>
<path d="M-62.7357 263.177C-42.3385 256.09 -21.2502 248.759 -3.28297 237.731C3.71108 233.435 10.2166 228.535 16.0471 223.16C21.8294 217.833 26.9625 212.033 31.3048 205.925L31.4302 205.747C32.8284 203.774 34.1558 201.733 35.374 199.684C40.1856 191.588 43.5251 183.08 45.3058 174.401L45.3347 174.265C45.3476 174.2 45.3604 174.137 45.3733 174.072C47.7036 163.839 46.659 153.318 42.3584 143.645C37.9903 133.811 30.3406 125.087 20.2416 118.414C-7.87603 99.8465 -41.056 87.0254 -75.7049 81.3366C-93.9293 78.3441 -109.332 78.5223 -121.491 81.8663C-127.09 83.4128 -132.12 85.6998 -136.44 88.6672C-143.016 93.1836 -148.098 99.3871 -151.971 107.639C-154.359 112.728 -156.04 118.028 -157.239 122.074C-163.532 143.328 -167.598 165.137 -169.318 186.898C-169.614 190.629 -169.803 193.978 -169.893 197.133C-169.932 198.522 -169.954 199.88 -169.954 201.216C-169.954 209.591 -169.176 216.954 -167.592 223.614C-166.165 229.562 -163.937 235.286 -160.967 240.623C-154.517 252.224 -143.566 262.03 -130.925 267.528C-124.21 270.443 -117.145 272.157 -109.923 272.622C-93.0293 273.706 -76.9359 268.113 -62.7357 263.177ZM-109.659 270.119C-116.422 269.684 -123.05 268.075 -129.362 265.334C-141.4 260.099 -151.846 250.728 -158.02 239.624C-160.894 234.457 -163.05 228.916 -164.432 223.155C-166.226 215.606 -166.962 207.113 -166.679 197.191C-166.589 194.068 -166.406 190.752 -166.11 187.051C-164.4 165.431 -160.36 143.76 -154.108 122.639C-152.929 118.663 -151.28 113.461 -148.953 108.505C-145.269 100.655 -140.48 94.7853 -134.319 90.5526C-130.307 87.7986 -125.631 85.6722 -120.421 84.2337C-108.827 81.0454 -94.0064 80.8972 -76.3638 83.7919C-42.2356 89.3978 -9.5474 102.033 18.1653 120.332C27.8271 126.714 35.1426 135.059 39.3242 144.468C42.0113 150.516 43.3709 156.91 43.3709 163.35C43.3709 165.064 43.2744 166.782 43.0816 168.499C42.8887 170.216 42.5995 171.928 42.2105 173.633C42.1913 173.718 42.172 173.803 42.1559 173.889L42.1334 174.004C40.401 182.455 37.145 190.739 32.4587 198.627C31.2727 200.623 29.9806 202.609 28.6178 204.534L28.4956 204.708C24.2529 210.673 19.242 216.334 13.5947 221.536C7.90239 226.783 1.55759 231.568 -5.26933 235.758C-22.9216 246.593 -43.8266 253.858 -64.0406 260.883C-77.8905 265.698 -93.5854 271.153 -109.659 270.119Z" fill="url(#paint9_linear_79_1849)"/>
<path d="M-62.5364 255.254C-44.0034 248.815 -24.8437 242.154 -8.51567 232.13C-2.11302 228.201 3.83323 223.71 9.15591 218.782C14.4336 213.899 19.107 208.581 23.0476 202.983L23.1633 202.817C24.4297 201.01 25.6318 199.137 26.7311 197.256C31.0573 189.845 34.0047 182.065 35.4897 174.132L35.5122 174.009C35.5218 173.952 35.5315 173.896 35.5443 173.839C37.5468 164.555 36.5375 155.032 32.6323 146.306C28.6467 137.399 21.7073 129.506 12.563 123.478C-12.9159 106.688 -42.9652 95.0916 -74.3356 89.9401C-90.9594 87.2112 -105.002 87.3894 -116.085 90.4698C-121.166 91.8907 -125.743 93.9945 -129.69 96.726C-135.653 100.856 -140.255 106.502 -143.765 113.993C-145.925 118.615 -147.449 123.423 -148.535 127.096C-154.24 146.374 -157.924 166.156 -159.486 185.894C-159.756 189.296 -159.926 192.351 -160.01 195.231C-160.042 196.466 -160.061 197.673 -160.061 198.863C-160.061 206.543 -159.338 213.289 -157.869 219.392C-156.554 224.784 -154.494 229.998 -151.746 234.891C-145.829 245.413 -135.868 254.288 -124.413 259.241C-118.312 261.874 -111.893 263.421 -105.33 263.835C-89.9983 264.799 -75.4092 259.728 -62.5364 255.254ZM-105.073 261.332C-111.177 260.948 -117.158 259.504 -122.857 257.042C-133.708 252.352 -143.164 243.909 -148.802 233.882C-151.457 229.162 -153.443 224.129 -154.709 218.925C-156.365 212.053 -157.046 204.321 -156.795 195.286C-156.715 192.439 -156.545 189.419 -156.278 186.047C-154.726 166.448 -151.068 146.803 -145.404 127.66C-144.337 124.058 -142.846 119.348 -140.744 114.854C-137.424 107.765 -133.11 102.45 -127.556 98.6038C-123.921 96.0858 -119.694 94.1452 -115.005 92.8347C-104.491 89.9125 -91.0301 89.7643 -74.9978 92.3979C-44.1448 97.4615 -14.584 108.874 10.4898 125.396C19.1938 131.135 25.8022 138.651 29.5981 147.134C32.0795 152.675 33.333 158.552 33.333 164.477C33.333 165.968 33.2526 167.462 33.0951 168.956C32.9344 170.447 32.6934 171.938 32.3752 173.422C32.3591 173.505 32.343 173.587 32.3302 173.668L32.3109 173.768C30.8677 181.468 28.0071 189.02 23.8061 196.215C22.739 198.04 21.5755 199.857 20.3445 201.612L20.232 201.773C16.391 207.228 11.8398 212.405 6.70028 217.162C1.51581 221.96 -4.26972 226.333 -10.4988 230.157C-26.5151 239.988 -45.4916 246.583 -63.8413 252.959C-76.3638 257.313 -90.5576 262.246 -105.073 261.332Z" fill="url(#paint10_linear_79_1849)"/>
<path d="M-62.3371 247.331C-45.6684 241.537 -28.4339 235.549 -13.7451 226.531C-7.93388 222.964 -2.54692 218.884 2.26472 214.403C7.03777 209.962 11.2516 205.129 14.7904 200.041L14.8964 199.89C16.0343 198.241 17.111 196.538 18.0881 194.829C21.9355 188.101 24.4876 181.046 25.6768 173.859L25.6929 173.743C25.6993 173.698 25.7057 173.65 25.7154 173.605C27.39 165.265 26.4161 156.747 22.9062 148.97C19.3063 140.989 13.074 133.924 4.88427 128.539C-17.9557 113.529 -44.8744 103.155 -72.9664 98.5436C-87.9895 96.0783 -100.676 96.2565 -110.678 99.0733C-115.246 100.366 -119.373 102.289 -122.937 104.785C-128.289 108.528 -132.416 113.617 -135.556 120.345C-137.491 124.5 -138.86 128.818 -139.834 132.117C-144.948 149.419 -148.249 167.176 -149.65 184.887C-149.895 187.968 -150.049 190.727 -150.123 193.325C-150.152 194.41 -150.168 195.472 -150.168 196.516C-150.168 203.498 -149.502 209.623 -148.143 215.166C-146.947 220.004 -145.054 224.714 -142.521 229.162C-137.141 238.602 -128.167 246.545 -117.901 250.954C-112.411 253.306 -106.638 254.682 -100.737 255.046C-86.9674 255.892 -73.8824 251.343 -62.3371 247.331ZM7.89596 134.25C13.164 138.702 17.2557 143.996 19.8752 149.803C22.1476 154.839 23.2983 160.201 23.2983 165.617C23.2983 168.147 23.0476 170.69 22.5398 173.216C22.5237 173.294 22.5141 173.372 22.5012 173.452L22.4883 173.537C21.3409 180.481 18.8724 187.3 15.1536 193.805C14.2086 195.456 13.1704 197.103 12.068 198.695L11.9683 198.841C8.53237 203.784 4.43751 208.478 -0.197351 212.791C-4.86755 217.137 -10.0938 221.096 -15.7315 224.556C-30.1053 233.38 -47.1565 239.307 -63.6421 245.036C-74.8403 248.928 -87.5299 253.339 -100.486 252.543C-105.928 252.209 -111.267 250.934 -116.351 248.752C-126.016 244.602 -134.483 237.091 -139.584 228.141C-142.02 223.868 -143.839 219.341 -144.987 214.694C-146.504 208.499 -147.13 201.529 -146.909 193.38C-146.838 190.815 -146.684 188.088 -146.443 185.043C-145.054 167.467 -141.776 149.851 -136.7 132.681C-135.749 129.453 -134.412 125.23 -132.535 121.203C-129.581 114.874 -125.74 110.117 -120.793 106.655C-117.534 104.375 -113.761 102.618 -109.586 101.433C-100.155 98.777 -88.057 98.6314 -73.6285 101.001C-46.0541 105.528 -19.6206 115.715 2.81434 130.46C4.61106 131.64 6.30816 132.907 7.89596 134.25Z" fill="url(#paint11_linear_79_1849)"/>
<path d="M-62.1378 239.408C-47.3333 234.264 -32.0274 228.944 -18.9746 220.931C-13.758 217.727 -8.93028 214.059 -4.62649 210.025C-0.354852 206.026 3.39931 201.675 6.53957 197.091L6.62957 196.958C7.63882 195.474 8.58701 193.943 9.44841 192.399C12.8137 186.351 14.9704 180.019 15.8607 173.58L15.8736 173.472C15.8768 173.437 15.88 173.402 15.8864 173.367C18.6892 157.97 11.7048 143.102 -2.79763 133.598C-22.9955 120.367 -46.7869 111.222 -71.5971 107.147C-85.0196 104.943 -96.3496 105.121 -105.272 107.677C-109.328 108.847 -112.999 110.584 -116.191 112.846C-120.925 116.202 -124.573 120.731 -127.347 126.699C-129.06 130.389 -130.269 134.215 -131.13 137.138C-135.653 152.467 -138.577 168.195 -139.818 183.883C-140.037 186.635 -140.172 189.1 -140.236 191.422C-140.262 192.353 -140.275 193.27 -140.275 194.169C-140.275 200.452 -139.664 205.963 -138.42 210.946C-137.337 215.232 -135.614 219.432 -133.293 223.433C-128.379 231.914 -120.597 238.745 -111.386 242.666C-106.51 244.738 -101.383 245.945 -96.1439 246.259C-83.9364 246.985 -71.8478 242.782 -62.1378 239.408ZM-95.8996 243.756C-100.682 243.47 -105.375 242.363 -109.849 240.462C-118.325 236.855 -125.804 230.27 -130.365 222.397C-132.583 218.573 -134.232 214.556 -135.267 210.462C-136.643 204.946 -137.218 198.735 -137.022 191.475C-136.961 189.188 -136.826 186.755 -136.61 184.039C-135.379 168.486 -132.483 152.896 -128 137.7C-127.157 134.848 -125.981 131.117 -124.326 127.555C-121.735 121.982 -118.367 117.779 -114.031 114.704C-111.148 112.66 -107.827 111.089 -104.163 110.032C-95.816 107.644 -85.0839 107.499 -72.2593 109.605C-47.9633 113.594 -24.6573 122.557 -4.86112 135.523C6.79029 143.16 13.2797 154.498 13.2797 166.696C13.2797 168.78 13.0901 170.891 12.7044 173.013C12.6915 173.088 12.6819 173.163 12.6722 173.239L12.6626 173.311C11.8108 179.497 9.73769 185.583 6.501 191.397C5.67496 192.881 4.76214 194.354 3.79145 195.78L3.70145 195.908C0.667273 200.342 -2.96476 204.549 -7.09498 208.418C-11.2541 212.317 -15.9211 215.862 -20.961 218.957C-33.702 226.777 -48.8215 232.032 -63.4428 237.113C-73.3135 240.545 -84.5021 244.431 -95.8996 243.756Z" fill="url(#paint12_linear_79_1849)"/>
<path d="M-61.9385 231.485C-48.9983 226.988 -35.6208 222.339 -24.2073 215.33C-19.5821 212.493 -15.3104 209.234 -11.5145 205.647C-7.74746 202.089 -4.45294 198.221 -1.71446 194.143L-1.63731 194.025C-0.756631 192.707 0.0661995 191.342 0.808677 189.966C3.69501 184.594 5.4596 178.985 6.04458 173.294L6.05422 173.193C6.05422 173.171 6.05744 173.146 6.06065 173.123C8.18202 159.687 1.99795 146.803 -10.4763 138.659C-28.0354 127.208 -48.6961 119.288 -70.2279 115.751C-82.0529 113.81 -92.0265 113.988 -99.8691 116.28C-103.411 117.325 -106.632 118.881 -109.444 120.907C-113.561 123.877 -116.734 127.849 -119.141 133.05C-120.626 136.274 -121.681 139.61 -122.429 142.159C-126.36 155.512 -128.903 169.214 -129.983 182.879C-130.176 185.299 -130.295 187.471 -130.352 189.517C-130.372 190.302 -130.381 191.071 -130.381 191.829C-130.381 197.41 -129.828 202.303 -128.697 206.726C-127.726 210.462 -126.171 214.155 -124.069 217.707C-119.697 225.088 -112.88 231.01 -104.87 234.382C-100.608 236.169 -96.1278 237.209 -91.5476 237.47C-80.9022 238.077 -70.3854 234.419 -61.9385 231.485ZM-91.3129 234.967C-95.44 234.731 -99.4866 233.789 -103.347 232.17C-110.746 229.057 -117.071 223.546 -121.15 216.653C-123.149 213.278 -124.628 209.771 -125.547 206.229C-126.781 201.391 -127.302 195.941 -127.138 189.569C-127.084 187.556 -126.965 185.419 -126.775 183.034C-125.705 169.505 -123.188 155.941 -119.296 142.721C-118.566 140.243 -117.547 136.999 -116.117 133.904C-113.889 129.089 -110.993 125.444 -107.262 122.752C-104.758 120.947 -101.888 119.559 -98.7409 118.63C-91.4801 116.509 -82.1075 116.366 -70.89 118.208C-49.8693 121.66 -29.6939 129.398 -12.5366 140.587C-2.41834 147.192 3.25468 157.164 3.25468 167.931C3.25468 169.543 3.12933 171.175 2.86898 172.814C2.85934 172.89 2.84968 172.962 2.84647 173.035L2.84005 173.093C2.28077 178.518 0.599754 183.868 -2.15479 188.992C-2.86192 190.305 -3.64617 191.608 -4.48829 192.866L-4.5622 192.979C-7.19462 196.9 -10.367 200.623 -13.9926 204.047C-17.6439 207.497 -21.7484 210.627 -26.1937 213.356C-37.2954 220.172 -50.4864 224.757 -63.2435 229.19C-71.79 232.16 -81.4743 235.527 -91.3129 234.967Z" fill="url(#paint13_linear_79_1849)"/>
<path d="M-61.7393 223.562C-50.6664 219.713 -39.2175 215.734 -29.4367 209.731C-25.4029 207.253 -21.6906 204.406 -18.4025 201.266C-15.1401 198.15 -12.3019 194.761 -9.96845 191.191L-9.90096 191.088C-9.14884 189.931 -8.45138 188.733 -7.83103 187.528C-5.41718 182.826 -4.05116 177.936 -3.77152 172.995L-3.77152 172.862C-3.08047 167.379 -3.94509 161.879 -6.26572 156.958C-8.7535 151.678 -12.7552 147.225 -18.1582 143.72C-33.0752 134.047 -50.6085 127.352 -68.8586 124.354C-79.0894 122.677 -87.7034 122.855 -94.4725 124.886C-97.5002 125.805 -100.268 127.181 -102.701 128.971C-106.201 131.554 -108.895 134.966 -110.932 139.404C-112.195 142.166 -113.089 145.01 -113.725 147.18C-117.068 158.56 -119.228 170.233 -120.151 181.875C-120.314 183.966 -120.417 185.841 -120.466 187.614C-120.482 188.251 -120.488 188.876 -120.488 189.492C-120.488 194.374 -119.99 198.645 -118.974 202.506C-118.116 205.694 -116.727 208.885 -114.841 211.983C-111.016 218.264 -105.16 223.278 -98.3488 226.097C-94.7039 227.603 -90.8694 228.472 -86.9513 228.683C-77.8712 229.167 -68.9262 226.059 -61.7393 223.562ZM-86.7295 226.177C-90.1976 225.992 -93.6015 225.218 -96.8446 223.878C-103.048 221.31 -108.406 216.703 -111.938 210.904C-113.716 207.984 -115.024 204.986 -115.824 201.996C-116.92 197.836 -117.386 193.152 -117.251 187.664C-117.206 185.929 -117.104 184.086 -116.943 182.03C-116.033 170.525 -113.896 158.986 -110.595 147.739C-109.978 145.638 -109.113 142.887 -107.908 140.251C-106.044 136.194 -103.617 133.101 -100.493 130.799C-98.3649 129.229 -95.9478 128.027 -93.3122 127.229C-87.1377 125.373 -79.1344 125.233 -69.5208 126.812C-51.7785 129.724 -34.7273 136.239 -20.2121 145.651C-15.2494 148.872 -11.5723 152.966 -9.28062 157.824C-7.60924 161.374 -6.75106 165.248 -6.75106 169.197C-6.75106 170.334 -6.82178 171.481 -6.96642 172.626C-6.97605 172.699 -6.97927 172.772 -6.98249 172.844L-6.98249 172.885C-7.24604 177.542 -8.53494 182.153 -10.8138 186.592C-11.3988 187.729 -12.0545 188.859 -12.7648 189.953L-12.8291 190.051C-15.0597 193.461 -17.7725 196.699 -20.8903 199.677C-24.0305 202.674 -27.5725 205.393 -31.4231 207.755C-40.8889 213.567 -52.1514 217.481 -63.0442 221.267C-70.2633 223.775 -78.4466 226.619 -86.7295 226.177Z" fill="url(#paint14_linear_79_1849)"/>
<path d="M-61.5368 215.636C-52.3314 212.437 -42.8077 209.129 -34.6662 204.13C-31.2238 202.016 -28.0707 199.579 -25.2872 196.885C-22.5295 194.209 -20.1478 191.302 -18.2193 188.241L-18.1614 188.148C-17.5378 187.154 -16.9657 186.122 -16.4643 185.083C-14.5808 181.164 -13.5876 176.954 -13.5876 172.869C-13.5876 172.799 -13.5876 172.729 -13.5908 172.659C-13.5876 172.578 -13.5876 172.498 -13.5973 172.42C-14.5712 163.608 -16.7279 154.646 -25.8401 148.779C-38.1182 140.888 -52.521 135.418 -67.4927 132.96C-76.1516 131.537 -83.4125 131.717 -89.0759 133.492C-91.5861 134.281 -93.9003 135.473 -95.9606 137.04C-98.8405 139.231 -101.055 142.083 -102.727 145.761C-103.765 148.053 -104.501 150.406 -105.025 152.201C-107.776 161.605 -109.553 171.25 -110.315 180.87C-110.457 182.63 -110.543 184.214 -110.579 185.711C-110.592 186.21 -110.598 186.7 -110.598 187.184C-110.598 191.384 -110.154 195.03 -109.248 198.288C-108.518 200.917 -107.294 203.601 -105.606 206.264C-102.331 211.443 -97.436 215.543 -91.8272 217.812C-88.7962 219.038 -85.6046 219.738 -82.3486 219.896C-74.8371 220.26 -67.4637 217.697 -61.5368 215.636ZM-82.1493 217.391C-84.9585 217.253 -87.7195 216.645 -90.3519 215.583C-95.3564 213.56 -99.7502 209.854 -102.727 205.152C-104.295 202.672 -105.433 200.184 -106.108 197.756C-107.062 194.314 -107.474 190.39 -107.365 185.758C-107.329 184.297 -107.246 182.751 -107.107 181.026C-106.359 171.541 -104.604 162.032 -101.891 152.76C-101.386 151.031 -100.679 148.769 -99.6955 146.6C-98.1945 143.296 -96.2403 140.758 -93.7171 138.84C-91.9365 137.484 -90.0273 136.497 -87.877 135.822C-82.8147 134.235 -76.1806 134.097 -68.1515 135.415C-53.6877 137.79 -39.7607 143.082 -27.8843 150.714C-20.151 155.693 -17.8561 163.071 -16.8018 172.613C-16.8018 172.613 -16.805 172.613 -16.805 172.616L-16.805 172.696C-16.7664 176.53 -17.6954 180.499 -19.4728 184.199C-19.9389 185.163 -20.4692 186.12 -21.0477 187.044L-21.1024 187.129C-22.928 190.026 -25.178 192.778 -27.7911 195.308C-30.4203 197.856 -33.4031 200.161 -36.6526 202.157C-44.4791 206.96 -53.8163 210.206 -62.8449 213.344C-68.7398 215.392 -75.4252 217.715 -82.1493 217.391Z" fill="url(#paint15_linear_79_1849)"/>
<path d="M-61.3375 207.713C-53.9931 205.162 -46.398 202.521 -39.8989 198.529C-37.0447 196.779 -34.4477 194.751 -32.172 192.499C-29.9125 190.265 -27.9936 187.835 -26.4604 185.274L-26.4186 185.201C-25.9204 184.363 -25.4769 183.499 -25.0944 182.628C-23.6416 179.279 -23.0598 175.719 -23.4166 172.33C-23.4198 172.28 -23.423 172.187 -23.452 172.076C-23.558 171.629 -23.6609 171.18 -23.7669 170.733C-25.2101 164.557 -26.6983 158.173 -33.5284 153.835C-43.1613 147.727 -54.4334 143.482 -66.1234 141.564C-73.1978 140.401 -79.1087 140.584 -83.6921 142.103C-85.7235 142.779 -87.5363 143.763 -89.2301 145.116C-91.4865 146.916 -93.2157 149.205 -94.5207 152.118C-95.3339 153.945 -95.9092 155.806 -96.3238 157.224C-98.4806 164.65 -99.8819 172.269 -100.483 179.866C-100.595 181.3 -100.666 182.588 -100.692 183.808C-100.702 184.182 -100.705 184.548 -100.705 184.91C-100.705 188.422 -100.326 191.357 -99.522 194.078C-98.9016 196.177 -97.8409 198.356 -96.3688 200.553C-93.6432 204.622 -89.7123 207.811 -85.296 209.533C-82.8789 210.472 -80.3365 211.001 -77.7427 211.107C-71.7996 211.35 -65.9981 209.335 -61.3375 207.713ZM-77.5755 208.601C-79.729 208.514 -81.844 208.069 -83.8625 207.286C-87.6777 205.8 -91.1072 202.995 -93.5211 199.39C-94.8678 197.382 -95.8321 195.404 -96.3881 193.513C-97.2142 190.717 -97.5613 187.649 -97.4809 183.853C-97.452 182.67 -97.3845 181.418 -97.2752 180.022C-96.6838 172.558 -95.3081 165.074 -93.1868 157.779C-92.7947 156.426 -92.245 154.653 -91.4865 152.944C-90.3422 150.388 -88.8541 148.402 -86.9352 146.873C-85.5403 145.761 -84.0682 144.955 -82.4354 144.415C-78.4691 143.097 -73.2042 142.967 -66.7823 144.019C-55.5905 145.856 -44.7909 149.926 -35.5533 155.783C-29.6489 159.536 -28.3279 165.192 -26.9297 171.182C-26.8268 171.617 -26.7272 172.054 -26.6244 172.485L-26.6179 172.538C-26.2997 175.583 -26.8236 178.794 -28.1382 181.817C-28.4821 182.605 -28.8839 183.388 -29.3339 184.144L-29.3757 184.214C-30.7996 186.597 -32.5899 188.859 -34.6951 190.943C-36.8133 193.039 -39.2304 194.927 -41.8853 196.556C-48.0693 200.354 -55.4813 202.93 -62.6457 205.421C-67.2195 207.01 -72.4007 208.81 -77.5755 208.601Z" fill="url(#paint16_linear_79_1849)"/>
<path d="M-61.1382 199.79C-55.6613 197.887 -49.9947 195.916 -45.1284 192.931C-42.8624 191.54 -40.8182 189.916 -39.0504 188.108C-37.289 186.308 -35.8265 184.355 -34.7048 182.309L-34.6694 182.239C-34.2998 181.561 -33.9816 180.858 -33.718 180.147C-32.7216 177.413 -32.5642 174.569 -33.2584 171.948C-33.2681 171.898 -33.2906 171.795 -33.3452 171.669L-33.3452 171.667C-33.8048 170.658 -34.1905 169.573 -34.5666 168.526C-35.8105 165.047 -37.0961 161.447 -41.2199 158.888C-48.2108 154.563 -56.3491 151.548 -64.7542 150.167C-70.2536 149.263 -74.821 149.449 -78.3277 150.722C-79.848 151.274 -81.2204 152.088 -82.5189 153.207C-84.1164 154.588 -85.3956 156.36 -86.3181 158.479C-86.9031 159.837 -87.3209 161.206 -87.6198 162.245C-89.1884 167.698 -90.2073 173.289 -90.6476 178.862C-90.7376 179.972 -90.789 180.968 -90.8083 181.907C-90.8115 182.141 -90.8147 182.369 -90.8147 182.598C-90.8147 185.402 -90.4869 187.729 -89.7926 189.876C-89.2687 191.492 -88.3945 193.122 -87.1184 194.859C-85.5853 196.948 -82.8918 199.752 -78.7487 201.261C-76.9456 201.911 -75.0556 202.267 -73.1239 202.32C-68.7558 202.438 -64.5324 200.97 -61.1382 199.79ZM-73.0146 199.812C-74.5124 199.772 -75.9877 199.493 -77.3923 198.984C-80.7704 197.754 -83.03 195.384 -84.3317 193.611C-85.4567 192.075 -86.2249 190.651 -86.6749 189.261C-87.3563 187.159 -87.6456 184.835 -87.5941 181.945C-87.5749 181.046 -87.5266 180.09 -87.4399 179.018C-87.0092 173.577 -86.016 168.12 -84.4828 162.797C-84.065 161.341 -83.6921 160.257 -83.2711 159.285C-82.4932 157.495 -81.439 156.016 -80.134 154.892C-79.1312 154.026 -78.0962 153.406 -76.9713 152.999C-74.1106 151.959 -70.2215 151.834 -65.4131 152.622C-57.4933 153.925 -49.8179 156.77 -43.2192 160.854C-39.9118 162.905 -38.8189 165.963 -37.6618 169.202C-37.2826 170.264 -36.8904 171.361 -36.4147 172.425C-36.4115 172.43 -36.4115 172.433 -36.4115 172.438C-35.8169 174.685 -35.9551 177.112 -36.8101 179.46C-37.0351 180.067 -37.3083 180.672 -37.6297 181.265L-37.6554 181.312C-38.6775 183.175 -40.005 184.95 -41.6024 186.584C-43.2095 188.226 -45.0609 189.697 -47.1148 190.958C-51.666 193.749 -57.1462 195.655 -62.4464 197.497C-65.6991 198.627 -69.3858 199.908 -73.0146 199.812Z" fill="url(#paint17_linear_79_1849)"/>
<path d="M-60.9389 191.866C-57.3262 190.611 -53.5881 189.311 -50.3611 187.33C-48.6768 186.298 -47.1822 185.078 -45.9159 183.705C-44.6559 182.337 -43.6499 180.853 -42.9203 179.276L-44.4373 178.865L-42.9074 179.249C-42.6631 178.721 -42.4703 178.174 -42.3353 177.622C-41.8113 175.493 -42.1103 173.294 -43.1806 171.436C-44.0484 168.983 -45.498 165.943 -48.934 163.927C-53.2731 161.394 -58.2712 159.609 -63.3849 158.77C-67.3416 158.12 -70.5783 158.319 -73.0082 159.36C-74.0399 159.802 -74.9656 160.448 -75.8431 161.339C-76.7945 162.305 -77.5595 163.488 -78.1188 164.856C-78.3952 165.544 -78.6491 166.312 -78.9191 167.274C-79.8962 170.751 -80.5326 174.311 -80.8154 177.858C-80.8765 178.644 -80.9119 179.347 -80.9215 180.007C-80.9247 180.112 -80.9247 180.213 -80.9247 180.316C-80.9247 182.414 -80.6451 184.132 -80.0537 185.698C-79.6165 186.85 -78.8901 187.998 -77.8295 189.208C-76.2256 191.043 -74.2617 192.353 -72.1468 193.001C-70.9672 193.36 -69.7297 193.538 -68.4698 193.533C-65.6959 193.521 -63.0603 192.605 -60.9389 191.866ZM-70.9768 190.664C-72.4843 190.202 -73.9371 189.208 -75.1778 187.792C-76.0424 186.8 -76.6306 185.884 -76.9713 184.985C-77.4984 183.589 -77.733 182.015 -77.7073 180.034C-77.6977 179.419 -77.6655 178.757 -77.6077 178.013C-77.3345 174.594 -76.7206 171.162 -75.7788 167.811C-75.5313 166.922 -75.2999 166.224 -75.0556 165.612C-74.6121 164.527 -74.0207 163.603 -73.2975 162.87C-72.6868 162.253 -72.105 161.836 -71.4622 161.562C-69.7233 160.817 -67.2291 160.704 -64.047 161.228C-59.3865 161.991 -54.8256 163.621 -50.8625 165.938C-48.1754 167.512 -47.0215 169.985 -46.2437 172.197C-46.2019 172.322 -46.1408 172.418 -46.1087 172.47C-45.3116 173.866 -45.093 175.526 -45.4916 177.147C-45.5944 177.572 -45.7455 177.993 -45.9383 178.415L-45.9512 178.44C-46.5716 179.781 -47.4362 181.059 -48.5258 182.236C-49.6154 183.419 -50.9011 184.468 -52.3442 185.357C-55.2595 187.144 -58.8112 188.379 -62.2471 189.574C-64.1885 190.247 -66.3902 191.013 -68.4891 191.023C-69.3408 191.028 -70.1797 190.905 -70.9768 190.664Z" fill="url(#paint18_linear_79_1849)"/>
<path d="M-60.7397 183.943C-58.9912 183.336 -57.1784 182.706 -55.5906 181.729C-54.4752 181.046 -53.5206 180.218 -52.7524 179.264C-51.9842 178.312 -51.4378 177.283 -51.1292 176.203L-51.1196 176.171C-51.0103 175.777 -50.9525 175.37 -50.9525 174.966C-50.9525 173.319 -51.8749 171.76 -53.482 170.69C-55.9762 169.028 -58.9268 167.881 -62.0157 167.374C-64.5356 166.96 -66.4995 167.206 -67.8591 168.105C-68.4505 168.494 -68.9165 169.001 -69.2829 169.654C-69.6011 170.216 -69.794 170.801 -69.9419 171.3C-70.4851 173.121 -70.8322 174.988 -70.98 176.854C-71.0186 177.326 -71.0379 177.737 -71.0379 178.114C-71.0379 179.505 -70.7936 180.609 -70.2729 181.593C-69.8454 182.407 -69.1544 183.16 -68.3316 183.715C-67.3995 184.342 -66.313 184.717 -65.1977 184.794C-63.5231 184.91 -61.9803 184.375 -60.7397 183.943ZM-64.9117 182.294C-65.3552 182.261 -65.8116 182.096 -66.2327 181.814C-66.6762 181.516 -67.0652 181.086 -67.303 180.637C-67.6566 179.967 -67.8237 179.166 -67.8237 178.114C-67.8237 177.79 -67.8077 177.429 -67.7723 177.009C-67.6373 175.282 -67.3126 173.552 -66.8112 171.868C-66.6955 171.481 -66.5509 171.037 -66.342 170.663C-66.1748 170.369 -65.9948 170.158 -65.7859 170.02C-65.2363 169.659 -64.1338 169.591 -62.6778 169.832C-60.1129 170.251 -57.654 171.21 -55.568 172.598C-54.6777 173.193 -54.1666 174.057 -54.1666 174.966C-54.1666 175.189 -54.1988 175.413 -54.2534 175.611L-54.2663 175.654C-54.4945 176.454 -54.9027 177.218 -55.4716 177.926C-56.0437 178.634 -56.7541 179.251 -57.5769 179.756C-58.8529 180.539 -60.4761 181.104 -62.0478 181.649C-62.996 181.98 -64.0696 182.352 -64.9117 182.294Z" fill="url(#paint19_linear_79_1849)"/>
</g>
<defs>
<linearGradient id="paint0_linear_79_1849" x1="137" y1="176" x2="-202.034" y2="247.911" gradientUnits="userSpaceOnUse">
<stop stop-color="#AC713D"/>
<stop offset="0.413462" stop-color="#07121C"/>
<stop offset="0.966346" stop-color="#4D6881"/>
</linearGradient>
<linearGradient id="paint1_linear_79_1849" x1="137" y1="176" x2="-202.034" y2="247.911" gradientUnits="userSpaceOnUse">
<stop stop-color="#AC713D"/>
<stop offset="0.413462" stop-color="#07121C"/>
<stop offset="0.966346" stop-color="#4D6881"/>
</linearGradient>
<linearGradient id="paint2_linear_79_1849" x1="137" y1="176" x2="-202.034" y2="247.911" gradientUnits="userSpaceOnUse">
<stop stop-color="#AC713D"/>
<stop offset="0.413462" stop-color="#07121C"/>
<stop offset="0.966346" stop-color="#4D6881"/>
</linearGradient>
<linearGradient id="paint3_linear_79_1849" x1="137" y1="176" x2="-202.034" y2="247.911" gradientUnits="userSpaceOnUse">
<stop stop-color="#AC713D"/>
<stop offset="0.413462" stop-color="#07121C"/>
<stop offset="0.966346" stop-color="#4D6881"/>
</linearGradient>
<linearGradient id="paint4_linear_79_1849" x1="137" y1="176" x2="-202.034" y2="247.911" gradientUnits="userSpaceOnUse">
<stop stop-color="#AC713D"/>
<stop offset="0.413462" stop-color="#07121C"/>
<stop offset="0.966346" stop-color="#4D6881"/>
</linearGradient>
<linearGradient id="paint5_linear_79_1849" x1="137" y1="176" x2="-202.034" y2="247.911" gradientUnits="userSpaceOnUse">
<stop stop-color="#AC713D"/>
<stop offset="0.413462" stop-color="#07121C"/>
<stop offset="0.966346" stop-color="#4D6881"/>
</linearGradient>
<linearGradient id="paint6_linear_79_1849" x1="137" y1="176" x2="-202.034" y2="247.911" gradientUnits="userSpaceOnUse">
<stop stop-color="#AC713D"/>
<stop offset="0.413462" stop-color="#07121C"/>
<stop offset="0.966346" stop-color="#4D6881"/>
</linearGradient>
<linearGradient id="paint7_linear_79_1849" x1="137" y1="176" x2="-202.034" y2="247.911" gradientUnits="userSpaceOnUse">
<stop stop-color="#AC713D"/>
<stop offset="0.413462" stop-color="#07121C"/>
<stop offset="0.966346" stop-color="#4D6881"/>
</linearGradient>
<linearGradient id="paint8_linear_79_1849" x1="137" y1="176" x2="-202.034" y2="247.911" gradientUnits="userSpaceOnUse">
<stop stop-color="#AC713D"/>
<stop offset="0.413462" stop-color="#07121C"/>
<stop offset="0.966346" stop-color="#4D6881"/>
</linearGradient>
<linearGradient id="paint9_linear_79_1849" x1="137" y1="176" x2="-202.034" y2="247.911" gradientUnits="userSpaceOnUse">
<stop stop-color="#AC713D"/>
<stop offset="0.413462" stop-color="#07121C"/>
<stop offset="0.966346" stop-color="#4D6881"/>
</linearGradient>
<linearGradient id="paint10_linear_79_1849" x1="137" y1="176" x2="-202.034" y2="247.911" gradientUnits="userSpaceOnUse">
<stop stop-color="#AC713D"/>
<stop offset="0.413462" stop-color="#07121C"/>
<stop offset="0.966346" stop-color="#4D6881"/>
</linearGradient>
<linearGradient id="paint11_linear_79_1849" x1="137" y1="176" x2="-202.034" y2="247.911" gradientUnits="userSpaceOnUse">
<stop stop-color="#AC713D"/>
<stop offset="0.413462" stop-color="#07121C"/>
<stop offset="0.966346" stop-color="#4D6881"/>
</linearGradient>
<linearGradient id="paint12_linear_79_1849" x1="137" y1="176" x2="-202.034" y2="247.911" gradientUnits="userSpaceOnUse">
<stop stop-color="#AC713D"/>
<stop offset="0.413462" stop-color="#07121C"/>
<stop offset="0.966346" stop-color="#4D6881"/>
</linearGradient>
<linearGradient id="paint13_linear_79_1849" x1="137" y1="176" x2="-202.034" y2="247.911" gradientUnits="userSpaceOnUse">
<stop stop-color="#AC713D"/>
<stop offset="0.413462" stop-color="#07121C"/>
<stop offset="0.966346" stop-color="#4D6881"/>
</linearGradient>
<linearGradient id="paint14_linear_79_1849" x1="137" y1="176" x2="-202.034" y2="247.911" gradientUnits="userSpaceOnUse">
<stop stop-color="#AC713D"/>
<stop offset="0.413462" stop-color="#07121C"/>
<stop offset="0.966346" stop-color="#4D6881"/>
</linearGradient>
<linearGradient id="paint15_linear_79_1849" x1="137" y1="176" x2="-202.034" y2="247.911" gradientUnits="userSpaceOnUse">
<stop stop-color="#AC713D"/>
<stop offset="0.413462" stop-color="#07121C"/>
<stop offset="0.966346" stop-color="#4D6881"/>
</linearGradient>
<linearGradient id="paint16_linear_79_1849" x1="137" y1="176" x2="-202.034" y2="247.911" gradientUnits="userSpaceOnUse">
<stop stop-color="#AC713D"/>
<stop offset="0.413462" stop-color="#07121C"/>
<stop offset="0.966346" stop-color="#4D6881"/>
</linearGradient>
<linearGradient id="paint17_linear_79_1849" x1="137" y1="176" x2="-202.034" y2="247.911" gradientUnits="userSpaceOnUse">
<stop stop-color="#AC713D"/>
<stop offset="0.413462" stop-color="#07121C"/>
<stop offset="0.966346" stop-color="#4D6881"/>
</linearGradient>
<linearGradient id="paint18_linear_79_1849" x1="137" y1="176" x2="-202.034" y2="247.911" gradientUnits="userSpaceOnUse">
<stop stop-color="#AC713D"/>
<stop offset="0.413462" stop-color="#07121C"/>
<stop offset="0.966346" stop-color="#4D6881"/>
</linearGradient>
<linearGradient id="paint19_linear_79_1849" x1="137" y1="176" x2="-202.034" y2="247.911" gradientUnits="userSpaceOnUse">
<stop stop-color="#AC713D"/>
<stop offset="0.413462" stop-color="#07121C"/>
<stop offset="0.966346" stop-color="#4D6881"/>
</linearGradient>
</defs>
</svg>
