<svg width="32" height="32" viewBox="0 0 32 32" fill="none" xmlns="http://www.w3.org/2000/svg">
<rect width="32" height="32" rx="16" fill="#F46F18"/>
<g clip-path="url(#clip0_560_468)">
<path d="M12.6276 11.334C12.6274 11.6876 12.4868 12.0267 12.2366 12.2766C11.9864 12.5265 11.6472 12.6668 11.2936 12.6667C10.94 12.6665 10.6009 12.5258 10.351 12.2757C10.1011 12.0255 9.96076 11.6863 9.96094 11.3327C9.96111 10.979 10.1018 10.64 10.3519 10.3901C10.6021 10.1401 10.9413 9.99982 11.2949 10C11.6486 10.0002 11.9876 10.1408 12.2376 10.391C12.4875 10.6412 12.6278 10.9804 12.6276 11.334ZM12.6676 13.654H10.0009V22.0007H12.6676V13.654ZM16.8809 13.654H14.2276V22.0007H16.8543V17.6207C16.8543 15.1807 20.0343 14.954 20.0343 17.6207V22.0007H22.6676V16.714C22.6676 12.6007 17.9609 12.754 16.8543 14.774L16.8809 13.654Z" fill="white"/>
</g>
<defs>
<clipPath id="clip0_560_468">
<rect width="16" height="16" fill="white" transform="translate(8 8)"/>
</clipPath>
</defs>
</svg>
