<svg width="50" height="50" viewBox="0 0 50 50" fill="none" xmlns="http://www.w3.org/2000/svg">
<g clip-path="url(#clip0_78_1298)">
<path d="M0.961725 20.852C0.835456 20.8519 0.71041 20.8767 0.593732 20.925C0.477053 20.9732 0.371029 21.044 0.281717 21.1333C0.192405 21.2225 0.121556 21.3285 0.073218 21.4452C0.0248799 21.5618 7.12252e-08 21.6868 9.29177e-08 21.8131V26.6208C-5.54407e-05 26.7471 0.0247824 26.8722 0.073094 26.9889C0.121406 27.1056 0.192244 27.2116 0.281559 27.3009C0.370875 27.3902 0.476916 27.4611 0.593623 27.5094C0.71033 27.5577 0.835414 27.5825 0.961725 27.5825C1.08799 27.5825 1.21303 27.5576 1.32968 27.5093C1.44633 27.4609 1.55231 27.3901 1.64157 27.3008C1.73083 27.2115 1.80162 27.1054 1.84988 26.9887C1.89815 26.8721 1.92296 26.747 1.92289 26.6208V21.8131C1.92291 21.6869 1.89806 21.5619 1.84976 21.4453C1.80146 21.3287 1.73067 21.2227 1.64141 21.1334C1.55215 21.0442 1.44619 20.9734 1.32957 20.9251C1.21295 20.8768 1.08795 20.8519 0.961725 20.852ZM5.77261 16.9146C5.51754 16.9147 5.27294 17.0161 5.0926 17.1964C4.91225 17.3768 4.81092 17.6214 4.81088 17.8765V31.189C4.81088 31.444 4.9122 31.6886 5.09256 31.869C5.27292 32.0494 5.51754 32.1507 5.77261 32.1507C6.02767 32.1507 6.27229 32.0494 6.45265 31.869C6.63301 31.6886 6.73433 31.444 6.73433 31.189V17.8765C6.73429 17.6214 6.63296 17.3768 6.45262 17.1964C6.27227 17.0161 6.02767 16.9147 5.77261 16.9146ZM10.577 10.2748C10.322 10.2748 10.0774 10.376 9.89707 10.5563C9.71672 10.7366 9.61536 10.9811 9.61528 11.2361V38.1593C9.61528 38.6904 10.046 39.1212 10.577 39.1212C11.108 39.1212 11.5387 38.6904 11.5387 38.1593V11.2361C11.5386 10.9811 11.4372 10.7366 11.2569 10.5564C11.0765 10.3761 10.832 10.2749 10.577 10.2749V10.2748ZM15.3846 15.0826C15.2583 15.0826 15.1333 15.1074 15.0166 15.1558C14.8999 15.2041 14.7938 15.2749 14.7045 15.3642C14.6152 15.4535 14.5443 15.5596 14.496 15.6762C14.4477 15.7929 14.4228 15.918 14.4228 16.0443V32.39C14.4228 32.6451 14.5242 32.8897 14.7045 33.0701C14.8849 33.2505 15.1296 33.3518 15.3846 33.3518C15.6397 33.3518 15.8843 33.2504 16.0646 33.0701C16.2449 32.8897 16.3463 32.6452 16.3464 32.3901V16.0442C16.3464 15.7891 16.245 15.5445 16.0647 15.3641C15.8843 15.1838 15.6397 15.0826 15.3846 15.0826ZM29.9015 12.7546C29.7752 12.7546 29.6502 12.7795 29.5336 12.8278C29.4169 12.8762 29.3109 12.947 29.2217 13.0363C29.1324 13.1256 29.0616 13.2317 29.0134 13.3483C28.9651 13.465 28.9403 13.5901 28.9404 13.7163V35.3495C28.9404 35.8805 29.3705 36.3107 29.9015 36.3107C30.4325 36.3107 30.8632 35.8805 30.8632 35.3495V13.7163C30.8632 13.4613 30.7619 13.2167 30.5816 13.0363C30.4012 12.8559 30.1566 12.7546 29.9015 12.7546ZM39.4233 14.1207C39.1682 14.1208 38.9235 14.2221 38.7432 14.4025C38.5628 14.5829 38.4614 14.8275 38.4614 15.0826V34.3129C38.4614 34.8444 38.8923 35.2747 39.4233 35.2747C39.9543 35.2747 40.3844 34.8444 40.3844 34.313V15.0826C40.3845 14.8276 40.2833 14.583 40.103 14.4026C39.9228 14.2222 39.6783 14.1208 39.4233 14.1207ZM44.2308 18.9284C43.9757 18.9284 43.7312 19.0298 43.5508 19.2101C43.3705 19.3905 43.2691 19.635 43.269 19.8901V29.5054C43.2669 29.633 43.2901 29.7598 43.3375 29.8784C43.3848 29.9969 43.4553 30.1049 43.5448 30.1959C43.6342 30.287 43.741 30.3593 43.8587 30.4086C43.9764 30.458 44.1028 30.4834 44.2305 30.4834C44.3582 30.4834 44.4845 30.458 44.6023 30.4086C44.72 30.3593 44.8267 30.287 44.9162 30.1959C45.0057 30.1049 45.0762 29.9969 45.1235 29.8784C45.1709 29.7598 45.1941 29.633 45.1919 29.5054V19.8901C45.192 19.6351 45.0907 19.3906 44.9105 19.2102C44.7302 19.0299 44.4858 18.9285 44.2308 18.9284ZM34.6156 6.42847C34.3606 6.42847 34.1159 6.52979 33.9356 6.71015C33.7552 6.89051 33.6539 7.13513 33.6539 7.39019V42.0053C33.6539 42.1316 33.6787 42.2567 33.727 42.3734C33.7753 42.4901 33.8461 42.5961 33.9355 42.6854C34.0248 42.7747 34.1308 42.8456 34.2475 42.8939C34.3642 42.9422 34.4893 42.967 34.6156 42.967C34.7419 42.967 34.8669 42.9421 34.9836 42.8938C35.1002 42.8454 35.2062 42.7746 35.2955 42.6853C35.3847 42.596 35.4555 42.4899 35.5038 42.3733C35.5521 42.2566 35.5769 42.1315 35.5768 42.0053V7.39019C35.5768 7.13521 35.4756 6.89066 35.2953 6.71031C35.1151 6.52996 34.8706 6.42858 34.6156 6.42847ZM20.1923 21.8131C19.9373 21.8132 19.6928 21.9146 19.5125 22.0949C19.3322 22.2753 19.2309 22.5198 19.231 22.7748V26.6208C19.231 27.1522 19.6613 27.5825 20.1921 27.5825C20.723 27.5825 21.1539 27.1522 21.1539 26.6208V22.7748C21.1538 22.5198 21.0524 22.2752 20.8721 22.0949C20.6918 21.9145 20.4472 21.8132 20.1921 21.8131H20.1923ZM49.0384 21.4913C48.7834 21.4912 48.5389 21.5925 48.3585 21.7727C48.1782 21.953 48.0768 22.1975 48.0767 22.4524V26.613C48.0768 26.8681 48.1781 27.1126 48.3585 27.293C48.5388 27.4733 48.7834 27.5747 49.0384 27.5747C49.2935 27.5747 49.538 27.4733 49.7184 27.293C49.8987 27.1126 50.0001 26.8681 50.0001 26.613V22.4523C50 22.1973 49.8986 21.9529 49.7182 21.7727C49.5379 21.5925 49.2934 21.4912 49.0384 21.4913ZM24.9096 19.658C24.7834 19.6579 24.6583 19.6827 24.5416 19.7309C24.4249 19.7792 24.3189 19.85 24.2295 19.9392C24.1402 20.0285 24.0694 20.1345 24.021 20.2511C23.9727 20.3678 23.9478 20.4928 23.9478 20.6191V28.4462C23.9456 28.5738 23.9688 28.7006 24.0162 28.8192C24.0635 28.9377 24.134 29.0457 24.2235 29.1367C24.313 29.2278 24.4197 29.3001 24.5374 29.3494C24.6552 29.3988 24.7816 29.4242 24.9092 29.4242C25.0369 29.4242 25.1633 29.3988 25.281 29.3494C25.3987 29.3001 25.5055 29.2278 25.595 29.1367C25.6845 29.0457 25.7549 28.9377 25.8023 28.8192C25.8496 28.7006 25.8728 28.5738 25.8707 28.4462V20.6191C25.8707 20.4929 25.8458 20.3679 25.7976 20.2513C25.7493 20.1347 25.6785 20.0287 25.5892 19.9395C25.5 19.8502 25.394 19.7794 25.2774 19.7311C25.1608 19.6828 25.0359 19.658 24.9096 19.658Z" fill="#F56F18"/>
</g>
<defs>
<clipPath id="clip0_78_1298">
<rect width="50" height="50" fill="white"/>
</clipPath>
</defs>
</svg>
