<svg width="175" height="473" viewBox="0 0 175 473" fill="none" xmlns="http://www.w3.org/2000/svg">
<g opacity="0.5">
<path d="M-282.855 376.861C-269.389 386.809 -254.844 395.116 -238.595 404.173C-197.856 426.88 -155.733 450.363 -109.685 462.673C-78.1136 471.112 -45.286 474.023 -12.1089 471.326C21.0683 468.629 52.9832 460.451 82.7461 447.023L83.6256 446.625C109.201 434.981 131.138 416.555 147.061 393.345C162.962 370.16 172.286 343.052 174.023 314.947C178.839 236.949 164.567 159.732 132.745 91.6389C108.853 40.5164 78.7276 10.4618 43.2015 2.31487C28.117 -1.14564 11.8288 -0.729973 -6.59748 3.58617C-23.7723 7.60769 -40.3877 14.458 -54.3765 20.6262C-108.115 44.3348 -160.221 72.7248 -209.251 105.008C-219.709 111.894 -230.496 119.275 -241.169 127.29C-268.234 147.614 -294.529 171.986 -312.583 202.464C-325.008 223.439 -332.713 247.843 -334.274 271.18C-335.984 296.685 -330.524 320.423 -318.487 339.831C-310.239 353.13 -298.586 365.241 -282.855 376.861ZM-315.359 337.892C-326.984 319.143 -332.257 296.163 -330.601 271.431C-329.078 248.657 -321.555 224.832 -309.417 204.345C-284.621 162.485 -243.844 132.197 -207.225 108.086C-158.363 75.9153 -106.437 47.6232 -52.8865 23.9956C-39.0544 17.8944 -22.6369 11.1237 -5.75365 7.17366C12.1124 2.9879 27.8586 2.57366 42.3803 5.90376C76.7448 13.7848 106.023 43.1528 129.41 93.1982C160.972 160.731 175.127 237.332 170.347 314.717C168.65 342.157 159.548 368.622 144.022 391.258C134.682 404.875 123.226 416.8 110.148 426.621C101.464 433.142 92.0644 438.735 82.0987 443.274L81.2332 443.666C51.8501 456.919 20.3444 464.992 -12.4123 467.655C-45.1691 470.318 -77.5761 467.446 -108.739 459.115C-154.344 446.924 -196.265 423.556 -236.806 400.953C-252.942 391.961 -267.381 383.716 -280.671 373.899C-296.019 362.562 -307.364 350.787 -315.359 337.892Z" fill="url(#paint0_linear_79_1852)"/>
<path d="M-271.179 371.462C-258.393 380.902 -244.59 388.785 -229.17 397.381C-190.474 418.949 -150.461 441.252 -106.72 452.949C-90.1878 457.368 -73.023 460.216 -55.7063 461.415C-38.548 462.599 -21.159 462.173 -4.02158 460.142L-3.51869 460.083C2.01953 459.417 7.60687 458.571 13.0902 457.569C35.0507 453.553 56.3166 446.902 76.2916 437.796L77.121 437.417C101.368 426.339 122.161 408.835 137.253 386.793C152.326 364.778 161.159 339.04 162.801 312.365C167.352 238.354 153.797 165.082 123.603 100.467C108.202 67.5166 89.8937 43.5832 69.1842 29.3285C59.4927 22.6615 49.1381 18.0409 38.4068 15.5971C21.6186 11.7616 2.99864 13.0067 -18.5223 19.3979C-31.7223 23.3193 -44.5589 28.7421 -54.2702 33.0253C-105.286 55.537 -154.755 82.4914 -201.305 113.138C-209.118 118.282 -216.026 123.008 -222.427 127.58C-225.55 129.814 -228.577 132.028 -231.517 134.235C-247.876 146.52 -261.428 158.461 -272.746 170.54C-283.361 181.875 -292.366 193.762 -299.514 205.871C-315.848 233.492 -323.092 265.968 -319.386 294.972C-317.446 310.174 -312.614 324.08 -305.025 336.307C-297.189 348.93 -286.115 360.429 -271.179 371.462ZM-301.897 334.368C-309.208 322.591 -313.86 309.182 -315.736 294.512C-319.337 266.305 -312.269 234.679 -296.342 207.747C-289.332 195.871 -280.489 184.198 -270.057 173.06C-256.877 158.993 -240.598 145.095 -220.285 130.58C-213.924 126.033 -207.052 121.334 -199.279 116.216C-152.9 85.679 -103.61 58.8225 -52.7801 36.3948C-43.1696 32.155 -30.4677 26.7919 -17.468 22.9286C3.4273 16.7216 21.4369 15.4972 37.5931 19.1897C47.8684 21.5289 57.7972 25.9624 67.1002 32.3634C87.2614 46.2372 105.151 69.6742 120.268 102.027C150.203 166.081 163.64 238.736 159.125 312.134C157.525 338.147 148.914 363.244 134.213 384.711C125.341 397.669 114.45 409.017 102.017 418.354C93.8299 424.501 84.9719 429.78 75.586 434.068L74.7595 434.444C55.0627 443.424 34.0884 449.985 12.4253 453.944C7.01483 454.933 1.50259 455.768 -3.9635 456.426L-4.45827 456.484C-21.3682 458.486 -38.5305 458.909 -55.4568 457.739C-72.5392 456.558 -89.4676 453.749 -105.774 449.391C-149.072 437.813 -188.883 415.625 -227.381 394.162C-242.689 385.63 -256.385 377.809 -268.995 368.5C-283.547 357.75 -294.311 346.584 -301.897 334.368Z" fill="url(#paint1_linear_79_1852)"/>
<path d="M-259.503 366.058C-247.403 374.995 -234.336 382.454 -219.745 390.589C-183.092 411.019 -145.193 432.144 -103.759 443.224C-88.0614 447.421 -71.7643 450.119 -55.3233 451.243C-39.0281 452.356 -22.5235 451.935 -6.2622 449.982L-5.78583 449.924C-0.527397 449.284 4.77647 448.471 9.97782 447.51C30.7898 443.656 50.9272 437.285 69.8319 428.568L70.6172 428.205C117.413 406.594 148.436 361.216 151.582 309.781C155.864 239.755 143.028 170.427 114.46 109.296C99.8545 78.0474 82.4853 55.3582 62.8282 41.8615C53.6335 35.5496 43.8027 31.1855 33.6144 28.8824C17.7079 25.2649 0.0687194 26.4555 -20.3164 32.5145C-32.8171 36.2334 -44.9736 41.3667 -54.1631 45.4194C-102.458 66.7363 -149.292 92.2551 -193.357 121.271C-200.764 126.146 -207.316 130.629 -213.387 134.967C-216.328 137.069 -219.177 139.153 -221.943 141.23C-237.487 152.902 -250.358 164.249 -261.096 175.732C-271.153 186.487 -279.682 197.776 -286.444 209.278C-301.883 235.443 -308.717 266.192 -305.191 293.644C-303.339 308.037 -298.757 321.205 -291.562 332.778C-284.134 344.73 -273.649 355.616 -259.503 366.058ZM-288.436 330.837C-295.348 319.714 -299.758 307.044 -301.54 293.18C-304.961 266.523 -298.303 236.625 -283.272 211.149C-276.645 199.878 -268.276 188.811 -258.408 178.253C-245.922 164.904 -230.499 151.728 -211.245 137.966C-205.212 133.652 -198.698 129.198 -191.331 124.349C-147.435 95.4456 -100.783 70.027 -52.676 48.7911C-43.5814 44.7774 -31.5677 39.7053 -19.2621 36.0453C0.49739 30.1705 17.5313 29.0012 32.8058 32.4757C42.5382 34.6742 51.9402 38.8535 60.7465 44.8994C79.8523 58.0174 96.8033 80.205 111.123 110.852C139.433 171.431 152.151 240.137 147.906 309.55C145.439 349.895 125.361 386.4 93.8287 410.079C90.0236 412.936 86.0474 415.608 81.9157 418.08C77.7868 420.549 73.5002 422.814 69.0682 424.861L68.291 425.223C49.6623 433.811 29.8164 440.092 9.30186 443.889C4.17636 444.834 -1.0524 445.636 -6.23647 446.271L-6.70182 446.326C-22.7378 448.248 -39.0134 448.668 -55.0766 447.569C-71.2827 446.458 -87.3434 443.799 -102.809 439.666C-143.804 428.704 -181.503 407.692 -217.956 387.37C-243.307 373.241 -272.035 357.225 -288.436 330.837Z" fill="url(#paint2_linear_79_1852)"/>
<path d="M-247.826 360.659C-236.409 369.085 -224.085 376.125 -210.32 383.798C-175.712 403.09 -139.927 423.038 -100.794 433.499C-85.9321 437.472 -70.5026 440.019 -54.938 441.073C-39.5133 442.113 -23.8901 441.694 -8.50059 439.824L-8.05074 439.767C-3.07504 439.155 1.94317 438.373 6.86252 437.453C26.5282 433.764 45.5429 427.67 63.3803 419.34L64.1104 418.994C108.197 398.459 137.414 355.621 140.363 307.196C144.377 241.16 132.259 175.777 105.318 118.124C91.5072 88.5782 75.0739 67.1354 56.4723 54.3946C47.7662 48.4393 38.4652 44.327 28.8249 42.1654C13.7972 38.7682 -2.86344 39.9014 -22.1105 45.6311C-33.9141 49.1445 -45.3832 53.992 -54.0568 57.8186C-99.634 77.9378 -143.826 102.022 -185.411 129.401C-192.413 134.013 -198.61 138.252 -204.35 142.355C-207.107 144.324 -209.779 146.28 -212.372 148.227C-227.098 159.285 -239.285 170.04 -249.45 180.927C-258.944 191.102 -266.992 201.786 -273.371 212.682C-287.918 237.389 -294.342 266.415 -290.993 292.319C-289.237 305.899 -284.898 318.327 -278.1 329.255C-271.084 340.529 -261.182 350.803 -247.826 360.659ZM-274.977 327.31C-281.494 316.835 -285.653 304.904 -287.342 291.85C-290.588 266.744 -284.338 238.571 -270.196 214.551C-263.952 203.885 -256.068 193.417 -246.759 183.445C-234.969 170.818 -220.397 158.354 -202.208 145.35C-196.505 141.275 -190.347 137.065 -183.385 132.479C-141.969 105.212 -97.9562 81.2263 -52.5667 61.1881C-43.9939 57.4049 -32.6595 52.6171 -21.0562 49.1619C-2.42963 43.617 13.6206 42.5045 28.0214 45.7594C37.2058 47.8165 46.078 51.7438 54.3928 57.4354C72.4461 69.7954 88.4582 90.7387 101.981 119.68C128.663 176.781 140.665 241.542 136.687 306.97C134.372 344.994 115.402 379.469 85.5999 401.848C78.5077 407.174 70.7939 411.819 62.5556 415.655L61.8174 416.002C44.2589 424.201 25.5415 430.201 6.18139 433.831C1.33712 434.741 -3.60524 435.507 -8.50362 436.112L-8.94759 436.164C-24.1074 438.009 -39.5008 438.421 -54.6936 437.397C-70.024 436.361 -85.2141 433.85 -99.8485 429.941C-138.538 419.598 -174.121 399.761 -208.531 380.579C-232.427 367.26 -259.511 352.165 -274.977 327.31Z" fill="url(#paint3_linear_79_1852)"/>
<path d="M-236.15 355.259C-225.416 363.18 -213.832 369.794 -200.896 377.006C-168.33 395.16 -134.655 413.927 -97.8287 423.775C-83.8027 427.523 -69.2438 429.922 -54.5519 430.899C-39.9933 431.869 -25.2515 431.454 -10.736 429.664L-10.3127 429.609C-5.62487 429.024 -0.893059 428.277 3.7502 427.394C22.2673 423.867 40.1564 418.051 56.9237 410.11L57.6088 409.784C98.9844 390.327 126.398 350.028 129.141 304.614C132.891 242.559 121.489 181.127 96.1752 126.952C83.1606 99.1039 67.6626 78.9127 50.1112 66.9269C41.9041 61.3296 33.1255 57.4656 24.0303 55.4477C9.88941 52.2693 -5.79043 53.348 -23.9047 58.7478C-35.006 62.0564 -45.795 66.6144 -53.9504 70.2178C-96.8045 89.1401 -138.361 111.788 -177.463 137.534C-184.061 141.875 -189.897 145.87 -195.313 149.739C-197.885 151.578 -200.379 153.405 -202.801 155.224C-216.709 165.668 -228.212 175.826 -237.804 186.121C-246.739 195.716 -254.308 205.8 -260.302 216.089C-273.955 239.337 -279.967 266.639 -276.795 290.99C-275.133 303.764 -271.043 315.449 -264.638 325.726C-258.031 336.331 -248.713 345.988 -236.15 355.259ZM-261.514 323.781C-267.636 313.955 -271.548 302.764 -273.144 290.52C-276.213 266.962 -270.372 240.517 -257.126 217.953C-251.264 207.892 -243.858 198.027 -235.109 188.632C-224.016 176.731 -210.298 164.987 -193.168 152.737C-187.795 148.896 -181.995 144.927 -175.437 140.611C-136.506 114.976 -95.1289 92.4256 -52.4603 73.5873C-44.4035 70.0303 -33.7536 65.526 -22.8474 62.2763C-5.35662 57.0637 9.71796 56.0063 23.2342 59.0454C31.8757 60.9617 40.2211 64.6349 48.0398 69.9662C65.0369 81.5756 80.108 101.272 92.8384 128.509C117.895 182.126 129.178 242.946 125.468 304.386C123.31 340.093 105.44 372.54 77.3712 393.617C70.7999 398.552 63.6586 402.868 56.04 406.451L55.3438 406.78C38.8606 414.591 21.2696 420.308 3.05803 423.776C-1.50941 424.643 -6.16316 425.378 -10.7736 425.955L-11.194 426.008C-25.4769 427.77 -39.9838 428.18 -54.3134 427.227C-68.7652 426.263 -83.0877 423.903 -96.883 420.217C-133.266 410.488 -166.739 391.831 -199.104 373.79C-221.547 361.279 -246.985 347.101 -261.514 323.781Z" fill="url(#paint4_linear_79_1852)"/>
<path d="M-191.468 370.213C-160.945 387.227 -129.386 404.818 -94.8684 414.05C-81.6764 417.576 -67.9822 419.823 -54.1666 420.729C-40.4763 421.629 -26.6159 421.216 -12.9766 419.504L-12.5776 419.453C-8.16955 418.894 -3.72125 418.18 0.637817 417.335C18.0086 413.973 34.7751 408.433 50.4721 400.881L50.7319 400.755C50.8563 400.694 50.9806 400.633 51.1072 400.575C89.7713 382.195 115.379 344.431 117.922 302.029C121.403 243.96 110.722 186.474 87.0327 135.781C74.8103 109.637 60.252 90.6848 43.7553 79.46C36.081 74.2413 27.8314 70.6345 19.2326 68.7321C5.92127 65.7881 -8.77557 66.8152 -25.6988 71.8644C-36.1059 74.9697 -46.2075 79.242 -53.8463 82.6141C-93.9772 100.339 -132.898 121.552 -169.517 145.663C-175.719 149.749 -181.201 153.497 -186.276 157.128C-188.661 158.836 -190.976 160.528 -193.227 162.219C-206.317 172.048 -217.139 181.617 -226.158 191.316C-234.449 200.242 -241.541 209.724 -247.233 219.501C-259.978 241.385 -265.579 266.959 -262.598 289.665C-261.026 301.627 -257.182 312.574 -251.176 322.202C-237.075 344.792 -212.846 358.298 -191.468 370.213ZM-248.054 320.254C-253.779 311.074 -257.446 300.626 -258.946 289.19C-261.824 267.277 -256.395 242.551 -244.053 221.357C-238.494 211.814 -231.565 202.551 -223.46 193.824C-213.064 182.644 -200.196 171.618 -184.131 160.125C-179.095 156.523 -173.652 152.801 -167.491 148.741C-131.04 124.742 -92.3046 103.627 -52.3562 85.9835C-44.8153 82.6527 -34.8513 78.4423 -24.6415 75.393C-8.33588 70.5265 5.75792 69.5236 18.4447 72.3284C26.5816 74.1305 34.4024 77.5525 41.686 82.5022C57.6256 93.3528 71.7606 111.803 83.6959 137.337C107.125 187.475 117.689 244.348 114.248 301.807C112.245 335.195 95.4779 365.61 69.1396 385.389C66.1114 387.662 62.9586 389.795 59.6856 391.773C56.4148 393.755 53.0239 395.582 49.5222 397.244C49.3868 397.309 49.2536 397.377 49.1182 397.442L48.8694 397.564C33.4601 404.978 16.9947 410.417 -0.0653758 413.721C-4.34859 414.55 -8.71594 415.249 -13.0466 415.8L-13.4376 415.85C-26.8494 417.534 -40.4741 417.936 -53.9303 417.054C-67.5087 416.163 -80.9614 413.957 -93.9199 410.49C-127.997 401.379 -159.356 383.9 -189.68 366.999C-210.667 355.298 -234.457 342.039 -248.054 320.254Z" fill="url(#paint5_linear_79_1852)"/>
<path d="M-182.043 363.421C-153.563 379.297 -124.115 395.713 -91.9031 404.325C-79.5471 407.627 -66.7234 409.726 -53.7813 410.56C-40.9563 411.386 -27.9826 410.975 -15.2121 409.344L-14.8373 409.297C-10.7113 408.761 -6.55162 408.08 -2.47453 407.276C13.7528 404.077 29.396 398.818 44.0154 391.651L44.2642 391.529C44.3775 391.472 44.4879 391.416 44.6034 391.362C80.5611 374.061 104.36 338.84 106.703 299.445C109.916 245.365 99.9505 191.821 77.8873 144.611C66.463 120.168 52.8406 102.462 37.3942 91.9923C30.2233 87.1376 22.5013 83.7797 14.4402 82.0174C1.99951 79.2951 -11.7158 80.2626 -27.4951 84.9781C-37.1977 87.8816 -46.6171 91.8673 -53.7399 95.0133C-91.1499 111.539 -127.429 131.316 -161.569 153.796C-167.364 157.613 -172.489 161.116 -177.236 164.515C-179.439 166.091 -181.578 167.656 -183.656 169.216C-195.928 178.436 -206.069 187.406 -214.512 196.51C-222.229 204.84 -228.838 213.72 -234.163 222.907C-246.013 243.354 -251.202 267.204 -248.403 288.337C-246.921 299.491 -243.327 309.696 -237.713 318.673C-224.549 339.728 -201.965 352.317 -182.043 363.421ZM-234.592 316.726C-239.925 308.196 -243.342 298.485 -244.754 287.859C-247.448 267.514 -242.427 244.514 -230.977 224.759C-225.789 215.808 -219.342 207.147 -211.811 199.016C-202.108 188.556 -190.098 178.251 -175.091 167.512C-170.382 164.142 -165.297 160.66 -159.543 156.874C-125.572 134.507 -89.4722 114.827 -52.2498 98.3828C-45.2249 95.278 -35.9402 91.352 -26.4356 88.5096C-11.271 83.9746 1.84425 83.0291 13.6574 85.6144C21.2589 87.2795 28.5521 90.4524 35.3323 95.0383C50.2194 105.131 63.4133 122.333 74.5534 146.166C96.3553 192.825 106.203 245.752 103.029 299.222C101.18 330.297 85.51 358.686 60.905 377.162C58.1388 379.239 55.2612 381.193 52.2715 383.009C49.287 384.827 46.1955 386.507 43.0037 388.043C42.8763 388.106 42.752 388.167 42.6247 388.23L42.3958 388.342C28.0589 395.371 12.7227 400.523 -3.18878 403.665C-7.19004 404.453 -11.271 405.117 -15.3167 405.643L-15.6834 405.688C-28.2212 407.292 -40.9623 407.694 -53.5501 406.884C-66.25 406.066 -78.832 404.008 -90.9574 400.767C-122.726 392.274 -151.974 375.97 -180.255 360.207C-199.792 349.316 -221.932 336.974 -234.592 316.726Z" fill="url(#paint6_linear_79_1852)"/>
<path d="M-172.619 356.629C-146.181 371.366 -118.846 386.605 -88.9377 394.601C-77.4207 397.681 -65.4618 399.626 -53.3982 400.388C-41.4415 401.142 -29.347 400.737 -17.4504 399.186L-17.0993 399.139C-13.2611 398.63 -9.3849 397.982 -5.58465 397.22C9.50006 394.178 24.0176 389.198 37.5668 382.42L37.7934 382.305C37.8957 382.252 38.0002 382.201 38.1047 382.15C54.3632 374.218 68.2764 362.175 78.335 347.323C88.4928 332.326 94.4223 314.874 95.4844 296.86C98.4273 246.766 89.1808 197.171 68.7427 153.437C58.1164 130.693 45.4293 114.239 31.036 104.522C24.3664 100.029 17.1711 96.9249 9.6456 95.2997C-1.92224 92.8021 -14.6568 93.7151 -29.2892 98.0947C-38.2947 100.793 -47.0289 104.49 -53.6358 107.41C-88.3256 122.74 -121.964 141.083 -153.623 161.926C-159.012 165.475 -163.782 168.739 -168.198 171.898C-170.218 173.346 -172.178 174.781 -174.085 176.213C-185.541 184.816 -194.996 193.197 -202.868 201.702C-210.006 209.436 -216.139 217.718 -221.094 226.319C-232.048 245.323 -236.827 267.446 -234.206 287.012C-232.819 297.353 -229.471 306.82 -224.251 315.15C-212.021 334.666 -191.091 346.335 -172.619 356.629ZM-221.131 313.194C-226.067 305.315 -229.239 296.342 -230.558 286.526C-233.07 267.749 -228.458 246.476 -217.904 228.159C-213.083 219.796 -207.113 211.738 -200.164 204.206C-191.155 194.469 -179.996 184.882 -166.053 174.896C-161.676 171.765 -156.946 168.527 -151.595 165.002C-120.107 144.273 -86.6478 126.029 -52.1457 110.779C-45.6344 107.903 -37.0372 104.263 -28.2267 101.624C-14.209 97.4249 -2.07237 96.5368 8.87012 98.9003C15.9361 100.428 22.7025 103.347 28.9808 107.577C42.8103 116.911 55.0682 132.867 65.411 154.994C85.5885 198.173 94.7164 247.157 91.8074 296.64C90.7865 313.991 85.0712 330.804 75.2853 345.253C69.1373 354.331 61.4997 362.32 52.733 368.903C50.2022 370.803 47.5747 372.587 44.8625 374.246C42.1524 375.908 39.3553 377.441 36.4851 378.841C36.3637 378.9 36.2423 378.959 36.123 379.021L35.9162 379.125C22.6584 385.758 8.44789 390.632 -6.31434 393.607C-10.0366 394.356 -13.8289 394.987 -17.5867 395.487L-17.9298 395.532C-29.5907 397.054 -41.4474 397.45 -53.17 396.714C-64.9934 395.966 -76.7078 394.058 -87.992 391.043C-117.457 383.165 -144.592 368.04 -170.83 353.416C-188.912 343.335 -209.406 331.909 -221.131 313.194Z" fill="url(#paint7_linear_79_1852)"/>
<path d="M-163.194 349.838C-138.804 363.435 -113.578 377.496 -85.9774 384.876C-75.2914 387.732 -64.1979 389.53 -53.01 390.216C-41.9215 390.899 -30.7084 390.497 -19.6535 389.02L-19.3612 388.98C-15.8029 388.497 -12.2131 387.885 -8.69407 387.159C5.24942 384.283 18.6443 379.579 31.1182 373.189L31.3228 373.082C31.4162 373.034 31.5075 372.984 31.6009 372.937L31.6039 372.935C46.5353 365.534 59.2987 354.406 68.517 340.751C77.8552 326.918 83.2996 310.849 84.2655 294.276C86.9415 248.165 78.4141 202.519 59.6002 162.265C49.7691 141.224 38.0157 126.014 24.6749 117.055C18.5094 112.92 11.838 110.072 4.848 108.584C-5.84328 106.304 -17.5948 107.165 -31.0833 111.211C-39.3866 113.705 -47.4414 117.117 -53.5294 119.809C-85.4961 133.942 -116.498 150.85 -145.675 170.059C-150.658 173.34 -155.07 176.358 -159.161 179.287C-160.996 180.601 -162.78 181.908 -164.517 183.212C-175.155 191.2 -183.929 198.987 -191.224 206.898C-197.787 214.039 -203.44 221.716 -208.024 229.726C-218.08 247.291 -222.447 267.689 -220.006 285.685C-218.71 295.219 -215.609 303.945 -210.787 311.624C-199.494 329.604 -180.21 340.354 -163.194 349.838ZM-207.672 309.667C-212.213 302.437 -215.134 294.202 -216.36 285.196C-218.694 267.986 -214.49 248.438 -204.828 231.561C-200.38 223.787 -194.893 216.33 -188.511 209.396C-180.203 200.382 -169.9 191.512 -157.013 182.282C-152.963 179.384 -148.592 176.392 -143.647 173.134C-114.643 154.037 -83.8205 137.228 -52.0364 123.176C-46.0462 120.526 -38.1291 117.175 -30.0208 114.741C-17.1419 110.876 -5.98603 110.042 4.0858 112.184C10.6162 113.575 16.8551 116.245 22.6271 120.113C35.4041 128.689 46.7209 143.398 56.2685 163.822C74.8189 203.523 83.2277 248.558 80.5907 294.058C79.663 309.971 74.4329 325.401 65.4644 338.684C59.7707 347.116 52.6722 354.548 44.5176 360.671C42.2458 362.377 39.8935 363.982 37.4645 365.479C35.0355 366.976 32.5328 368.362 29.9644 369.636C29.8481 369.696 29.7318 369.756 29.6156 369.815L29.4367 369.908C17.2573 376.151 4.17591 380.739 -9.44071 383.554C-12.878 384.26 -16.3817 384.858 -19.8598 385.332L-20.1786 385.373C-30.9633 386.817 -41.9356 387.209 -52.7921 386.541C-63.7347 385.869 -74.5815 384.111 -85.0289 381.316C-112.191 374.054 -137.21 360.109 -161.402 346.622C-178.031 337.353 -196.879 326.848 -207.672 309.667Z" fill="url(#paint8_linear_79_1852)"/>
<path d="M-153.769 343.046C-131.42 355.507 -108.309 368.388 -83.0121 375.152C-73.162 377.782 -62.9391 379.433 -52.6246 380.047C-42.3993 380.659 -32.0677 380.26 -21.9184 378.864L-21.6232 378.822C-18.3476 378.367 -15.0412 377.787 -11.8013 377.101C1.00179 374.385 13.274 369.958 24.6732 363.951L24.8521 363.858C24.9374 363.812 25.0198 363.769 25.1052 363.723C38.7044 356.852 50.3187 346.633 58.6968 334.176C67.2168 321.515 72.1769 306.823 73.0466 291.691C75.455 249.57 67.6423 207.866 50.4577 171.094C41.4196 151.752 30.6073 137.789 18.3168 129.585C12.6495 125.813 6.50568 123.215 0.0533772 121.866C-9.76797 119.813 -20.538 120.615 -32.8774 124.328C-40.4865 126.618 -47.8561 129.742 -53.4253 132.205C-82.6718 145.144 -111.035 160.613 -137.727 178.192C-142.304 181.204 -146.36 183.979 -150.121 186.674C-151.775 187.86 -153.383 189.035 -154.949 190.211C-164.766 197.583 -172.862 204.778 -179.578 212.093C-185.567 218.636 -190.743 225.717 -194.955 233.138C-204.113 249.263 -208.069 267.934 -205.811 284.363C-204.606 293.084 -201.752 301.07 -197.325 308.1C-186.966 324.542 -169.33 334.373 -153.769 343.046ZM-194.209 306.138C-198.356 299.556 -201.032 292.064 -202.164 283.863C-204.315 268.221 -200.521 250.395 -191.755 234.96C-187.677 227.778 -182.667 220.924 -176.864 214.585C-169.25 206.296 -159.801 198.145 -147.976 189.671C-144.254 187.005 -140.24 184.253 -135.699 181.267C-109.178 163.804 -80.994 148.432 -51.9322 135.572C-46.4587 133.153 -39.2261 130.086 -31.8149 127.857C-20.0769 124.324 -9.89966 123.548 -0.696301 125.471C5.29344 126.724 11.0055 129.14 16.2785 132.65C27.9972 140.472 38.3736 153.929 47.1261 172.651C64.0492 208.873 71.7412 249.962 69.3689 291.476C68.5396 305.951 63.7937 320.003 55.6427 332.119C50.4033 339.906 43.8439 346.781 36.2955 352.449C34.2856 353.958 32.2063 355.382 30.0606 356.716C27.915 358.051 25.7088 359.293 23.4429 360.437C23.3296 360.494 23.2163 360.552 23.1051 360.612L22.9543 360.693C11.8561 366.543 -0.0967549 370.851 -12.5692 373.498C-15.7253 374.167 -18.9426 374.731 -22.1379 375.176L-22.425 375.217C-32.338 376.578 -42.4237 376.967 -52.409 376.369C-62.4782 375.769 -72.4551 374.164 -82.0664 371.594C-106.92 364.948 -129.828 352.179 -151.978 339.83C-167.157 331.372 -184.356 321.785 -194.209 306.138Z" fill="url(#paint9_linear_79_1852)"/>
<path d="M-144.344 336.255C-124.037 347.577 -103.04 359.279 -80.0489 365.424C-71.0356 367.836 -61.6774 369.334 -52.2364 369.875C-42.8793 370.416 -33.4291 370.02 -24.1538 368.704L-23.88 368.664C-20.8893 368.234 -17.8664 367.688 -14.9055 367.04C-3.23997 364.483 7.90889 360.337 18.2305 354.715L18.3902 354.628C18.4645 354.586 18.5359 354.546 18.6124 354.507C30.8736 348.171 41.3409 338.863 48.8817 327.602C56.5792 316.107 61.0542 302.798 61.8247 289.109C63.9663 250.971 56.8726 213.216 41.3153 179.922C33.07 162.28 23.1937 149.563 11.9535 142.114C6.78955 138.706 1.17259 136.362 -4.74642 135.148C-13.692 133.317 -23.479 134.067 -34.6766 137.444C-41.5813 139.532 -48.2657 142.367 -53.3189 144.604C-79.8445 156.343 -105.57 170.38 -129.782 186.322C-133.955 189.068 -137.654 191.602 -141.087 194.06C-142.557 195.117 -143.985 196.163 -145.38 197.21C-154.382 203.97 -161.792 210.571 -167.935 217.29C-173.351 223.242 -178.045 229.72 -181.889 236.547C-190.148 251.233 -193.694 268.176 -191.614 283.038C-190.502 290.949 -187.896 298.195 -183.863 304.576C-174.438 319.48 -158.45 328.391 -144.344 336.255ZM-180.752 302.609C-184.503 296.675 -186.929 289.921 -187.965 282.528C-189.938 268.453 -186.551 252.352 -178.679 238.357C-174.974 231.769 -170.441 225.517 -165.212 219.775C-158.297 212.209 -149.703 204.778 -138.939 197.055C-135.546 194.623 -131.889 192.12 -127.753 189.397C-103.709 173.568 -78.1638 159.629 -51.8259 147.971C-46.8683 145.779 -40.3209 143 -33.6061 140.972C-23.0098 137.775 -13.8104 137.051 -5.47844 138.758C-0.0242114 139.874 5.16031 142.04 9.9248 145.186C20.588 152.252 30.0285 164.462 37.9784 181.478C53.2825 214.221 60.2547 251.367 58.1492 288.897C57.4139 301.928 53.1524 314.602 45.8218 325.549C41.0352 332.701 35.009 339.024 28.0639 344.239C26.3159 345.552 24.5096 346.793 22.6502 347.963C20.7915 349.129 18.8775 350.22 16.9192 351.234C16.8111 351.293 16.7029 351.351 16.5998 351.41L16.4689 351.481C6.44972 356.935 -4.37163 360.96 -15.6978 363.442C-18.5718 364.07 -21.5035 364.603 -24.4079 365.019L-24.6737 365.058C-33.7127 366.338 -42.914 366.723 -52.0288 366.199C-61.2216 365.669 -70.3309 364.214 -79.1011 361.869C-101.651 355.84 -122.446 344.248 -142.553 333.039C-156.276 325.39 -171.83 316.72 -180.752 302.609Z" fill="url(#paint10_linear_79_1852)"/>
<path d="M-134.92 329.463C-116.652 339.644 -97.7692 350.174 -77.0865 355.702C-68.9041 357.89 -60.4135 359.237 -51.8482 359.704C-43.3564 360.17 -34.7906 359.779 -26.3893 358.544L-26.1397 358.509C-23.423 358.1 -20.6865 357.589 -18.0098 356.98C-7.47437 354.585 2.55187 350.715 11.7959 345.478L11.9423 345.391C11.9997 345.357 12.0601 345.321 12.1197 345.29C23.0486 339.484 32.3631 331.094 39.0637 321.03C45.9408 310.705 49.9314 298.773 50.6058 286.524C52.4775 252.373 46.1059 218.564 32.1728 188.75C24.7205 172.808 15.778 161.334 5.59018 154.644C0.930365 151.595 -4.16495 149.504 -9.54401 148.432C-17.6159 146.821 -26.4222 147.517 -36.4708 150.561C-42.6732 152.444 -48.6775 154.99 -53.2148 157C-77.0172 167.543 -100.104 180.146 -121.831 194.452C-125.61 196.94 -128.95 199.227 -132.047 201.446C-133.338 202.374 -134.594 203.294 -135.818 204.214C-144.002 210.359 -150.725 216.361 -156.286 222.487C-161.134 227.842 -165.352 233.723 -168.823 239.961C-176.184 253.202 -179.317 268.421 -177.417 281.713C-176.395 288.817 -174.034 295.32 -170.398 301.05C-161.911 314.419 -147.57 322.41 -134.92 329.463ZM45.9842 294.313C44.3932 303.06 41.0035 311.472 36.0001 318.985C31.6612 325.501 26.1675 331.276 19.8198 336.043C16.8534 338.27 13.6998 340.279 10.3897 342.037C10.2874 342.09 10.1895 342.15 10.0865 342.209L9.97757 342.272C1.04778 347.333 -8.64431 351.072 -18.8293 353.388C-21.4162 353.976 -24.0614 354.474 -26.6861 354.864L-26.9254 354.901C-35.0852 356.102 -43.4073 356.48 -51.6538 356.028C-59.9629 355.572 -68.2016 354.265 -76.1379 352.142C-96.3771 346.732 -115.064 336.318 -133.128 326.247C-145.399 319.406 -159.305 311.656 -167.291 299.077C-170.646 293.794 -172.826 287.778 -173.77 281.196C-175.559 268.682 -172.582 254.309 -165.603 241.754C-162.271 235.76 -158.218 230.107 -153.56 224.965C-147.342 218.12 -139.604 211.411 -129.899 204.442C-126.843 202.248 -123.54 199.989 -119.805 197.53C-98.2462 183.332 -75.3394 170.831 -51.7196 160.371C-47.2801 158.401 -41.4098 155.91 -35.3973 154.086C-25.9449 151.223 -17.7241 150.557 -10.2606 152.044C-5.34479 153.026 -0.68707 154.938 3.57624 157.723C13.1818 164.03 21.6811 174.993 28.836 190.307C42.5128 219.57 48.7682 252.771 46.9296 286.317C46.7834 289.003 46.4656 291.675 45.9842 294.313Z" fill="url(#paint11_linear_79_1852)"/>
<path d="M-125.495 322.672C-109.273 331.716 -92.5004 341.065 -74.1211 345.978C-66.7748 347.94 -59.1519 349.138 -51.4599 349.532C-43.8313 349.928 -36.1469 349.54 -28.6115 348.384L-28.3936 348.349C-25.9596 347.968 -23.5117 347.49 -21.1089 346.92C-11.7029 344.682 -2.79633 341.086 5.36495 336.234L5.50035 336.151C5.54377 336.123 5.58716 336.095 5.63278 336.07C25.6106 325.086 38.2299 305.596 39.3877 283.935C40.9917 253.772 35.334 223.911 23.0304 197.579C16.3739 183.333 8.36514 173.103 -0.773121 167.173C-4.93693 164.484 -9.50027 162.648 -14.349 161.713C-21.5429 160.327 -29.3632 160.97 -38.2678 163.679C-43.7731 165.357 -49.09 167.617 -53.1085 169.4C-74.1907 178.747 -94.641 189.91 -113.885 202.582C-117.261 204.804 -120.243 206.85 -123.01 208.835C-124.119 209.631 -125.202 210.426 -126.256 211.217C-133.622 216.749 -139.661 222.159 -144.646 227.686C-148.924 232.451 -152.661 237.728 -155.754 243.378C-162.312 255.348 -164.963 268.495 -163.218 280.391C-162.289 286.685 -160.175 292.447 -156.936 297.527C-149.383 309.357 -136.134 316.74 -125.495 322.672ZM-153.834 295.548C-156.791 290.911 -158.724 285.634 -159.576 279.86C-161.182 268.914 -158.612 256.261 -152.523 245.149C-149.568 239.75 -145.995 234.703 -141.907 230.15C-136.389 224.034 -129.505 218.039 -120.859 211.828C-118.136 209.871 -115.191 207.853 -111.859 205.66C-92.7807 193.098 -72.5121 182.03 -51.6125 172.765C-47.6897 171.026 -42.5068 168.821 -37.1914 167.203C-28.8749 164.672 -21.6296 164.061 -15.0397 165.329C-10.6595 166.173 -6.53153 167.834 -2.77011 170.262C5.77492 175.813 13.3338 185.524 19.6935 199.135C31.7432 224.92 37.2816 254.176 35.71 283.738C34.7789 301.142 25.9566 317.071 11.6574 327.808C9.21482 329.642 6.60938 331.327 3.85717 332.841C3.76003 332.895 3.66508 332.953 3.57016 333.01L3.4782 333.065C-4.35932 337.73 -12.9199 341.186 -21.9637 343.336C-24.2716 343.885 -26.6275 344.345 -28.9672 344.711L-29.1792 344.741C-36.4651 345.862 -43.8976 346.236 -51.2759 345.855C-58.7093 345.474 -66.0774 344.315 -73.1755 342.42C-91.1135 337.623 -107.681 328.387 -123.703 319.456C-134.521 313.427 -146.779 306.591 -153.834 295.548Z" fill="url(#paint12_linear_79_1852)"/>
<path d="M-116.07 315.88C-101.891 323.785 -87.2316 331.957 -71.1579 336.25C-64.6484 337.994 -57.888 339.041 -51.0695 339.363C-44.3062 339.686 -37.5032 339.301 -30.8389 338.222L-30.6474 338.189C-28.4962 337.836 -26.3288 337.389 -24.205 336.858C-15.9204 334.775 -8.13129 331.456 -1.05719 326.983L-0.932831 326.903C-0.906353 326.883 -0.874693 326.864 -0.845996 326.847C16.3644 316.965 27.2098 299.955 28.1688 281.35C29.503 255.174 24.5644 229.26 13.8879 206.407C8.02216 193.858 0.947174 184.872 -7.13864 179.699C-10.8013 177.372 -14.8429 175.789 -19.1539 174.994C-25.4698 173.834 -32.3092 174.421 -40.0641 176.793C-44.865 178.269 -49.5018 180.239 -53.0043 181.796C-71.3634 189.946 -89.1756 199.677 -105.937 210.715C-108.907 212.668 -111.534 214.471 -113.972 216.219C-114.907 216.893 -115.814 217.56 -116.702 218.228C-123.244 223.14 -128.599 227.954 -133.006 232.885C-136.716 237.063 -139.974 241.74 -142.691 246.794C-148.334 257.298 -150.583 268.761 -149.021 279.072C-148.182 284.552 -146.316 289.575 -143.469 294.004C-136.853 304.298 -125.325 310.72 -116.07 315.88ZM-140.374 292.016C-142.938 288.024 -144.62 283.486 -145.38 278.522C-146.824 268.998 -144.719 258.349 -139.446 248.541C-136.867 243.738 -133.774 239.296 -130.255 235.335C-125.433 229.945 -119.403 224.67 -111.821 219.212C-109.423 217.49 -106.837 215.718 -103.911 213.793C-87.3153 202.865 -69.6826 193.233 -51.5061 185.164C-48.0993 183.652 -43.5957 181.731 -38.9825 180.317C-31.8048 178.121 -25.5381 177.567 -19.8145 178.619C-15.9749 179.326 -12.3715 180.735 -9.11647 182.802C-1.63128 187.591 4.98873 196.058 10.551 207.964C20.9757 230.273 25.7951 255.58 24.4903 281.158C23.7134 296.249 15.9299 310.227 3.30807 319.705C1.41878 321.124 -0.580357 322.445 -2.68124 323.649C-2.77618 323.707 -2.86816 323.762 -2.9557 323.823L-3.02781 323.868C-9.77229 328.131 -17.2007 331.299 -25.1033 333.284C-27.1292 333.792 -29.1964 334.219 -31.2505 334.555L-31.4338 334.586C-37.8427 335.625 -44.3909 335.994 -50.9009 335.684C-57.458 335.373 -63.9533 334.366 -70.2123 332.693C-85.8448 328.515 -100.299 320.457 -114.279 312.664C-123.644 307.443 -134.257 301.528 -140.374 292.016Z" fill="url(#paint13_linear_79_1852)"/>
<path d="M-106.645 309.089C-94.5111 315.852 -81.965 322.845 -68.1955 326.528C-62.514 328.045 -56.6211 328.943 -50.676 329.193C-44.7781 329.441 -38.8514 329.06 -33.0603 328.057L-32.8932 328.028C-31.0188 327.699 -29.1349 327.284 -27.2953 326.792C-20.1216 324.866 -13.4486 321.813 -7.46461 317.721L-7.30864 317.604C-0.405762 313.411 5.44674 307.777 9.6171 301.318C14.0932 294.39 16.559 286.801 16.9477 278.763C18.0172 256.573 13.7954 234.605 4.74543 215.236C-0.331805 204.38 -6.4708 196.64 -13.5115 192.222C-16.673 190.255 -20.1908 188.929 -23.964 188.274C-29.4018 187.339 -35.2554 187.873 -41.8612 189.912C-45.9679 191.185 -49.9173 192.869 -52.898 194.195C-68.5391 201.148 -83.7101 209.443 -97.9911 218.845C-100.555 220.535 -102.824 222.092 -104.935 223.608C-105.694 224.154 -106.431 224.699 -107.152 225.24C-112.876 229.538 -117.539 233.754 -121.365 238.084C-124.512 241.677 -127.296 245.759 -129.629 250.215C-134.359 259.251 -136.204 269.033 -134.82 277.758C-134.077 282.426 -132.455 286.706 -130.005 290.483C-124.322 299.234 -114.521 304.699 -106.645 309.089ZM-126.915 288.481C-129.085 285.138 -130.522 281.337 -131.183 277.184C-132.443 269.236 -130.732 260.269 -126.366 251.926C-124.167 247.726 -121.553 243.888 -118.6 240.523C-114.478 235.856 -109.307 231.305 -102.781 226.598C-100.717 225.113 -98.4861 223.585 -95.9653 221.923C-81.8521 212.629 -66.8554 204.432 -51.399 197.558C-48.5111 196.274 -44.6905 194.645 -40.7708 193.429C-34.7318 191.567 -29.4356 191.07 -24.5863 191.907C-21.2822 192.477 -18.2086 193.634 -15.4584 195.348C-9.03306 199.375 -3.35861 206.589 1.40857 216.792C10.209 235.621 14.3108 256.987 13.2707 278.579C12.9115 285.964 10.6431 292.939 6.52634 299.316C3.51579 303.973 -0.43422 308.17 -5.06328 311.646C-6.3964 312.647 -7.78994 313.592 -9.23144 314.467C-9.32342 314.522 -9.41097 314.583 -9.49853 314.645L-9.54562 314.68C-15.186 318.538 -21.4793 321.415 -28.251 323.233C-29.9868 323.698 -31.7625 324.091 -33.5345 324.404L-33.6936 324.431C-39.2256 325.387 -44.8893 325.75 -50.5259 325.513C-56.2014 325.273 -61.8269 324.419 -67.2469 322.968C-80.576 319.406 -92.9172 312.526 -104.854 305.872C-112.763 301.462 -121.731 296.463 -126.915 288.481Z" fill="url(#paint14_linear_79_1852)"/>
<path d="M-97.2153 302.298C-87.129 307.922 -76.6941 313.74 -65.2301 316.804C-60.3824 318.099 -55.3543 318.844 -50.2804 319.025C-45.2449 319.197 -40.1974 318.822 -35.2825 317.896L-35.1338 317.867C-33.5392 317.564 -31.9358 317.18 -30.3723 316.725C-24.4819 315.002 -18.863 312.207 -14.075 308.611C-13.9926 308.549 -13.9102 308.487 -13.8301 308.423C-13.7337 308.355 -13.6395 308.284 -13.5549 308.207C-3.89603 299.557 5.12514 289.691 5.72949 276.173C6.52627 257.971 3.02357 239.952 -4.40219 224.063C-8.69464 214.872 -13.905 208.375 -19.8844 204.745C-22.5366 203.137 -25.5275 202.066 -28.7822 201.556C-33.3339 200.845 -38.2015 201.325 -43.6634 203.03C-47.0649 204.096 -50.329 205.492 -52.7938 206.591C-65.7117 212.347 -78.2417 219.208 -90.043 226.978C-92.2033 228.397 -94.12 229.712 -95.8983 230.996C-96.4927 231.424 -97.071 231.849 -97.639 232.276C-102.562 235.973 -106.53 239.588 -109.726 243.288C-112.305 246.27 -114.607 249.755 -116.568 253.647C-120.384 261.208 -121.82 269.305 -120.619 276.444C-119.969 280.302 -118.593 283.844 -116.537 286.968C-111.792 294.175 -103.712 298.678 -97.2153 302.298ZM-113.462 284.946C-115.234 282.249 -116.423 279.183 -116.99 275.835C-118.064 269.466 -116.745 262.176 -113.282 255.308C-111.454 251.687 -109.321 248.454 -106.94 245.698C-103.563 241.793 -99.2462 237.962 -93.7415 233.985C-92.0044 232.731 -90.1341 231.447 -88.0172 230.055C-76.3837 222.393 -64.0281 215.631 -51.2927 209.957C-48.9177 208.897 -45.7794 207.554 -42.5597 206.547C-37.6536 205.015 -33.3331 204.572 -29.3478 205.197C-26.5328 205.636 -24.0619 206.518 -21.79 207.895C-16.4451 211.139 -11.7162 217.099 -7.7339 225.62C-0.560623 240.971 2.82353 258.397 2.05329 276.003C1.54142 287.474 -5.52767 296.073 -15.9876 305.439C-15.9876 305.439 -15.9898 305.436 -15.9927 305.438L-16.0869 305.509C-20.5541 308.919 -25.8461 311.561 -31.4075 313.189C-32.8584 313.61 -34.3447 313.966 -35.826 314.249L-35.9636 314.274C-40.6165 315.15 -45.3907 315.51 -50.156 315.342C-54.953 315.174 -59.7079 314.468 -64.2845 313.246C-75.3021 310.298 -85.535 304.596 -95.4291 299.081C-101.889 295.48 -109.213 291.395 -113.462 284.946Z" fill="url(#paint15_linear_79_1852)"/>
<path d="M-87.7905 295.506C-79.7446 299.994 -71.4201 304.632 -62.2669 307.077C-58.2509 308.153 -54.0852 308.748 -49.8789 308.852C-45.7043 308.957 -41.5346 308.577 -37.4775 307.729L-37.3633 307.703C-36.0375 307.422 -34.7198 307.068 -33.4353 306.652C-28.5095 305.036 -23.936 302.436 -20.2088 299.125C-20.1522 299.078 -20.0455 298.993 -19.936 298.87C-19.4851 298.379 -19.0292 297.889 -18.5784 297.399C-12.3325 290.639 -5.87337 283.655 -5.49017 273.575C-4.96175 259.368 -7.74537 245.297 -13.5447 232.892C-17.0523 225.383 -21.3363 220.125 -26.272 217.26C-28.4621 215.992 -30.8636 215.197 -33.6159 214.835C-37.2792 214.351 -41.1535 214.781 -45.4656 216.148C-48.1678 217.011 -50.7445 218.121 -52.6926 218.99C-62.8822 223.549 -72.7785 228.971 -82.0972 235.107C-83.855 236.266 -85.4134 237.335 -86.8613 238.385C-87.3064 238.706 -87.7383 239.025 -88.1621 239.344C-92.2791 242.435 -95.4582 245.366 -98.095 248.498C-100.128 250.914 -101.952 253.805 -103.514 257.088C-106.408 263.169 -107.439 269.579 -106.418 275.144C-105.854 278.186 -104.725 280.983 -103.063 283.454C-99.2571 289.117 -92.9001 292.661 -87.7905 295.506ZM-100.011 281.402C-101.39 279.35 -102.326 277.02 -102.797 274.48C-103.681 269.674 -102.755 264.062 -100.191 258.676C-98.7638 255.673 -97.1086 253.048 -95.2755 250.874C-92.5658 247.655 -89.2087 244.636 -84.7038 241.369C-83.2978 240.354 -81.7829 239.314 -80.0714 238.185C-70.9153 232.157 -61.1956 226.831 -51.1834 222.354C-49.3273 221.523 -46.8712 220.466 -44.345 219.657C-40.5614 218.456 -37.2092 218.072 -34.096 218.486C-31.832 218.786 -29.874 219.426 -28.1172 220.448C-23.8417 222.924 -20.0643 227.635 -16.8763 234.449C-11.3258 246.327 -8.66151 259.809 -9.16781 273.434C-9.5026 282.15 -15.2234 288.34 -21.2824 294.895C-21.7207 295.371 -22.1642 295.847 -22.5996 296.322L-22.6569 296.374C-26.0075 299.346 -30.132 301.692 -34.5802 303.148C-35.741 303.526 -36.9358 303.847 -38.1313 304.1L-38.2425 304.124C-42.0155 304.915 -45.8995 305.265 -49.7913 305.169C-53.7068 305.073 -57.5837 304.519 -61.3213 303.519C-70.0311 301.193 -78.1529 296.665 -86.0043 292.289C-91.0158 289.495 -96.6927 286.329 -100.011 281.402Z" fill="url(#paint16_linear_79_1852)"/>
<path d="M-78.3658 288.715C-72.3647 292.061 -66.1536 295.521 -59.3045 297.355C-56.1142 298.208 -52.8029 298.652 -49.4671 298.682C-46.1445 298.712 -42.8482 298.333 -39.6776 297.561L-39.5708 297.531C-38.5218 297.274 -37.4788 296.946 -36.4645 296.563C-32.5738 295.07 -29.1312 292.71 -26.5368 289.767C-26.4846 289.714 -26.3794 289.602 -26.2699 289.442L-26.2669 289.44C-25.4003 288.13 -24.3946 286.822 -23.4263 285.555C-20.2039 281.352 -16.8689 277.005 -16.7091 270.972C-16.4512 260.756 -18.5194 250.641 -22.6871 241.72C-25.4136 235.883 -28.7757 231.859 -32.6817 229.765C-34.3758 228.857 -36.2741 228.315 -38.4805 228.11C-41.1988 227.861 -44.1571 228.248 -47.2759 229.268C-49.2707 229.927 -51.1622 230.748 -52.5863 231.389C-60.0579 234.751 -67.313 238.738 -74.1492 243.24C-75.5119 244.134 -76.7156 244.965 -77.8295 245.773C-78.1054 245.976 -78.3754 246.174 -78.6432 246.375C-81.9304 248.844 -84.4327 251.193 -86.4708 253.719C-88.0054 255.622 -89.3134 257.858 -90.4714 260.557C-91.8644 263.801 -93.2973 268.739 -92.2137 273.865C-91.7346 276.09 -90.8514 278.137 -89.5834 279.954C-86.7146 284.062 -82.0856 286.642 -78.3658 288.715ZM-86.5682 277.847C-87.5523 276.438 -88.2413 274.84 -88.6108 273.104C-89.4944 268.924 -88.2719 264.767 -87.0904 262.013C-86.0638 259.629 -84.9241 257.672 -83.6035 256.035C-81.6095 253.561 -79.0836 251.25 -75.661 248.753C-74.5942 247.98 -73.4398 247.182 -72.1234 246.318C-65.4498 241.924 -58.3683 238.03 -51.0741 234.751C-49.0796 233.852 -47.5516 233.24 -46.1229 232.77C-43.4892 231.908 -41.0301 231.573 -38.8133 231.779C-37.1077 231.936 -35.6683 232.339 -34.4171 233.012C-31.2295 234.72 -28.405 238.175 -26.0188 243.277C-22.094 251.685 -20.1443 261.225 -20.3896 270.87C-20.517 275.707 -23.3491 279.401 -26.3488 283.312C-27.3325 284.595 -28.3486 285.92 -29.2688 287.293C-29.2725 287.3 -29.2754 287.303 -29.2813 287.307C-31.5058 289.83 -34.4467 291.84 -37.7868 293.123C-38.6538 293.451 -39.5511 293.733 -40.4669 293.96L-40.5405 293.978C-43.4277 294.681 -46.4222 295.026 -49.4377 295.001C-52.4686 294.973 -55.4677 294.57 -58.3589 293.797C-64.7645 292.082 -70.7708 288.735 -76.5796 285.498C-80.1431 283.51 -84.1819 281.257 -86.5682 277.847Z" fill="url(#paint17_linear_79_1852)"/>
<path d="M-68.9411 281.923C-64.9826 284.13 -60.8848 286.412 -56.3413 287.627C-53.9724 288.263 -51.5133 288.559 -49.0317 288.512C-46.5605 288.462 -44.1287 288.079 -41.7783 287.36L-42.3401 285.606L-41.7371 287.347C-40.9509 287.107 -40.1767 286.802 -39.4363 286.44C-36.5801 285.046 -34.2079 282.836 -32.7671 280.22C-30.4894 277.265 -27.9235 273.26 -27.9258 268.336C-27.9436 262.128 -29.2921 255.975 -31.8296 250.548C-33.7912 246.349 -36.2519 243.556 -39.146 242.245C-40.3742 241.688 -41.7678 241.408 -43.4165 241.388C-45.2045 241.366 -47.1172 241.706 -49.106 242.398C-50.1027 242.75 -51.178 243.193 -52.491 243.792C-57.2395 245.957 -61.8505 248.507 -66.2034 251.37C-67.1666 252.006 -68.0149 252.592 -68.7955 253.164C-68.9214 253.254 -69.039 253.343 -69.1597 253.433C-71.6199 255.281 -73.4403 257.049 -74.8695 258.97C-75.9193 260.385 -76.7641 262.061 -77.4523 264.098C-78.4994 267.184 -78.6836 270.138 -77.9869 272.647C-77.5957 274.044 -76.9527 275.336 -76.0794 276.486C-74.1552 279.018 -71.2666 280.628 -68.9411 281.923ZM-74.4417 271.662C-74.938 269.874 -74.7728 267.667 -73.9671 265.283C-73.3999 263.617 -72.7307 262.271 -71.9117 261.168C-70.6384 259.456 -68.9548 257.855 -66.6152 256.135C-65.8875 255.603 -65.0885 255.049 -64.1776 254.448C-59.9814 251.689 -55.5359 249.23 -50.9589 247.144C-49.7468 246.588 -48.7693 246.186 -47.8831 245.871C-46.3065 245.323 -44.8164 245.052 -43.4592 245.07C-42.3149 245.086 -41.4259 245.252 -40.6625 245.601C-38.5915 246.539 -36.7419 248.726 -35.1664 252.105C-32.8526 257.049 -31.6227 262.665 -31.6106 268.338C-31.606 272.187 -33.7103 275.421 -35.7675 278.081C-35.8858 278.23 -35.9556 278.37 -35.9953 278.446C-37.0828 280.405 -38.8775 282.066 -41.053 283.128C-41.6211 283.408 -42.2195 283.64 -42.8466 283.835L-42.8849 283.845C-44.8835 284.456 -46.9766 284.789 -49.1069 284.826C-51.2431 284.868 -53.3583 284.613 -55.3935 284.072C-59.4957 282.973 -63.3886 280.804 -67.1548 278.706C-69.28 277.519 -71.6932 276.174 -73.1499 274.259C-73.7422 273.482 -74.1755 272.605 -74.4417 271.662Z" fill="url(#paint18_linear_79_1852)"/>
<path d="M-59.5163 275.131C-57.6004 276.2 -55.6138 277.307 -53.376 277.903C-51.8077 278.324 -50.1794 278.47 -48.5323 278.335C-46.8881 278.202 -45.3054 277.796 -43.8275 277.129L-43.7827 277.109C-43.2454 276.862 -42.7289 276.557 -42.255 276.202C-40.3245 274.752 -39.1321 272.534 -38.9848 270.119C-38.7537 266.37 -39.4401 262.655 -40.9721 259.377C-42.2213 256.702 -43.8616 255.118 -45.8511 254.663C-46.7144 254.463 -47.6297 254.482 -48.6471 254.721C-49.5253 254.924 -50.3438 255.262 -51.0312 255.567C-53.5387 256.671 -55.9671 257.997 -58.2554 259.503C-58.8352 259.883 -59.3311 260.228 -59.7725 260.559C-61.4029 261.783 -62.5296 262.98 -63.3247 264.323C-63.9839 265.431 -64.391 266.728 -64.4749 267.97C-64.569 269.377 -64.2595 270.703 -63.5829 271.794C-62.5655 273.431 -60.8766 274.374 -59.5163 275.131ZM-60.455 269.855C-60.7221 269.42 -60.842 268.855 -60.8023 268.222C-60.7574 267.552 -60.522 266.818 -60.159 266.204C-59.6166 265.29 -58.7929 264.432 -57.5598 263.506C-57.1802 263.221 -56.7454 262.917 -56.2296 262.581C-54.112 261.184 -51.8609 259.959 -49.5411 258.936C-49.0082 258.702 -48.3878 258.443 -47.8055 258.305C-47.3461 258.2 -46.975 258.18 -46.6693 258.25C-45.8672 258.435 -45.0288 259.386 -44.3089 260.933C-43.0346 263.654 -42.4661 266.752 -42.6574 269.886C-42.7419 271.226 -43.4024 272.455 -44.4677 273.255C-44.7297 273.452 -45.0137 273.619 -45.2838 273.743L-45.3427 273.769C-46.4386 274.265 -47.6142 274.562 -48.8357 274.664C-50.0594 274.763 -51.2724 274.655 -52.4304 274.345C-54.2269 273.865 -56.0065 272.874 -57.7271 271.912C-58.7683 271.335 -59.9429 270.678 -60.455 269.855Z" fill="url(#paint19_linear_79_1852)"/>
</g>
<defs>
<linearGradient id="paint0_linear_79_1852" x1="85.9229" y1="449.42" x2="-203.88" y2="172.696" gradientUnits="userSpaceOnUse">
<stop stop-color="#AC713D"/>
<stop offset="0.418269" stop-color="#161B20"/>
<stop offset="0.966346" stop-color="#4D6881"/>
</linearGradient>
<linearGradient id="paint1_linear_79_1852" x1="85.9229" y1="449.42" x2="-203.88" y2="172.696" gradientUnits="userSpaceOnUse">
<stop stop-color="#AC713D"/>
<stop offset="0.418269" stop-color="#161B20"/>
<stop offset="0.966346" stop-color="#4D6881"/>
</linearGradient>
<linearGradient id="paint2_linear_79_1852" x1="85.9229" y1="449.42" x2="-203.88" y2="172.696" gradientUnits="userSpaceOnUse">
<stop stop-color="#AC713D"/>
<stop offset="0.418269" stop-color="#161B20"/>
<stop offset="0.966346" stop-color="#4D6881"/>
</linearGradient>
<linearGradient id="paint3_linear_79_1852" x1="85.9229" y1="449.42" x2="-203.88" y2="172.696" gradientUnits="userSpaceOnUse">
<stop stop-color="#AC713D"/>
<stop offset="0.418269" stop-color="#161B20"/>
<stop offset="0.966346" stop-color="#4D6881"/>
</linearGradient>
<linearGradient id="paint4_linear_79_1852" x1="85.9229" y1="449.42" x2="-203.88" y2="172.696" gradientUnits="userSpaceOnUse">
<stop stop-color="#AC713D"/>
<stop offset="0.418269" stop-color="#161B20"/>
<stop offset="0.966346" stop-color="#4D6881"/>
</linearGradient>
<linearGradient id="paint5_linear_79_1852" x1="85.9229" y1="449.42" x2="-203.88" y2="172.696" gradientUnits="userSpaceOnUse">
<stop stop-color="#AC713D"/>
<stop offset="0.418269" stop-color="#161B20"/>
<stop offset="0.966346" stop-color="#4D6881"/>
</linearGradient>
<linearGradient id="paint6_linear_79_1852" x1="85.9229" y1="449.42" x2="-203.88" y2="172.696" gradientUnits="userSpaceOnUse">
<stop stop-color="#AC713D"/>
<stop offset="0.418269" stop-color="#161B20"/>
<stop offset="0.966346" stop-color="#4D6881"/>
</linearGradient>
<linearGradient id="paint7_linear_79_1852" x1="85.9229" y1="449.42" x2="-203.88" y2="172.696" gradientUnits="userSpaceOnUse">
<stop stop-color="#AC713D"/>
<stop offset="0.418269" stop-color="#161B20"/>
<stop offset="0.966346" stop-color="#4D6881"/>
</linearGradient>
<linearGradient id="paint8_linear_79_1852" x1="85.9229" y1="449.42" x2="-203.88" y2="172.696" gradientUnits="userSpaceOnUse">
<stop stop-color="#AC713D"/>
<stop offset="0.418269" stop-color="#161B20"/>
<stop offset="0.966346" stop-color="#4D6881"/>
</linearGradient>
<linearGradient id="paint9_linear_79_1852" x1="85.9229" y1="449.42" x2="-203.88" y2="172.696" gradientUnits="userSpaceOnUse">
<stop stop-color="#AC713D"/>
<stop offset="0.418269" stop-color="#161B20"/>
<stop offset="0.966346" stop-color="#4D6881"/>
</linearGradient>
<linearGradient id="paint10_linear_79_1852" x1="85.9229" y1="449.42" x2="-203.88" y2="172.696" gradientUnits="userSpaceOnUse">
<stop stop-color="#AC713D"/>
<stop offset="0.418269" stop-color="#161B20"/>
<stop offset="0.966346" stop-color="#4D6881"/>
</linearGradient>
<linearGradient id="paint11_linear_79_1852" x1="85.9229" y1="449.42" x2="-203.88" y2="172.696" gradientUnits="userSpaceOnUse">
<stop stop-color="#AC713D"/>
<stop offset="0.418269" stop-color="#161B20"/>
<stop offset="0.966346" stop-color="#4D6881"/>
</linearGradient>
<linearGradient id="paint12_linear_79_1852" x1="85.9229" y1="449.42" x2="-203.88" y2="172.696" gradientUnits="userSpaceOnUse">
<stop stop-color="#AC713D"/>
<stop offset="0.418269" stop-color="#161B20"/>
<stop offset="0.966346" stop-color="#4D6881"/>
</linearGradient>
<linearGradient id="paint13_linear_79_1852" x1="85.9229" y1="449.42" x2="-203.88" y2="172.696" gradientUnits="userSpaceOnUse">
<stop stop-color="#AC713D"/>
<stop offset="0.418269" stop-color="#161B20"/>
<stop offset="0.966346" stop-color="#4D6881"/>
</linearGradient>
<linearGradient id="paint14_linear_79_1852" x1="85.9229" y1="449.42" x2="-203.88" y2="172.696" gradientUnits="userSpaceOnUse">
<stop stop-color="#AC713D"/>
<stop offset="0.418269" stop-color="#161B20"/>
<stop offset="0.966346" stop-color="#4D6881"/>
</linearGradient>
<linearGradient id="paint15_linear_79_1852" x1="85.9229" y1="449.42" x2="-203.88" y2="172.696" gradientUnits="userSpaceOnUse">
<stop stop-color="#AC713D"/>
<stop offset="0.418269" stop-color="#161B20"/>
<stop offset="0.966346" stop-color="#4D6881"/>
</linearGradient>
<linearGradient id="paint16_linear_79_1852" x1="85.9229" y1="449.42" x2="-203.88" y2="172.696" gradientUnits="userSpaceOnUse">
<stop stop-color="#AC713D"/>
<stop offset="0.418269" stop-color="#161B20"/>
<stop offset="0.966346" stop-color="#4D6881"/>
</linearGradient>
<linearGradient id="paint17_linear_79_1852" x1="85.9229" y1="449.42" x2="-203.88" y2="172.696" gradientUnits="userSpaceOnUse">
<stop stop-color="#AC713D"/>
<stop offset="0.418269" stop-color="#161B20"/>
<stop offset="0.966346" stop-color="#4D6881"/>
</linearGradient>
<linearGradient id="paint18_linear_79_1852" x1="85.9229" y1="449.42" x2="-203.88" y2="172.696" gradientUnits="userSpaceOnUse">
<stop stop-color="#AC713D"/>
<stop offset="0.418269" stop-color="#161B20"/>
<stop offset="0.966346" stop-color="#4D6881"/>
</linearGradient>
<linearGradient id="paint19_linear_79_1852" x1="85.9229" y1="449.42" x2="-203.88" y2="172.696" gradientUnits="userSpaceOnUse">
<stop stop-color="#AC713D"/>
<stop offset="0.418269" stop-color="#161B20"/>
<stop offset="0.966346" stop-color="#4D6881"/>
</linearGradient>
</defs>
</svg>
