<svg width="138" height="352" viewBox="0 0 138 352" fill="none" xmlns="http://www.w3.org/2000/svg">
<g opacity="0.5">
<path d="M243.76 347.445C229.769 344.174 216.356 339.642 201.529 334.488C164.354 321.567 125.912 308.208 93.2081 288.132C70.7859 274.367 51.5619 257.652 36.0664 238.449C20.5708 219.246 9.55902 198.487 3.33637 176.751L3.15316 176.108C-2.12131 157.387 -0.758501 137.873 7.09053 119.679C14.9331 101.508 28.9566 85.3183 47.6503 72.8586C99.5304 38.2815 160.863 14.4367 225.025 3.90268C273.196 -4.0054 309.937 0.116836 334.227 16.1589C344.541 22.9699 352.782 32.0253 359.423 43.8448C365.613 54.8608 369.538 66.7305 372.562 76.888C384.172 115.914 391.661 155.966 394.824 195.936C395.499 204.462 396 213.369 396 222.474C396 245.564 392.773 269.89 380.97 292.224C372.848 307.593 359.863 321.792 344.403 332.204C327.509 343.584 308.092 350.329 288.251 351.713C274.655 352.662 260.104 351.266 243.76 347.445ZM287.965 349.212C307.131 347.874 325.921 341.337 342.304 330.303C357.391 320.143 370.068 306.28 378.001 291.267C394.21 260.594 393.978 225.944 391.616 196.092C388.463 156.26 380.999 116.346 369.432 77.4554C366.442 67.4108 362.566 55.6818 356.478 44.854C350.04 33.3935 342.082 24.6344 332.153 18.077C308.658 2.55955 272.839 -1.38193 225.684 6.36046C162.049 16.8067 101.208 40.4631 49.7363 74.7691C31.4862 86.935 17.7937 102.741 10.1376 120.483C5.53165 131.155 3.21423 142.289 3.21423 153.446C3.21423 160.854 4.23634 168.273 6.2902 175.568L6.47019 176.201C12.6157 197.658 23.4861 218.151 38.7856 237.111C54.0851 256.07 73.0616 272.572 95.1944 286.158C127.584 306.042 165.839 319.337 202.837 332.193C217.562 337.312 230.875 341.811 244.683 345.04C260.628 348.768 274.784 350.134 287.965 349.212Z" fill="url(#paint0_linear_79_1856)"/>
<path d="M241.411 338.864C228.13 335.756 215.402 331.455 201.33 326.565C166.019 314.291 129.506 301.6 98.4376 282.531C86.6962 275.323 75.7197 267.126 65.8136 258.171C56.0007 249.297 47.1906 239.636 39.6309 229.456L39.4091 229.157C36.9728 225.864 34.6361 222.469 32.4633 219.068C23.7625 205.443 17.2634 191.118 13.1525 176.492L12.9821 175.885C8.00978 158.12 9.3276 139.608 16.7974 122.346C24.2575 105.106 37.5835 89.7443 55.3289 77.9223C104.567 45.1226 162.773 22.503 223.656 12.5062C254.705 7.40985 280.987 7.59311 301.776 13.0509C311.502 15.6066 320.148 19.3623 327.474 24.2151C338.942 31.8019 347.826 42.469 354.64 56.8266C358.818 65.6334 361.759 74.857 363.858 81.909C374.876 118.959 381.986 156.986 384.991 194.932C385.496 201.301 385.817 207.005 385.981 212.37C386.059 214.988 386.1 217.546 386.1 220.054C386.1 234.01 384.869 246.294 382.372 257.416C380.025 267.849 376.451 277.63 371.749 286.49C361.039 306.714 342.182 323.969 320.01 333.828C308.391 338.997 296.161 342.057 283.658 342.926C270.75 343.822 256.929 342.492 241.411 338.864ZM283.372 340.425C295.415 339.589 307.205 336.635 318.419 331.649C339.98 322.059 358.336 305.248 368.779 285.528C373.391 276.839 376.901 267.234 379.206 256.981C382.115 244.03 383.281 229.456 382.767 212.43C382.606 207.098 382.285 201.424 381.784 195.087C378.791 157.279 371.707 119.391 360.728 82.4764C358.651 75.4972 355.739 66.3715 351.625 57.6977C345.01 43.7569 336.432 33.4312 325.394 26.1307C318.381 21.4837 310.088 17.8837 300.751 15.4309C280.514 10.1162 254.798 9.95801 224.314 14.9639C163.959 24.8729 106.245 47.3042 57.415 79.8328C40.1098 91.361 27.1149 106.339 19.8412 123.152C15.4506 133.299 13.2393 143.888 13.2393 154.495C13.2393 161.479 14.1971 168.474 16.1224 175.35L16.2927 175.955C20.3458 190.378 26.7549 204.507 35.34 217.946C37.4838 221.302 39.7884 224.651 42.1926 227.902L42.4112 228.196C49.8713 238.24 58.5656 247.775 68.2468 256.529C78.0179 265.364 88.8432 273.448 100.424 280.557C131.177 299.434 167.504 312.062 202.638 324.27C216.607 329.126 229.235 333.393 242.333 336.459C257.453 339.994 270.878 341.292 283.372 340.425Z" fill="url(#paint1_linear_79_1856)"/>
<path d="M239.064 330.28C226.494 327.341 214.447 323.269 201.131 318.642C167.684 307.016 133.099 294.995 103.67 276.932C92.5203 270.089 82.1031 262.304 72.708 253.795C63.3965 245.363 55.0461 236.187 47.8913 226.516L47.6824 226.233C45.3746 223.102 43.1633 219.876 41.1094 216.645C32.8972 203.714 26.7935 190.119 22.9718 176.236L22.8143 175.659C13.3775 141.28 28.7798 105.769 63.0076 82.9835C109.607 51.9637 164.685 30.5667 222.286 21.1097C251.731 16.2769 276.654 16.4577 296.364 21.6519C305.582 24.0821 313.775 27.657 320.717 32.2713C331.572 39.4664 339.98 49.5762 346.431 63.1781C350.384 71.5205 353.171 80.2546 355.157 86.9275C365.584 122.004 372.315 158.005 375.156 193.928C375.635 199.965 375.94 205.375 376.095 210.464C376.168 212.93 376.207 215.337 376.207 217.697C376.207 230.957 375.034 242.626 372.649 253.188C370.415 263.079 367.008 272.356 362.528 280.756C352.364 299.896 334.497 316.219 313.502 325.541C302.493 330.426 290.909 333.321 279.068 334.137C266.841 334.98 253.756 333.72 239.064 330.28ZM278.785 331.636C290.163 330.85 301.31 328.066 311.914 323.359C332.298 314.306 349.664 298.427 359.561 279.792C363.951 271.56 367.288 262.462 369.483 252.754C372.254 240.475 373.366 226.665 372.88 210.524C372.729 205.466 372.424 200.088 371.948 194.083C369.117 158.299 362.412 122.439 352.027 87.4974C350.063 80.8922 347.308 72.2611 343.416 64.0493C337.164 50.8641 329.058 41.0932 318.635 34.1843C312.004 29.7759 304.164 26.3591 295.335 24.0319C276.178 18.9833 251.825 18.8251 222.948 23.5674C165.868 32.9391 111.285 54.1453 65.0936 84.894C38.2456 102.766 23.2996 128.672 23.2996 155.572C23.2996 158.818 23.5182 162.082 23.9586 165.348C24.3989 168.612 25.0642 171.878 25.9578 175.134L26.1121 175.706C29.8791 189.386 35.8928 202.785 43.9893 215.53C46.0143 218.714 48.1935 221.895 50.4659 224.982L50.6716 225.259C57.7299 234.794 65.9615 243.844 75.1412 252.156C84.4044 260.541 94.6705 268.213 105.653 274.957C134.771 292.829 169.172 304.786 202.439 316.347C225.571 324.388 251.789 333.499 278.785 331.636Z" fill="url(#paint2_linear_79_1856)"/>
<path d="M236.715 321.7C224.858 318.923 213.492 315.084 200.931 310.719C169.349 299.743 136.693 288.393 108.9 271.331C98.3443 264.852 88.4864 257.478 79.5992 249.42C70.7956 241.431 62.9048 232.737 56.1486 223.577L55.9525 223.308C53.7733 220.343 51.6905 217.285 49.7556 214.225C42.0287 201.986 36.3203 189.117 32.7879 175.975L32.6465 175.435C23.8782 142.974 38.4545 109.489 70.6863 88.0447C114.643 58.8048 166.594 38.633 220.917 29.7131C248.758 25.144 272.322 25.3248 290.951 30.2529C299.665 32.5626 307.404 35.9517 313.961 40.325C324.202 47.131 332.137 56.6835 338.222 69.5297C341.954 77.4076 344.58 85.6496 346.453 91.9485C356.292 125.052 362.64 159.024 365.324 192.923C365.774 198.632 366.063 203.749 366.208 208.561C366.278 210.871 366.314 213.13 366.314 215.342C366.314 227.905 365.195 238.958 362.926 248.963C360.801 258.309 357.565 267.076 353.306 275.019C343.692 293.075 326.812 308.469 306.99 317.253C296.598 321.858 285.657 324.582 274.475 325.35C262.936 326.141 250.584 324.948 236.715 321.7ZM274.195 322.849C284.915 322.114 295.415 319.495 305.405 315.069C324.616 306.556 340.992 291.606 350.339 274.053C354.508 266.278 357.68 257.689 359.76 248.526C362.392 236.922 363.453 223.868 362.997 208.619C362.852 203.839 362.563 198.755 362.116 193.079C359.442 159.318 353.12 125.484 343.323 92.5158C341.471 86.2898 338.874 78.1457 335.207 70.4008C329.319 57.9688 321.688 48.7578 311.875 42.2355C305.63 38.0681 298.244 34.8371 289.919 32.6329C271.843 27.8478 248.848 27.6922 221.579 32.1709C167.777 41.0054 116.321 60.9865 72.7691 89.9577C47.4606 106.796 33.3504 131.265 33.3504 156.689C33.3504 162.74 34.1507 168.85 35.7899 174.916L35.9346 175.46C39.4123 188.397 45.0307 201.065 52.6387 213.113C54.5415 216.128 56.5953 219.138 58.7392 222.058L58.9353 222.321C65.5886 231.347 73.3637 239.912 82.0356 247.78C90.7878 255.719 100.495 262.976 110.886 269.358C138.364 286.226 170.837 297.511 202.24 308.424C224.045 316.003 248.758 324.594 274.195 322.849Z" fill="url(#paint3_linear_79_1856)"/>
<path d="M234.365 313.119C223.218 310.508 212.538 306.898 200.732 302.795C171.014 292.467 140.286 281.785 114.129 265.73C104.168 259.615 94.8698 252.656 86.4937 245.041C78.1914 237.497 70.7602 229.285 64.4058 220.634L64.2226 220.381C62.1752 217.584 60.2177 214.697 58.4017 211.802C51.1634 200.257 45.8503 188.116 42.6072 175.716L42.4754 175.209C34.3757 144.669 48.126 113.207 78.365 93.1083C119.683 65.6435 168.503 46.6992 219.548 38.3166C245.788 34.0086 267.989 34.1919 285.541 38.8564C293.744 41.0405 301.037 44.2464 307.208 48.3812C316.831 54.7931 324.292 63.7882 330.013 75.8813C333.52 83.2923 335.991 91.0447 337.749 96.9695C346.997 128.097 352.965 160.043 355.488 191.919C355.916 197.297 356.186 202.117 356.324 206.656C356.388 208.812 356.421 210.921 356.421 212.987C356.421 224.852 355.36 235.288 353.203 244.738C351.191 253.542 348.122 261.801 344.085 269.285C335.021 286.256 319.126 300.719 300.481 308.964C290.7 313.289 280.408 315.845 269.885 316.561C259.028 317.301 247.412 316.174 234.365 313.119ZM269.606 314.06C279.666 313.375 289.521 310.924 298.896 306.78C316.934 298.804 332.321 284.785 341.121 268.316C345.068 260.998 348.07 252.917 350.04 244.296C352.531 233.37 353.537 221.076 353.11 206.714C352.975 202.21 352.705 197.42 352.281 192.075C349.77 160.337 343.827 128.529 334.619 97.5369C332.88 91.6849 330.444 84.0304 326.998 76.7499C321.473 65.0736 314.315 56.4173 305.116 50.2892C299.253 46.3603 292.32 43.3125 284.506 41.2313C267.507 36.7149 245.875 36.5618 220.21 40.7744C169.69 49.0691 121.358 67.8276 80.4478 95.0188C56.6725 110.822 43.4011 133.861 43.4011 157.807C43.4011 163.412 44.1307 169.076 45.6221 174.7L45.7571 175.214C48.9424 187.405 54.1686 199.343 61.288 210.698C63.0751 213.545 65.0004 216.384 67.0125 219.136L67.1957 219.387C73.4473 227.9 80.7595 235.981 88.93 243.407C97.1712 250.896 106.319 257.742 116.116 263.757C141.958 279.619 172.502 290.235 202.037 300.501C222.518 307.618 245.731 315.687 269.606 314.06Z" fill="url(#paint4_linear_79_1856)"/>
<path d="M200.533 294.87C172.679 285.189 143.88 275.18 119.362 260.132C109.993 254.38 101.253 247.831 93.3849 240.666C85.5873 233.566 78.6157 225.836 72.6662 217.694L72.4927 217.456C70.5738 214.822 68.7417 212.104 67.0479 209.38C60.2949 198.527 55.3772 187.112 52.4233 175.455L52.3751 175.262C52.3526 175.169 52.3301 175.076 52.3044 174.983C44.8732 146.364 57.8007 116.925 86.0437 98.1695C124.723 72.4846 170.413 54.7629 218.179 46.9201C242.815 42.8782 263.659 43.0565 280.129 47.4574C287.788 49.5059 294.625 52.5286 300.455 56.4399C309.481 62.4953 316.462 70.9331 321.804 82.2328C325.089 89.1819 327.4 96.4423 329.049 101.99C337.704 131.142 343.294 161.063 345.656 190.915C346.055 195.971 346.312 200.498 346.437 204.753C346.495 206.754 346.527 208.709 346.527 210.63C346.527 221.797 345.521 231.62 343.48 240.512C341.597 248.692 338.698 256.444 334.86 263.554C326.271 279.47 311.367 293.002 293.969 300.677C284.802 304.719 275.153 307.106 265.292 307.774C242.15 309.335 220.04 301.651 200.533 294.87ZM265.016 305.273C274.417 304.636 283.626 302.356 292.388 298.49C309.179 291.084 323.581 277.994 331.9 262.58C335.644 255.638 338.476 248.064 340.318 240.068C342.67 229.818 343.622 218.282 343.223 204.811C343.098 200.588 342.844 196.094 342.448 191.071C340.096 161.356 334.535 131.577 325.918 102.558C324.292 97.0799 322.01 89.92 318.789 83.1015C313.643 72.2134 306.961 64.1145 298.36 58.3429C292.841 54.6424 286.358 51.7779 279.091 49.8323C263.174 45.582 242.902 45.4289 218.841 49.3779C171.599 57.1354 126.398 74.6687 88.1232 100.083C65.8843 114.852 53.4519 136.457 53.4519 158.926C53.4519 161.509 53.6158 164.103 53.9501 166.699C54.2811 169.295 54.7825 171.893 55.4575 174.484C55.4832 174.584 55.5057 174.685 55.5314 174.785L55.5764 174.971C58.4756 186.414 63.3066 197.623 69.9374 208.283C71.6023 210.959 73.4023 213.627 75.2858 216.216L75.4561 216.449C81.306 224.455 88.1618 232.052 95.8244 239.031C103.558 246.073 112.143 252.508 121.348 258.156C145.551 273.013 174.167 282.96 201.838 292.578C220.991 299.233 242.7 306.78 265.016 305.273Z" fill="url(#paint5_linear_79_1856)"/>
<path d="M200.334 286.947C174.344 277.914 147.47 268.575 124.591 254.531C115.817 249.144 107.637 243.008 100.276 236.29C92.9831 229.632 86.4744 222.387 80.9235 214.752L80.7595 214.529C78.9725 212.058 77.269 209.51 75.694 206.957C69.4263 196.795 64.9008 186.107 62.2427 175.197L62.1977 175.011C62.1784 174.926 62.1591 174.843 62.1366 174.757C55.3707 148.056 67.4721 120.646 93.7223 103.231C129.76 79.3257 172.325 62.8292 216.809 55.5261C239.842 51.7453 259.327 51.9236 274.719 56.0609C281.861 57.9839 288.248 60.8208 293.699 64.4961C302.114 70.1674 308.622 78.0453 313.598 88.5844C316.655 95.0665 318.808 101.837 320.345 107.011C328.412 134.188 333.619 162.079 335.821 189.911C336.194 194.636 336.435 198.866 336.55 202.847C336.605 204.695 336.634 206.503 336.634 208.275C336.631 218.746 335.686 227.952 333.757 236.287C331.99 243.909 329.257 251.152 325.638 257.82C317.584 272.659 303.666 285.26 287.46 292.389C278.904 296.15 269.904 298.369 260.702 298.985C239.122 300.428 218.513 293.266 200.334 286.947ZM260.426 296.484C269.168 295.899 277.731 293.785 285.882 290.203C301.484 283.339 314.897 271.178 322.678 256.841C326.204 250.344 328.869 243.279 330.595 235.84C332.809 226.263 333.706 215.49 333.336 202.905C333.221 198.956 332.986 194.756 332.613 190.066C330.421 162.373 325.24 134.619 317.214 107.579C315.7 102.475 313.576 95.8021 310.58 89.453C305.8 79.3232 299.591 71.7816 291.6 66.3966C286.457 62.9321 280.424 60.2534 273.675 58.4333C258.838 54.4466 239.929 54.296 217.471 57.9814C173.508 65.2016 131.434 81.5098 95.8019 105.144C75.0962 118.881 63.5026 139.058 63.5026 160.048C63.5026 162.408 63.6473 164.778 63.9462 167.153C64.2419 169.525 64.6886 171.9 65.2897 174.27C65.3122 174.366 65.3347 174.459 65.3572 174.554L65.399 174.725C68.0057 185.424 72.4445 195.901 78.5868 205.868C80.1328 208.373 81.8074 210.871 83.5591 213.294L83.7198 213.512C89.1678 221.008 95.5609 228.123 102.719 234.658C109.941 241.251 117.967 247.271 126.578 252.558C149.141 266.408 175.832 275.685 201.638 284.655C219.468 290.851 239.672 297.872 260.426 296.484Z" fill="url(#paint6_linear_79_1856)"/>
<path d="M200.134 279.024C176.009 270.638 151.063 261.97 129.821 248.93C121.641 243.909 114.02 238.183 107.17 231.914C100.382 225.7 94.3298 218.937 89.1807 211.812L89.0296 211.601C87.3743 209.299 85.7962 206.919 84.3369 204.534C78.5578 195.06 74.4276 185.101 72.0588 174.933L72.0202 174.762C72.0041 174.685 71.9848 174.607 71.9655 174.529C68.9828 162.411 70.0949 149.888 75.1862 138.317C80.3256 126.634 89.3928 116.25 101.401 108.292C134.8 86.1668 174.234 70.8954 215.443 64.1296C236.872 60.6099 254.994 60.7906 269.31 64.6618C275.937 66.4594 281.871 69.113 286.946 72.5523C294.747 77.8395 300.78 85.1601 305.389 94.936C308.224 100.954 310.22 107.232 311.644 112.032C319.12 137.235 323.944 163.099 325.989 188.907C326.336 193.3 326.558 197.239 326.667 200.942C326.715 202.636 326.741 204.293 326.741 205.92C326.741 215.694 325.847 224.285 324.038 232.062C322.382 239.124 319.817 245.862 316.414 252.088C308.896 265.848 295.968 277.517 280.948 284.102C273.009 287.582 264.652 289.633 256.109 290.198C236.091 291.521 216.989 284.883 200.134 279.024ZM255.839 287.695C263.92 287.16 271.839 285.214 279.377 281.913C293.789 275.592 306.212 264.362 313.46 251.102C316.767 245.046 319.261 238.489 320.875 231.613C322.948 222.71 323.79 212.696 323.453 201C323.343 197.329 323.125 193.423 322.781 189.06C320.746 163.392 315.948 137.667 308.513 112.6C307.109 107.87 305.145 101.689 302.371 95.8021C297.958 86.4354 292.22 79.4512 284.841 74.4503C280.074 71.2218 274.494 68.7263 268.256 67.0343C254.502 63.3137 236.953 63.1631 216.102 66.5849C175.417 73.2653 136.471 88.3509 103.481 110.207C91.9128 117.872 83.1798 127.876 78.2268 139.133C75.1155 146.205 73.5437 153.644 73.5437 161.123C73.5437 163.282 73.6755 165.446 73.9391 167.605C74.1994 169.764 74.5947 171.918 75.1219 174.057C75.1444 174.147 75.1669 174.238 75.1862 174.328L75.2215 174.484C77.5389 184.433 81.5824 194.181 87.2393 203.452C88.6664 205.79 90.2124 208.117 91.8324 210.371L91.9803 210.577C97.0265 217.561 102.96 224.192 109.613 230.285C116.328 236.428 123.794 242.036 131.807 246.957C152.735 259.803 177.497 268.409 201.439 276.731C217.941 282.465 236.644 288.965 255.839 287.695Z" fill="url(#paint7_linear_79_1856)"/>
<path d="M199.935 271.1C177.677 263.366 154.657 255.365 135.053 243.332C127.465 238.672 120.4 233.358 114.062 227.536C107.778 221.767 102.185 215.485 97.4251 208.85L97.2997 208.674C95.773 206.535 94.3202 204.326 92.9831 202.109C87.6861 193.325 83.9512 184.091 81.8749 174.67L81.8427 174.514C81.8267 174.444 81.8138 174.373 81.7977 174.303L81.7977 174.3C79.1396 163.124 80.2164 151.603 84.9123 140.981C89.6693 130.221 98.0261 120.669 109.08 113.353C139.839 93.0054 176.144 78.9591 214.074 72.7331C233.899 69.477 250.664 69.6577 263.9 73.2653C270.014 74.9348 275.494 77.4077 280.193 80.6111C287.383 85.509 292.937 92.2723 297.18 101.288C299.79 106.838 301.628 112.63 302.94 117.053C309.825 140.281 314.27 164.118 316.153 187.902C316.475 191.964 316.68 195.607 316.78 199.039C316.825 200.578 316.848 202.087 316.848 203.568C316.848 212.643 316.012 220.619 314.315 227.839C312.772 234.344 310.377 240.573 307.192 246.354C300.208 259.035 288.267 269.772 274.436 275.813C267.108 279.011 259.397 280.894 251.516 281.409C233.06 282.614 215.463 276.498 199.935 271.1ZM251.249 278.908C258.671 278.424 265.945 276.644 272.868 273.623C286.094 267.847 297.527 257.546 304.238 245.363C307.33 239.752 309.657 233.704 311.152 227.383C313.087 219.158 313.878 209.904 313.566 199.094C313.466 195.697 313.264 192.087 312.946 188.055C311.075 164.412 306.655 140.712 299.809 117.618C298.52 113.265 296.711 107.574 294.162 102.154C290.112 93.5452 284.85 87.1183 278.081 82.5015C273.691 79.5089 268.561 77.1993 262.84 75.6352C250.166 72.1783 233.98 72.0302 214.733 75.1884C177.326 81.3316 141.511 95.192 111.156 115.269C100.543 122.293 92.5202 131.466 87.9529 141.8C85.0537 148.359 83.588 155.276 83.588 162.232C83.588 164.171 83.7005 166.111 83.9287 168.049C84.1569 169.987 84.5009 171.921 84.9573 173.844C84.9766 173.931 84.9958 174.019 85.0151 174.107L85.0441 174.243C87.069 183.444 90.7203 192.459 95.8887 201.04C97.1969 203.204 98.6143 205.36 100.106 207.452L100.244 207.642C104.885 214.117 110.359 220.263 116.511 225.911C122.711 231.605 129.618 236.802 137.04 241.356C156.331 253.198 179.162 261.134 201.24 268.806C216.414 274.08 233.613 280.058 251.249 278.908Z" fill="url(#paint8_linear_79_1856)"/>
<path d="M199.736 263.177C179.338 256.09 158.25 248.759 140.283 237.731C133.289 233.435 126.783 228.535 120.953 223.16C115.171 217.833 110.038 212.033 105.695 205.925L105.57 205.747C104.172 203.774 102.844 201.733 101.626 199.684C96.8144 191.588 93.4749 183.08 91.6942 174.401L91.6653 174.265C91.6524 174.2 91.6396 174.137 91.6267 174.072C89.2964 163.839 90.341 153.318 94.6416 143.645C99.0097 133.811 106.659 125.087 116.758 118.414C144.876 99.8465 178.056 87.0254 212.705 81.3366C230.929 78.3441 246.332 78.5223 258.491 81.8663C264.09 83.4128 269.12 85.6998 273.44 88.6672C280.016 93.1836 285.098 99.3871 288.971 107.639C291.359 112.728 293.04 118.028 294.239 122.074C300.532 143.328 304.598 165.137 306.318 186.898C306.614 190.629 306.803 193.978 306.893 197.133C306.932 198.522 306.954 199.88 306.954 201.216C306.954 209.591 306.176 216.954 304.592 223.614C303.165 229.562 300.937 235.286 297.967 240.623C291.517 252.224 280.566 262.03 267.925 267.528C261.21 270.443 254.145 272.157 246.923 272.622C230.029 273.706 213.936 268.113 199.736 263.177ZM246.659 270.119C253.422 269.684 260.05 268.075 266.362 265.334C278.4 260.099 288.846 250.728 295.02 239.624C297.894 234.457 300.05 228.916 301.432 223.155C303.226 215.606 303.962 207.113 303.679 197.191C303.589 194.068 303.406 190.752 303.11 187.051C301.4 165.431 297.36 143.76 291.108 122.639C289.929 118.663 288.28 113.461 285.953 108.505C282.269 100.655 277.48 94.7853 271.319 90.5526C267.307 87.7986 262.631 85.6722 257.421 84.2337C245.827 81.0454 231.006 80.8972 213.364 83.7919C179.236 89.3978 146.547 102.033 118.835 120.332C109.173 126.714 101.857 135.059 97.6758 144.468C94.9887 150.516 93.6291 156.91 93.6291 163.35C93.6291 165.064 93.7256 166.782 93.9184 168.499C94.1113 170.216 94.4005 171.928 94.7895 173.633C94.8087 173.718 94.828 173.803 94.8441 173.889L94.8666 174.004C96.599 182.455 99.855 190.739 104.541 198.627C105.727 200.623 107.019 202.609 108.382 204.534L108.504 204.708C112.747 210.673 117.758 216.334 123.405 221.536C129.098 226.783 135.442 231.568 142.269 235.758C159.922 246.593 180.827 253.858 201.041 260.883C214.891 265.698 230.585 271.153 246.659 270.119Z" fill="url(#paint9_linear_79_1856)"/>
<path d="M199.536 255.254C181.003 248.815 161.844 242.154 145.516 232.13C139.113 228.201 133.167 223.71 127.844 218.782C122.566 213.899 117.893 208.581 113.952 202.983L113.837 202.817C112.57 201.01 111.368 199.137 110.269 197.256C105.943 189.845 102.995 182.065 101.51 174.132L101.488 174.009C101.478 173.952 101.469 173.896 101.456 173.839C99.4532 164.555 100.462 155.032 104.368 146.306C108.353 137.399 115.293 129.506 124.437 123.478C149.916 106.688 179.965 95.0916 211.336 89.9401C227.959 87.2112 242.002 87.3894 253.085 90.4698C258.166 91.8907 262.743 93.9945 266.69 96.726C272.653 100.856 277.255 106.502 280.765 113.993C282.925 118.615 284.449 123.423 285.535 127.096C291.24 146.374 294.924 166.156 296.486 185.894C296.756 189.296 296.926 192.351 297.01 195.231C297.042 196.466 297.061 197.673 297.061 198.863C297.061 206.543 296.338 213.289 294.869 219.392C293.554 224.784 291.494 229.998 288.746 234.891C282.829 245.413 272.868 254.288 261.413 259.241C255.312 261.874 248.893 263.421 242.33 263.835C226.998 264.799 212.409 259.728 199.536 255.254ZM242.073 261.332C248.177 260.948 254.158 259.504 259.857 257.042C270.708 252.352 280.164 243.909 285.802 233.882C288.457 229.162 290.443 224.129 291.709 218.925C293.365 212.053 294.046 204.321 293.795 195.286C293.715 192.439 293.545 189.419 293.278 186.047C291.726 166.448 288.068 146.803 282.404 127.66C281.337 124.058 279.846 119.348 277.744 114.854C274.424 107.765 270.11 102.45 264.556 98.6038C260.921 96.0858 256.694 94.1452 252.005 92.8347C241.491 89.9125 228.03 89.7643 211.998 92.3979C181.145 97.4615 151.584 108.874 126.51 125.396C117.806 131.135 111.198 138.651 107.402 147.134C104.921 152.675 103.667 158.552 103.667 164.477C103.667 165.968 103.747 167.462 103.905 168.956C104.066 170.447 104.307 171.938 104.625 173.422C104.641 173.505 104.657 173.587 104.67 173.668L104.689 173.768C106.132 181.468 108.993 189.02 113.194 196.215C114.261 198.04 115.424 199.857 116.656 201.612L116.768 201.773C120.609 207.228 125.16 212.405 130.3 217.162C135.484 221.96 141.27 226.333 147.499 230.157C163.515 239.988 182.492 246.583 200.841 252.959C213.364 257.313 227.558 262.246 242.073 261.332Z" fill="url(#paint10_linear_79_1856)"/>
<path d="M199.337 247.331C182.668 241.537 165.434 235.549 150.745 226.531C144.934 222.964 139.547 218.884 134.735 214.403C129.962 209.962 125.748 205.129 122.21 200.041L122.104 199.89C120.966 198.241 119.889 196.538 118.912 194.829C115.064 188.101 112.512 181.046 111.323 173.859L111.307 173.743C111.301 173.698 111.294 173.65 111.285 173.605C109.61 165.265 110.584 156.747 114.094 148.97C117.694 140.989 123.926 133.924 132.116 128.539C154.956 113.529 181.874 103.155 209.966 98.5436C224.989 96.0783 237.676 96.2565 247.678 99.0733C252.246 100.366 256.373 102.289 259.937 104.785C265.289 108.528 269.416 113.617 272.556 120.345C274.491 124.5 275.86 128.818 276.834 132.117C281.948 149.419 285.249 167.176 286.65 184.887C286.895 187.968 287.049 190.727 287.123 193.325C287.152 194.41 287.168 195.472 287.168 196.516C287.168 203.498 286.502 209.623 285.143 215.166C283.947 220.004 282.054 224.714 279.521 229.162C274.141 238.602 265.167 246.545 254.901 250.954C249.411 253.306 243.638 254.682 237.737 255.046C223.967 255.892 210.882 251.343 199.337 247.331ZM129.104 134.25C123.836 138.702 119.744 143.996 117.125 149.803C114.852 154.839 113.702 160.201 113.702 165.617C113.702 168.147 113.952 170.69 114.46 173.216C114.476 173.294 114.486 173.372 114.499 173.452L114.512 173.537C115.659 180.481 118.128 187.3 121.846 193.805C122.791 195.456 123.83 197.103 124.932 198.695L125.032 198.841C128.468 203.784 132.562 208.478 137.197 212.791C141.868 217.137 147.094 221.096 152.731 224.556C167.105 233.38 184.157 239.307 200.642 245.036C211.84 248.928 224.53 253.339 237.486 252.543C242.928 252.209 248.267 250.934 253.351 248.752C263.016 244.602 271.483 237.091 276.584 228.141C279.02 223.868 280.839 219.341 281.987 214.694C283.504 208.499 284.13 201.529 283.909 193.38C283.838 190.815 283.684 188.088 283.443 185.043C282.054 167.467 278.776 149.851 273.7 132.681C272.749 129.453 271.412 125.23 269.535 121.203C266.581 114.874 262.74 110.117 257.793 106.655C254.534 104.375 250.761 102.618 246.586 101.433C237.155 98.777 225.057 98.6314 210.629 101.001C183.054 105.528 156.621 115.715 134.186 130.46C132.389 131.64 130.692 132.907 129.104 134.25Z" fill="url(#paint11_linear_79_1856)"/>
<path d="M199.138 239.408C184.333 234.264 169.027 228.944 155.975 220.931C150.758 217.727 145.93 214.059 141.626 210.025C137.355 206.026 133.601 201.675 130.46 197.091L130.37 196.958C129.361 195.474 128.413 193.943 127.552 192.399C124.186 186.351 122.03 180.019 121.139 173.58L121.126 173.472C121.123 173.437 121.12 173.402 121.114 173.367C118.311 157.97 125.295 143.102 139.798 133.598C159.996 120.367 183.787 111.222 208.597 107.147C222.02 104.943 233.35 105.121 242.272 107.677C246.328 108.847 249.999 110.584 253.191 112.846C257.925 116.202 261.573 120.731 264.347 126.699C266.06 130.389 267.269 134.215 268.13 137.138C272.653 152.467 275.577 168.195 276.818 183.883C277.037 186.635 277.172 189.1 277.236 191.422C277.262 192.353 277.275 193.27 277.275 194.169C277.275 200.452 276.664 205.963 275.42 210.946C274.337 215.232 272.614 219.432 270.293 223.433C265.379 231.914 257.597 238.745 248.386 242.666C243.51 244.738 238.383 245.945 233.144 246.259C220.936 246.985 208.848 242.782 199.138 239.408ZM232.9 243.756C237.682 243.47 242.375 242.363 246.849 240.462C255.325 236.855 262.804 230.27 267.365 222.397C269.583 218.573 271.232 214.556 272.267 210.462C273.643 204.946 274.218 198.735 274.022 191.475C273.961 189.188 273.826 186.755 273.61 184.039C272.379 168.486 269.483 152.896 265 137.7C264.157 134.848 262.981 131.117 261.326 127.555C258.735 121.982 255.367 117.779 251.031 114.704C248.148 112.66 244.827 111.089 241.163 110.032C232.816 107.644 222.084 107.499 209.259 109.605C184.963 113.594 161.657 122.557 141.861 135.523C130.21 143.16 123.72 154.498 123.72 166.696C123.72 168.78 123.91 170.891 124.296 173.013C124.308 173.088 124.318 173.163 124.328 173.239L124.337 173.311C125.189 179.497 127.262 185.583 130.499 191.397C131.325 192.881 132.238 194.354 133.209 195.78L133.299 195.908C136.333 200.342 139.965 204.549 144.095 208.418C148.254 212.317 152.921 215.862 157.961 218.957C170.702 226.777 185.821 232.032 200.443 237.113C210.314 240.545 221.502 244.431 232.9 243.756Z" fill="url(#paint12_linear_79_1856)"/>
<path d="M198.939 231.485C185.998 226.988 172.621 222.339 161.207 215.33C156.582 212.493 152.31 209.234 148.514 205.647C144.747 202.089 141.453 198.221 138.714 194.143L138.637 194.025C137.757 192.707 136.934 191.342 136.191 189.966C133.305 184.594 131.54 178.985 130.955 173.294L130.946 173.193C130.946 173.171 130.943 173.146 130.939 173.123C128.818 159.687 135.002 146.803 147.476 138.659C165.035 127.208 185.696 119.288 207.228 115.751C219.053 113.81 229.026 113.988 236.869 116.28C240.411 117.325 243.632 118.881 246.444 120.907C250.561 123.877 253.734 127.849 256.141 133.05C257.626 136.274 258.681 139.61 259.429 142.159C263.36 155.512 265.903 169.214 266.983 182.879C267.176 185.299 267.295 187.471 267.352 189.517C267.372 190.302 267.381 191.071 267.381 191.829C267.381 197.41 266.828 202.303 265.697 206.726C264.726 210.462 263.171 214.155 261.069 217.707C256.697 225.088 249.88 231.01 241.87 234.382C237.608 236.169 233.128 237.209 228.548 237.47C217.902 238.077 207.385 234.419 198.939 231.485ZM228.313 234.967C232.44 234.731 236.487 233.789 240.347 232.17C247.746 229.057 254.071 223.546 258.15 216.653C260.149 213.278 261.628 209.771 262.547 206.229C263.781 201.391 264.302 195.941 264.138 189.569C264.084 187.556 263.965 185.419 263.775 183.034C262.705 169.505 260.188 155.941 256.296 142.721C255.566 140.243 254.547 136.999 253.117 133.904C250.889 129.089 247.993 125.444 244.262 122.752C241.758 120.947 238.888 119.559 235.741 118.63C228.48 116.509 219.108 116.366 207.89 118.208C186.869 121.66 166.694 129.398 149.537 140.587C139.418 147.192 133.745 157.164 133.745 167.931C133.745 169.543 133.871 171.175 134.131 172.814C134.141 172.89 134.15 172.962 134.154 173.035L134.16 173.093C134.719 178.518 136.4 183.868 139.155 188.992C139.862 190.305 140.646 191.608 141.488 192.866L141.562 192.979C144.195 196.9 147.367 200.623 150.993 204.047C154.644 207.497 158.748 210.627 163.194 213.356C174.295 220.172 187.486 224.757 200.243 229.19C208.79 232.16 218.474 235.527 228.313 234.967Z" fill="url(#paint13_linear_79_1856)"/>
<path d="M198.739 223.562C187.666 219.713 176.218 215.734 166.437 209.731C162.403 207.253 158.691 204.406 155.402 201.266C152.14 198.15 149.302 194.761 146.968 191.191L146.901 191.088C146.149 189.931 145.451 188.733 144.831 187.528C142.417 182.826 141.051 177.936 140.772 172.995L140.772 172.862C140.08 167.379 140.945 161.879 143.266 156.958C145.754 151.678 149.755 147.225 155.158 143.72C170.075 134.047 187.609 127.352 205.859 124.354C216.089 122.677 224.703 122.855 231.472 124.886C234.5 125.805 237.268 127.181 239.701 128.971C243.201 131.554 245.895 134.966 247.932 139.404C249.195 142.166 250.089 145.01 250.725 147.18C254.068 158.56 256.228 170.233 257.151 181.875C257.314 183.966 257.417 185.841 257.466 187.614C257.482 188.251 257.488 188.876 257.488 189.492C257.488 194.374 256.99 198.645 255.974 202.506C255.116 205.694 253.727 208.885 251.841 211.983C248.016 218.264 242.16 223.278 235.349 226.097C231.704 227.603 227.869 228.472 223.951 228.683C214.871 229.167 205.926 226.059 198.739 223.562ZM223.73 226.177C227.198 225.992 230.601 225.218 233.845 223.878C240.048 221.31 245.406 216.703 248.938 210.904C250.716 207.984 252.024 204.986 252.824 201.996C253.92 197.836 254.386 193.152 254.251 187.664C254.206 185.929 254.104 184.086 253.943 182.03C253.033 170.525 250.896 158.986 247.595 147.739C246.978 145.638 246.113 142.887 244.908 140.251C243.044 136.194 240.617 133.101 237.493 130.799C235.365 129.229 232.948 128.027 230.312 127.229C224.138 125.373 216.134 125.233 206.521 126.812C188.779 129.724 171.727 136.239 157.212 145.651C152.249 148.872 148.572 152.966 146.281 157.824C144.609 161.374 143.751 165.248 143.751 169.197C143.751 170.334 143.822 171.481 143.966 172.626C143.976 172.699 143.979 172.772 143.982 172.844L143.982 172.885C144.246 177.542 145.535 182.153 147.814 186.592C148.399 187.729 149.054 188.859 149.765 189.953L149.829 190.051C152.06 193.461 154.773 196.699 157.89 199.677C161.031 202.674 164.573 205.393 168.423 207.755C177.889 213.567 189.151 217.481 200.044 221.267C207.263 223.775 215.447 226.619 223.73 226.177Z" fill="url(#paint14_linear_79_1856)"/>
<path d="M198.537 215.636C189.331 212.437 179.808 209.129 171.666 204.13C168.224 202.016 165.071 199.579 162.287 196.885C159.529 194.209 157.148 191.302 155.219 188.241L155.161 188.148C154.538 187.154 153.966 186.122 153.464 185.083C151.581 181.164 150.588 176.954 150.588 172.869C150.588 172.799 150.588 172.729 150.591 172.659C150.588 172.578 150.588 172.498 150.597 172.42C151.571 163.608 153.728 154.646 162.84 148.779C175.118 140.888 189.521 135.418 204.493 132.96C213.152 131.537 220.412 131.717 226.076 133.492C228.586 134.281 230.9 135.473 232.961 137.04C235.841 139.231 238.055 142.083 239.727 145.761C240.765 148.053 241.501 150.406 242.025 152.201C244.776 161.605 246.553 171.25 247.315 180.87C247.457 182.63 247.543 184.214 247.579 185.711C247.592 186.21 247.598 186.7 247.598 187.184C247.598 191.384 247.154 195.03 246.248 198.288C245.518 200.917 244.294 203.601 242.606 206.264C239.331 211.443 234.436 215.543 228.827 217.812C225.796 219.038 222.605 219.738 219.349 219.896C211.837 220.26 204.464 217.697 198.537 215.636ZM219.149 217.391C221.959 217.253 224.72 216.645 227.352 215.583C232.356 213.56 236.75 209.854 239.727 205.152C241.295 202.672 242.433 200.184 243.108 197.756C244.062 194.314 244.474 190.39 244.365 185.758C244.329 184.297 244.246 182.751 244.107 181.026C243.359 171.541 241.604 162.032 238.891 152.76C238.386 151.031 237.679 148.769 236.696 146.6C235.194 143.296 233.24 140.758 230.717 138.84C228.936 137.484 227.027 136.497 224.877 135.822C219.815 134.235 213.181 134.097 205.152 135.415C190.688 137.79 176.761 143.082 164.884 150.714C157.151 155.693 154.856 163.071 153.802 172.613C153.802 172.613 153.805 172.613 153.805 172.616L153.805 172.696C153.766 176.53 154.695 180.499 156.473 184.199C156.939 185.163 157.469 186.12 158.048 187.044L158.102 187.129C159.928 190.026 162.178 192.778 164.791 195.308C167.42 197.856 170.403 200.161 173.653 202.157C181.479 206.96 190.816 210.206 199.845 213.344C205.74 215.392 212.425 217.715 219.149 217.391Z" fill="url(#paint15_linear_79_1856)"/>
<path d="M198.337 207.713C190.993 205.162 183.398 202.521 176.899 198.529C174.045 196.779 171.448 194.751 169.172 192.499C166.912 190.265 164.994 187.835 163.46 185.274L163.419 185.201C162.92 184.363 162.477 183.499 162.094 182.628C160.642 179.279 160.06 175.719 160.417 172.33C160.42 172.28 160.423 172.187 160.452 172.076C160.558 171.629 160.661 171.18 160.767 170.733C162.21 164.557 163.698 158.173 170.528 153.835C180.161 147.727 191.433 143.482 203.123 141.564C210.198 140.401 216.109 140.584 220.692 142.103C222.723 142.779 224.536 143.763 226.23 145.116C228.487 146.916 230.216 149.205 231.521 152.118C232.334 153.945 232.909 155.806 233.324 157.224C235.481 164.65 236.882 172.269 237.483 179.866C237.595 181.3 237.666 182.588 237.692 183.808C237.702 184.182 237.705 184.548 237.705 184.91C237.705 188.422 237.326 191.357 236.522 194.078C235.902 196.177 234.841 198.356 233.369 200.553C230.643 204.622 226.712 207.811 222.296 209.533C219.879 210.472 217.337 211.001 214.743 211.107C208.8 211.35 202.998 209.335 198.337 207.713ZM214.576 208.601C216.729 208.514 218.844 208.069 220.862 207.286C224.678 205.8 228.107 202.995 230.521 199.39C231.868 197.382 232.832 195.404 233.388 193.513C234.214 190.717 234.561 187.649 234.481 183.853C234.452 182.67 234.385 181.418 234.275 180.022C233.684 172.558 232.308 165.074 230.187 157.779C229.795 156.426 229.245 154.653 228.487 152.944C227.342 150.388 225.854 148.402 223.935 146.873C222.54 145.761 221.068 144.955 219.435 144.415C215.469 143.097 210.204 142.967 203.782 144.019C192.591 145.856 181.791 149.926 172.553 155.783C166.649 159.536 165.328 165.192 163.93 171.182C163.827 171.617 163.727 172.054 163.624 172.485L163.618 172.538C163.3 175.583 163.824 178.794 165.138 181.817C165.482 182.605 165.884 183.388 166.334 184.144L166.376 184.214C167.8 186.597 169.59 188.859 171.695 190.943C173.813 193.039 176.23 194.927 178.885 196.556C185.069 200.354 192.481 202.93 199.646 205.421C204.219 207.01 209.401 208.81 214.576 208.601Z" fill="url(#paint16_linear_79_1856)"/>
<path d="M198.138 199.79C192.661 197.887 186.995 195.916 182.128 192.931C179.862 191.54 177.818 189.916 176.05 188.108C174.289 186.308 172.827 184.355 171.705 182.309L171.669 182.239C171.3 181.561 170.982 180.858 170.718 180.147C169.722 177.413 169.564 174.569 170.258 171.948C170.268 171.898 170.291 171.795 170.345 171.669L170.345 171.667C170.805 170.658 171.191 169.573 171.567 168.526C172.81 165.047 174.096 161.447 178.22 158.888C185.211 154.563 193.349 151.548 201.754 150.167C207.254 149.263 211.821 149.449 215.328 150.722C216.848 151.274 218.22 152.088 219.519 153.207C221.116 154.588 222.396 156.36 223.318 158.479C223.903 159.837 224.321 161.206 224.62 162.245C226.188 167.698 227.207 173.289 227.648 178.862C227.738 179.972 227.789 180.968 227.808 181.907C227.812 182.141 227.815 182.369 227.815 182.598C227.815 185.402 227.487 187.729 226.793 189.876C226.269 191.492 225.394 193.122 224.118 194.859C222.585 196.948 219.892 199.752 215.749 201.261C213.946 201.911 212.056 202.267 210.124 202.32C205.756 202.438 201.532 200.97 198.138 199.79ZM210.015 199.812C211.512 199.772 212.988 199.493 214.392 198.984C217.77 197.754 220.03 195.384 221.332 193.611C222.457 192.075 223.225 190.651 223.675 189.261C224.356 187.159 224.646 184.835 224.594 181.945C224.575 181.046 224.527 180.09 224.44 179.018C224.009 173.577 223.016 168.12 221.483 162.797C221.065 161.341 220.692 160.257 220.271 159.285C219.493 157.495 218.439 156.016 217.134 154.892C216.131 154.026 215.096 153.406 213.971 152.999C211.111 151.959 207.221 151.834 202.413 152.622C194.493 153.925 186.818 156.77 180.219 160.854C176.912 162.905 175.819 165.963 174.662 169.202C174.283 170.264 173.89 171.361 173.415 172.425C173.412 172.43 173.412 172.433 173.412 172.438C172.817 174.685 172.955 177.112 173.81 179.46C174.035 180.067 174.308 180.672 174.63 181.265L174.655 181.312C175.678 183.175 177.005 184.95 178.602 186.584C180.21 188.226 182.061 189.697 184.115 190.958C188.666 193.749 194.146 195.655 199.446 197.497C202.699 198.627 206.386 199.908 210.015 199.812Z" fill="url(#paint17_linear_79_1856)"/>
<path d="M197.939 191.866C194.326 190.611 190.588 189.311 187.361 187.33C185.677 186.298 184.182 185.078 182.916 183.705C181.656 182.337 180.65 180.853 179.92 179.276L181.437 178.865L179.907 179.249C179.663 178.721 179.47 178.174 179.335 177.622C178.811 175.493 179.11 173.294 180.181 171.436C181.048 168.983 182.498 165.943 185.934 163.927C190.273 161.394 195.271 159.609 200.385 158.77C204.342 158.12 207.578 158.319 210.008 159.36C211.04 159.802 211.966 160.448 212.843 161.339C213.794 162.305 214.559 163.488 215.119 164.856C215.395 165.544 215.649 166.312 215.919 167.274C216.896 170.751 217.533 174.311 217.815 177.858C217.876 178.644 217.912 179.347 217.922 180.007C217.925 180.112 217.925 180.213 217.925 180.316C217.925 182.414 217.645 184.132 217.054 185.698C216.617 186.85 215.89 187.998 214.829 189.208C213.226 191.043 211.262 192.353 209.147 193.001C207.967 193.36 206.73 193.538 205.47 193.533C202.696 193.521 200.06 192.605 197.939 191.866ZM207.977 190.664C209.484 190.202 210.937 189.208 212.178 187.792C213.042 186.8 213.631 185.884 213.971 184.985C214.498 183.589 214.733 182.015 214.707 180.034C214.698 179.419 214.666 178.757 214.608 178.013C214.334 174.594 213.721 171.162 212.779 167.811C212.531 166.922 212.3 166.224 212.056 165.612C211.612 164.527 211.021 163.603 210.297 162.87C209.687 162.253 209.105 161.836 208.462 161.562C206.723 160.817 204.229 160.704 201.047 161.228C196.386 161.991 191.826 163.621 187.862 165.938C185.175 167.512 184.022 169.985 183.244 172.197C183.202 172.322 183.141 172.418 183.109 172.47C182.312 173.866 182.093 175.526 182.492 177.147C182.594 177.572 182.745 177.993 182.938 178.415L182.951 178.44C183.572 179.781 184.436 181.059 185.526 182.236C186.615 183.419 187.901 184.468 189.344 185.357C192.259 187.144 195.811 188.379 199.247 189.574C201.188 190.247 203.39 191.013 205.489 191.023C206.341 191.028 207.18 190.905 207.977 190.664Z" fill="url(#paint18_linear_79_1856)"/>
<path d="M197.74 183.943C195.991 183.336 194.178 182.706 192.591 181.729C191.475 181.046 190.521 180.218 189.752 179.264C188.984 178.312 188.438 177.283 188.129 176.203L188.12 176.171C188.01 175.777 187.952 175.37 187.952 174.966C187.952 173.319 188.875 171.76 190.482 170.69C192.976 169.028 195.927 167.881 199.016 167.374C201.536 166.96 203.499 167.206 204.859 168.105C205.45 168.494 205.917 169.001 206.283 169.654C206.601 170.216 206.794 170.801 206.942 171.3C207.485 173.121 207.832 174.988 207.98 176.854C208.019 177.326 208.038 177.737 208.038 178.114C208.038 179.505 207.794 180.609 207.273 181.593C206.845 182.407 206.154 183.16 205.332 183.715C204.399 184.342 203.313 184.717 202.198 184.794C200.523 184.91 198.98 184.375 197.74 183.943ZM201.912 182.294C202.355 182.261 202.812 182.096 203.233 181.814C203.676 181.516 204.065 181.086 204.303 180.637C204.657 179.967 204.824 179.166 204.824 178.114C204.824 177.79 204.808 177.429 204.772 177.009C204.637 175.282 204.313 173.552 203.811 171.868C203.696 171.481 203.551 171.037 203.342 170.663C203.175 170.369 202.995 170.158 202.786 170.02C202.236 169.659 201.134 169.591 199.678 169.832C197.113 170.251 194.654 171.21 192.568 172.598C191.678 173.193 191.167 174.057 191.167 174.966C191.167 175.189 191.199 175.413 191.253 175.611L191.266 175.654C191.494 176.454 191.903 177.218 192.472 177.926C193.044 178.634 193.754 179.251 194.577 179.756C195.853 180.539 197.476 181.104 199.048 181.649C199.996 181.98 201.07 182.352 201.912 182.294Z" fill="url(#paint19_linear_79_1856)"/>
</g>
<defs>
<linearGradient id="paint0_linear_79_1856" x1="3.81807e-06" y1="176" x2="339.034" y2="247.911" gradientUnits="userSpaceOnUse">
<stop stop-color="#AC713D"/>
<stop offset="0.413462" stop-color="#07121C"/>
<stop offset="0.966346" stop-color="#4D6881"/>
</linearGradient>
<linearGradient id="paint1_linear_79_1856" x1="3.81807e-06" y1="176" x2="339.034" y2="247.911" gradientUnits="userSpaceOnUse">
<stop stop-color="#AC713D"/>
<stop offset="0.413462" stop-color="#07121C"/>
<stop offset="0.966346" stop-color="#4D6881"/>
</linearGradient>
<linearGradient id="paint2_linear_79_1856" x1="3.81807e-06" y1="176" x2="339.034" y2="247.911" gradientUnits="userSpaceOnUse">
<stop stop-color="#AC713D"/>
<stop offset="0.413462" stop-color="#07121C"/>
<stop offset="0.966346" stop-color="#4D6881"/>
</linearGradient>
<linearGradient id="paint3_linear_79_1856" x1="3.81807e-06" y1="176" x2="339.034" y2="247.911" gradientUnits="userSpaceOnUse">
<stop stop-color="#AC713D"/>
<stop offset="0.413462" stop-color="#07121C"/>
<stop offset="0.966346" stop-color="#4D6881"/>
</linearGradient>
<linearGradient id="paint4_linear_79_1856" x1="3.81807e-06" y1="176" x2="339.034" y2="247.911" gradientUnits="userSpaceOnUse">
<stop stop-color="#AC713D"/>
<stop offset="0.413462" stop-color="#07121C"/>
<stop offset="0.966346" stop-color="#4D6881"/>
</linearGradient>
<linearGradient id="paint5_linear_79_1856" x1="3.81807e-06" y1="176" x2="339.034" y2="247.911" gradientUnits="userSpaceOnUse">
<stop stop-color="#AC713D"/>
<stop offset="0.413462" stop-color="#07121C"/>
<stop offset="0.966346" stop-color="#4D6881"/>
</linearGradient>
<linearGradient id="paint6_linear_79_1856" x1="3.81807e-06" y1="176" x2="339.034" y2="247.911" gradientUnits="userSpaceOnUse">
<stop stop-color="#AC713D"/>
<stop offset="0.413462" stop-color="#07121C"/>
<stop offset="0.966346" stop-color="#4D6881"/>
</linearGradient>
<linearGradient id="paint7_linear_79_1856" x1="3.81807e-06" y1="176" x2="339.034" y2="247.911" gradientUnits="userSpaceOnUse">
<stop stop-color="#AC713D"/>
<stop offset="0.413462" stop-color="#07121C"/>
<stop offset="0.966346" stop-color="#4D6881"/>
</linearGradient>
<linearGradient id="paint8_linear_79_1856" x1="3.81807e-06" y1="176" x2="339.034" y2="247.911" gradientUnits="userSpaceOnUse">
<stop stop-color="#AC713D"/>
<stop offset="0.413462" stop-color="#07121C"/>
<stop offset="0.966346" stop-color="#4D6881"/>
</linearGradient>
<linearGradient id="paint9_linear_79_1856" x1="3.81807e-06" y1="176" x2="339.034" y2="247.911" gradientUnits="userSpaceOnUse">
<stop stop-color="#AC713D"/>
<stop offset="0.413462" stop-color="#07121C"/>
<stop offset="0.966346" stop-color="#4D6881"/>
</linearGradient>
<linearGradient id="paint10_linear_79_1856" x1="3.81807e-06" y1="176" x2="339.034" y2="247.911" gradientUnits="userSpaceOnUse">
<stop stop-color="#AC713D"/>
<stop offset="0.413462" stop-color="#07121C"/>
<stop offset="0.966346" stop-color="#4D6881"/>
</linearGradient>
<linearGradient id="paint11_linear_79_1856" x1="3.81807e-06" y1="176" x2="339.034" y2="247.911" gradientUnits="userSpaceOnUse">
<stop stop-color="#AC713D"/>
<stop offset="0.413462" stop-color="#07121C"/>
<stop offset="0.966346" stop-color="#4D6881"/>
</linearGradient>
<linearGradient id="paint12_linear_79_1856" x1="3.81807e-06" y1="176" x2="339.034" y2="247.911" gradientUnits="userSpaceOnUse">
<stop stop-color="#AC713D"/>
<stop offset="0.413462" stop-color="#07121C"/>
<stop offset="0.966346" stop-color="#4D6881"/>
</linearGradient>
<linearGradient id="paint13_linear_79_1856" x1="3.81807e-06" y1="176" x2="339.034" y2="247.911" gradientUnits="userSpaceOnUse">
<stop stop-color="#AC713D"/>
<stop offset="0.413462" stop-color="#07121C"/>
<stop offset="0.966346" stop-color="#4D6881"/>
</linearGradient>
<linearGradient id="paint14_linear_79_1856" x1="3.81807e-06" y1="176" x2="339.034" y2="247.911" gradientUnits="userSpaceOnUse">
<stop stop-color="#AC713D"/>
<stop offset="0.413462" stop-color="#07121C"/>
<stop offset="0.966346" stop-color="#4D6881"/>
</linearGradient>
<linearGradient id="paint15_linear_79_1856" x1="3.81807e-06" y1="176" x2="339.034" y2="247.911" gradientUnits="userSpaceOnUse">
<stop stop-color="#AC713D"/>
<stop offset="0.413462" stop-color="#07121C"/>
<stop offset="0.966346" stop-color="#4D6881"/>
</linearGradient>
<linearGradient id="paint16_linear_79_1856" x1="3.81807e-06" y1="176" x2="339.034" y2="247.911" gradientUnits="userSpaceOnUse">
<stop stop-color="#AC713D"/>
<stop offset="0.413462" stop-color="#07121C"/>
<stop offset="0.966346" stop-color="#4D6881"/>
</linearGradient>
<linearGradient id="paint17_linear_79_1856" x1="3.81807e-06" y1="176" x2="339.034" y2="247.911" gradientUnits="userSpaceOnUse">
<stop stop-color="#AC713D"/>
<stop offset="0.413462" stop-color="#07121C"/>
<stop offset="0.966346" stop-color="#4D6881"/>
</linearGradient>
<linearGradient id="paint18_linear_79_1856" x1="3.81807e-06" y1="176" x2="339.034" y2="247.911" gradientUnits="userSpaceOnUse">
<stop stop-color="#AC713D"/>
<stop offset="0.413462" stop-color="#07121C"/>
<stop offset="0.966346" stop-color="#4D6881"/>
</linearGradient>
<linearGradient id="paint19_linear_79_1856" x1="3.81807e-06" y1="176" x2="339.034" y2="247.911" gradientUnits="userSpaceOnUse">
<stop stop-color="#AC713D"/>
<stop offset="0.413462" stop-color="#07121C"/>
<stop offset="0.966346" stop-color="#4D6881"/>
</linearGradient>
</defs>
</svg>
