<svg width="16" height="16" viewBox="0 0 16 16" fill="none" xmlns="http://www.w3.org/2000/svg">
<path d="M5.5553 14.4299C5.50166 14.4299 5.44896 14.4159 5.40241 14.3893C5.35587 14.3626 5.3171 14.3243 5.28995 14.278C4.13982 12.3186 1.07505 8.14844 1.04422 8.10653C1.00043 8.04701 0.979527 7.97372 0.985324 7.90005C0.99112 7.82639 1.02323 7.75727 1.07579 7.70533L2.01788 6.77441C2.06907 6.72383 2.13636 6.69279 2.20805 6.68668C2.27975 6.68058 2.35132 6.69979 2.41032 6.74099L5.49115 8.89225C7.53939 6.26099 9.44284 4.44508 10.6939 3.37511C12.0962 2.17564 12.9878 1.63665 13.0251 1.61419C13.0729 1.58548 13.1276 1.57032 13.1834 1.57031H14.7075C14.7698 1.5703 14.8307 1.58925 14.8821 1.62465C14.9335 1.66005 14.9729 1.71023 14.9951 1.76852C15.0173 1.82682 15.0212 1.89049 15.0064 1.95108C14.9916 2.01168 14.9587 2.06634 14.9121 2.10782C12.6527 4.12013 10.3036 7.31745 8.73093 9.64524C7.0213 12.1755 5.83447 14.2538 5.82268 14.2745C5.79597 14.3214 5.75739 14.3605 5.71081 14.3877C5.66423 14.415 5.6113 14.4296 5.55733 14.4299L5.5553 14.4299Z" fill="#F56F18"/>
</svg>
