<svg width="32" height="42" viewBox="0 0 32 42" fill="none" xmlns="http://www.w3.org/2000/svg">
<path d="M11.7969 21.7083C11.6413 21.7089 11.4875 21.6745 11.3469 21.6078C11.2063 21.5411 11.0824 21.4438 10.9844 21.3229C10.7344 21.0104 4.89062 13.5833 4.89062 5.94792C4.89062 5.67165 5.00037 5.4067 5.19572 5.21135C5.39107 5.016 5.65602 4.90625 5.93229 4.90625C13.5781 4.90625 21.0052 10.7813 21.3177 11.0313C21.4681 11.1545 21.5809 11.3174 21.6435 11.5015C21.7061 11.6856 21.7159 11.8835 21.6719 12.0729C21.6192 12.2692 21.5102 12.4457 21.3585 12.5808C21.2067 12.7159 21.0187 12.8037 20.8177 12.8333C18.8337 13.1902 16.9937 14.1084 15.5156 15.4792C14.143 16.9573 13.2214 18.7969 12.8594 20.7813C12.8316 20.9842 12.7447 21.1744 12.6095 21.3282C12.4742 21.4819 12.2967 21.5924 12.099 21.6458C12.0016 21.6803 11.8999 21.7013 11.7969 21.7083ZM6.97396 6.98958C7.32812 11.4896 9.81771 15.8958 11.3594 18.2396C11.9214 16.6582 12.8166 15.2159 13.9844 14.0104C15.1897 12.8399 16.6318 11.9413 18.2135 11.375C15.8906 9.86458 11.474 7.38542 6.97396 6.98958Z" fill="#F56F18"/>
<path d="M3.69276 29.8125C3.51173 29.8086 3.33486 29.7575 3.1796 29.6643C3.02433 29.5712 2.89603 29.4391 2.80734 29.2813C2.72401 29.1354 -4.82807 15.2188 5.19276 5.19793C5.38793 5.00392 5.65194 4.89502 5.92714 4.89502C6.20233 4.89502 6.46634 5.00392 6.66151 5.19793C6.75914 5.29476 6.83664 5.40997 6.88952 5.53691C6.94241 5.66385 6.96963 5.8 6.96963 5.93751C6.96963 6.07502 6.94241 6.21118 6.88952 6.33811C6.83664 6.46505 6.75914 6.58026 6.66151 6.6771C0.119844 13.2188 2.04693 21.7292 3.53651 25.8333C4.09705 24.4649 4.90977 23.2141 5.93234 22.1458C7.52258 20.6119 9.6205 19.7149 11.8282 19.625C12.1044 19.625 12.3694 19.7348 12.5647 19.9301C12.7601 20.1255 12.8698 20.3904 12.8698 20.6667C12.8698 20.9429 12.7601 21.2079 12.5647 21.4032C12.3694 21.5986 12.1044 21.7083 11.8282 21.7083C10.161 21.808 8.58403 22.4986 7.38026 23.6563C6.05739 25.1938 5.14062 27.038 4.71359 29.0208C4.67183 29.2286 4.56769 29.4187 4.41507 29.5657C4.26245 29.7128 4.06861 29.8098 3.85943 29.8438L3.69276 29.8125Z" fill="#F56F18"/>
<path d="M20.6404 12.8752C20.3642 12.8752 20.0992 12.7654 19.9039 12.5701C19.7085 12.3747 19.5988 12.1098 19.5988 11.8335C19.6835 9.62976 20.5773 7.53451 22.1092 5.94807C23.1816 4.93361 24.4363 4.1313 25.8071 3.58349C24.1578 2.96397 22.4465 2.52393 20.7029 2.27099C15.0779 1.48974 10.3488 2.96891 6.64044 6.68766C6.45158 6.87513 6.19814 6.98322 5.93211 6.98974C5.79429 6.98917 5.65795 6.96125 5.531 6.90761C5.40404 6.85397 5.289 6.77567 5.19252 6.67724L3.10919 4.59391C2.93985 4.39344 2.85242 4.13645 2.86436 3.8743C2.87631 3.61216 2.98675 3.36418 3.17362 3.17994C3.36049 2.99571 3.61001 2.88879 3.8723 2.88056C4.13458 2.87234 4.39031 2.96341 4.58836 3.13558L5.93211 4.47933C15.8696 -4.46859 29.1092 2.73974 29.2446 2.82307C29.433 2.9258 29.5851 3.08419 29.68 3.27661C29.775 3.46903 29.8082 3.68608 29.7752 3.8981C29.7421 4.11011 29.6444 4.30675 29.4954 4.46112C29.3463 4.6155 29.1532 4.72008 28.9425 4.76057C26.9633 5.19201 25.1209 6.10429 23.5779 7.41682C22.4353 8.61724 21.7624 10.1885 21.6821 11.8439C21.6794 12.1184 21.5684 12.3806 21.3734 12.5738C21.1783 12.7669 20.9149 12.8752 20.6404 12.8752ZM19.4738 20.5314C19.3367 20.5322 19.2008 20.5059 19.0739 20.4541C18.947 20.4022 18.8315 20.3259 18.7342 20.2293L14.005 15.5106C13.811 15.3154 13.7021 15.0514 13.7021 14.7762C13.7021 14.501 13.811 14.237 14.005 14.0418C14.1019 13.9442 14.2171 13.8667 14.344 13.8138C14.4709 13.7609 14.6071 13.7337 14.7446 13.7337C14.8821 13.7337 15.0183 13.7609 15.1452 13.8138C15.2721 13.8667 15.3874 13.9442 15.4842 14.0418L20.2134 18.7502C20.311 18.847 20.3885 18.9622 20.4414 19.0891C20.4943 19.2161 20.5215 19.3522 20.5215 19.4897C20.5215 19.6273 20.4943 19.7634 20.4414 19.8903C20.3885 20.0173 20.311 20.1325 20.2134 20.2293C20.116 20.3259 20.0006 20.4022 19.8737 20.4541C19.7468 20.5059 19.6109 20.5322 19.4738 20.5314ZM26.9634 22.146C26.8255 22.1454 26.6892 22.1175 26.5623 22.0639C26.4353 22.0102 26.3202 21.9319 26.2238 21.8335L21.3696 16.9897C21.272 16.8929 21.1945 16.7777 21.1416 16.6508C21.0887 16.5238 21.0615 16.3877 21.0615 16.2502C21.0615 16.1126 21.0887 15.9765 21.1416 15.8496C21.1945 15.7226 21.272 15.6074 21.3696 15.5106L24.6821 12.1981C24.7789 12.1004 24.8942 12.0229 25.0211 11.9701C25.148 11.9172 25.2842 11.89 25.4217 11.89C25.5592 11.89 25.6954 11.9172 25.8223 11.9701C25.9492 12.0229 26.0644 12.1004 26.1613 12.1981L31.005 17.0522C31.1035 17.1487 31.1818 17.2638 31.2354 17.3907C31.289 17.5177 31.317 17.654 31.3175 17.7918C31.3136 18.0666 31.2013 18.3287 31.005 18.521L27.6925 21.8335C27.5002 22.0298 27.2381 22.1421 26.9634 22.146ZM23.5779 16.2502L26.9634 19.6252L28.8488 17.7918L25.4738 14.4064L23.5779 16.2502Z" fill="#F56F18"/>
<path d="M11.1415 41.3644C11.0044 41.3652 10.8685 41.3389 10.7416 41.2871C10.6146 41.2353 10.4992 41.1589 10.4019 41.0623C10.3042 40.9655 10.2267 40.8503 10.1739 40.7234C10.121 40.5964 10.0938 40.4603 10.0938 40.3228C10.0938 40.1852 10.121 40.0491 10.1739 39.9222C10.2267 39.7952 10.3042 39.68 10.4019 39.5832L18.4331 31.5623V19.4894C18.4331 19.2132 18.5429 18.9482 18.7382 18.7529C18.9336 18.5575 19.1985 18.4478 19.4748 18.4478C19.7511 18.4478 20.016 18.5575 20.2114 18.7529C20.4067 18.9482 20.5165 19.2132 20.5165 19.4894V31.9894C20.5173 32.1265 20.491 32.2624 20.4391 32.3893C20.3873 32.5162 20.3109 32.6317 20.2144 32.729L11.881 41.0623C11.7837 41.1589 11.6683 41.2353 11.5414 41.2871C11.4144 41.3389 11.2785 41.3652 11.1415 41.3644Z" fill="#F56F18"/>
<path d="M27.8068 41.3645C27.6697 41.3653 27.5338 41.339 27.4069 41.2872C27.28 41.2354 27.1646 41.159 27.0672 41.0624L18.7339 32.7291C18.5378 32.533 18.4276 32.2669 18.4276 31.9895C18.4276 31.7121 18.5378 31.4461 18.7339 31.2499C18.9301 31.0538 19.1961 30.9436 19.4735 30.9436C19.7509 30.9436 20.0169 31.0538 20.2131 31.2499L28.5464 39.5833C28.644 39.6801 28.7215 39.7953 28.7744 39.9223C28.8273 40.0492 28.8545 40.1854 28.8545 40.3229C28.8545 40.4604 28.8273 40.5965 28.7744 40.7235C28.7215 40.8504 28.644 40.9656 28.5464 41.0624C28.4491 41.159 28.3336 41.2354 28.2067 41.2872C28.0798 41.339 27.9439 41.3653 27.8068 41.3645ZM19.4735 24.6979C19.3364 24.6987 19.2005 24.6724 19.0736 24.6205C18.9467 24.5687 18.8312 24.4923 18.7339 24.3958C18.6363 24.2989 18.5588 24.1837 18.5059 24.0568C18.453 23.9299 18.4258 23.7937 18.4258 23.6562C18.4258 23.5187 18.453 23.3825 18.5059 23.2556C18.5588 23.1287 18.6363 23.0135 18.7339 22.9166L22.9006 18.7499C23.0967 18.5538 23.3628 18.4436 23.6402 18.4436C23.9176 18.4436 24.1836 18.5538 24.3797 18.7499C24.5759 18.9461 24.6861 19.2121 24.6861 19.4895C24.6861 19.7669 24.5759 20.033 24.3797 20.2291L20.2131 24.3958C20.1157 24.4923 20.0003 24.5687 19.8734 24.6205C19.7465 24.6724 19.6106 24.6987 19.4735 24.6979ZM29.8902 21.5729C29.7531 21.5737 29.6172 21.5474 29.4903 21.4955C29.3633 21.4437 29.2479 21.3673 29.1506 21.2708L28.1089 20.2291C28.0118 20.132 27.9347 20.0167 27.8822 19.8898C27.8296 19.7629 27.8026 19.6269 27.8026 19.4895C27.8026 19.3522 27.8296 19.2162 27.8822 19.0893C27.9347 18.9624 28.0118 18.8471 28.1089 18.7499C28.206 18.6528 28.3213 18.5758 28.4482 18.5232C28.5751 18.4707 28.7111 18.4436 28.8485 18.4436C28.9858 18.4436 29.1219 18.4707 29.2487 18.5232C29.3756 18.5758 29.4909 18.6528 29.5881 18.7499L30.6297 19.7916C30.7274 19.8885 30.8049 20.0037 30.8577 20.1306C30.9106 20.2575 30.9379 20.3937 30.9379 20.5312C30.9379 20.6687 30.9106 20.8049 30.8577 20.9318C30.8049 21.0587 30.7274 21.1739 30.6297 21.2708C30.5324 21.3673 30.417 21.4437 30.2901 21.4955C30.1631 21.5474 30.0272 21.5737 29.8902 21.5729Z" fill="#F56F18"/>
</svg>
