<svg width="274" height="516" viewBox="0 0 274 516" fill="none" xmlns="http://www.w3.org/2000/svg">
<g opacity="0.5">
<path d="M279.463 509.322C263.422 504.527 248.045 497.884 231.046 490.329C188.426 471.387 144.354 451.805 106.86 422.375C81.1536 402.196 59.1139 377.694 41.3488 349.544C23.5837 321.395 10.9591 290.963 3.82503 259.1L3.61499 258.158C-2.43201 230.715 -0.869593 202.109 8.12904 175.439C17.1203 148.802 33.1977 125.069 54.6293 106.804C114.108 56.1172 184.424 21.163 257.983 5.72097C313.209 -5.87156 355.332 0.171276 383.179 23.6875C395.004 33.6718 404.452 46.9462 412.065 64.2724C419.162 80.421 423.662 97.8208 427.129 112.711C440.439 169.919 449.025 228.632 452.651 287.224C453.425 299.722 454 312.779 454 326.127C454 359.974 450.3 395.635 436.769 428.373C427.457 450.903 412.57 471.718 394.846 486.98C375.477 503.662 353.217 513.551 330.47 515.579C314.882 516.97 298.201 514.924 279.463 509.322ZM330.142 511.913C352.115 509.952 373.657 500.369 392.439 484.194C409.736 469.301 424.27 448.979 433.364 426.971C451.947 382.007 451.682 331.213 448.974 287.452C445.359 229.063 436.802 170.552 423.54 113.543C420.113 98.8182 415.669 81.6244 408.69 65.7519C401.309 48.9519 392.185 36.1118 380.802 26.4992C353.865 3.75208 312.8 -2.02578 258.738 9.32386C185.784 24.637 116.032 59.3152 57.0209 109.605C36.0978 127.439 20.3999 150.609 11.6224 176.617C6.34184 192.261 3.685 208.583 3.685 224.937C3.685 235.798 4.85681 246.673 7.21149 257.367L7.41785 258.295C14.4635 289.749 26.9259 319.79 44.4663 347.583C62.0066 375.375 83.7625 399.565 109.137 419.482C146.27 448.629 190.128 468.119 232.546 486.965C249.427 494.469 264.69 501.064 280.52 505.797C298.801 511.262 315.03 513.264 330.142 511.913Z" fill="url(#paint0_linear_79_1851)"/>
<path d="M276.769 496.744C261.543 492.188 246.95 485.883 230.818 478.714C190.335 460.722 148.474 442.119 112.855 414.164C99.3941 403.599 86.81 391.583 75.453 378.456C64.2028 365.446 54.1024 351.285 45.4354 336.362L45.1812 335.924C42.388 331.096 39.709 326.12 37.218 321.133C27.2429 301.161 19.7919 280.162 15.0788 258.721L14.8835 257.831C9.18294 231.79 10.6938 204.652 19.2576 179.348C27.8103 154.076 43.0881 131.557 63.4327 114.227C119.882 66.1457 186.613 32.9873 256.413 18.3329C292.01 10.8622 322.142 11.1308 345.976 19.1315C357.126 22.8779 367.039 28.3834 375.437 35.4972C388.585 46.6187 398.77 62.2557 406.582 83.3026C411.373 96.2126 414.744 109.734 417.151 120.071C429.783 174.383 437.934 230.126 441.379 285.752C441.958 295.089 442.326 303.45 442.514 311.315C442.602 315.153 442.65 318.903 442.65 322.58C442.65 343.038 441.239 361.045 438.376 377.348C435.686 392.643 431.588 406.981 426.197 419.968C413.919 449.615 392.299 474.909 366.88 489.361C353.559 496.939 339.538 501.425 325.204 502.698C310.405 504.012 294.56 502.061 276.769 496.744ZM324.876 499.033C338.683 497.807 352.2 493.476 365.056 486.167C389.775 472.109 410.82 447.466 422.792 418.558C428.08 405.821 432.104 391.741 434.746 376.711C438.081 357.725 439.419 336.362 438.829 311.403C438.645 303.586 438.276 295.269 437.701 285.98C434.271 230.557 426.149 175.016 413.561 120.903C411.181 110.672 407.842 97.2946 403.126 84.5796C395.542 64.1436 385.707 49.0071 373.053 38.3052C365.012 31.4932 355.505 26.2158 344.8 22.6203C321.6 14.8294 292.117 14.5975 257.169 21.9358C187.973 36.4614 121.806 69.3437 65.8242 117.028C45.9845 133.927 31.0862 155.883 22.7472 180.529C17.7136 195.404 15.1783 210.927 15.1783 226.476C15.1783 236.714 16.2765 246.967 18.4837 257.047L18.679 257.934C23.3258 279.076 30.6735 299.788 40.516 319.488C42.9739 324.409 45.616 329.318 48.3723 334.084L48.6229 334.514C57.1757 349.239 67.1434 363.216 78.2425 376.049C89.4447 388.999 101.856 400.85 115.132 411.272C150.39 438.943 192.037 457.454 232.317 475.351C248.332 482.468 262.81 488.725 277.826 493.218C295.16 498.4 310.552 500.302 324.876 499.033Z" fill="url(#paint1_linear_79_1851)"/>
<path d="M274.079 484.161C259.667 479.852 245.856 473.882 230.589 467.1C192.244 450.057 152.594 432.436 118.854 405.958C106.071 395.925 94.1283 384.513 83.3572 372.041C72.6819 359.679 63.1084 346.228 54.9057 332.052L54.6662 331.637C52.0204 327.047 49.4852 322.318 47.1305 317.582C37.7155 298.625 30.7178 278.697 26.3364 258.346L26.1558 257.5C15.3368 207.103 32.995 155.047 72.236 121.646C125.66 76.1741 188.806 44.808 254.843 30.9448C288.601 23.8605 317.174 24.1255 339.77 31.7397C350.339 35.3022 359.732 40.5427 367.691 47.3069C380.135 57.8542 389.775 72.6742 397.171 92.6134C401.703 104.843 404.898 117.646 407.175 127.428C419.129 178.847 426.846 231.621 430.103 284.28C430.652 293.131 431.002 301.062 431.179 308.521C431.264 312.135 431.308 315.665 431.308 319.124C431.308 338.563 429.963 355.668 427.229 371.151C424.668 385.65 420.762 399.249 415.625 411.562C403.973 439.62 383.489 463.548 359.419 477.213C346.798 484.375 333.517 488.618 319.942 489.814C305.924 491.05 290.923 489.203 274.079 484.161ZM319.617 486.148C332.662 484.997 345.441 480.915 357.598 474.015C380.968 460.744 400.878 437.467 412.224 410.149C417.257 398.082 421.082 384.745 423.599 370.514C426.776 352.514 428.051 332.27 427.494 308.61C427.321 301.194 426.971 293.311 426.425 284.508C423.179 232.051 415.492 179.484 403.586 128.263C401.335 118.581 398.177 105.928 393.714 93.8904C386.547 74.5622 377.254 60.239 365.303 50.1111C357.701 43.6488 348.714 38.6401 338.591 35.2286C316.629 27.8277 288.708 27.5959 255.603 34.5477C190.162 48.2858 127.584 79.3722 74.6275 124.447C43.8472 150.646 26.7122 188.622 26.7122 228.055C26.7122 232.813 26.9628 237.597 27.4676 242.385C27.9725 247.169 28.7353 251.957 29.7597 256.73L29.9365 257.57C34.2553 277.623 41.1498 297.264 50.4322 315.948C52.7537 320.614 55.2521 325.277 57.8574 329.804L58.0932 330.209C66.1853 344.186 75.6225 357.453 86.1467 369.638C96.7667 381.93 108.536 393.176 121.128 403.061C154.51 429.26 193.95 446.789 232.089 463.736C258.609 475.524 288.668 488.879 319.617 486.148Z" fill="url(#paint2_linear_79_1851)"/>
<path d="M271.385 471.582C257.791 467.512 244.761 461.885 230.361 455.485C194.152 439.396 156.713 422.758 124.85 397.747C112.748 388.249 101.447 377.44 91.2577 365.627C81.1646 353.916 72.1181 341.172 64.3724 327.743L64.1476 327.349C61.6492 323.003 59.2613 318.52 57.043 314.034C48.1844 296.094 41.6399 277.229 37.5902 257.963L37.428 257.172C27.3755 209.588 44.0867 160.501 81.0394 129.065C131.435 86.2025 190.994 56.6324 253.274 43.5568C285.193 36.8589 312.207 37.1238 333.565 44.348C343.555 47.7338 352.428 52.702 359.945 59.1128C371.686 69.0898 380.784 83.0928 387.759 101.924C392.038 113.473 395.048 125.555 397.197 134.788C408.476 183.315 415.754 233.115 418.831 282.808C419.347 291.177 419.678 298.677 419.844 305.732C419.925 309.118 419.966 312.43 419.966 315.672C419.966 334.088 418.683 350.291 416.082 364.957C413.646 378.658 409.935 391.509 405.053 403.153C394.031 429.621 374.678 452.188 351.953 465.065C340.039 471.814 327.496 475.807 314.676 476.933C301.447 478.092 287.286 476.344 271.385 471.582ZM314.355 473.268C326.645 472.189 338.683 468.351 350.136 461.863C372.161 449.383 390.936 427.468 401.652 401.736C406.431 390.339 410.068 377.749 412.452 364.316C415.47 347.307 416.686 328.17 416.163 305.817C415.997 298.809 415.665 291.357 415.153 283.036C412.087 233.545 404.839 183.948 393.607 135.62C391.485 126.493 388.507 114.555 384.303 103.201C377.552 84.977 368.804 71.4745 357.554 61.9134C350.394 55.8044 341.926 51.068 332.382 47.8368C311.658 40.8224 285.296 40.5942 254.033 47.1597C192.35 60.1102 133.358 89.4006 83.4272 131.87C54.4119 156.553 38.235 192.423 38.235 229.692C38.235 238.562 39.1526 247.519 41.0319 256.41L41.1977 257.209C45.1848 276.173 51.6261 294.743 60.3484 312.404C62.5299 316.824 64.8846 321.236 67.3424 325.516L67.5672 325.903C75.195 339.133 84.1089 351.69 94.0509 363.223C104.085 374.86 115.214 385.5 127.127 394.855C158.63 419.582 195.859 436.124 231.86 452.122C256.859 463.232 285.193 475.825 314.355 473.268Z" fill="url(#paint3_linear_79_1851)"/>
<path d="M268.691 459.003C255.912 455.176 243.667 449.884 230.132 443.871C196.061 428.73 160.833 413.071 130.845 389.537C119.425 380.572 108.765 370.37 99.1619 359.208C89.6437 348.149 81.1241 336.112 73.839 323.43L73.6289 323.058C71.2816 318.958 69.0375 314.726 66.9555 310.483C58.657 293.558 52.5658 275.761 48.8477 257.584L48.6966 256.841C39.4105 212.072 55.1747 165.952 89.8427 136.488C137.213 96.2273 193.183 68.4568 251.704 56.1687C281.788 49.8535 307.24 50.1222 327.363 56.9599C336.767 60.1617 345.128 64.8613 352.203 70.9225C363.236 80.3216 371.789 93.5077 378.348 111.235C382.368 122.099 385.202 133.463 387.218 142.148C397.819 187.779 404.662 234.609 407.555 281.336C408.045 289.219 408.355 296.285 408.513 302.939C408.587 306.1 408.624 309.191 408.624 312.22C408.624 329.612 407.408 344.911 404.935 358.763C402.628 371.669 399.109 383.777 394.481 394.748C384.089 419.626 365.867 440.827 344.491 452.913C333.277 459.254 321.478 463 309.414 464.049C296.966 465.135 283.649 463.482 268.691 459.003ZM309.093 460.384C320.627 459.379 331.925 455.787 342.674 449.711C363.354 438.019 380.994 417.469 391.083 393.327C395.608 382.6 399.05 370.753 401.309 358.115C404.165 342.099 405.318 324.077 404.828 303.023C404.673 296.421 404.364 289.399 403.877 281.564C400.999 235.04 394.186 188.412 383.629 142.98C381.635 134.402 378.842 123.181 374.892 112.508C368.557 95.3919 360.351 82.7027 349.804 73.7194C343.083 67.96 335.135 63.4922 326.177 60.4414C306.687 53.8208 281.887 53.5963 252.463 59.7716C194.543 71.9309 139.132 99.4291 92.2305 139.289C64.973 162.456 49.7579 196.229 49.7579 231.33C49.7579 239.548 50.5943 247.85 52.3042 256.094L52.4589 256.848C56.1107 274.719 62.1024 292.218 70.2646 308.864C72.3134 313.037 74.5207 317.199 76.8275 321.233L77.0375 321.601C84.2047 334.08 92.588 345.927 101.955 356.813C111.403 367.791 121.891 377.826 133.122 386.644C162.749 409.895 197.767 425.459 231.628 440.507C255.109 450.94 281.721 462.768 309.093 460.384Z" fill="url(#paint4_linear_79_1851)"/>
<path d="M229.904 432.252C197.97 418.062 164.953 403.389 136.844 381.33C126.103 372.899 116.083 363.297 107.062 352.794C98.1228 342.386 90.1301 331.055 83.3093 319.12L83.1103 318.771C80.9104 314.91 78.81 310.925 76.868 306.932C69.1259 291.022 63.488 274.289 60.1015 257.202L60.0462 256.918C60.0204 256.782 59.9946 256.646 59.9652 256.51C51.4456 214.556 66.2664 171.402 98.646 143.908C142.991 106.256 195.372 80.2775 250.134 68.7806C278.379 62.8556 302.276 63.1169 321.158 69.5682C329.939 72.5712 337.777 77.0021 344.461 82.7358C354.809 91.6124 362.812 103.981 368.937 120.546C372.703 130.733 375.352 141.376 377.243 149.509C387.166 192.243 393.574 236.103 396.283 279.864C396.74 287.276 397.034 293.911 397.178 300.149C397.244 303.082 397.281 305.949 397.281 308.764C397.281 325.134 396.128 339.534 393.788 352.569C391.629 364.559 388.305 375.924 383.905 386.346C374.059 409.678 356.972 429.514 337.025 440.765C326.516 446.69 315.453 450.189 304.148 451.168C277.616 453.457 252.268 442.192 229.904 432.252ZM303.831 447.503C314.61 446.568 325.167 443.227 335.212 437.559C354.462 426.703 370.974 407.514 380.511 384.918C384.804 374.742 388.051 363.639 390.162 351.918C392.859 336.892 393.95 319.981 393.493 300.234C393.349 294.044 393.058 287.456 392.605 280.092C389.908 236.534 383.533 192.88 373.653 150.34C371.789 142.31 369.173 131.815 365.48 121.819C359.581 105.858 351.92 93.9861 342.059 85.5254C335.732 80.1008 328.299 75.9018 319.967 73.0496C301.72 66.8191 278.479 66.5946 250.893 72.3835C196.732 83.7552 144.91 109.458 101.03 146.712C75.534 168.362 61.2807 200.034 61.2807 232.971C61.2807 236.758 61.4686 240.56 61.8518 244.365C62.2314 248.17 62.8062 251.979 63.5801 255.777C63.6096 255.925 63.6354 256.072 63.6648 256.219L63.7164 256.491C67.0403 273.265 72.5787 289.697 80.1808 305.323C82.0896 309.246 84.1531 313.158 86.3125 316.953L86.5078 317.295C93.2144 329.031 101.074 340.167 109.859 350.398C118.725 360.721 128.568 370.153 139.121 378.434C166.869 400.213 199.676 414.794 231.4 428.892C253.358 438.649 278.247 449.711 303.831 447.503Z" fill="url(#paint5_linear_79_1851)"/>
<path d="M229.675 420.638C199.879 407.397 169.069 393.706 142.84 373.119C132.78 365.222 123.401 356.227 114.963 346.379C106.602 336.62 99.1398 325.999 92.7759 314.807L92.588 314.48C90.5391 310.858 88.5861 307.123 86.7805 303.38C79.5949 288.483 74.4065 272.816 71.359 256.822L71.3074 256.55C71.2853 256.425 71.2632 256.304 71.2374 256.178C63.4806 217.036 77.3544 176.856 107.449 151.327C148.765 116.284 197.565 92.1019 248.564 81.3963C274.971 75.8539 297.309 76.1152 314.956 82.1801C323.144 84.9991 330.466 89.1577 336.716 94.5455C346.363 102.859 353.825 114.407 359.529 129.857C363.033 139.359 365.502 149.284 367.264 156.869C376.513 196.707 382.483 237.594 385.007 278.392C385.434 285.318 385.711 291.519 385.843 297.356C385.906 300.064 385.939 302.714 385.939 305.312C385.935 320.662 384.852 334.158 382.641 346.376C380.614 357.549 377.482 368.166 373.333 377.94C364.098 399.694 348.143 418.165 329.563 428.616C319.754 434.129 309.436 437.382 298.886 438.284C274.145 440.4 250.517 429.901 229.675 420.638ZM298.569 434.619C308.592 433.761 318.409 430.663 327.754 425.411C345.64 415.349 361.018 397.523 369.939 376.505C373.981 366.981 377.036 356.625 379.015 345.721C381.554 331.681 382.582 315.889 382.158 297.44C382.026 291.652 381.757 285.495 381.329 278.62C378.816 238.024 372.876 197.34 363.675 157.701C361.939 150.219 359.503 140.437 356.069 131.13C350.589 116.281 343.47 105.225 334.309 97.3314C328.413 92.2527 321.497 88.326 313.758 85.6579C296.749 79.8138 275.07 79.593 249.323 84.9955C198.921 95.5796 150.685 119.486 109.833 154.131C86.0951 174.269 72.8035 203.846 72.8035 234.616C72.8035 238.076 72.9693 241.55 73.312 245.031C73.651 248.509 74.1632 251.99 74.8523 255.464C74.8781 255.604 74.9039 255.74 74.9297 255.88L74.9776 256.131C77.9661 271.815 83.055 287.173 90.097 301.783C91.8694 305.456 93.7893 309.118 95.7976 312.669L95.9818 312.989C102.228 323.978 109.557 334.408 117.764 343.987C126.044 353.651 135.245 362.476 145.117 370.227C170.985 390.53 201.585 404.129 231.171 417.278C251.612 426.36 274.775 436.654 298.569 434.619Z" fill="url(#paint6_linear_79_1851)"/>
<path d="M229.447 409.023C201.788 396.731 173.189 384.024 148.835 364.909C139.457 357.549 130.72 349.154 122.867 339.965C115.085 330.856 108.146 320.942 102.243 310.498L102.069 310.189C100.172 306.814 98.3623 303.325 96.6893 299.829C90.0638 285.94 85.3286 271.341 82.6128 256.436L82.5686 256.186C82.5502 256.072 82.5281 255.958 82.506 255.844C79.0863 238.079 80.3613 219.723 86.1983 202.761C92.0905 185.633 102.486 170.412 116.253 158.746C154.543 126.313 199.754 103.926 246.998 94.0082C271.566 88.8486 292.341 89.1136 308.754 94.7884C316.353 97.4234 323.155 101.313 328.973 106.355C337.917 114.106 344.833 124.837 350.118 139.168C353.368 147.989 355.656 157.193 357.289 164.229C365.86 201.175 371.391 239.088 373.734 276.92C374.132 283.36 374.387 289.134 374.512 294.563C374.567 297.047 374.597 299.476 374.597 301.86C374.597 316.187 373.572 328.781 371.498 340.182C369.6 350.534 366.659 360.412 362.757 369.539C354.138 389.71 339.317 406.815 322.097 416.468C312.996 421.569 303.415 424.575 293.62 425.404C270.67 427.343 248.771 417.613 229.447 409.023ZM293.311 421.734C302.575 420.951 311.654 418.098 320.295 413.259C336.819 403.992 351.061 387.531 359.371 368.092C363.162 359.216 366.022 349.603 367.872 339.523C370.249 326.473 371.214 311.793 370.827 294.647C370.702 289.267 370.451 283.54 370.057 277.144C367.724 239.518 362.223 201.808 353.699 165.061C352.089 158.128 349.838 149.067 346.658 140.437C341.598 126.706 335.02 116.468 326.56 109.137C321.095 104.405 314.698 100.747 307.545 98.2661C291.778 92.8121 271.658 92.5913 247.754 97.6074C201.11 107.4 156.459 129.514 118.637 161.554C105.375 172.79 95.3627 187.455 89.6842 203.957C86.1172 214.324 84.3153 225.228 84.3153 236.191C84.3153 239.356 84.4663 242.529 84.7685 245.694C85.067 248.859 85.5202 252.016 86.1246 255.152C86.1504 255.284 86.1762 255.417 86.1983 255.549L86.2388 255.777C88.8957 270.362 93.5313 284.652 100.017 298.243C101.653 301.669 103.425 305.08 105.283 308.385L105.452 308.687C111.237 318.925 118.04 328.645 125.668 337.576C133.366 346.582 141.926 354.803 151.112 362.016C175.105 380.848 203.494 393.463 230.943 405.663C249.861 414.069 271.304 423.597 293.311 421.734Z" fill="url(#paint7_linear_79_1851)"/>
<path d="M229.218 397.409C203.7 386.07 177.309 374.341 154.834 356.702C146.134 349.872 138.034 342.081 130.768 333.547C123.564 325.09 117.152 315.882 111.694 306.155L111.551 305.898C109.8 302.762 108.135 299.523 106.602 296.274C100.529 283.397 96.2471 269.861 93.8666 256.05L93.8298 255.821C93.8114 255.718 93.7966 255.615 93.7782 255.512L93.7782 255.509C90.7308 239.125 91.9652 222.236 97.3489 206.665C102.803 190.892 112.383 176.889 125.056 166.165C160.321 136.337 201.942 115.747 245.428 106.62C268.157 101.847 287.378 102.112 302.552 107.4C309.561 109.848 315.844 113.473 321.231 118.168C329.475 125.348 335.842 135.263 340.706 148.478C343.699 156.615 345.806 165.105 347.31 171.59C355.203 205.639 360.299 240.582 362.459 275.448C362.827 281.402 363.063 286.742 363.177 291.773C363.229 294.029 363.255 296.241 363.255 298.412C363.255 311.716 362.296 323.408 360.351 333.992C358.582 343.527 355.837 352.658 352.185 361.133C344.178 379.722 330.488 395.462 314.632 404.316C306.23 409.005 297.39 411.765 288.354 412.519C267.195 414.286 247.02 405.321 229.218 397.409ZM288.048 408.854C296.557 408.144 304.896 405.534 312.833 401.107C327.997 392.639 341.104 377.539 348.798 359.679C352.343 351.454 355.011 342.589 356.725 333.322C358.943 321.266 359.85 307.701 359.492 291.854C359.378 286.875 359.146 281.583 358.781 275.672C356.636 241.012 351.57 206.272 343.721 172.418C342.243 166.036 340.168 157.693 337.246 149.748C332.603 137.129 326.571 127.707 318.81 120.94C313.777 116.553 307.896 113.167 301.336 110.874C286.807 105.807 268.249 105.59 246.184 110.219C203.298 119.225 162.237 139.543 127.436 168.973C115.269 179.27 106.071 192.718 100.835 207.865C97.5111 217.481 95.8307 227.62 95.8307 237.818C95.8307 240.659 95.9597 243.504 96.2213 246.345C96.483 249.186 96.8772 252.02 97.4005 254.839C97.4226 254.968 97.4447 255.096 97.4668 255.225L97.5 255.424C99.8215 268.912 104.008 282.127 109.933 294.706C111.433 297.878 113.058 301.04 114.768 304.105L114.926 304.385C120.247 313.876 126.523 322.885 133.576 331.166C140.684 339.512 148.603 347.13 157.111 353.806C179.228 371.165 205.403 382.798 230.714 394.045C248.111 401.777 267.829 410.539 288.048 408.854Z" fill="url(#paint8_linear_79_1851)"/>
<path d="M228.99 385.794C205.605 375.405 181.428 364.659 160.829 348.492C152.811 342.195 145.353 335.011 138.668 327.132C132.039 319.323 126.154 310.822 121.176 301.868L121.032 301.606C119.429 298.714 117.907 295.722 116.511 292.719C110.994 280.85 107.166 268.378 105.124 255.656L105.091 255.457C105.076 255.361 105.062 255.269 105.047 255.174C102.375 240.173 103.573 224.75 108.503 210.57C113.511 196.155 122.281 183.366 133.859 173.584C166.095 146.366 204.135 127.571 243.859 119.232C264.752 114.845 282.41 115.107 296.351 120.009C302.77 122.276 308.537 125.628 313.489 129.978C321.029 136.599 326.855 145.692 331.295 157.789C334.033 165.249 335.96 173.018 337.335 178.95C344.55 210.106 349.211 242.076 351.183 273.976C351.522 279.444 351.739 284.354 351.842 288.98C351.886 291.015 351.912 293.006 351.912 294.964C351.912 307.241 351.02 318.035 349.204 327.798C347.568 336.516 345.014 344.907 341.609 352.731C334.213 369.737 321.659 384.112 307.166 392.172C299.468 396.444 291.369 398.958 283.089 399.639C263.72 401.229 245.27 393.029 228.99 385.794ZM282.786 395.97C290.539 395.333 298.138 392.974 305.375 388.955C319.175 381.282 331.151 367.544 338.23 351.267C341.524 343.693 343.997 335.571 345.582 327.125C347.638 316.058 348.482 303.608 348.157 289.064C348.054 284.486 347.844 279.625 347.505 274.2C345.545 242.507 340.913 210.739 333.745 179.778C332.393 173.949 330.503 166.323 327.835 159.059C323.612 147.551 318.121 138.947 311.057 132.742C306.458 128.705 301.097 125.588 295.124 123.479C281.832 118.805 264.841 118.588 244.614 122.831C205.487 131.049 168.011 149.571 136.24 176.396C125.163 185.751 116.776 197.984 111.982 211.777C108.901 220.643 107.342 230.016 107.342 239.456C107.342 241.969 107.453 244.487 107.674 247.004C107.895 249.521 108.227 252.031 108.673 254.53C108.695 254.655 108.717 254.78 108.735 254.905L108.761 255.074C110.747 267.462 114.48 279.606 119.853 291.169C121.213 294.095 122.694 297.006 124.256 299.829L124.396 300.083C129.261 308.827 135.005 317.126 141.48 324.751C148.006 332.443 155.28 339.457 163.107 345.599C183.344 361.483 207.311 372.133 230.486 382.43C246.364 389.489 264.358 397.486 282.786 395.97Z" fill="url(#paint9_linear_79_1851)"/>
<path d="M228.761 374.179C207.514 364.74 185.548 354.976 166.829 340.281C159.488 334.522 152.671 327.938 146.569 320.714C140.518 313.556 135.16 305.761 130.642 297.555L130.51 297.312C129.058 294.662 127.68 291.917 126.419 289.16C121.46 278.296 118.08 266.891 116.378 255.262L116.352 255.082C116.341 254.997 116.33 254.916 116.315 254.831C114.02 241.222 115.177 227.263 119.654 214.471C124.223 201.414 132.179 189.843 142.663 181.007C171.873 156.394 206.324 139.396 242.289 131.844C261.347 127.844 277.447 128.105 290.153 132.62C295.978 134.703 301.226 137.787 305.751 141.791C312.586 147.845 317.863 156.122 321.887 167.104C324.364 173.879 326.11 180.926 327.356 186.31C333.897 214.57 338.12 243.57 339.91 272.504C340.22 277.49 340.415 281.969 340.511 286.19C340.548 288.001 340.57 289.771 340.57 291.515C340.57 302.773 339.741 312.662 338.057 321.608C336.55 329.513 334.188 337.157 331.037 344.329C324.253 359.753 312.833 372.762 299.7 380.023C292.706 383.884 285.347 386.151 277.823 386.758C260.246 388.171 243.52 380.737 228.761 374.179ZM277.528 383.089C284.526 382.526 291.383 380.41 297.917 376.8C310.357 369.925 321.198 357.549 327.662 342.85C330.705 335.931 332.983 328.553 334.435 320.924C336.332 310.851 337.114 299.516 336.826 286.271C336.734 282.098 336.539 277.671 336.233 272.728C334.453 243.997 330.26 215.2 323.767 187.138C322.543 181.857 320.833 174.953 318.423 168.366C314.617 157.973 309.672 150.182 303.304 144.544C299.136 140.853 294.291 138.008 288.914 136.087C276.861 131.804 261.428 131.586 243.048 135.447C207.676 142.87 173.786 159.6 145.039 183.819C135.061 192.232 127.484 203.25 123.132 215.686C120.288 223.808 118.851 232.423 118.851 241.108C118.851 243.294 118.943 245.484 119.123 247.674C119.307 249.86 119.584 252.046 119.949 254.221C119.967 254.342 119.986 254.463 120 254.581L120.022 254.728C121.677 266.015 124.957 277.085 129.773 287.633C130.996 290.308 132.33 292.973 133.741 295.545L133.87 295.781C138.274 303.778 143.492 311.366 149.384 318.34C155.328 325.373 161.961 331.784 169.102 337.389C187.464 351.8 209.22 361.468 230.257 370.816C244.614 377.197 260.887 384.429 277.528 383.089Z" fill="url(#paint10_linear_79_1851)"/>
<path d="M228.533 362.565C209.423 354.071 189.664 345.294 172.824 332.075C166.162 326.845 159.986 320.865 154.469 314.296C148.997 307.785 144.166 300.701 140.109 293.241L139.987 293.021C138.683 290.603 137.448 288.108 136.328 285.601C131.917 275.739 128.992 265.397 127.628 254.861L127.61 254.692C127.602 254.625 127.595 254.555 127.584 254.489C125.664 242.264 126.781 229.777 130.805 218.376C134.932 206.676 142.077 196.321 151.466 188.427C177.651 166.423 208.513 151.216 240.719 144.456C257.942 140.842 272.487 141.103 283.955 145.232C289.191 147.128 293.922 149.947 298.009 153.605C304.144 159.092 308.876 166.552 312.476 176.414C314.694 182.505 316.264 188.835 317.381 193.671C323.243 219.034 327.028 245.064 328.634 271.028C328.915 275.543 329.091 279.588 329.176 283.397C329.209 284.987 329.228 286.543 329.228 288.074C329.228 298.309 328.465 307.289 326.906 315.414C325.535 322.506 323.365 329.41 320.461 335.931C314.293 349.769 304.004 361.413 292.235 367.875C285.941 371.324 279.323 373.34 272.557 373.874C256.771 375.114 241.769 368.446 228.533 362.565ZM148.013 196.799C141.974 203.324 137.283 211.085 134.279 219.598C131.674 226.98 130.355 234.841 130.355 242.779C130.355 246.489 130.642 250.217 131.225 253.919C131.243 254.033 131.254 254.147 131.269 254.265L131.284 254.39C132.599 264.569 135.429 274.565 139.693 284.1C140.776 286.521 141.966 288.936 143.23 291.269L143.344 291.482C147.284 298.729 151.978 305.61 157.292 311.933C162.646 318.303 168.638 324.107 175.101 329.178C191.58 342.114 211.129 350.803 230.029 359.201C242.867 364.905 257.416 371.371 272.27 370.205C278.508 369.715 284.629 367.846 290.458 364.648C301.539 358.564 311.245 347.553 317.093 334.434C319.886 328.17 321.972 321.535 323.288 314.723C325.027 305.64 325.745 295.424 325.491 283.478C325.41 279.717 325.233 275.72 324.957 271.256C323.365 245.491 319.606 219.667 313.788 194.499C312.697 189.766 311.164 183.576 309.012 177.673C305.626 168.395 301.222 161.421 295.551 156.347C291.814 153.005 287.488 150.429 282.702 148.692C271.89 144.798 258.02 144.585 241.478 148.059C209.865 154.694 179.56 169.628 153.839 191.242C151.779 192.972 149.834 194.83 148.013 196.799Z" fill="url(#paint11_linear_79_1851)"/>
<path d="M228.304 350.95C211.332 343.409 193.784 335.611 178.819 323.864C172.839 319.168 167.304 313.791 162.37 307.877C157.472 302.015 153.168 295.637 149.568 288.917L149.465 288.722C148.308 286.547 147.221 284.302 146.233 282.039C142.375 273.173 139.903 263.892 138.882 254.452L138.867 254.294C138.863 254.243 138.86 254.191 138.852 254.14C135.639 231.569 143.647 209.775 160.273 195.842C183.429 176.448 210.705 163.041 239.149 157.068C254.538 153.837 267.527 154.098 277.756 157.844C282.407 159.559 286.615 162.106 290.274 165.422C295.702 170.342 299.885 176.981 303.065 185.729C305.029 191.139 306.414 196.747 307.402 201.031C312.587 223.502 315.94 246.558 317.362 269.556C317.613 273.589 317.768 277.203 317.841 280.607C317.871 281.973 317.885 283.316 317.885 284.633C317.885 293.845 317.185 301.923 315.759 309.228C314.517 315.51 312.542 321.667 309.882 327.533C304.247 339.965 295.326 349.979 284.765 355.727C279.175 358.763 273.298 360.533 267.291 360.993C253.296 362.057 239.437 355.896 228.304 350.95ZM267.011 357.324C272.494 356.905 277.874 355.282 283.004 352.496C292.721 347.207 301.296 337.554 306.525 326.013C309.067 320.408 310.958 314.52 312.144 308.518C313.721 300.432 314.381 291.328 314.156 280.685C314.086 277.332 313.932 273.766 313.685 269.784C312.273 246.985 308.953 224.132 303.813 201.855C302.847 197.675 301.499 192.206 299.601 186.984C296.631 178.814 292.769 172.653 287.798 168.145C284.492 165.149 280.686 162.846 276.485 161.296C266.915 157.797 254.611 157.583 239.908 160.671C212.054 166.519 185.334 179.657 162.639 198.665C149.281 209.86 141.841 226.479 141.841 244.361C141.841 247.416 142.058 250.511 142.501 253.621C142.515 253.731 142.526 253.842 142.537 253.952L142.548 254.059C143.525 263.127 145.902 272.047 149.612 280.571C150.56 282.746 151.606 284.906 152.719 286.996L152.822 287.184C156.301 293.683 160.465 299.851 165.2 305.522C169.968 311.237 175.319 316.434 181.097 320.971C195.704 332.435 213.038 340.138 229.801 347.586C241.117 352.617 253.944 358.314 267.011 357.324Z" fill="url(#paint12_linear_79_1851)"/>
<path d="M228.076 339.336C213.24 332.744 197.904 325.929 184.818 315.654C179.516 311.495 174.619 306.718 170.267 301.459C165.948 296.244 162.171 290.573 159.031 284.597L158.943 284.424C157.933 282.492 156.99 280.49 156.139 278.473C152.829 270.597 150.806 262.376 150.136 254.033L150.125 253.886C150.125 253.853 150.121 253.816 150.117 253.783C147.685 234.086 154.775 215.2 169.076 203.261C189.207 186.476 212.894 174.865 237.579 169.68C251.136 166.835 262.571 167.096 271.562 170.456C275.623 171.987 279.315 174.269 282.539 177.239C287.26 181.592 290.897 187.414 293.657 195.04C295.359 199.765 296.568 204.656 297.427 208.391C301.933 227.966 304.848 248.053 306.086 268.084C306.307 271.631 306.444 274.815 306.51 277.814C306.532 278.966 306.543 280.092 306.543 281.204C306.543 289.385 305.909 296.557 304.612 303.042C303.499 308.518 301.716 313.931 299.306 319.139C294.294 329.958 286.479 338.64 277.296 343.582C272.41 346.203 267.273 347.726 262.022 348.109C249.817 349 237.76 343.638 228.076 339.336ZM261.753 344.44C266.484 344.094 271.124 342.714 275.549 340.34C284.032 335.777 291.284 327.699 295.96 317.593C298.252 312.647 299.947 307.506 301.001 302.313C302.416 295.221 303.013 287.232 302.825 277.891C302.762 274.94 302.626 271.808 302.409 268.312C301.182 248.48 298.296 228.596 293.834 209.216C292.997 205.583 291.829 200.829 290.189 196.291C287.636 189.233 284.316 183.889 280.037 179.944C277.167 177.298 273.876 175.263 270.269 173.901C261.944 170.791 251.199 170.581 238.339 173.283C214.239 178.343 191.109 189.685 171.438 206.088C159.838 215.77 153.334 230.388 153.334 246.172C153.334 248.535 153.478 250.927 153.776 253.33C153.788 253.44 153.799 253.547 153.802 253.654L153.81 253.738C154.451 261.691 156.378 269.534 159.536 277.045C160.347 278.97 161.246 280.88 162.211 282.723L162.296 282.889C165.314 288.638 168.951 294.095 173.108 299.115C177.294 304.172 181.999 308.761 187.096 312.761C199.824 322.753 214.947 329.473 229.572 335.972C239.37 340.325 250.473 345.261 261.753 344.44Z" fill="url(#paint13_linear_79_1851)"/>
<path d="M227.848 327.721C215.153 322.079 202.027 316.246 190.814 307.447C186.189 303.815 181.933 299.641 178.163 295.037C174.423 290.47 171.169 285.502 168.494 280.269L168.417 280.118C167.554 278.421 166.755 276.666 166.044 274.899C163.276 268.006 161.71 260.838 161.39 253.595L161.39 253.4C160.597 245.362 161.589 237.299 164.249 230.086C167.101 222.347 171.689 215.818 177.883 210.681C194.985 196.501 215.087 186.686 236.01 182.292C247.739 179.833 257.615 180.095 265.375 183.072C268.846 184.419 272.019 186.436 274.808 189.06C278.821 192.846 281.909 197.848 284.246 204.354C285.694 208.402 286.718 212.572 287.448 215.752C291.28 232.434 293.756 249.547 294.814 266.612C295.002 269.677 295.12 272.426 295.175 275.025C295.194 275.959 295.201 276.876 295.201 277.777C295.201 284.935 294.63 291.195 293.465 296.855C292.481 301.529 290.89 306.207 288.727 310.748C284.341 319.956 277.627 327.305 269.819 331.438C265.64 333.646 261.244 334.919 256.752 335.228C246.342 335.939 236.087 331.383 227.848 327.721ZM256.498 331.556C260.474 331.283 264.376 330.15 268.094 328.185C275.206 324.42 281.349 317.667 285.399 309.165C287.437 304.885 288.937 300.491 289.854 296.108C291.111 290.01 291.645 283.143 291.49 275.098C291.439 272.555 291.321 269.854 291.136 266.84C290.094 249.974 287.643 233.06 283.859 216.572C283.151 213.492 282.16 209.459 280.778 205.595C278.641 199.647 275.859 195.113 272.277 191.739C269.837 189.439 267.066 187.676 264.045 186.506C256.966 183.786 247.79 183.58 236.769 185.895C216.428 190.164 196.879 199.714 180.238 213.511C174.549 218.232 170.333 224.235 167.706 231.356C165.789 236.559 164.806 242.238 164.806 248.027C164.806 249.694 164.887 251.376 165.052 253.054C165.063 253.161 165.067 253.267 165.071 253.374L165.071 253.433C165.373 260.26 166.851 267.02 169.463 273.527C170.134 275.194 170.886 276.85 171.7 278.454L171.774 278.598C174.331 283.596 177.441 288.343 181.016 292.708C184.616 297.102 188.677 301.087 193.091 304.551C203.943 313.07 216.855 318.808 229.344 324.357C237.62 328.034 247.002 332.203 256.498 331.556Z" fill="url(#paint14_linear_79_1851)"/>
<path d="M227.615 316.103C217.062 311.414 206.143 306.564 196.809 299.236C192.863 296.138 189.248 292.564 186.057 288.615C182.895 284.692 180.164 280.431 177.953 275.945L177.887 275.808C177.172 274.351 176.516 272.839 175.941 271.315C173.782 265.57 172.643 259.399 172.643 253.411C172.643 253.308 172.643 253.205 172.647 253.102C172.643 252.984 172.643 252.866 172.654 252.752C173.771 239.835 176.244 226.697 186.69 218.096C200.767 206.529 217.279 198.51 234.444 194.907C244.371 192.821 252.695 193.086 259.188 195.688C262.066 196.843 264.719 198.591 267.081 200.888C270.383 204.1 272.922 208.281 274.838 213.672C276.028 217.032 276.872 220.481 277.473 223.112C280.627 236.898 282.665 251.037 283.538 265.14C283.7 267.719 283.8 270.042 283.84 272.235C283.855 272.967 283.862 273.685 283.862 274.395C283.862 280.552 283.354 285.896 282.315 290.673C281.478 294.526 280.074 298.46 278.14 302.364C274.385 309.957 268.773 315.966 262.342 319.293C258.867 321.089 255.208 322.116 251.475 322.348C242.864 322.881 234.41 319.124 227.615 316.103ZM251.247 318.675C254.468 318.473 257.633 317.582 260.651 316.025C266.388 313.059 271.426 307.627 274.838 300.734C276.636 297.098 277.941 293.451 278.714 289.892C279.809 284.847 280.281 279.095 280.155 272.305C280.115 270.163 280.019 267.896 279.861 265.368C279.002 251.464 276.99 237.524 273.88 223.933C273.301 221.397 272.491 218.081 271.363 214.902C269.642 210.059 267.402 206.338 264.509 203.526C262.468 201.539 260.279 200.093 257.814 199.103C252.01 196.777 244.404 196.574 235.199 198.507C218.617 201.988 202.65 209.746 189.034 220.933C180.168 228.231 177.537 239.047 176.328 253.036C176.328 253.036 176.332 253.036 176.332 253.039L176.332 253.157C176.288 258.777 177.353 264.595 179.391 270.019C179.925 271.433 180.533 272.835 181.196 274.189L181.259 274.314C183.352 278.561 185.931 282.595 188.927 286.304C191.941 290.04 195.361 293.418 199.087 296.344C208.059 303.384 218.764 308.142 229.115 312.743C235.873 315.746 243.538 319.15 251.247 318.675Z" fill="url(#paint15_linear_79_1851)"/>
<path d="M227.387 304.488C218.967 300.749 210.259 296.877 202.808 291.026C199.536 288.461 196.559 285.487 193.95 282.186C191.359 278.911 189.159 275.348 187.402 271.595L187.354 271.488C186.783 270.259 186.274 268.993 185.835 267.716C184.17 262.806 183.503 257.588 183.912 252.62C183.916 252.546 183.919 252.41 183.952 252.248C184.074 251.593 184.192 250.934 184.314 250.279C185.968 241.226 187.674 231.867 195.505 225.508C206.549 216.554 219.472 210.331 232.874 207.519C240.984 205.815 247.761 206.084 253.016 208.31C255.345 209.3 257.423 210.743 259.365 212.727C261.952 215.365 263.934 218.722 265.43 222.991C266.363 225.67 267.022 228.397 267.498 230.476C269.97 241.362 271.577 252.531 272.266 263.668C272.395 265.769 272.476 267.657 272.505 269.445C272.516 269.994 272.52 270.531 272.52 271.061C272.52 276.21 272.085 280.512 271.164 284.501C270.453 287.578 269.237 290.772 267.549 293.992C264.424 299.958 259.918 304.631 254.854 307.156C252.083 308.532 249.169 309.309 246.195 309.464C239.381 309.821 232.73 306.865 227.387 304.488ZM246.003 305.791C248.472 305.662 250.897 305.011 253.211 303.862C257.585 301.684 261.517 297.573 264.284 292.288C265.828 289.344 266.934 286.444 267.571 283.673C268.518 279.573 268.916 275.076 268.824 269.512C268.791 267.778 268.714 265.942 268.588 263.896C267.91 252.955 266.333 241.984 263.901 231.289C263.451 229.306 262.821 226.708 261.952 224.201C260.64 220.455 258.934 217.544 256.734 215.303C255.135 213.672 253.447 212.491 251.575 211.7C247.028 209.768 240.992 209.576 233.629 211.118C220.798 213.812 208.417 219.778 197.826 228.364C191.057 233.866 189.543 242.157 187.94 250.938C187.822 251.575 187.707 252.215 187.59 252.848L187.582 252.925C187.217 257.389 187.818 262.096 189.325 266.527C189.719 267.683 190.18 268.831 190.696 269.939L190.744 270.042C192.376 273.534 194.429 276.85 196.842 279.904C199.271 282.977 202.042 285.745 205.086 288.133C212.175 293.701 220.673 297.477 228.887 301.128C234.13 303.458 240.071 306.096 246.003 305.791Z" fill="url(#paint16_linear_79_1851)"/>
<path d="M227.158 292.873C220.879 290.084 214.383 287.195 208.804 282.819C206.206 280.78 203.862 278.399 201.836 275.75C199.816 273.111 198.14 270.248 196.853 267.248L196.813 267.145C196.389 266.152 196.024 265.121 195.722 264.08C194.58 260.072 194.399 255.902 195.195 252.06C195.206 251.987 195.232 251.836 195.295 251.652L195.295 251.648C195.822 250.169 196.264 248.579 196.695 247.044C198.121 241.944 199.595 236.666 204.323 232.916C212.338 226.575 221.668 222.155 231.304 220.131C237.609 218.806 242.845 219.079 246.866 220.944C248.609 221.754 250.182 222.947 251.671 224.588C253.502 226.612 254.969 229.21 256.026 232.316C256.697 234.307 257.176 236.313 257.519 237.836C259.317 245.83 260.485 254.026 260.99 262.195C261.093 263.822 261.152 265.283 261.174 266.66C261.178 267.002 261.182 267.337 261.182 267.672C261.182 271.782 260.806 275.194 260.01 278.34C259.409 280.71 258.407 283.099 256.944 285.646C255.186 288.707 252.098 292.818 247.348 295.03C245.281 295.983 243.114 296.506 240.9 296.583C235.892 296.756 231.05 294.603 227.158 292.873ZM240.774 292.906C242.492 292.848 244.183 292.439 245.793 291.692C249.666 289.889 252.257 286.415 253.749 283.816C255.039 281.564 255.919 279.478 256.435 277.439C257.217 274.358 257.548 270.951 257.489 266.715C257.467 265.397 257.412 263.995 257.312 262.424C256.819 254.449 255.68 246.448 253.922 238.646C253.443 236.512 253.016 234.922 252.533 233.498C251.641 230.874 250.433 228.706 248.936 227.057C247.787 225.788 246.6 224.879 245.31 224.282C242.031 222.759 237.572 222.575 232.059 223.73C222.98 225.64 214.18 229.81 206.615 235.798C202.823 238.804 201.57 243.287 200.244 248.034C199.809 249.591 199.359 251.199 198.814 252.76C198.81 252.767 198.81 252.771 198.81 252.778C198.128 256.072 198.287 259.63 199.267 263.071C199.525 263.962 199.838 264.849 200.207 265.717L200.236 265.787C201.408 268.518 202.93 271.12 204.761 273.516C206.604 275.923 208.726 278.079 211.081 279.927C216.299 284.019 222.582 286.812 228.658 289.513C232.387 291.169 236.614 293.046 240.774 292.906Z" fill="url(#paint17_linear_79_1851)"/>
<path d="M226.93 281.259C222.788 279.419 218.503 277.512 214.803 274.609C212.872 273.096 211.158 271.308 209.707 269.295C208.262 267.289 207.109 265.114 206.272 262.803L208.011 262.199L206.257 262.762C205.977 261.989 205.756 261.187 205.602 260.377C205.001 257.257 205.344 254.033 206.571 251.31C207.566 247.714 209.228 243.257 213.167 240.302C218.141 236.589 223.871 233.972 229.734 232.743C234.27 231.79 237.981 232.081 240.767 233.608C241.95 234.256 243.011 235.201 244.017 236.508C245.108 237.925 245.985 239.658 246.626 241.664C246.943 242.672 247.234 243.798 247.544 245.208C248.664 250.305 249.393 255.523 249.718 260.723C249.788 261.875 249.828 262.906 249.839 263.874C249.843 264.028 249.843 264.175 249.843 264.326C249.843 267.403 249.522 269.92 248.844 272.217C248.343 273.906 247.51 275.588 246.294 277.361C244.456 280.052 242.204 281.973 239.779 282.922C238.427 283.448 237.008 283.71 235.564 283.702C232.384 283.684 229.362 282.341 226.93 281.259ZM238.438 279.496C240.166 278.819 241.832 277.361 243.254 275.286C244.246 273.832 244.92 272.489 245.31 271.171C245.915 269.125 246.184 266.818 246.154 263.914C246.143 263.012 246.106 262.041 246.04 260.952C245.727 255.939 245.023 250.908 243.943 245.995C243.66 244.693 243.394 243.67 243.114 242.772C242.606 241.182 241.928 239.827 241.099 238.753C240.398 237.848 239.732 237.237 238.995 236.835C237.001 235.742 234.141 235.577 230.493 236.346C225.15 237.465 219.921 239.853 215.378 243.25C212.297 245.557 210.974 249.182 210.082 252.425C210.035 252.609 209.965 252.748 209.928 252.826C209.014 254.872 208.763 257.305 209.22 259.682C209.338 260.304 209.511 260.922 209.732 261.54L209.747 261.577C210.458 263.542 211.45 265.416 212.699 267.142C213.948 268.875 215.422 270.413 217.076 271.716C220.419 274.336 224.491 276.147 228.43 277.899C230.655 278.885 233.18 280.008 235.586 280.022C236.562 280.03 237.524 279.849 238.438 279.496Z" fill="url(#paint18_linear_79_1851)"/>
<path d="M226.702 269.644C224.697 268.754 222.619 267.83 220.798 266.398C219.52 265.397 218.425 264.183 217.544 262.784C216.664 261.39 216.037 259.881 215.684 258.298L215.672 258.25C215.547 257.673 215.481 257.076 215.481 256.484C215.481 254.07 216.538 251.784 218.381 250.217C221.24 247.78 224.623 246.098 228.164 245.355C231.053 244.748 233.305 245.108 234.864 246.426C235.542 246.996 236.076 247.74 236.496 248.697C236.861 249.521 237.082 250.379 237.252 251.111C237.874 253.779 238.272 256.517 238.442 259.251C238.486 259.943 238.508 260.547 238.508 261.099C238.508 263.138 238.228 264.757 237.631 266.2C237.141 267.392 236.349 268.496 235.405 269.309C234.337 270.229 233.091 270.778 231.813 270.892C229.893 271.061 228.124 270.277 226.702 269.644ZM231.485 267.226C231.993 267.178 232.516 266.936 232.999 266.523C233.508 266.085 233.954 265.456 234.226 264.797C234.632 263.815 234.823 262.641 234.823 261.099C234.823 260.624 234.805 260.094 234.764 259.48C234.609 256.948 234.237 254.412 233.662 251.943C233.53 251.376 233.364 250.724 233.124 250.176C232.933 249.745 232.726 249.436 232.487 249.234C231.857 248.704 230.593 248.605 228.924 248.958C225.983 249.573 223.164 250.978 220.772 253.013C219.752 253.886 219.166 255.152 219.166 256.484C219.166 256.811 219.203 257.139 219.265 257.43L219.28 257.492C219.542 258.666 220.01 259.785 220.662 260.823C221.318 261.861 222.132 262.766 223.076 263.506C224.538 264.654 226.399 265.482 228.201 266.281C229.288 266.766 230.519 267.311 231.485 267.226Z" fill="url(#paint19_linear_79_1851)"/>
</g>
<defs>
<linearGradient id="paint0_linear_79_1851" x1="6.83483e-06" y1="258" x2="395.3" y2="323.574" gradientUnits="userSpaceOnUse">
<stop stop-color="#AC713D"/>
<stop offset="0.413462" stop-color="#07121C"/>
<stop offset="0.966346" stop-color="#4D6881"/>
</linearGradient>
<linearGradient id="paint1_linear_79_1851" x1="6.83483e-06" y1="258" x2="395.3" y2="323.574" gradientUnits="userSpaceOnUse">
<stop stop-color="#AC713D"/>
<stop offset="0.413462" stop-color="#07121C"/>
<stop offset="0.966346" stop-color="#4D6881"/>
</linearGradient>
<linearGradient id="paint2_linear_79_1851" x1="6.83483e-06" y1="258" x2="395.3" y2="323.574" gradientUnits="userSpaceOnUse">
<stop stop-color="#AC713D"/>
<stop offset="0.413462" stop-color="#07121C"/>
<stop offset="0.966346" stop-color="#4D6881"/>
</linearGradient>
<linearGradient id="paint3_linear_79_1851" x1="6.83483e-06" y1="258" x2="395.3" y2="323.574" gradientUnits="userSpaceOnUse">
<stop stop-color="#AC713D"/>
<stop offset="0.413462" stop-color="#07121C"/>
<stop offset="0.966346" stop-color="#4D6881"/>
</linearGradient>
<linearGradient id="paint4_linear_79_1851" x1="6.83483e-06" y1="258" x2="395.3" y2="323.574" gradientUnits="userSpaceOnUse">
<stop stop-color="#AC713D"/>
<stop offset="0.413462" stop-color="#07121C"/>
<stop offset="0.966346" stop-color="#4D6881"/>
</linearGradient>
<linearGradient id="paint5_linear_79_1851" x1="6.83483e-06" y1="258" x2="395.3" y2="323.574" gradientUnits="userSpaceOnUse">
<stop stop-color="#AC713D"/>
<stop offset="0.413462" stop-color="#07121C"/>
<stop offset="0.966346" stop-color="#4D6881"/>
</linearGradient>
<linearGradient id="paint6_linear_79_1851" x1="6.83483e-06" y1="258" x2="395.3" y2="323.574" gradientUnits="userSpaceOnUse">
<stop stop-color="#AC713D"/>
<stop offset="0.413462" stop-color="#07121C"/>
<stop offset="0.966346" stop-color="#4D6881"/>
</linearGradient>
<linearGradient id="paint7_linear_79_1851" x1="6.83483e-06" y1="258" x2="395.3" y2="323.574" gradientUnits="userSpaceOnUse">
<stop stop-color="#AC713D"/>
<stop offset="0.413462" stop-color="#07121C"/>
<stop offset="0.966346" stop-color="#4D6881"/>
</linearGradient>
<linearGradient id="paint8_linear_79_1851" x1="6.83483e-06" y1="258" x2="395.3" y2="323.574" gradientUnits="userSpaceOnUse">
<stop stop-color="#AC713D"/>
<stop offset="0.413462" stop-color="#07121C"/>
<stop offset="0.966346" stop-color="#4D6881"/>
</linearGradient>
<linearGradient id="paint9_linear_79_1851" x1="6.83483e-06" y1="258" x2="395.3" y2="323.574" gradientUnits="userSpaceOnUse">
<stop stop-color="#AC713D"/>
<stop offset="0.413462" stop-color="#07121C"/>
<stop offset="0.966346" stop-color="#4D6881"/>
</linearGradient>
<linearGradient id="paint10_linear_79_1851" x1="6.83483e-06" y1="258" x2="395.3" y2="323.574" gradientUnits="userSpaceOnUse">
<stop stop-color="#AC713D"/>
<stop offset="0.413462" stop-color="#07121C"/>
<stop offset="0.966346" stop-color="#4D6881"/>
</linearGradient>
<linearGradient id="paint11_linear_79_1851" x1="6.83483e-06" y1="258" x2="395.3" y2="323.574" gradientUnits="userSpaceOnUse">
<stop stop-color="#AC713D"/>
<stop offset="0.413462" stop-color="#07121C"/>
<stop offset="0.966346" stop-color="#4D6881"/>
</linearGradient>
<linearGradient id="paint12_linear_79_1851" x1="6.83483e-06" y1="258" x2="395.3" y2="323.574" gradientUnits="userSpaceOnUse">
<stop stop-color="#AC713D"/>
<stop offset="0.413462" stop-color="#07121C"/>
<stop offset="0.966346" stop-color="#4D6881"/>
</linearGradient>
<linearGradient id="paint13_linear_79_1851" x1="6.83483e-06" y1="258" x2="395.3" y2="323.574" gradientUnits="userSpaceOnUse">
<stop stop-color="#AC713D"/>
<stop offset="0.413462" stop-color="#07121C"/>
<stop offset="0.966346" stop-color="#4D6881"/>
</linearGradient>
<linearGradient id="paint14_linear_79_1851" x1="6.83483e-06" y1="258" x2="395.3" y2="323.574" gradientUnits="userSpaceOnUse">
<stop stop-color="#AC713D"/>
<stop offset="0.413462" stop-color="#07121C"/>
<stop offset="0.966346" stop-color="#4D6881"/>
</linearGradient>
<linearGradient id="paint15_linear_79_1851" x1="6.83483e-06" y1="258" x2="395.3" y2="323.574" gradientUnits="userSpaceOnUse">
<stop stop-color="#AC713D"/>
<stop offset="0.413462" stop-color="#07121C"/>
<stop offset="0.966346" stop-color="#4D6881"/>
</linearGradient>
<linearGradient id="paint16_linear_79_1851" x1="6.83483e-06" y1="258" x2="395.3" y2="323.574" gradientUnits="userSpaceOnUse">
<stop stop-color="#AC713D"/>
<stop offset="0.413462" stop-color="#07121C"/>
<stop offset="0.966346" stop-color="#4D6881"/>
</linearGradient>
<linearGradient id="paint17_linear_79_1851" x1="6.83483e-06" y1="258" x2="395.3" y2="323.574" gradientUnits="userSpaceOnUse">
<stop stop-color="#AC713D"/>
<stop offset="0.413462" stop-color="#07121C"/>
<stop offset="0.966346" stop-color="#4D6881"/>
</linearGradient>
<linearGradient id="paint18_linear_79_1851" x1="6.83483e-06" y1="258" x2="395.3" y2="323.574" gradientUnits="userSpaceOnUse">
<stop stop-color="#AC713D"/>
<stop offset="0.413462" stop-color="#07121C"/>
<stop offset="0.966346" stop-color="#4D6881"/>
</linearGradient>
<linearGradient id="paint19_linear_79_1851" x1="6.83483e-06" y1="258" x2="395.3" y2="323.574" gradientUnits="userSpaceOnUse">
<stop stop-color="#AC713D"/>
<stop offset="0.413462" stop-color="#07121C"/>
<stop offset="0.966346" stop-color="#4D6881"/>
</linearGradient>
</defs>
</svg>
