<svg width="24" height="24" viewBox="0 0 24 24" fill="none" xmlns="http://www.w3.org/2000/svg">
<path d="M17.0478 14.1137L17.0396 14.1825C15.0239 13.1779 14.8131 13.044 14.5527 13.4345C14.3722 13.7049 13.846 14.3181 13.6874 14.4996C13.527 14.6784 13.3675 14.6921 13.0953 14.5684C12.8203 14.4309 11.9376 14.1421 10.8926 13.2072C10.0787 12.4785 9.53234 11.5847 9.37102 11.3098C9.10244 10.8459 9.66434 10.7799 10.1758 9.81198C10.2675 9.61949 10.2207 9.46824 10.1529 9.33167C10.0842 9.19417 9.53693 7.84672 9.30777 7.30957C9.08778 6.77426 8.86137 6.84209 8.69179 6.84209C8.16381 6.79626 7.77791 6.80359 7.43784 7.15741C5.9584 8.78352 6.33146 10.461 7.59733 12.2447C10.0851 15.5006 11.4105 16.1001 13.8341 16.9324C14.4886 17.1405 15.0853 17.1111 15.5574 17.0433C16.0835 16.9599 17.1771 16.3824 17.4053 15.7362C17.639 15.0899 17.639 14.5537 17.5703 14.43C17.5025 14.3062 17.3228 14.2375 17.0478 14.1137Z" fill="#F56F18"/>
<path d="M19.8093 4.16186C12.7613 -2.65147 1.09716 2.2901 1.09258 11.9019C1.09258 13.8232 1.59581 15.6968 2.55461 17.3513L1 22.9996L6.80686 21.4853C14.0528 25.3993 22.9955 20.202 22.9992 11.9074C22.9992 8.99618 21.8625 6.25636 19.7955 4.19761L19.8093 4.16186ZM21.1677 11.8772C21.1622 18.8738 13.4818 23.2434 7.40726 19.6722L7.07727 19.476L3.6399 20.3697L4.56112 17.0286L4.34204 16.6849C0.56185 10.6672 4.90485 2.80249 12.0656 2.80249C13.2614 2.79949 14.4459 3.03369 15.5506 3.49155C16.6553 3.94941 17.6582 4.62183 18.5013 5.46989C19.3489 6.30731 20.0213 7.30518 20.4791 8.40526C20.9369 9.50535 21.171 10.6856 21.1677 11.8772Z" fill="#F56F18"/>
</svg>
