<svg width="158" height="38" viewBox="0 0 158 38" fill="none" xmlns="http://www.w3.org/2000/svg">
<path d="M24.915 19.9083C24.8656 16.8521 26.1844 14.4732 28.8714 12.7714C27.3551 10.5681 25.1203 9.33028 22.1668 9.05191C21.1165 8.9532 19.7721 9.20195 18.1374 9.8041C16.3783 10.4556 15.3892 10.7794 15.1701 10.7794C14.7061 10.7794 13.8138 10.505 12.493 9.95217C11.1742 9.40135 10.0509 9.12496 9.12298 9.12496C7.55938 9.15062 6.10634 9.58298 4.76188 10.4201C3.41939 11.2591 2.34343 12.4062 1.53794 13.8572C0.511329 15.6637 0 17.8176 0 20.3209C0 22.5735 0.377081 24.8281 1.13519 27.0827C1.84394 29.2366 2.74815 31.1279 3.84583 32.7527C4.82111 34.2314 5.6799 35.3074 6.41037 35.9846C7.46264 37.0349 8.53466 37.5383 9.63629 37.487C10.345 37.4613 11.271 37.1987 12.42 36.6973C13.494 36.2234 14.5699 35.9865 15.6439 35.9865C16.6449 35.9865 17.6813 36.2234 18.7593 36.6973C19.9557 37.1987 20.9329 37.4494 21.691 37.4494C22.8144 37.4001 23.8647 36.9124 24.8439 35.9865C25.1835 35.6845 25.5566 35.2719 25.9593 34.7467C26.4233 34.1347 26.8695 33.5089 27.2979 32.8692C27.6532 32.3184 27.9908 31.7537 28.3047 31.1792C28.6443 30.5593 28.9424 29.9197 29.203 29.2642C29.3235 28.9878 29.434 28.7075 29.5327 28.4192C29.6295 28.131 29.7282 27.8388 29.8249 27.5368C28.9207 27.138 28.1034 26.5714 27.3709 25.8448C25.7599 24.2457 24.9426 22.2655 24.9169 19.9122L24.915 19.9083ZM51.4843 26.6049H51.3067L43.8657 9.60075H38.022V37.0368H43.1155V19.2686H43.3524L49.5713 33.3786H53.1427L59.3418 19.2686H59.5787V37.0368H64.7296V9.59878H58.9253L51.4843 26.6029V26.6049ZM20.2972 6.0096C21.5923 4.38085 22.2399 2.62969 22.2399 0.750213V0.375106C22.2399 0.248755 22.228 0.124377 22.2024 0C21.2981 0.0493561 20.3406 0.337596 19.3259 0.862745C18.3131 1.38987 17.476 2.05321 16.8166 2.85476C15.4978 4.43415 14.8384 6.12213 14.8384 7.92659V8.28196C14.8384 8.39646 14.8503 8.51492 14.8759 8.63929C16.9035 8.83869 18.7119 7.96213 20.2992 6.0096H20.2972ZM124.249 9.59878H129.972V37.0349H124.249V9.59878ZM147.261 13.9599C150.657 13.9599 152.451 16.5738 152.451 19.3871H157.94V18.8047C157.94 13.4979 153.892 9.07758 147.221 9.07758C140.075 9.07758 135.812 13.7802 135.812 21.8016V24.8972C135.812 32.9146 140.035 37.56 147.202 37.56C154.368 37.56 157.942 33.0765 157.942 28.0915V27.4894H152.453C152.453 30.3244 150.696 32.6757 147.302 32.6757C143.909 32.6757 141.617 30.204 141.617 24.9169V21.8233C141.617 16.554 143.847 13.9619 147.263 13.9619L147.261 13.9599ZM86.6219 26.9247C86.6219 30.6047 84.47 32.6323 81.3132 32.6323C78.1564 32.6323 75.9847 30.6225 75.9847 26.9247V9.59878H70.2989V27.7283C70.2989 33.5779 74.4428 37.558 81.3132 37.558C88.1836 37.558 92.3275 33.5779 92.3275 27.7283V9.59878H86.6239V26.9247H86.6219ZM111.262 21.0573L107.178 20.1333C104.769 19.6299 103.506 18.5638 103.506 16.9765C103.506 14.8661 105.223 13.5394 107.987 13.5394C111.107 13.5394 112.664 15.328 112.802 17.2588H118.133C118.074 12.414 114.028 9.03809 108.007 9.03809C102.303 9.03809 97.8021 12.033 97.8021 17.4207C97.8021 22.0839 100.961 24.2536 104.751 25.0788L108.797 26.0225C111.521 26.6464 112.903 27.5506 112.903 29.4182C112.903 31.5504 111.205 32.9975 108.029 32.9975C104.613 32.9975 102.817 31.1871 102.661 29.1576H97.1723C97.2533 33.037 99.8178 37.56 107.754 37.56C114.425 37.56 118.551 34.2433 118.551 28.8556C118.551 23.8706 115.213 21.922 111.266 21.0573H111.262Z" fill="white"/>
</svg>
