<svg width="70" height="70" viewBox="0 0 70 70" fill="none" xmlns="http://www.w3.org/2000/svg">
<g clip-path="url(#clip0_659_1635)">
<path d="M35.3666 16.8569C35.3666 17.1514 35.1965 17.4192 34.9301 17.5444C34.6637 17.6696 34.349 17.6294 34.1228 17.442L29.9709 14.0011H27.7598C27.3407 14.0011 27.0007 13.6617 27 13.2426V10.2168C27 9.79704 27.3401 9.45697 27.7598 9.45697H29.9716L34.1234 6.01608C34.3497 5.82797 34.665 5.7878 34.9308 5.91365C35.1972 6.03884 35.3673 6.30661 35.3673 6.60116V16.8576L35.3666 16.8569ZM38.2853 15.67C38.0657 15.686 37.8495 15.6057 37.6935 15.4497L37.5918 15.348C37.3253 15.0822 37.2939 14.6611 37.5181 14.3586C38.0845 13.5988 38.3891 12.6763 38.3871 11.729C38.3871 10.7035 38.0463 9.74148 37.401 8.94686C37.1553 8.64494 37.1781 8.20646 37.4532 7.93133L37.5543 7.82957C37.7063 7.67761 37.9091 7.59527 38.1293 7.60799C38.3436 7.6187 38.5437 7.71978 38.6796 7.8858C39.574 8.98033 40.0466 10.3098 40.0466 11.729C40.0466 13.0512 39.6289 14.309 38.8376 15.3674C38.7057 15.5441 38.5035 15.6546 38.2833 15.67H38.2853ZM41.4256 18.017C41.1545 18.3377 40.6745 18.3778 40.3539 18.106C40.3378 18.0927 40.3224 18.0786 40.3077 18.0639L40.2079 17.9641C39.9294 17.6856 39.91 17.2398 40.1637 16.9386C41.3895 15.4792 42.0623 13.6349 42.0636 11.729C42.0643 9.75219 41.3406 7.84363 40.0299 6.36351C39.7641 6.06294 39.7775 5.60839 40.0607 5.32388L40.1604 5.22414C40.307 5.07351 40.5105 4.99251 40.72 5.00055C40.9296 5.00657 41.1271 5.09895 41.2656 5.25493C42.8502 7.0383 43.7251 9.34182 43.7238 11.7284C43.7238 14.0299 42.9091 16.2571 41.4256 18.0163V18.017Z" fill="#F56F18"/>
<path fill-rule="evenodd" clip-rule="evenodd" d="M48.7422 44.3151C57.7722 43.7649 56.6128 24.4865 48.5782 25.4237C39.2323 26.5249 40.8362 44.8072 48.7422 44.3151ZM48.5782 41.4105C52.9115 41.1179 52.2675 28.1168 48.8708 28.5152C44.1037 29.0775 45.2163 41.6448 48.5782 41.4105Z" fill="#F56F18"/>
<path fill-rule="evenodd" clip-rule="evenodd" d="M27.18 55.8285L27.2148 60.0212L34.1481 54.1181L27.1914 48.766L27.2148 52.1272C22.7289 51.8816 18.5711 51.4946 14.1789 50.605C7.9599 49.3283 -0.238651 45.8734 9.68169 42.5825C12.4692 41.6573 12.9612 41.6339 13.8395 41.6218C13.9446 41.3172 14.6127 39.9121 14.5893 39.8418C11.8955 39.8418 -7.72225 44.1402 3.36893 50.7107C9.01426 54.0606 19.8129 55.5594 27.18 55.8292V55.8285Z" fill="#F56F18"/>
<path fill-rule="evenodd" clip-rule="evenodd" d="M32.8609 32.3224C34.2078 29.3943 35.7656 28.4805 39.8411 28.504L39.9462 25.5993C27.3207 25.0022 26.3132 40.0638 32.1339 43.437C41.9484 49.1406 46.9029 28.4103 32.8602 32.3224H32.8609ZM34.5358 34.5476C30.7408 35.1802 32.2169 42.7227 36.7262 40.7198C39.9355 39.4077 39.3618 33.7396 34.5358 34.5476Z" fill="#F56F18"/>
<path fill-rule="evenodd" clip-rule="evenodd" d="M55.841 41.0015C58.3594 42.1609 65.1756 43.7067 65.4681 45.9439C65.6087 46.9862 64.3087 48.1812 60.4434 49.5629C53.4163 52.0578 41.0713 52.6081 36.0352 52.3618L36.0465 56.2036C43.0033 55.8408 66.1001 54.9739 69.6253 48.3331C72.1672 43.5547 61.0753 40.8375 58.089 40.1346C56.9998 39.8768 56.5546 39.7831 56.3558 39.83C56.2387 40.0991 56.1684 40.2865 55.8404 41.0015H55.841Z" fill="#F56F18"/>
<path fill-rule="evenodd" clip-rule="evenodd" d="M16.1349 27.0993L17.0132 29.7931C18.3949 29.032 21.9556 27.3102 22.9396 29.5943C24.2979 32.7212 20.4333 32.7915 18.1726 32.9087L18.0207 35.6259C20.5739 35.8602 24.79 35.8013 23.5602 39.5146C22.5648 42.4896 18.7463 40.9084 16.3805 40.1821L15.3496 43.0164C25.9608 47.2794 30.997 38.1323 24.5905 34.3379C25.3637 33.1082 26.1482 32.9796 26.4763 30.9178C26.7688 29.032 26.242 27.8022 25.1528 26.8536C22.8687 24.8507 18.4538 25.249 16.1342 27.0993H16.1349Z" fill="#F56F18"/>
<path d="M59.0727 23.6445C60.1036 23.6445 61.0402 24.0663 61.7197 24.7457C62.3991 25.4366 62.8209 26.3738 62.8209 27.4047C62.8209 28.4357 62.3991 29.3722 61.7197 30.0517C61.0402 30.7312 60.1036 31.1529 59.0727 31.1529C58.0418 31.1529 57.0932 30.7312 56.4137 30.0517C55.7342 29.3722 55.3125 28.4357 55.3125 27.4047C55.3125 26.3738 55.7342 25.4252 56.4137 24.7457C57.0932 24.0663 58.0297 23.6445 59.0727 23.6445ZM60.0682 26.3966C59.8104 26.1388 59.459 25.9869 59.0727 25.9869C58.6864 25.9869 58.3229 26.1509 58.0773 26.3966H58.0659C57.8202 26.6543 57.6562 27.0058 57.6562 27.4041C57.6562 27.8024 57.8202 28.1418 58.0779 28.3995C58.3236 28.6573 58.6751 28.8092 59.0734 28.8092C59.4717 28.8092 59.8111 28.6573 60.0688 28.3995C60.3266 28.1418 60.4785 27.7903 60.4785 27.4041C60.4785 27.0178 60.3266 26.6543 60.0688 26.3966H60.0682Z" fill="#F56F18"/>
</g>
<defs>
<clipPath id="clip0_659_1635">
<rect width="70" height="70" fill="white"/>
</clipPath>
</defs>
</svg>
