<svg width="70" height="70" viewBox="0 0 70 70" fill="none" xmlns="http://www.w3.org/2000/svg">
<path d="M57.0754 2.1875H12.9247C8.55504 2.1875 5 5.80992 5 10.2625V59.7375C5 64.1901 8.55504 67.8125 12.9247 67.8125H57.0752C61.445 67.8125 65 64.1901 65 59.7375V10.2625C65.0002 5.80992 61.4451 2.1875 57.0754 2.1875ZM35.0001 55.877C23.5166 55.877 14.1742 46.3575 14.1742 34.6566C14.1742 22.9556 23.5166 13.436 35.0001 13.436C46.4836 13.436 55.826 22.9554 55.826 34.6566C55.826 46.3577 46.4836 55.877 35.0001 55.877Z" fill="#F56F18"/>
<path d="M34.9999 25.707C30.1553 25.707 26.2139 29.7232 26.2139 34.6596C26.2139 39.5959 30.1553 43.6121 34.9999 43.6121C39.8446 43.6121 43.786 39.5959 43.786 34.6596C43.786 29.7232 39.8446 25.707 34.9999 25.707Z" fill="#F56F18"/>
</svg>
