<svg width="945" height="244" viewBox="0 0 945 244" fill="none" xmlns="http://www.w3.org/2000/svg">
<g opacity="0.1">
<path d="M0 31.495V215.237C0 217.136 1.6177 217.156 1.6177 215.261V31.5144C1.6177 29.6174 0 29.6004 0 31.495Z" fill="white"/>
<path d="M2.83101 61.9545V184.663C2.83101 186.558 4.44871 186.575 4.44871 184.68V61.9789C4.44871 60.0818 2.83101 60.0648 2.83101 61.9545Z" fill="white"/>
<path d="M5.6651 71.8895V174.611C5.6651 176.511 7.2828 176.53 7.2828 174.635V71.909C7.2828 70.012 5.6651 69.9974 5.6651 71.8895Z" fill="white"/>
<path d="M8.49611 81.8733V164.511C8.49611 166.41 10.1138 166.43 10.1138 164.535V81.8952C10.1138 79.9982 8.49611 79.9812 8.49611 81.8758V81.8733Z" fill="white"/>
<path d="M11.3302 89.0552V157.219C11.3302 159.114 12.9479 159.131 12.9479 157.236V89.0746C12.9479 87.1776 11.3302 87.1606 11.3302 89.0552Z" fill="white"/>
<path d="M14.1612 60.1476V186.011C14.1612 187.905 15.7789 187.922 15.7789 186.028V60.167C15.7789 58.27 14.1612 58.2554 14.1612 60.1476Z" fill="white"/>
<path d="M16.9953 90.5121V155.527C16.9953 157.426 18.613 157.446 18.613 155.551V90.5315C18.613 88.6345 16.9953 88.6175 16.9953 90.5121Z" fill="white"/>
<path d="M19.8263 182.623C19.8263 184.517 21.444 184.534 21.444 182.64V63.3262C21.444 61.4292 19.8263 61.4146 19.8263 63.3043V182.623Z" fill="white"/>
<path d="M22.6589 158.472C22.6589 160.367 24.2766 160.384 24.2766 158.489V87.3602C24.2766 85.4632 22.6589 85.4461 22.6589 87.3359V158.472Z" fill="white"/>
<path d="M25.4914 93.0123V152.684C25.4914 154.578 27.1091 154.595 27.1091 152.701V93.0342C27.1091 91.1371 25.4914 91.1177 25.4914 93.0123Z" fill="white"/>
<path d="M28.324 85.2393V160.337C28.324 162.237 29.9417 162.256 29.9417 160.362V85.2612C29.9417 83.3642 28.324 83.3496 28.324 85.2418V85.2393Z" fill="white"/>
<path d="M31.158 90.2957V155.164C31.158 157.064 32.7726 157.081 32.7726 155.189V90.3152C32.7726 88.4182 31.158 88.4035 31.158 90.2957Z" fill="white"/>
<path d="M33.9891 99.1702V146.175C33.9891 148.075 35.6068 148.094 35.6068 146.2V99.1921C35.6068 97.2951 33.9891 97.2805 33.9891 99.1702Z" fill="white"/>
<path d="M36.8231 96.3077V148.924C36.8231 150.823 38.4393 150.835 38.4393 148.943V96.332C38.4393 94.4326 36.8231 94.418 36.8231 96.3077Z" fill="white"/>
<path d="M39.6542 106.598V138.521C39.6542 140.416 41.2719 140.433 41.2719 138.538V106.617C41.2719 104.72 39.6542 104.703 39.6542 106.598Z" fill="white"/>
<path d="M42.4852 98.2339V146.769C42.4852 148.663 44.1029 148.68 44.1029 146.788V98.2558C44.1029 96.3587 42.4852 96.3417 42.4852 98.2363V98.2339Z" fill="white"/>
<path d="M45.3193 93.8562V151.035C45.3193 152.929 46.937 152.946 46.937 151.052V93.8805C46.937 91.981 45.3193 91.9664 45.3193 93.8562Z" fill="white"/>
<path d="M48.1518 91.5993V153.17C48.1518 155.07 49.7695 155.089 49.7695 153.194V91.6212C49.7695 89.7242 48.1518 89.7096 48.1518 91.6018V91.5993Z" fill="white"/>
<path d="M50.9844 98.5429V146.11C50.9844 148.009 52.6021 148.029 52.6021 146.134V98.5648C52.6021 96.6677 50.9844 96.6507 50.9844 98.5453V98.5429Z" fill="white"/>
<path d="M53.8169 88.007V156.531C53.8169 158.431 55.4346 158.45 55.4346 156.555V88.0289C55.4346 86.1319 53.8169 86.1148 53.8169 88.0094V88.007Z" fill="white"/>
<path d="M56.6495 83.7582V160.663C56.6495 162.563 58.2672 162.58 58.2672 160.688V83.7801C58.2672 81.8831 56.6495 81.8685 56.6495 83.7607V83.7582Z" fill="white"/>
<path d="M59.482 81.7639V162.548C59.482 164.448 61.0997 164.467 61.0997 162.572V81.7882C61.0997 79.8912 59.482 79.8741 59.482 81.7663V81.7639Z" fill="white"/>
<path d="M62.313 64.4766V179.719C62.313 181.613 63.9307 181.63 63.9307 179.736V64.5009C63.9307 62.6015 62.313 62.5869 62.313 64.4766Z" fill="white"/>
<path d="M65.1471 94.6903V149.388C65.1471 151.283 66.7648 151.3 66.7648 149.405V94.7098C66.7648 92.8128 65.1471 92.7982 65.1471 94.6903Z" fill="white"/>
<path d="M67.9781 42.9137V201.053C67.9781 202.947 69.5958 202.964 69.5958 201.07V42.9331C69.5958 41.0361 67.9781 41.0191 67.9781 42.9137Z" fill="white"/>
<path d="M70.8122 1.41004V242.437C70.8122 244.332 72.4299 244.349 72.4299 242.454V1.43193C72.4299 -0.465099 70.8122 -0.482124 70.8122 1.41004Z" fill="white"/>
<path d="M73.6432 58.5544V185.174C73.6432 187.073 75.2609 187.085 75.2609 185.198V58.5763C75.2609 56.6792 73.6432 56.6646 73.6432 58.5544Z" fill="white"/>
<path d="M76.4773 33.5696V210.042C76.4773 211.941 78.095 211.961 78.095 210.066V33.5939C78.095 31.6945 76.4773 31.6799 76.4773 33.5696Z" fill="white"/>
<path d="M79.3083 50.1978V193.304C79.3083 195.204 80.926 195.216 80.926 193.329V50.2197C80.926 48.3227 79.3083 48.3057 79.3083 50.1978Z" fill="white"/>
<path d="M82.1409 71.88V171.506C82.1409 173.4 83.7586 173.417 83.7586 171.523V71.9043C83.7586 70.0048 82.1409 69.9902 82.1409 71.88Z" fill="white"/>
<path d="M84.9734 79.7524V163.514C84.9734 165.413 86.5911 165.432 86.5911 163.538V79.7743C86.5911 77.8773 84.9734 77.8627 84.9734 79.7549V79.7524Z" fill="white"/>
<path d="M87.806 68.1758V174.981C87.806 176.88 89.4237 176.893 89.4237 175.005V68.1977C89.4237 66.3007 87.806 66.2837 87.806 68.1758Z" fill="white"/>
<path d="M90.6385 144.453C90.6385 146.348 92.2562 146.365 92.2562 144.47V98.606C92.2562 96.709 90.6385 96.6919 90.6385 98.5817V144.453Z" fill="white"/>
<path d="M93.4711 71.1162V171.807C93.4711 173.702 95.0888 173.719 95.0888 171.824V71.1356C95.0888 69.2386 93.4711 69.2216 93.4711 71.1162Z" fill="white"/>
<path d="M96.3021 99.5376V143.271C96.3021 145.166 97.9198 145.183 97.9198 143.288V99.5571C97.9198 97.6601 96.3021 97.6455 96.3021 99.5376Z" fill="white"/>
<path d="M99.1362 89.9429V152.749C99.1362 154.649 100.754 154.668 100.754 152.773V89.9648C100.754 88.0678 99.1362 88.0508 99.1362 89.9454V89.9429Z" fill="white"/>
<path d="M101.967 95.7047V146.871C101.967 148.77 103.585 148.783 103.585 146.895V95.729C103.585 93.8295 101.967 93.815 101.967 95.7047Z" fill="white"/>
<path d="M104.801 98.4821V143.979C104.801 145.879 106.419 145.898 106.419 144.003V98.5064C106.419 96.6094 104.801 96.59 104.801 98.4821Z" fill="white"/>
<path d="M107.634 110.207V132.137C107.634 134.037 109.25 134.049 109.25 132.162V110.227C109.25 108.33 107.634 108.315 107.634 110.207Z" fill="white"/>
<path d="M110.466 87.0366V155.191C110.466 157.09 112.084 157.11 112.084 155.215V87.0633C112.084 85.1663 110.466 85.1493 110.466 87.039V87.0366Z" fill="white"/>
<path d="M113.297 104.19V137.923C113.297 139.823 114.915 139.842 114.915 137.947V104.212C114.915 102.315 113.297 102.298 113.297 104.193V104.19Z" fill="white"/>
<path d="M116.131 99.4257V142.578C116.131 144.473 117.749 144.49 117.749 142.595V99.4452C117.749 97.5482 116.131 97.5311 116.131 99.4257Z" fill="white"/>
<path d="M118.962 135.416C118.962 137.315 120.58 137.335 120.58 135.44V106.486C120.58 104.589 118.962 104.572 118.962 106.464V135.416Z" fill="white"/>
<path d="M121.795 108.682V133.083C121.795 134.983 123.413 135 123.413 133.108V108.704C123.413 106.807 121.795 106.792 121.795 108.685V108.682Z" fill="white"/>
<path d="M124.629 100.131V141.52C124.629 143.42 126.245 143.439 126.245 141.544V100.153C126.245 98.2558 124.629 98.2363 124.629 100.131Z" fill="white"/>
<path d="M127.46 107.984V133.553C127.46 135.452 129.078 135.472 129.078 133.577V108.006C129.078 106.109 127.46 106.09 127.46 107.984Z" fill="white"/>
<path d="M130.294 85.3999V156.02C130.294 157.92 131.91 157.939 131.91 156.045V85.4218C131.91 83.5247 130.294 83.5077 130.294 85.4023V85.3999Z" fill="white"/>
<path d="M133.125 89.8553V151.448C133.125 153.347 134.743 153.367 134.743 151.472V89.8772C134.743 87.9802 133.125 87.9656 133.125 89.8577V89.8553Z" fill="white"/>
<path d="M135.959 82.6783V158.516C135.959 160.41 137.577 160.427 137.577 158.533V82.6978C137.577 80.8007 135.959 80.7837 135.959 82.6783Z" fill="white"/>
<path d="M138.79 94.5056V146.567C138.79 148.466 140.408 148.486 140.408 146.591V94.5275C140.408 92.6304 138.79 92.6158 138.79 94.5056Z" fill="white"/>
<path d="M141.624 91.716V149.247C141.624 151.142 143.242 151.159 143.242 149.264V91.7403C143.242 89.8433 141.624 89.8263 141.624 91.716Z" fill="white"/>
<path d="M144.455 68.1126V172.736C144.455 174.631 146.073 174.648 146.073 172.753V68.1345C146.073 66.2375 144.455 66.2229 144.455 68.115V68.1126Z" fill="white"/>
<path d="M147.288 76.9142V163.815C147.288 165.71 148.906 165.727 148.906 163.832V76.9337C148.906 75.0366 147.288 75.0196 147.288 76.9142Z" fill="white"/>
<path d="M150.121 54.989V185.619C150.121 187.518 151.738 187.538 151.738 185.643V55.0109C151.738 53.1139 150.121 53.0969 150.121 54.9915V54.989Z" fill="white"/>
<path d="M152.953 70.068V170.43C152.953 172.33 154.571 172.342 154.571 170.455V70.0899C154.571 68.1928 152.953 68.1758 152.953 70.0704V70.068Z" fill="white"/>
<path d="M155.786 73.3974V166.987C155.786 168.881 157.403 168.898 157.403 167.004V73.4169C157.403 71.5199 155.786 71.5028 155.786 73.3974Z" fill="white"/>
<path d="M158.618 64.6613V175.608C158.618 177.503 160.236 177.52 160.236 175.625V64.6832C160.236 62.7838 158.618 62.7667 158.618 64.6613Z" fill="white"/>
<path d="M161.449 53.0019V187.153C161.449 189.048 163.067 189.065 163.067 187.17V53.0214C163.067 51.1243 161.449 51.1097 161.449 53.0019Z" fill="white"/>
<path d="M164.283 157.249C164.283 159.148 165.901 159.16 165.901 157.273V82.8097C165.901 80.9103 164.283 80.8957 164.283 82.7854V157.249Z" fill="white"/>
<path d="M167.114 64.9775V174.944C167.114 176.844 168.732 176.856 168.732 174.969V64.9994C168.732 63.1024 167.114 63.0878 167.114 64.9799V64.9775Z" fill="white"/>
<path d="M169.948 56.042V183.763C169.948 185.663 171.566 185.682 171.566 183.787V56.0615C171.566 54.1644 169.948 54.1498 169.948 56.042Z" fill="white"/>
<path d="M172.779 90.0793V149.614C172.779 151.509 174.397 151.526 174.397 149.631V90.1011C174.397 88.2041 172.779 88.1871 172.779 90.0817V90.0793Z" fill="white"/>
<path d="M175.613 88.8193V150.752C175.613 152.652 177.231 152.671 177.231 150.777V88.8412C177.231 86.9441 175.613 86.9271 175.613 88.8217V88.8193Z" fill="white"/>
<path d="M178.444 82.7804V156.677C178.444 158.576 180.062 158.589 180.062 156.701V82.7999C180.062 80.9029 178.444 80.8858 178.444 82.7804Z" fill="white"/>
<path d="M181.277 100.255V139.086C181.277 140.985 182.895 141.005 182.895 139.11V100.279C182.895 98.3822 181.277 98.3652 181.277 100.255Z" fill="white"/>
<path d="M184.11 150.694C184.11 152.589 185.727 152.606 185.727 150.711V88.5542C185.727 86.6596 184.11 86.6425 184.11 88.5323V150.694Z" fill="white"/>
<path d="M186.942 106.863V132.254C186.942 134.148 188.56 134.165 188.56 132.271V106.885C188.56 104.988 186.942 104.973 186.942 106.863Z" fill="white"/>
<path d="M189.775 135.885C189.775 137.78 191.392 137.797 191.392 135.902V103.135C191.392 101.238 189.775 101.218 189.775 103.11V135.885Z" fill="white"/>
<path d="M192.607 98.431V140.453C192.607 142.352 194.225 142.364 194.225 140.477V98.4529C194.225 96.5559 192.607 96.5364 192.607 98.431Z" fill="white"/>
<path d="M195.441 97.8691V140.895C195.441 142.79 197.057 142.807 197.057 140.92V97.8886C197.057 95.9916 195.441 95.977 195.441 97.8691Z" fill="white"/>
<path d="M198.272 102.434V136.218C198.272 138.113 199.89 138.13 199.89 136.235V102.456C199.89 100.559 198.272 100.54 198.272 102.434Z" fill="white"/>
<path d="M201.106 104.538V133.998C201.106 135.897 202.724 135.909 202.724 134.022V104.56C202.724 102.663 201.106 102.643 201.106 104.538Z" fill="white"/>
<path d="M203.937 91.8571V146.562C203.937 148.462 205.555 148.474 205.555 146.586V91.879C205.555 89.982 203.937 89.9674 203.937 91.8571Z" fill="white"/>
<path d="M206.77 81.8465V156.461C206.77 158.355 208.388 158.372 208.388 156.485V81.8684C208.388 79.9714 206.77 79.9543 206.77 81.8489V81.8465Z" fill="white"/>
<path d="M209.603 78.5219V159.666C209.603 161.566 211.22 161.585 211.22 159.69V78.5438C211.22 76.6468 209.603 76.6298 209.603 78.5219Z" fill="white"/>
<path d="M212.435 162.071C212.435 163.966 214.053 163.983 214.053 162.088V76.0241C214.053 74.1271 212.435 74.1125 212.435 76.0022V162.071Z" fill="white"/>
<path d="M215.268 89.0528V148.909C215.268 150.808 216.885 150.821 216.885 148.926V89.0747C216.885 87.1777 215.268 87.1631 215.268 89.0528Z" fill="white"/>
<path d="M218.1 62.6502V175.193C218.1 177.087 219.718 177.104 219.718 175.21V62.6696C219.718 60.7726 218.1 60.7556 218.1 62.6502Z" fill="white"/>
<path d="M220.931 188.007C220.931 189.907 222.549 189.926 222.549 188.032V49.7407C222.549 47.8437 220.931 47.8266 220.931 49.7188V188.007Z" fill="white"/>
<path d="M223.765 82.5056V155.106C223.765 157.005 225.383 157.025 225.383 155.13V82.5275C225.383 80.6304 223.765 80.6134 223.765 82.508V82.5056Z" fill="white"/>
<path d="M226.596 40.36V197.132C226.596 199.032 228.214 199.051 228.214 197.157V40.3795C228.214 38.4825 226.596 38.4679 226.596 40.36Z" fill="white"/>
<path d="M229.43 14.2029V223.175C229.43 225.07 231.048 225.087 231.048 223.192V14.2297C231.048 12.3302 229.43 12.3132 229.43 14.2029Z" fill="white"/>
<path d="M232.261 9.9637V227.295C232.261 229.194 233.879 229.214 233.879 227.319V9.98559C233.879 8.08856 232.261 8.07397 232.261 9.9637Z" fill="white"/>
<path d="M235.095 6.38628V230.763C235.095 232.658 236.713 232.675 236.713 230.78V6.40817C236.713 4.51114 235.095 4.49655 235.095 6.38871V6.38628Z" fill="white"/>
<path d="M237.926 38.5238V198.509C237.926 200.403 239.544 200.421 239.544 198.526V38.5456C239.544 36.6486 237.926 36.6316 237.926 38.5262V38.5238Z" fill="white"/>
<path d="M240.761 8.37572V228.543C240.761 230.437 242.378 230.454 242.378 228.56V8.39761C242.378 6.50058 240.761 6.48599 240.761 8.37572Z" fill="white"/>
<path d="M243.591 57.9853V178.816C243.591 180.716 245.209 180.735 245.209 178.841V58.0072C245.209 56.1102 243.591 56.0956 243.591 57.9853Z" fill="white"/>
<path d="M246.422 176.863C246.422 178.763 248.04 178.782 248.04 176.888V59.8433C248.04 57.9463 246.422 57.9293 246.422 59.8215V176.863Z" fill="white"/>
<path d="M249.258 71.2572V165.313C249.258 167.213 250.876 167.232 250.876 165.338V71.2791C250.876 69.382 249.258 69.365 249.258 71.2596V71.2572Z" fill="white"/>
<path d="M252.089 158.732C252.089 160.632 253.707 160.644 253.707 158.756V77.7387C253.707 75.8417 252.089 75.8271 252.089 77.7168V158.732Z" fill="white"/>
<path d="M254.921 69.4308V166.909C254.921 168.808 256.539 168.828 256.539 166.933V69.4503C256.539 67.5532 254.921 67.5362 254.921 69.4308Z" fill="white"/>
<path d="M257.756 101.863V134.365C257.756 136.26 259.369 136.277 259.369 134.382V101.882C259.369 99.985 257.756 99.968 257.756 101.863Z" fill="white"/>
<path d="M260.588 141.335C260.588 143.235 262.206 143.254 262.206 141.36V94.7925C262.206 92.8955 260.588 92.8784 260.588 94.7706V141.335Z" fill="white"/>
<path d="M263.419 97.9907V137.999C263.419 139.898 265.037 139.915 265.037 138.023V98.015C265.037 96.118 263.419 96.0985 263.419 97.9907Z" fill="white"/>
<path d="M266.25 102.877V132.998C266.25 134.898 267.868 134.917 267.868 133.023V102.899C267.868 101.002 266.25 100.987 266.25 102.877Z" fill="white"/>
<path d="M269.083 102.911V132.857C269.083 134.752 270.7 134.769 270.7 132.874V102.93C270.7 101.033 269.083 101.019 269.083 102.911Z" fill="white"/>
<path d="M271.917 99.6858V135.963C271.917 137.862 273.534 137.879 273.534 135.987V99.7077C273.534 97.8107 271.917 97.7937 271.917 99.6858Z" fill="white"/>
<path d="M274.749 98.4382V137.096C274.749 138.991 276.367 139.008 276.367 137.116V98.4601C276.367 96.5631 274.749 96.546 274.749 98.4382Z" fill="white"/>
<path d="M277.58 98.9417V136.481C277.58 138.376 279.198 138.393 279.198 136.498V98.9636C279.198 97.0666 277.58 97.052 277.58 98.9417Z" fill="white"/>
<path d="M280.416 94.131V141.17C280.416 143.069 282.029 143.089 282.029 141.194V94.1529C282.029 92.2558 280.416 92.2388 280.416 94.131Z" fill="white"/>
<path d="M283.247 98.6327V136.551C283.247 138.451 284.865 138.47 284.865 136.576V98.657C284.865 96.76 283.247 96.7405 283.247 98.6327Z" fill="white"/>
<path d="M286.078 95.921V139.149C286.078 141.044 287.696 141.061 287.696 139.173V95.9405C287.696 94.041 286.078 94.024 286.078 95.921Z" fill="white"/>
<path d="M288.911 85.1154V149.845C288.911 151.74 290.528 151.757 290.528 149.862V85.1348C290.528 83.2378 288.911 83.2208 288.911 85.1154Z" fill="white"/>
<path d="M291.745 99.2797V135.559C291.745 137.459 293.362 137.471 293.362 135.583V99.3015C293.362 97.4045 291.745 97.3899 291.745 99.2821V99.2797Z" fill="white"/>
<path d="M294.577 86.0711V148.658C294.577 150.553 296.195 150.57 296.195 148.675V86.093C296.195 84.196 294.577 84.1765 294.577 86.0711Z" fill="white"/>
<path d="M297.408 75.0028V159.605C297.408 161.5 299.026 161.517 299.026 159.622V75.0222C299.026 73.1252 297.408 73.1106 297.408 75.0028Z" fill="white"/>
<path d="M300.239 84.7042V149.784C300.239 151.684 301.857 151.703 301.857 149.809V84.7261C301.857 82.8291 300.239 82.812 300.239 84.7066V84.7042Z" fill="white"/>
<path d="M303.075 83.6343V150.743C303.075 152.642 304.693 152.659 304.693 150.767V83.6561C304.693 81.7591 303.075 81.7445 303.075 83.6367V83.6343Z" fill="white"/>
<path d="M305.906 70.3889V163.876C305.906 165.77 307.524 165.788 307.524 163.895V70.4132C307.524 68.5162 305.906 68.5016 305.906 70.3913V70.3889Z" fill="white"/>
<path d="M308.738 41.5494V192.597C308.738 194.496 310.356 194.508 310.356 192.621V41.5713C310.356 39.6742 308.738 39.6572 308.738 41.5518V41.5494Z" fill="white"/>
<path d="M311.569 46.1898V187.839C311.569 189.739 313.187 189.751 313.187 187.864V46.2117C313.187 44.3147 311.569 44.2977 311.569 46.1923V46.1898Z" fill="white"/>
<path d="M314.405 30.9307V202.981C314.405 204.881 316.023 204.898 316.023 203.006V30.955C316.023 29.058 314.405 29.041 314.405 30.9307Z" fill="white"/>
<path d="M317.236 79.3974V154.405C317.236 156.3 318.854 156.317 318.854 154.422V79.4169C318.854 77.5198 317.236 77.5052 317.236 79.3974Z" fill="white"/>
<path d="M320.069 52.8489V180.833C320.069 182.732 321.686 182.752 321.686 180.857V52.8708C321.686 50.9737 320.069 50.9591 320.069 52.8513V52.8489Z" fill="white"/>
<path d="M322.903 72.792V160.778C322.903 162.677 324.516 162.697 324.516 160.802V72.8139C324.516 70.9169 322.903 70.9023 322.903 72.7944V72.792Z" fill="white"/>
<path d="M325.735 148.858C325.735 150.752 327.353 150.769 327.353 148.875V84.6166C327.353 82.7171 325.735 82.7001 325.735 84.5947V148.858Z" fill="white"/>
<path d="M328.566 65.2159V168.122C328.566 170.022 330.184 170.041 330.184 168.147V65.2378C330.184 63.3408 328.566 63.3262 328.566 65.2184V65.2159Z" fill="white"/>
<path d="M331.397 87.951V145.273C331.397 147.172 333.015 147.185 333.015 145.297V87.9705C333.015 86.0735 331.397 86.0589 331.397 87.951Z" fill="white"/>
<path d="M334.233 95.7021V137.405C334.233 139.305 335.846 139.317 335.846 137.429V95.724C335.846 93.827 334.233 93.8099 334.233 95.7021Z" fill="white"/>
<path d="M337.064 154.243C337.064 156.142 338.682 156.161 338.682 154.267V78.7652C338.682 76.8657 337.064 76.8487 337.064 78.7409V154.243Z" fill="white"/>
<path d="M339.896 88.5517V144.322C339.896 146.221 341.514 146.238 341.514 144.346V88.5736C341.514 86.6766 339.896 86.662 339.896 88.5517Z" fill="white"/>
<path d="M342.727 82.6589V150.098C342.727 151.998 344.345 152.017 344.345 150.123V82.6783C344.345 80.7813 342.727 80.7667 342.727 82.6589Z" fill="white"/>
<path d="M345.563 130.534C345.563 132.434 347.178 132.453 347.178 130.554V102.13C347.178 100.233 345.563 100.216 345.563 102.106V130.534Z" fill="white"/>
<path d="M348.394 84.7918V147.744C348.394 149.639 350.012 149.656 350.012 147.761V84.8137C350.012 82.9167 348.394 82.8997 348.394 84.7943V84.7918Z" fill="white"/>
<path d="M351.225 108.685V123.729C351.225 125.626 352.843 125.643 352.843 123.751V108.706C352.843 106.809 351.225 106.792 351.225 108.685Z" fill="white"/>
<path d="M354.058 105.379V126.918C354.058 128.815 355.675 128.83 355.675 126.937V105.399C355.675 103.502 354.058 103.487 354.058 105.379Z" fill="white"/>
<path d="M356.892 104.358V127.825C356.892 129.722 358.505 129.742 358.505 127.847V104.382C358.505 102.485 356.892 102.466 356.892 104.36V104.358Z" fill="white"/>
<path d="M359.724 132.85C359.724 134.744 361.342 134.761 361.342 132.867V99.2383C361.342 97.3389 359.724 97.3218 359.724 99.2164V132.85Z" fill="white"/>
<path d="M362.555 97.6017V134.348C362.555 136.248 364.173 136.267 364.173 134.372V97.626C364.173 95.729 362.555 95.712 362.555 97.6017Z" fill="white"/>
<path d="M365.386 79.9277V151.905C365.386 153.805 367.004 153.824 367.004 151.93V79.952C367.004 78.055 365.386 78.0356 365.386 79.9277Z" fill="white"/>
<path d="M368.222 98.5063V133.212C368.222 135.112 369.84 135.131 369.84 133.237V98.5282C369.84 96.6312 368.222 96.6117 368.222 98.5063Z" fill="white"/>
<path d="M371.053 71.7363V159.865C371.053 161.765 372.671 161.784 372.671 159.89V71.7558C372.671 69.8588 371.053 69.8442 371.053 71.7363Z" fill="white"/>
<path d="M373.885 86.1903V145.302C373.885 147.197 375.503 147.214 375.503 145.326V86.2122C375.503 84.3152 373.885 84.2981 373.885 86.1927V86.1903Z" fill="white"/>
<path d="M376.716 94.491V136.89C376.716 138.784 378.334 138.801 378.334 136.909V94.5129C378.334 92.6158 376.716 92.5988 376.716 94.4934V94.491Z" fill="white"/>
<path d="M379.552 74.02V157.236C379.552 159.136 381.17 159.155 381.17 157.261V74.0419C381.17 72.1448 379.552 72.1303 379.552 74.02Z" fill="white"/>
<path d="M382.383 56.1662V174.979C382.383 176.878 384.001 176.89 384.001 175.003V56.1856C384.001 54.2886 382.383 54.2716 382.383 56.1662Z" fill="white"/>
<path d="M385.214 70.924V160.106C385.214 162.001 386.832 162.018 386.832 160.13V70.9458C386.832 69.0488 385.214 69.0318 385.214 70.9264V70.924Z" fill="white"/>
<path d="M388.047 145.878C388.047 147.773 389.664 147.79 389.664 145.896V85.0568C389.664 83.1598 388.047 83.1428 388.047 85.0325V145.878Z" fill="white"/>
<path d="M390.882 51.0588V179.741C390.882 181.635 392.5 181.652 392.5 179.758V51.0807C392.5 49.1837 390.882 49.1667 390.882 51.0588Z" fill="white"/>
<path d="M393.713 35.8946V194.788C393.713 196.687 395.331 196.707 395.331 194.812V35.9141C395.331 34.0171 393.713 34.0025 393.713 35.8946Z" fill="white"/>
<path d="M396.544 223.919C396.544 225.819 398.162 225.831 398.162 223.944V6.66831C398.162 4.77128 396.544 4.75669 396.544 6.64642V223.919Z" fill="white"/>
<path d="M399.38 75.3407V155.111C399.38 157.005 400.995 157.022 400.995 155.135V75.3626C400.995 73.4655 399.38 73.4485 399.38 75.3431V75.3407Z" fill="white"/>
<path d="M402.211 60.0306V170.306C402.211 172.201 403.829 172.218 403.829 170.331V60.0525C403.829 58.1555 402.211 58.1385 402.211 60.0331V60.0306Z" fill="white"/>
<path d="M405.044 30.0723V200.148C405.044 202.043 406.661 202.06 406.661 200.168V30.0942C406.661 28.1972 405.044 28.1802 405.044 30.0723Z" fill="white"/>
<path d="M407.875 84.8453V145.261C407.875 147.16 409.492 147.172 409.492 145.285V84.8672C409.492 82.9702 407.875 82.9556 407.875 84.8477V84.8453Z" fill="white"/>
<path d="M410.71 91.4899V138.5C410.71 140.399 412.325 140.419 412.325 138.524V91.5118C412.325 89.6148 410.71 89.5977 410.71 91.4899Z" fill="white"/>
<path d="M413.541 91.0519V138.823C413.541 140.718 415.159 140.735 415.159 138.84V91.0714C415.159 89.1744 413.541 89.1598 413.541 91.0519Z" fill="white"/>
<path d="M416.372 93.7565V136.002C416.372 137.896 417.99 137.913 417.99 136.021V93.7784C417.99 91.8813 416.372 91.8667 416.372 93.7565Z" fill="white"/>
<path d="M419.205 84.072V145.57C419.205 147.464 420.822 147.481 420.822 145.594V84.0939C420.822 82.1968 419.205 82.1823 419.205 84.0744V84.072Z" fill="white"/>
<path d="M422.039 84.1837V145.346C422.039 147.245 423.652 147.265 423.652 145.37V84.2056C423.652 82.3085 422.039 82.294 422.039 84.1837Z" fill="white"/>
<path d="M424.871 102.303V127.113C424.871 129.01 426.489 129.029 426.489 127.135V102.325C426.489 100.428 424.871 100.408 424.871 102.303Z" fill="white"/>
<path d="M427.702 97.8715V131.42C427.702 133.319 429.32 133.339 429.32 131.444V97.8958C429.32 95.9988 427.702 95.9793 427.702 97.8715Z" fill="white"/>
<path d="M430.533 138.92C430.533 140.815 432.151 140.832 432.151 138.937V90.2858C432.151 88.3863 430.533 88.3717 430.533 90.2615V138.92Z" fill="white"/>
<path d="M433.369 92.4043V136.663C433.369 138.563 434.982 138.575 434.982 136.688V92.4262C434.982 90.5292 433.369 90.5121 433.369 92.4043Z" fill="white"/>
<path d="M436.2 100.467V128.484C436.2 130.381 437.818 130.396 437.818 128.504V100.491C437.818 98.5938 436.2 98.5768 436.2 100.467Z" fill="white"/>
<path d="M439.033 103.227V125.605C439.033 127.504 440.65 127.519 440.65 125.629V103.251C440.65 101.352 439.033 101.337 439.033 103.227Z" fill="white"/>
<path d="M441.864 91.6697V137.05C441.864 138.945 443.481 138.962 443.481 137.067V91.694C443.481 89.797 441.864 89.78 441.864 91.6697Z" fill="white"/>
<path d="M444.699 85.147V143.454C444.699 145.353 446.312 145.373 446.312 143.478V85.1665C446.312 83.2694 444.699 83.2548 444.699 85.147Z" fill="white"/>
<path d="M447.53 68.7596V159.732C447.53 161.626 449.148 161.643 449.148 159.749V68.7815C449.148 66.8844 447.53 66.865 447.53 68.7596Z" fill="white"/>
<path d="M450.361 93.0805V135.292C450.361 137.191 451.979 137.203 451.979 135.316V93.1048C451.979 91.2053 450.361 91.1907 450.361 93.0805Z" fill="white"/>
<path d="M453.194 132.256C453.194 134.151 454.811 134.168 454.811 132.273V96.0231C454.811 94.1261 453.194 94.109 453.194 95.9988V132.256Z" fill="white"/>
<path d="M456.028 95.6681V132.47C456.028 134.37 457.646 134.389 457.646 132.495V95.69C457.646 93.793 456.028 93.7735 456.028 95.6681Z" fill="white"/>
<path d="M458.86 61.276V166.751C458.86 168.65 460.478 168.67 460.478 166.775V61.2954C460.478 59.3984 458.86 59.3838 458.86 61.276Z" fill="white"/>
<path d="M461.691 79.5653V148.342C461.691 150.242 463.309 150.261 463.309 148.367V79.5896C463.309 77.6901 461.691 77.6755 461.691 79.5653Z" fill="white"/>
<path d="M464.522 71.5758V156.22C464.522 158.114 466.14 158.131 466.14 156.239V71.5977C466.14 69.7007 464.522 69.6861 464.522 71.5758Z" fill="white"/>
<path d="M467.358 42.4468V185.235C467.358 187.129 468.976 187.146 468.976 185.259V42.4662C468.976 40.5692 467.358 40.5546 467.358 42.4468Z" fill="white"/>
<path d="M470.189 9.19286V218.372C470.189 220.271 471.807 220.291 471.807 218.396V9.21718C471.807 7.31772 470.189 7.29827 470.189 9.19286Z" fill="white"/>
<path d="M473.193 31.495V215.237C473.193 217.136 474.811 217.156 474.811 215.261V31.5144C474.811 29.6174 473.193 29.6004 473.193 31.495Z" fill="white"/>
<path d="M476.024 61.9545V184.663C476.024 186.558 477.642 186.575 477.642 184.68V61.9789C477.642 60.0818 476.024 60.0648 476.024 61.9545Z" fill="white"/>
<path d="M478.858 71.8895V174.611C478.858 176.511 480.476 176.53 480.476 174.635V71.909C480.476 70.012 478.858 69.9974 478.858 71.8895Z" fill="white"/>
<path d="M481.689 81.8733V164.511C481.689 166.41 483.307 166.43 483.307 164.535V81.8952C483.307 79.9982 481.689 79.9812 481.689 81.8758V81.8733Z" fill="white"/>
<path d="M484.523 89.0552V157.219C484.523 159.114 486.141 159.131 486.141 157.236V89.0746C486.141 87.1776 484.523 87.1606 484.523 89.0552Z" fill="white"/>
<path d="M487.354 60.1476V186.011C487.354 187.905 488.972 187.922 488.972 186.028V60.167C488.972 58.27 487.354 58.2554 487.354 60.1476Z" fill="white"/>
<path d="M490.188 90.5121V155.527C490.188 157.426 491.806 157.446 491.806 155.551V90.5315C491.806 88.6345 490.188 88.6175 490.188 90.5121Z" fill="white"/>
<path d="M493.019 182.623C493.019 184.517 494.637 184.534 494.637 182.64V63.3262C494.637 61.4292 493.019 61.4146 493.019 63.3043V182.623Z" fill="white"/>
<path d="M495.852 158.472C495.852 160.367 497.47 160.384 497.47 158.489V87.3602C497.47 85.4632 495.852 85.4461 495.852 87.3359V158.472Z" fill="white"/>
<path d="M498.685 93.0123V152.684C498.685 154.578 500.302 154.595 500.302 152.701V93.0342C500.302 91.1371 498.685 91.1177 498.685 93.0123Z" fill="white"/>
<path d="M501.517 85.2393V160.337C501.517 162.237 503.135 162.256 503.135 160.362V85.2612C503.135 83.3642 501.517 83.3496 501.517 85.2418V85.2393Z" fill="white"/>
<path d="M504.351 90.2957V155.164C504.351 157.064 505.966 157.081 505.966 155.189V90.3152C505.966 88.4182 504.351 88.4035 504.351 90.2957Z" fill="white"/>
<path d="M507.182 99.1702V146.175C507.182 148.075 508.8 148.094 508.8 146.2V99.1921C508.8 97.2951 507.182 97.2805 507.182 99.1702Z" fill="white"/>
<path d="M510.016 96.3077V148.924C510.016 150.823 511.632 150.835 511.632 148.943V96.332C511.632 94.4326 510.016 94.418 510.016 96.3077Z" fill="white"/>
<path d="M512.847 106.598V138.521C512.847 140.416 514.465 140.433 514.465 138.538V106.617C514.465 104.72 512.847 104.703 512.847 106.598Z" fill="white"/>
<path d="M515.678 98.2339V146.769C515.678 148.663 517.296 148.68 517.296 146.788V98.2558C517.296 96.3587 515.678 96.3417 515.678 98.2363V98.2339Z" fill="white"/>
<path d="M518.512 93.8562V151.035C518.512 152.929 520.13 152.946 520.13 151.052V93.8805C520.13 91.981 518.512 91.9664 518.512 93.8562Z" fill="white"/>
<path d="M521.345 91.5993V153.17C521.345 155.07 522.963 155.089 522.963 153.194V91.6212C522.963 89.7242 521.345 89.7096 521.345 91.6018V91.5993Z" fill="white"/>
<path d="M524.177 98.5429V146.11C524.177 148.009 525.795 148.029 525.795 146.134V98.5648C525.795 96.6677 524.177 96.6507 524.177 98.5453V98.5429Z" fill="white"/>
<path d="M527.01 88.007V156.531C527.01 158.431 528.628 158.45 528.628 156.555V88.0289C528.628 86.1319 527.01 86.1148 527.01 88.0094V88.007Z" fill="white"/>
<path d="M529.843 83.7582V160.663C529.843 162.563 531.46 162.58 531.46 160.688V83.7801C531.46 81.8831 529.843 81.8685 529.843 83.7607V83.7582Z" fill="white"/>
<path d="M532.675 81.7639V162.548C532.675 164.448 534.293 164.467 534.293 162.572V81.7882C534.293 79.8912 532.675 79.8741 532.675 81.7663V81.7639Z" fill="white"/>
<path d="M535.506 64.4766V179.719C535.506 181.613 537.124 181.63 537.124 179.736V64.5009C537.124 62.6015 535.506 62.5869 535.506 64.4766Z" fill="white"/>
<path d="M538.34 94.6903V149.388C538.34 151.283 539.958 151.3 539.958 149.405V94.7098C539.958 92.8128 538.34 92.7982 538.34 94.6903Z" fill="white"/>
<path d="M541.171 42.9137V201.053C541.171 202.947 542.789 202.964 542.789 201.07V42.9331C542.789 41.0361 541.171 41.0191 541.171 42.9137Z" fill="white"/>
<path d="M544.005 1.41004V242.437C544.005 244.332 545.623 244.349 545.623 242.454V1.43193C545.623 -0.465099 544.005 -0.482124 544.005 1.41004Z" fill="white"/>
<path d="M546.836 58.5544V185.174C546.836 187.073 548.454 187.085 548.454 185.198V58.5763C548.454 56.6792 546.836 56.6646 546.836 58.5544Z" fill="white"/>
<path d="M549.67 33.5696V210.042C549.67 211.941 551.288 211.961 551.288 210.066V33.5939C551.288 31.6945 549.67 31.6799 549.67 33.5696Z" fill="white"/>
<path d="M552.501 50.1978V193.304C552.501 195.204 554.119 195.216 554.119 193.329V50.2197C554.119 48.3227 552.501 48.3057 552.501 50.1978Z" fill="white"/>
<path d="M555.334 71.88V171.506C555.334 173.4 556.952 173.417 556.952 171.523V71.9043C556.952 70.0048 555.334 69.9902 555.334 71.88Z" fill="white"/>
<path d="M558.167 79.7524V163.514C558.167 165.413 559.784 165.432 559.784 163.538V79.7743C559.784 77.8773 558.167 77.8627 558.167 79.7549V79.7524Z" fill="white"/>
<path d="M560.999 68.1758V174.981C560.999 176.88 562.617 176.893 562.617 175.005V68.1977C562.617 66.3007 560.999 66.2837 560.999 68.1758Z" fill="white"/>
<path d="M563.832 144.453C563.832 146.348 565.449 146.365 565.449 144.47V98.606C565.449 96.709 563.832 96.6919 563.832 98.5817V144.453Z" fill="white"/>
<path d="M566.664 71.1162V171.807C566.664 173.702 568.282 173.719 568.282 171.824V71.1356C568.282 69.2386 566.664 69.2216 566.664 71.1162Z" fill="white"/>
<path d="M569.495 99.5376V143.271C569.495 145.166 571.113 145.183 571.113 143.288V99.5571C571.113 97.6601 569.495 97.6455 569.495 99.5376Z" fill="white"/>
<path d="M572.329 89.9429V152.749C572.329 154.649 573.947 154.668 573.947 152.773V89.9648C573.947 88.0678 572.329 88.0508 572.329 89.9454V89.9429Z" fill="white"/>
<path d="M575.16 95.7047V146.871C575.16 148.77 576.778 148.783 576.778 146.895V95.729C576.778 93.8295 575.16 93.815 575.16 95.7047Z" fill="white"/>
<path d="M577.994 98.4821V143.979C577.994 145.879 579.612 145.898 579.612 144.003V98.5064C579.612 96.6094 577.994 96.59 577.994 98.4821Z" fill="white"/>
<path d="M580.827 110.207V132.137C580.827 134.037 582.443 134.049 582.443 132.162V110.227C582.443 108.33 580.827 108.315 580.827 110.207Z" fill="white"/>
<path d="M583.659 87.0366V155.191C583.659 157.09 585.277 157.11 585.277 155.215V87.0633C585.277 85.1663 583.659 85.1493 583.659 87.039V87.0366Z" fill="white"/>
<path d="M586.49 104.19V137.923C586.49 139.823 588.108 139.842 588.108 137.947V104.212C588.108 102.315 586.49 102.298 586.49 104.193V104.19Z" fill="white"/>
<path d="M589.325 99.4257V142.578C589.325 144.473 590.942 144.49 590.942 142.595V99.4452C590.942 97.5482 589.325 97.5311 589.325 99.4257Z" fill="white"/>
<path d="M592.156 135.416C592.156 137.315 593.773 137.335 593.773 135.44V106.486C593.773 104.589 592.156 104.572 592.156 106.464V135.416Z" fill="white"/>
<path d="M594.988 108.682V133.083C594.988 134.983 596.606 135 596.606 133.108V108.704C596.606 106.807 594.988 106.792 594.988 108.685V108.682Z" fill="white"/>
<path d="M597.822 100.131V141.52C597.822 143.42 599.438 143.439 599.438 141.544V100.153C599.438 98.2558 597.822 98.2363 597.822 100.131Z" fill="white"/>
<path d="M600.653 107.984V133.553C600.653 135.452 602.271 135.472 602.271 133.577V108.006C602.271 106.109 600.653 106.09 600.653 107.984Z" fill="white"/>
<path d="M603.487 85.3999V156.02C603.487 157.92 605.103 157.939 605.103 156.045V85.4218C605.103 83.5247 603.487 83.5077 603.487 85.4023V85.3999Z" fill="white"/>
<path d="M606.318 89.8553V151.448C606.318 153.347 607.936 153.367 607.936 151.472V89.8772C607.936 87.9802 606.318 87.9656 606.318 89.8577V89.8553Z" fill="white"/>
<path d="M609.152 82.6783V158.516C609.152 160.41 610.77 160.427 610.77 158.533V82.6978C610.77 80.8007 609.152 80.7837 609.152 82.6783Z" fill="white"/>
<path d="M611.983 94.5056V146.567C611.983 148.466 613.601 148.486 613.601 146.591V94.5275C613.601 92.6304 611.983 92.6158 611.983 94.5056Z" fill="white"/>
<path d="M614.818 91.716V149.247C614.818 151.142 616.435 151.159 616.435 149.264V91.7403C616.435 89.8433 614.818 89.8263 614.818 91.716Z" fill="white"/>
<path d="M617.649 68.1126V172.736C617.649 174.631 619.266 174.648 619.266 172.753V68.1345C619.266 66.2375 617.649 66.2229 617.649 68.115V68.1126Z" fill="white"/>
<path d="M620.481 76.9142V163.815C620.481 165.71 622.099 165.727 622.099 163.832V76.9337C622.099 75.0366 620.481 75.0196 620.481 76.9142Z" fill="white"/>
<path d="M623.314 54.989V185.619C623.314 187.518 624.931 187.538 624.931 185.643V55.0109C624.931 53.1139 623.314 53.0969 623.314 54.9915V54.989Z" fill="white"/>
<path d="M626.146 70.068V170.43C626.146 172.33 627.764 172.342 627.764 170.455V70.0899C627.764 68.1928 626.146 68.1758 626.146 70.0704V70.068Z" fill="white"/>
<path d="M628.979 73.3974V166.987C628.979 168.881 630.596 168.898 630.596 167.004V73.4169C630.596 71.5199 628.979 71.5028 628.979 73.3974Z" fill="white"/>
<path d="M631.811 64.6613V175.608C631.811 177.503 633.429 177.52 633.429 175.625V64.6832C633.429 62.7838 631.811 62.7667 631.811 64.6613Z" fill="white"/>
<path d="M634.642 53.0019V187.153C634.642 189.048 636.26 189.065 636.26 187.17V53.0214C636.26 51.1243 634.642 51.1097 634.642 53.0019Z" fill="white"/>
<path d="M637.476 157.249C637.476 159.148 639.094 159.16 639.094 157.273V82.8097C639.094 80.9103 637.476 80.8957 637.476 82.7854V157.249Z" fill="white"/>
<path d="M640.307 64.9775V174.944C640.307 176.844 641.925 176.856 641.925 174.969V64.9994C641.925 63.1024 640.307 63.0878 640.307 64.9799V64.9775Z" fill="white"/>
<path d="M643.141 56.042V183.763C643.141 185.663 644.759 185.682 644.759 183.787V56.0615C644.759 54.1644 643.141 54.1498 643.141 56.042Z" fill="white"/>
<path d="M645.973 90.0793V149.614C645.973 151.509 647.59 151.526 647.59 149.631V90.1011C647.59 88.2041 645.973 88.1871 645.973 90.0817V90.0793Z" fill="white"/>
<path d="M648.807 88.8193V150.752C648.807 152.652 650.424 152.671 650.424 150.777V88.8412C650.424 86.9441 648.807 86.9271 648.807 88.8217V88.8193Z" fill="white"/>
<path d="M651.638 82.7804V156.677C651.638 158.576 653.255 158.589 653.255 156.701V82.7999C653.255 80.9029 651.638 80.8858 651.638 82.7804Z" fill="white"/>
<path d="M654.47 100.255V139.086C654.47 140.985 656.088 141.005 656.088 139.11V100.279C656.088 98.3822 654.47 98.3652 654.47 100.255Z" fill="white"/>
<path d="M657.303 150.694C657.303 152.589 658.92 152.606 658.92 150.711V88.5542C658.92 86.6596 657.303 86.6425 657.303 88.5323V150.694Z" fill="white"/>
<path d="M660.135 106.863V132.254C660.135 134.148 661.753 134.165 661.753 132.271V106.885C661.753 104.988 660.135 104.973 660.135 106.863Z" fill="white"/>
<path d="M662.968 135.885C662.968 137.78 664.586 137.797 664.586 135.902V103.135C664.586 101.238 662.968 101.218 662.968 103.11V135.885Z" fill="white"/>
<path d="M665.8 98.431V140.453C665.8 142.352 667.418 142.364 667.418 140.477V98.4529C667.418 96.5559 665.8 96.5364 665.8 98.431Z" fill="white"/>
<path d="M668.634 97.8691V140.895C668.634 142.79 670.251 142.807 670.251 140.92V97.8886C670.251 95.9916 668.634 95.977 668.634 97.8691Z" fill="white"/>
<path d="M671.465 102.434V136.218C671.465 138.113 673.083 138.13 673.083 136.235V102.456C673.083 100.559 671.465 100.54 671.465 102.434Z" fill="white"/>
<path d="M674.3 104.538V133.998C674.3 135.897 675.917 135.909 675.917 134.022V104.56C675.917 102.663 674.3 102.643 674.3 104.538Z" fill="white"/>
<path d="M677.131 91.8571V146.562C677.131 148.462 678.748 148.474 678.748 146.586V91.879C678.748 89.982 677.131 89.9674 677.131 91.8571Z" fill="white"/>
<path d="M679.963 81.8465V156.461C679.963 158.355 681.581 158.372 681.581 156.485V81.8684C681.581 79.9714 679.963 79.9543 679.963 81.8489V81.8465Z" fill="white"/>
<path d="M682.796 78.5219V159.666C682.796 161.566 684.413 161.585 684.413 159.69V78.5438C684.413 76.6468 682.796 76.6298 682.796 78.5219Z" fill="white"/>
<path d="M685.628 162.071C685.628 163.966 687.246 163.983 687.246 162.088V76.0241C687.246 74.1271 685.628 74.1125 685.628 76.0022V162.071Z" fill="white"/>
<path d="M688.461 89.0528V148.909C688.461 150.808 690.078 150.821 690.078 148.926V89.0747C690.078 87.1777 688.461 87.1631 688.461 89.0528Z" fill="white"/>
<path d="M691.293 62.6502V175.193C691.293 177.087 692.911 177.104 692.911 175.21V62.6696C692.911 60.7726 691.293 60.7556 691.293 62.6502Z" fill="white"/>
<path d="M694.124 188.007C694.124 189.907 695.742 189.926 695.742 188.032V49.7407C695.742 47.8437 694.124 47.8266 694.124 49.7188V188.007Z" fill="white"/>
<path d="M696.958 82.5056V155.106C696.958 157.005 698.576 157.025 698.576 155.13V82.5275C698.576 80.6304 696.958 80.6134 696.958 82.508V82.5056Z" fill="white"/>
<path d="M699.789 40.36V197.132C699.789 199.032 701.407 199.051 701.407 197.157V40.3795C701.407 38.4825 699.789 38.4679 699.789 40.36Z" fill="white"/>
<path d="M702.623 14.2029V223.175C702.623 225.07 704.241 225.087 704.241 223.192V14.2297C704.241 12.3302 702.623 12.3132 702.623 14.2029Z" fill="white"/>
<path d="M705.454 9.9637V227.295C705.454 229.194 707.072 229.214 707.072 227.319V9.98559C707.072 8.08856 705.454 8.07397 705.454 9.9637Z" fill="white"/>
<path d="M708.289 6.38628V230.763C708.289 232.658 709.906 232.675 709.906 230.78V6.40817C709.906 4.51114 708.289 4.49655 708.289 6.38871V6.38628Z" fill="white"/>
<path d="M711.119 38.5238V198.509C711.119 200.403 712.737 200.421 712.737 198.526V38.5456C712.737 36.6486 711.119 36.6316 711.119 38.5262V38.5238Z" fill="white"/>
<path d="M713.954 8.37572V228.543C713.954 230.437 715.571 230.454 715.571 228.56V8.39761C715.571 6.50058 713.954 6.48599 713.954 8.37572Z" fill="white"/>
<path d="M716.784 57.9853V178.816C716.784 180.716 718.402 180.735 718.402 178.841V58.0072C718.402 56.1102 716.784 56.0956 716.784 57.9853Z" fill="white"/>
<path d="M719.615 176.863C719.615 178.763 721.233 178.782 721.233 176.888V59.8433C721.233 57.9463 719.615 57.9293 719.615 59.8215V176.863Z" fill="white"/>
<path d="M722.451 71.2572V165.313C722.451 167.213 724.069 167.232 724.069 165.338V71.2791C724.069 69.382 722.451 69.365 722.451 71.2596V71.2572Z" fill="white"/>
<path d="M725.282 158.732C725.282 160.632 726.9 160.644 726.9 158.756V77.7387C726.9 75.8417 725.282 75.8271 725.282 77.7168V158.732Z" fill="white"/>
<path d="M728.115 69.4308V166.909C728.115 168.808 729.732 168.828 729.732 166.933V69.4503C729.732 67.5532 728.115 67.5362 728.115 69.4308Z" fill="white"/>
<path d="M730.949 101.863V134.365C730.949 136.26 732.562 136.277 732.562 134.382V101.882C732.562 99.985 730.949 99.968 730.949 101.863Z" fill="white"/>
<path d="M733.782 141.335C733.782 143.235 735.399 143.254 735.399 141.36V94.7925C735.399 92.8955 733.782 92.8784 733.782 94.7706V141.335Z" fill="white"/>
<path d="M736.612 97.9907V137.999C736.612 139.898 738.23 139.915 738.23 138.023V98.015C738.23 96.118 736.612 96.0985 736.612 97.9907Z" fill="white"/>
<path d="M739.443 102.877V132.998C739.443 134.898 741.061 134.917 741.061 133.023V102.899C741.061 101.002 739.443 100.987 739.443 102.877Z" fill="white"/>
<path d="M742.276 102.911V132.857C742.276 134.752 743.894 134.769 743.894 132.874V102.93C743.894 101.033 742.276 101.019 742.276 102.911Z" fill="white"/>
<path d="M745.11 99.6858V135.963C745.11 137.862 746.728 137.879 746.728 135.987V99.7077C746.728 97.8107 745.11 97.7937 745.11 99.6858Z" fill="white"/>
<path d="M747.942 98.4382V137.096C747.942 138.991 749.56 139.008 749.56 137.116V98.4601C749.56 96.5631 747.942 96.546 747.942 98.4382Z" fill="white"/>
<path d="M750.773 98.9417V136.481C750.773 138.376 752.391 138.393 752.391 136.498V98.9636C752.391 97.0666 750.773 97.052 750.773 98.9417Z" fill="white"/>
<path d="M753.609 94.131V141.17C753.609 143.069 755.222 143.089 755.222 141.194V94.1529C755.222 92.2558 753.609 92.2388 753.609 94.131Z" fill="white"/>
<path d="M756.44 98.6327V136.551C756.44 138.451 758.058 138.47 758.058 136.576V98.657C758.058 96.76 756.44 96.7405 756.44 98.6327Z" fill="white"/>
<path d="M759.271 95.921V139.149C759.271 141.044 760.889 141.061 760.889 139.173V95.9405C760.889 94.041 759.271 94.024 759.271 95.921Z" fill="white"/>
<path d="M762.104 85.1154V149.845C762.104 151.74 763.721 151.757 763.721 149.862V85.1348C763.721 83.2378 762.104 83.2208 762.104 85.1154Z" fill="white"/>
<path d="M764.938 99.2797V135.559C764.938 137.459 766.555 137.471 766.555 135.583V99.3015C766.555 97.4045 764.938 97.3899 764.938 99.2821V99.2797Z" fill="white"/>
<path d="M767.77 86.0711V148.658C767.77 150.553 769.388 150.57 769.388 148.675V86.093C769.388 84.196 767.77 84.1765 767.77 86.0711Z" fill="white"/>
<path d="M770.601 75.0028V159.605C770.601 161.5 772.219 161.517 772.219 159.622V75.0222C772.219 73.1252 770.601 73.1106 770.601 75.0028Z" fill="white"/>
<path d="M773.432 84.7042V149.784C773.432 151.684 775.05 151.703 775.05 149.809V84.7261C775.05 82.8291 773.432 82.812 773.432 84.7066V84.7042Z" fill="white"/>
<path d="M776.268 83.6343V150.743C776.268 152.642 777.886 152.659 777.886 150.767V83.6561C777.886 81.7591 776.268 81.7445 776.268 83.6367V83.6343Z" fill="white"/>
<path d="M779.099 70.3889V163.876C779.099 165.77 780.717 165.788 780.717 163.895V70.4132C780.717 68.5162 779.099 68.5016 779.099 70.3913V70.3889Z" fill="white"/>
<path d="M781.932 41.5494V192.597C781.932 194.496 783.549 194.508 783.549 192.621V41.5713C783.549 39.6742 781.932 39.6572 781.932 41.5518V41.5494Z" fill="white"/>
<path d="M784.763 46.1898V187.839C784.763 189.739 786.38 189.751 786.38 187.864V46.2117C786.38 44.3147 784.763 44.2977 784.763 46.1923V46.1898Z" fill="white"/>
<path d="M787.598 30.9307V202.981C787.598 204.881 789.216 204.898 789.216 203.006V30.955C789.216 29.058 787.598 29.041 787.598 30.9307Z" fill="white"/>
<path d="M790.429 79.3974V154.405C790.429 156.3 792.047 156.317 792.047 154.422V79.4169C792.047 77.5198 790.429 77.5052 790.429 79.3974Z" fill="white"/>
<path d="M793.262 52.8489V180.833C793.262 182.732 794.879 182.752 794.879 180.857V52.8708C794.879 50.9737 793.262 50.9591 793.262 52.8513V52.8489Z" fill="white"/>
<path d="M796.096 72.792V160.778C796.096 162.677 797.709 162.697 797.709 160.802V72.8139C797.709 70.9169 796.096 70.9023 796.096 72.7944V72.792Z" fill="white"/>
<path d="M798.928 148.858C798.928 150.752 800.546 150.769 800.546 148.875V84.6166C800.546 82.7171 798.928 82.7001 798.928 84.5947V148.858Z" fill="white"/>
<path d="M801.759 65.2159V168.122C801.759 170.022 803.377 170.041 803.377 168.147V65.2378C803.377 63.3408 801.759 63.3262 801.759 65.2184V65.2159Z" fill="white"/>
<path d="M804.59 87.951V145.273C804.59 147.172 806.208 147.185 806.208 145.297V87.9705C806.208 86.0735 804.59 86.0589 804.59 87.951Z" fill="white"/>
<path d="M807.426 95.7021V137.405C807.426 139.305 809.039 139.317 809.039 137.429V95.724C809.039 93.827 807.426 93.8099 807.426 95.7021Z" fill="white"/>
<path d="M810.257 154.243C810.257 156.142 811.875 156.161 811.875 154.267V78.7652C811.875 76.8657 810.257 76.8487 810.257 78.7409V154.243Z" fill="white"/>
<path d="M813.09 88.5517V144.322C813.09 146.221 814.707 146.238 814.707 144.346V88.5736C814.707 86.6766 813.09 86.662 813.09 88.5517Z" fill="white"/>
<path d="M815.921 82.6589V150.098C815.921 151.998 817.538 152.017 817.538 150.123V82.6783C817.538 80.7813 815.921 80.7667 815.921 82.6589Z" fill="white"/>
<path d="M818.756 130.534C818.756 132.434 820.371 132.453 820.371 130.554V102.13C820.371 100.233 818.756 100.216 818.756 102.106V130.534Z" fill="white"/>
<path d="M821.587 84.7918V147.744C821.587 149.639 823.205 149.656 823.205 147.761V84.8137C823.205 82.9167 821.587 82.8997 821.587 84.7943V84.7918Z" fill="white"/>
<path d="M824.418 108.685V123.729C824.418 125.626 826.036 125.643 826.036 123.751V108.706C826.036 106.809 824.418 106.792 824.418 108.685Z" fill="white"/>
<path d="M827.251 105.379V126.918C827.251 128.815 828.869 128.83 828.869 126.937V105.399C828.869 103.502 827.251 103.487 827.251 105.379Z" fill="white"/>
<path d="M830.085 104.358V127.825C830.085 129.722 831.698 129.742 831.698 127.847V104.382C831.698 102.485 830.085 102.466 830.085 104.36V104.358Z" fill="white"/>
<path d="M832.917 132.85C832.917 134.744 834.535 134.761 834.535 132.867V99.2383C834.535 97.3389 832.917 97.3218 832.917 99.2164V132.85Z" fill="white"/>
<path d="M835.748 97.6017V134.348C835.748 136.248 837.366 136.267 837.366 134.372V97.626C837.366 95.729 835.748 95.712 835.748 97.6017Z" fill="white"/>
<path d="M838.579 79.9277V151.905C838.579 153.805 840.197 153.824 840.197 151.93V79.952C840.197 78.055 838.579 78.0356 838.579 79.9277Z" fill="white"/>
<path d="M841.415 98.5063V133.212C841.415 135.112 843.033 135.131 843.033 133.237V98.5282C843.033 96.6312 841.415 96.6117 841.415 98.5063Z" fill="white"/>
<path d="M844.246 71.7363V159.865C844.246 161.765 845.864 161.784 845.864 159.89V71.7558C845.864 69.8588 844.246 69.8442 844.246 71.7363Z" fill="white"/>
<path d="M847.079 86.1903V145.302C847.079 147.197 848.696 147.214 848.696 145.326V86.2122C848.696 84.3152 847.079 84.2981 847.079 86.1927V86.1903Z" fill="white"/>
<path d="M849.91 94.491V136.89C849.91 138.784 851.527 138.801 851.527 136.909V94.5129C851.527 92.6158 849.91 92.5988 849.91 94.4934V94.491Z" fill="white"/>
<path d="M852.745 74.02V157.236C852.745 159.136 854.363 159.155 854.363 157.261V74.0419C854.363 72.1448 852.745 72.1303 852.745 74.02Z" fill="white"/>
<path d="M855.576 56.1662V174.979C855.576 176.878 857.194 176.89 857.194 175.003V56.1856C857.194 54.2886 855.576 54.2716 855.576 56.1662Z" fill="white"/>
<path d="M858.407 70.924V160.106C858.407 162.001 860.025 162.018 860.025 160.13V70.9458C860.025 69.0488 858.407 69.0318 858.407 70.9264V70.924Z" fill="white"/>
<path d="M861.24 145.878C861.24 147.773 862.858 147.79 862.858 145.896V85.0568C862.858 83.1598 861.24 83.1428 861.24 85.0325V145.878Z" fill="white"/>
<path d="M864.075 51.0588V179.741C864.075 181.635 865.693 181.652 865.693 179.758V51.0807C865.693 49.1837 864.075 49.1667 864.075 51.0588Z" fill="white"/>
<path d="M866.906 35.8946V194.788C866.906 196.687 868.524 196.707 868.524 194.812V35.9141C868.524 34.0171 866.906 34.0025 866.906 35.8946Z" fill="white"/>
<path d="M869.737 223.919C869.737 225.819 871.355 225.831 871.355 223.944V6.66831C871.355 4.77128 869.737 4.75669 869.737 6.64642V223.919Z" fill="white"/>
<path d="M872.573 75.3407V155.111C872.573 157.005 874.188 157.022 874.188 155.135V75.3626C874.188 73.4655 872.573 73.4485 872.573 75.3431V75.3407Z" fill="white"/>
<path d="M875.404 60.0306V170.306C875.404 172.201 877.022 172.218 877.022 170.331V60.0525C877.022 58.1555 875.404 58.1385 875.404 60.0331V60.0306Z" fill="white"/>
<path d="M878.237 30.0723V200.148C878.237 202.043 879.854 202.06 879.854 200.168V30.0942C879.854 28.1972 878.237 28.1802 878.237 30.0723Z" fill="white"/>
<path d="M881.068 84.8453V145.261C881.068 147.16 882.685 147.172 882.685 145.285V84.8672C882.685 82.9702 881.068 82.9556 881.068 84.8477V84.8453Z" fill="white"/>
<path d="M883.903 91.4899V138.5C883.903 140.399 885.518 140.419 885.518 138.524V91.5118C885.518 89.6148 883.903 89.5977 883.903 91.4899Z" fill="white"/>
<path d="M886.734 91.0519V138.823C886.734 140.718 888.352 140.735 888.352 138.84V91.0714C888.352 89.1744 886.734 89.1598 886.734 91.0519Z" fill="white"/>
<path d="M889.565 93.7565V136.002C889.565 137.896 891.183 137.913 891.183 136.021V93.7784C891.183 91.8813 889.565 91.8667 889.565 93.7565Z" fill="white"/>
<path d="M892.398 84.072V145.57C892.398 147.464 894.016 147.481 894.016 145.594V84.0939C894.016 82.1968 892.398 82.1823 892.398 84.0744V84.072Z" fill="white"/>
<path d="M895.232 84.1837V145.346C895.232 147.245 896.845 147.265 896.845 145.37V84.2056C896.845 82.3085 895.232 82.294 895.232 84.1837Z" fill="white"/>
<path d="M898.065 102.303V127.113C898.065 129.01 899.682 129.029 899.682 127.135V102.325C899.682 100.428 898.065 100.408 898.065 102.303Z" fill="white"/>
<path d="M900.896 97.8715V131.42C900.896 133.319 902.513 133.339 902.513 131.444V97.8958C902.513 95.9988 900.896 95.9793 900.896 97.8715Z" fill="white"/>
<path d="M903.727 138.92C903.727 140.815 905.344 140.832 905.344 138.937V90.2858C905.344 88.3863 903.727 88.3717 903.727 90.2615V138.92Z" fill="white"/>
<path d="M906.562 92.4043V136.663C906.562 138.563 908.175 138.575 908.175 136.688V92.4262C908.175 90.5292 906.562 90.5121 906.562 92.4043Z" fill="white"/>
<path d="M909.393 100.467V128.484C909.393 130.381 911.011 130.396 911.011 128.504V100.491C911.011 98.5938 909.393 98.5768 909.393 100.467Z" fill="white"/>
<path d="M912.226 103.227V125.605C912.226 127.504 913.843 127.519 913.843 125.629V103.251C913.843 101.352 912.226 101.337 912.226 103.227Z" fill="white"/>
<path d="M915.057 91.6697V137.05C915.057 138.945 916.674 138.962 916.674 137.067V91.694C916.674 89.797 915.057 89.78 915.057 91.6697Z" fill="white"/>
<path d="M917.892 85.147V143.454C917.892 145.353 919.505 145.373 919.505 143.478V85.1665C919.505 83.2694 917.892 83.2548 917.892 85.147Z" fill="white"/>
<path d="M920.723 68.7596V159.732C920.723 161.626 922.341 161.643 922.341 159.749V68.7815C922.341 66.8844 920.723 66.865 920.723 68.7596Z" fill="white"/>
<path d="M923.554 93.0805V135.292C923.554 137.191 925.172 137.203 925.172 135.316V93.1048C925.172 91.2053 923.554 91.1907 923.554 93.0805Z" fill="white"/>
<path d="M926.387 132.256C926.387 134.151 928.005 134.168 928.005 132.273V96.0231C928.005 94.1261 926.387 94.109 926.387 95.9988V132.256Z" fill="white"/>
<path d="M929.221 95.6681V132.47C929.221 134.37 930.839 134.389 930.839 132.495V95.69C930.839 93.793 929.221 93.7735 929.221 95.6681Z" fill="white"/>
<path d="M932.054 61.276V166.751C932.054 168.65 933.671 168.67 933.671 166.775V61.2954C933.671 59.3984 932.054 59.3838 932.054 61.276Z" fill="white"/>
<path d="M934.885 79.5653V148.342C934.885 150.242 936.502 150.261 936.502 148.367V79.5896C936.502 77.6901 934.885 77.6755 934.885 79.5653Z" fill="white"/>
<path d="M937.716 71.5758V156.22C937.716 158.114 939.333 158.131 939.333 156.239V71.5977C939.333 69.7007 937.716 69.6861 937.716 71.5758Z" fill="white"/>
<path d="M940.551 42.4468V185.235C940.551 187.129 942.169 187.146 942.169 185.259V42.4662C942.169 40.5692 940.551 40.5546 940.551 42.4468Z" fill="white"/>
<path d="M943.382 9.19286V218.372C943.382 220.271 945 220.291 945 218.396V9.21718C945 7.31772 943.382 7.29827 943.382 9.19286Z" fill="white"/>
</g>
</svg>
