<svg width="304" height="40" viewBox="0 0 304 40" fill="none" xmlns="http://www.w3.org/2000/svg">
<path d="M0 22.5154V17.2792C0 16.9684 0.562555 16.9656 0.562555 17.2764V22.5122C0.562555 22.8234 0 22.8262 0 22.5154Z" fill="#F56F18"/>
<path d="M0.984487 23.8873V15.9264C0.984487 15.6157 1.54704 15.6129 1.54704 15.9232V23.8837C1.54704 24.1948 0.984487 24.198 0.984487 23.8873Z" fill="#F56F18"/>
<path d="M1.97004 24.6053V15.2267C1.97004 14.9159 2.5326 14.9132 2.5326 15.2239V24.6013C2.5326 24.9129 1.97004 24.9153 1.97004 24.6053Z" fill="#F56F18"/>
<path d="M2.95506 24.9755V14.8764C2.95506 14.5649 3.51762 14.5617 3.51762 14.8724V24.9719C3.51762 25.2831 2.95506 25.2859 2.95506 24.9755Z" fill="#F56F18"/>
<path d="M3.94009 23.8366V16.0345C3.94009 15.7229 4.50264 15.7198 4.50264 16.0305V23.833C4.50264 24.1442 3.94009 24.1474 3.94009 23.8366Z" fill="#F56F18"/>
<path d="M4.92511 25.5647V14.3251C4.92511 14.0136 5.48766 14.0104 5.48766 14.3211V25.5611C5.48766 25.8723 4.92511 25.8755 4.92511 25.5647Z" fill="#F56F18"/>
<path d="M5.91013 26.2616V13.6474C5.91013 13.3358 6.47268 13.333 6.47268 13.6434V26.258C6.47268 26.5692 5.91013 26.572 5.91013 26.2616Z" fill="#F56F18"/>
<path d="M6.89515 26.5888V13.3382C6.89515 13.0266 7.45771 13.0235 7.45771 13.3342V26.5848C7.45771 26.8959 6.89515 26.8991 6.89515 26.5888Z" fill="#F56F18"/>
<path d="M7.87964 29.4243V10.5218C7.87964 10.2111 8.44219 10.2083 8.44219 10.519V29.4203C8.44219 29.7319 7.87964 29.7342 7.87964 29.4243Z" fill="#F56F18"/>
<path d="M8.86519 24.4685V15.4968C8.86519 15.186 9.42775 15.1832 9.42775 15.494V24.4653C9.42775 24.7765 8.86519 24.7789 8.86519 24.4685Z" fill="#F56F18"/>
<path d="M9.84968 32.9611V7.0225C9.84968 6.71173 10.4122 6.70894 10.4122 7.0197V32.9579C10.4122 33.2691 9.84968 33.2719 9.84968 32.9611Z" fill="#F56F18"/>
<path d="M10.8352 39.7687V0.234467C10.8352 -0.0762939 11.3978 -0.0790825 11.3978 0.231674V39.7651C11.3978 40.0763 10.8352 40.0791 10.8352 39.7687Z" fill="#F56F18"/>
<path d="M11.8197 30.3957V9.62706C11.8197 9.3155 12.3823 9.31351 12.3823 9.62307V30.3921C12.3823 30.7032 11.8197 30.7056 11.8197 30.3957Z" fill="#F56F18"/>
<path d="M12.8053 34.4938V5.54808C12.8053 5.23653 13.3678 5.23333 13.3678 5.54409V34.4898C13.3678 34.8013 12.8053 34.8037 12.8053 34.4938Z" fill="#F56F18"/>
<path d="M13.7898 31.7663V8.29345C13.7898 7.98189 14.3523 7.97989 14.3523 8.28946V31.7628C14.3523 32.0739 13.7898 32.0767 13.7898 31.7663Z" fill="#F56F18"/>
<path d="M14.7748 28.21V11.869C14.7748 11.5582 15.3373 11.5554 15.3373 11.8662V28.206C15.3373 28.5175 14.7748 28.5199 14.7748 28.21Z" fill="#F56F18"/>
<path d="M15.7598 26.9187V13.1799C15.7598 12.8683 16.3224 12.8651 16.3224 13.1759V26.9151C16.3224 27.2263 15.7598 27.229 15.7598 26.9187Z" fill="#F56F18"/>
<path d="M16.7448 28.8175V11.2989C16.7448 10.9874 17.3074 10.9854 17.3074 11.2949V28.8139C17.3074 29.1251 16.7448 29.1279 16.7448 28.8175Z" fill="#F56F18"/>
<path d="M17.7298 16.3062C17.7298 15.9954 18.2924 15.9926 18.2924 16.3034V23.8262C18.2924 24.1374 17.7298 24.1402 17.7298 23.8302V16.3062Z" fill="#F56F18"/>
<path d="M18.7149 28.3352V11.8195C18.7149 11.5088 19.2774 11.506 19.2774 11.8167V28.332C19.2774 28.6432 18.7149 28.646 18.7149 28.3352Z" fill="#F56F18"/>
<path d="M19.6994 23.6734V16.5C19.6994 16.1893 20.2619 16.1865 20.2619 16.4972V23.6702C20.2619 23.9814 19.6994 23.9838 19.6994 23.6734Z" fill="#F56F18"/>
<path d="M20.6849 25.2472V14.9455C20.6849 14.6339 21.2475 14.6307 21.2475 14.9415V25.2436C21.2475 25.5548 20.6849 25.558 20.6849 25.2472Z" fill="#F56F18"/>
<path d="M21.6694 24.3021V15.9096C21.6694 15.5981 22.232 15.5961 22.232 15.9056V24.2981C22.232 24.6097 21.6694 24.6121 21.6694 24.3021Z" fill="#F56F18"/>
<path d="M22.655 23.8466V16.3839C22.655 16.0724 23.2175 16.0692 23.2175 16.38V23.8426C23.2175 24.1537 22.655 24.1569 22.655 23.8466Z" fill="#F56F18"/>
<path d="M23.64 21.9234V18.3263C23.64 18.0147 24.202 18.0127 24.202 18.3223V21.9202C24.202 22.2313 23.64 22.2337 23.64 21.9234Z" fill="#F56F18"/>
<path d="M24.625 25.7239V14.545C24.625 14.2334 25.1876 14.2302 25.1876 14.541V25.7195C25.1876 26.0307 24.625 26.0339 24.625 25.7239Z" fill="#F56F18"/>
<path d="M25.6095 22.9103V17.3773C25.6095 17.0657 26.172 17.0625 26.172 17.3733V22.9067C26.172 23.2179 25.6095 23.2211 25.6095 22.9103Z" fill="#F56F18"/>
<path d="M26.595 23.6918V16.6137C26.595 16.303 27.1576 16.3002 27.1576 16.6109V23.6886C27.1576 23.9998 26.595 24.0025 26.595 23.6918Z" fill="#F56F18"/>
<path d="M27.5795 17.7886C27.5795 17.477 28.1421 17.4738 28.1421 17.7846V22.5337C28.1421 22.8449 27.5795 22.8477 27.5795 22.5373V17.7886Z" fill="#F56F18"/>
<path d="M28.5645 22.1735V18.1711C28.5645 17.8596 29.1271 17.8568 29.1271 18.1672V22.1699C29.1271 22.4811 28.5645 22.4839 28.5645 22.1735Z" fill="#F56F18"/>
<path d="M29.5501 23.5761V16.7873C29.5501 16.4757 30.1121 16.4725 30.1121 16.7833V23.5725C30.1121 23.8837 29.5501 23.8869 29.5501 23.5761Z" fill="#F56F18"/>
<path d="M30.5346 22.288V18.0942C30.5346 17.7826 31.0971 17.7794 31.0971 18.0902V22.2844C31.0971 22.5956 30.5346 22.5988 30.5346 22.288Z" fill="#F56F18"/>
<path d="M31.5201 25.9924V14.4089C31.5201 14.0973 32.0822 14.0942 32.0822 14.4049V25.9888C32.0822 26.2999 31.5201 26.3031 31.5201 25.9924Z" fill="#F56F18"/>
<path d="M32.5046 25.2616V15.1589C32.5046 14.8473 33.0672 14.8441 33.0672 15.1549V25.258C33.0672 25.5691 32.5046 25.5719 32.5046 25.2616Z" fill="#F56F18"/>
<path d="M33.4902 26.4388V13.9996C33.4902 13.6889 34.0527 13.6861 34.0527 13.9968V26.4356C34.0527 26.7467 33.4902 26.7495 33.4902 26.4388Z" fill="#F56F18"/>
<path d="M34.4747 24.4988V15.9595C34.4747 15.648 35.0372 15.6448 35.0372 15.9555V24.4952C35.0372 24.8064 34.4747 24.8088 34.4747 24.4988Z" fill="#F56F18"/>
<path d="M35.4602 24.9564V15.5199C35.4602 15.2091 36.0228 15.2063 36.0228 15.5171V24.9524C36.0228 25.2635 35.4602 25.2663 35.4602 24.9564Z" fill="#F56F18"/>
<path d="M36.4447 28.8279V11.6671C36.4447 11.3564 37.0073 11.3536 37.0073 11.6643V28.8243C37.0073 29.1355 36.4447 29.1383 36.4447 28.8279Z" fill="#F56F18"/>
<path d="M37.4297 27.3842V13.1304C37.4297 12.8196 37.9923 12.8168 37.9923 13.1276V27.381C37.9923 27.6922 37.4297 27.695 37.4297 27.3842Z" fill="#F56F18"/>
<path d="M38.4148 30.9805V9.55404C38.4148 9.24248 38.9773 9.23929 38.9773 9.55005V30.9769C38.9773 31.288 38.4148 31.2912 38.4148 30.9805Z" fill="#F56F18"/>
<path d="M39.3998 28.5072V12.0453C39.3998 11.7337 39.9623 11.7317 39.9623 12.0413V28.5036C39.9623 28.8147 39.3998 28.8179 39.3998 28.5072Z" fill="#F56F18"/>
<path d="M40.3848 27.9611V12.6102C40.3848 12.2994 40.9474 12.2966 40.9474 12.6074V27.9579C40.9474 28.269 40.3848 28.2718 40.3848 27.9611Z" fill="#F56F18"/>
<path d="M41.3698 29.394V11.196C41.3698 10.8853 41.9324 10.8825 41.9324 11.1932V29.3904C41.9324 29.702 41.3698 29.7047 41.3698 29.394Z" fill="#F56F18"/>
<path d="M42.3543 31.3064V9.30234C42.3543 8.99158 42.9169 8.98879 42.9169 9.29955V31.3032C42.9169 31.6144 42.3543 31.6168 42.3543 31.3064Z" fill="#F56F18"/>
<path d="M43.3399 14.2074C43.3399 13.8959 43.9024 13.8939 43.9024 14.2035V26.4172C43.9024 26.7288 43.3399 26.7312 43.3399 26.4212V14.2074Z" fill="#F56F18"/>
<path d="M44.3244 29.3421V11.3049C44.3244 10.9934 44.8869 10.9914 44.8869 11.3009V29.3385C44.8869 29.6497 44.3244 29.6525 44.3244 29.3421Z" fill="#F56F18"/>
<path d="M45.3099 30.8078V9.85843C45.3099 9.54688 45.8725 9.54369 45.8725 9.85445V30.8046C45.8725 31.1157 45.3099 31.1181 45.3099 30.8078Z" fill="#F56F18"/>
<path d="M46.2944 25.2248V15.4597C46.2944 15.1489 46.857 15.1461 46.857 15.4569V25.2212C46.857 25.5324 46.2944 25.5356 46.2944 25.2248Z" fill="#F56F18"/>
<path d="M47.2799 25.4315V15.273C47.2799 14.9614 47.8425 14.9582 47.8425 15.269V25.4279C47.8425 25.7391 47.2799 25.7423 47.2799 25.4315Z" fill="#F56F18"/>
<path d="M48.2644 26.422V14.3012C48.2644 13.9896 48.827 13.9877 48.827 14.2972V26.4188C48.827 26.73 48.2644 26.7328 48.2644 26.422Z" fill="#F56F18"/>
<path d="M49.2495 23.5558V17.1866C49.2495 16.8751 49.812 16.8719 49.812 17.1826V23.5518C49.812 23.8629 49.2495 23.8657 49.2495 23.5558Z" fill="#F56F18"/>
<path d="M50.2345 15.2826C50.2345 14.9718 50.797 14.969 50.797 15.2798V25.475C50.797 25.7857 50.2345 25.7885 50.2345 25.4786V15.2826Z" fill="#F56F18"/>
<path d="M51.2195 22.4719V18.3072C51.2195 17.9964 51.7821 17.9936 51.7821 18.3044V22.4683C51.7821 22.7795 51.2195 22.7819 51.2195 22.4719Z" fill="#F56F18"/>
<path d="M52.2045 17.7116C52.2045 17.4008 52.7671 17.398 52.7671 17.7088V23.0835C52.7671 23.3946 52.2045 23.3978 52.2045 23.0874V17.7116Z" fill="#F56F18"/>
<path d="M53.1895 23.8549V16.9624C53.1895 16.6508 53.7521 16.6488 53.7521 16.9584V23.8513C53.7521 24.1625 53.1895 24.1657 53.1895 23.8549Z" fill="#F56F18"/>
<path d="M54.1751 23.9471V16.8898C54.1751 16.579 54.7371 16.5762 54.7371 16.8858V23.9439C54.7371 24.2551 54.1751 24.2575 54.1751 23.9471Z" fill="#F56F18"/>
<path d="M55.1596 23.1983V17.6569C55.1596 17.3461 55.7221 17.3434 55.7221 17.6541V23.1947C55.7221 23.5059 55.1596 23.5091 55.1596 23.1983Z" fill="#F56F18"/>
<path d="M56.1451 22.8533V18.0211C56.1451 17.7096 56.7077 17.7076 56.7077 18.0172V22.8497C56.7077 23.1608 56.1451 23.164 56.1451 22.8533Z" fill="#F56F18"/>
<path d="M57.1296 24.9332V15.9603C57.1296 15.6487 57.6922 15.6467 57.6922 15.9563V24.9296C57.6922 25.2408 57.1296 25.2432 57.1296 24.9332Z" fill="#F56F18"/>
<path d="M58.1147 26.5752V14.3367C58.1147 14.026 58.6772 14.0232 58.6772 14.3327V26.5716C58.6772 26.8828 58.1147 26.886 58.1147 26.5752Z" fill="#F56F18"/>
<path d="M59.0997 27.1205V13.8109C59.0997 13.4994 59.6622 13.4962 59.6622 13.8069V27.1169C59.6622 27.4281 59.0997 27.4309 59.0997 27.1205Z" fill="#F56F18"/>
<path d="M60.0847 13.4164C60.0847 13.1056 60.6473 13.1028 60.6473 13.4136V27.5302C60.6473 27.8414 60.0847 27.8438 60.0847 27.5338V13.4164Z" fill="#F56F18"/>
<path d="M61.0697 25.3932V15.5753C61.0697 15.2638 61.6323 15.2618 61.6323 15.5726V25.3896C61.6323 25.7008 61.0697 25.7032 61.0697 25.3932Z" fill="#F56F18"/>
<path d="M62.0547 29.7239V11.2642C62.0547 10.9534 62.6173 10.9507 62.6173 11.2614V29.7207C62.6173 30.0318 62.0547 30.0346 62.0547 29.7239Z" fill="#F56F18"/>
<path d="M63.0391 9.16228C63.0391 8.85073 63.6017 8.84753 63.6017 9.15829V31.8413C63.6017 32.1525 63.0391 32.1553 63.0391 31.8449V9.16228Z" fill="#F56F18"/>
<path d="M64.0248 26.4671V14.5589C64.0248 14.2474 64.5873 14.2442 64.5873 14.5549V26.4635C64.5873 26.7747 64.0248 26.7779 64.0248 26.4671Z" fill="#F56F18"/>
<path d="M65.0092 33.38V7.66555C65.0092 7.35399 65.5717 7.3508 65.5717 7.66156V33.3768C65.5717 33.688 65.0092 33.6903 65.0092 33.38Z" fill="#F56F18"/>
<path d="M65.9948 37.6704V3.39391C65.9948 3.08315 66.5574 3.08036 66.5574 3.39112V37.666C66.5574 37.9775 65.9948 37.9803 65.9948 37.6704Z" fill="#F56F18"/>
<path d="M66.9792 38.3657V2.71815C66.9792 2.40659 67.5418 2.4034 67.5418 2.71416V38.3621C67.5418 38.6733 66.9792 38.6757 66.9792 38.3657Z" fill="#F56F18"/>
<path d="M67.9649 38.9525V2.14926C67.9649 1.8385 68.5274 1.83571 68.5274 2.14647V38.9489C68.5274 39.2601 67.9649 39.2629 67.9649 38.9525Z" fill="#F56F18"/>
<path d="M68.9492 33.6812V7.43977C68.9492 7.12901 69.5118 7.12621 69.5118 7.43697V33.6776C69.5118 33.9887 68.9492 33.9919 68.9492 33.6812Z" fill="#F56F18"/>
<path d="M69.9349 38.6262V2.51347C69.9349 2.20272 70.4975 2.19992 70.4975 2.51068V38.6226C70.4975 38.9337 69.9349 38.9361 69.9349 38.6262Z" fill="#F56F18"/>
<path d="M70.9193 30.489V10.6698C70.9193 10.3583 71.4818 10.3551 71.4818 10.6658V30.4854C71.4818 30.7966 70.9193 30.799 70.9193 30.489Z" fill="#F56F18"/>
<path d="M71.9038 10.9902C71.9038 10.6786 72.4663 10.6754 72.4663 10.9862V30.1843C72.4663 30.4954 71.9038 30.4982 71.9038 30.1878V10.9902Z" fill="#F56F18"/>
<path d="M72.89 28.3121V12.8846C72.89 12.5731 73.4525 12.5699 73.4525 12.8807V28.3085C73.4525 28.6197 72.89 28.6229 72.89 28.3121Z" fill="#F56F18"/>
<path d="M73.8744 13.9641C73.8744 13.6526 74.4369 13.6506 74.4369 13.9601V27.249C74.4369 27.5601 73.8744 27.5625 73.8744 27.2526V13.9641Z" fill="#F56F18"/>
<path d="M74.8594 28.6117V12.6229C74.8594 12.3114 75.4219 12.3082 75.4219 12.6189V28.6085C75.4219 28.9196 74.8594 28.9224 74.8594 28.6117Z" fill="#F56F18"/>
<path d="M75.845 23.2921V17.9609C75.845 17.6501 76.406 17.6474 76.406 17.9581V23.2889C76.406 23.6001 75.845 23.6028 75.845 23.2921Z" fill="#F56F18"/>
<path d="M76.8301 16.8176C76.8301 16.506 77.3926 16.5029 77.3926 16.8136V24.4518C77.3926 24.7629 76.8301 24.7657 76.8301 24.4553V16.8176Z" fill="#F56F18"/>
<path d="M77.8144 23.9272V17.3649C77.8144 17.0534 78.377 17.0506 78.377 17.3609V23.9232C78.377 24.2343 77.8144 24.2375 77.8144 23.9272Z" fill="#F56F18"/>
<path d="M78.7989 23.1257V18.1851C78.7989 17.8735 79.3615 17.8703 79.3615 18.1811V23.1221C79.3615 23.4333 78.7989 23.4357 78.7989 23.1257Z" fill="#F56F18"/>
<path d="M79.7839 23.1201V18.2082C79.7839 17.8975 80.3465 17.8947 80.3465 18.2054V23.1169C80.3465 23.4281 79.7839 23.4305 79.7839 23.1201Z" fill="#F56F18"/>
<path d="M80.7695 23.6491V17.6988C80.7695 17.3873 81.3321 17.3845 81.3321 17.6948V23.6455C81.3321 23.9567 80.7695 23.9595 80.7695 23.6491Z" fill="#F56F18"/>
<path d="M81.7545 23.8538V17.5129C81.7545 17.2022 82.3171 17.1994 82.3171 17.5097V23.8502C82.3171 24.1613 81.7545 24.1641 81.7545 23.8538Z" fill="#F56F18"/>
<path d="M82.739 23.7712V17.6138C82.739 17.3031 83.3016 17.3003 83.3016 17.611V23.7676C83.3016 24.0787 82.739 24.0811 82.739 23.7712Z" fill="#F56F18"/>
<path d="M83.7252 24.5603V16.8447C83.7252 16.5332 84.2861 16.53 84.2861 16.8407V24.5567C84.2861 24.8678 83.7252 24.8706 83.7252 24.5603Z" fill="#F56F18"/>
<path d="M84.7096 23.8219V17.6023C84.7096 17.2907 85.2721 17.2875 85.2721 17.5983V23.8179C85.2721 24.129 84.7096 24.1322 84.7096 23.8219Z" fill="#F56F18"/>
<path d="M85.6941 24.2666V17.1762C85.6941 16.8655 86.2566 16.8627 86.2566 17.1722V24.2635C86.2566 24.575 85.6941 24.5778 85.6941 24.2666Z" fill="#F56F18"/>
<path d="M86.6791 26.039V15.4217C86.6791 15.111 87.2417 15.1082 87.2417 15.419V26.0358C87.2417 26.347 86.6791 26.3498 86.6791 26.039Z" fill="#F56F18"/>
<path d="M87.6646 23.7157V17.765C87.6646 17.4535 88.2272 17.4515 88.2272 17.7611V23.7122C88.2272 24.0233 87.6646 24.0261 87.6646 23.7157Z" fill="#F56F18"/>
<path d="M88.6497 25.8823V15.6164C88.6497 15.3057 89.2122 15.3029 89.2122 15.6136V25.8787C89.2122 26.1898 88.6497 26.193 88.6497 25.8823Z" fill="#F56F18"/>
<path d="M89.6342 27.6977V13.8209C89.6342 13.5101 90.1967 13.5073 90.1967 13.8181V27.6945C90.1967 28.0057 89.6342 28.0081 89.6342 27.6977Z" fill="#F56F18"/>
<path d="M90.6186 26.1065V15.4317C90.6186 15.1202 91.1812 15.117 91.1812 15.4278V26.1029C91.1812 26.414 90.6186 26.4172 90.6186 26.1065Z" fill="#F56F18"/>
<path d="M91.6047 26.282V15.2745C91.6047 14.963 92.1673 14.9602 92.1673 15.2706V26.2784C92.1673 26.5895 91.6047 26.5923 91.6047 26.282Z" fill="#F56F18"/>
<path d="M92.5892 28.4545V13.1204C92.5892 12.8096 93.1518 12.8069 93.1518 13.1172V28.4505C93.1518 28.7617 92.5892 28.7645 92.5892 28.4545Z" fill="#F56F18"/>
<path d="M93.5742 33.1849V8.40953C93.5742 8.09797 94.1368 8.09598 94.1368 8.40554V33.1813C94.1368 33.4925 93.5742 33.4957 93.5742 33.1849Z" fill="#F56F18"/>
<path d="M94.5587 32.4238V9.18981C94.5587 8.87825 95.1213 8.87626 95.1213 9.18582V32.4202C95.1213 32.7313 94.5587 32.7345 94.5587 32.4238Z" fill="#F56F18"/>
<path d="M95.5448 34.9266V6.70617C95.5448 6.39461 96.1074 6.39181 96.1074 6.70217V34.9226C96.1074 35.2338 95.5448 35.2366 95.5448 34.9266Z" fill="#F56F18"/>
<path d="M96.5293 26.9769V14.6738C96.5293 14.363 97.0919 14.3602 97.0919 14.671V26.9737C97.0919 27.2849 96.5293 27.2873 96.5293 26.9769Z" fill="#F56F18"/>
<path d="M97.5143 31.3315V10.3391C97.5143 10.0275 98.0769 10.0244 98.0769 10.3351V31.3279C98.0769 31.6391 97.5143 31.6419 97.5143 31.3315Z" fill="#F56F18"/>
<path d="M98.4999 28.0604V13.6286C98.4999 13.317 99.0608 13.3139 99.0608 13.6246V28.0568C99.0608 28.3679 98.4999 28.3707 98.4999 28.0604Z" fill="#F56F18"/>
<path d="M99.4849 15.5837C99.4849 15.273 100.047 15.2702 100.047 15.581V26.1208C100.047 26.4324 99.4849 26.4352 99.4849 26.1244V15.5837Z" fill="#F56F18"/>
<path d="M100.469 29.303V12.4239C100.469 12.1123 101.032 12.1091 101.032 12.4199V29.2994C101.032 29.6106 100.469 29.6134 100.469 29.303Z" fill="#F56F18"/>
<path d="M101.454 25.5739V16.1717C101.454 15.8602 102.016 15.8582 102.016 16.1678V25.5707C102.016 25.8819 101.454 25.8843 101.454 25.5739Z" fill="#F56F18"/>
<path d="M102.44 24.3026V17.4623C102.44 17.1507 103.001 17.1487 103.001 17.4583V24.299C103.001 24.6101 102.44 24.6129 102.44 24.3026Z" fill="#F56F18"/>
<path d="M103.424 14.7005C103.424 14.389 103.987 14.3858 103.987 14.6965V27.0806C103.987 27.3922 103.424 27.395 103.424 27.0846V14.7005Z" fill="#F56F18"/>
<path d="M104.409 25.4754V16.3277C104.409 16.0162 104.972 16.0134 104.972 16.3237V25.4718C104.972 25.783 104.409 25.7854 104.409 25.4754Z" fill="#F56F18"/>
<path d="M105.394 26.442V15.3803C105.394 15.0687 105.957 15.0655 105.957 15.3763V26.4388C105.957 26.7499 105.394 26.7523 105.394 26.442Z" fill="#F56F18"/>
<path d="M106.38 18.5892C106.38 18.2776 106.942 18.2745 106.942 18.586V23.2482C106.942 23.5594 106.38 23.5622 106.38 23.2522V18.5892Z" fill="#F56F18"/>
<path d="M107.365 26.0921V15.7664C107.365 15.4557 107.927 15.4529 107.927 15.7636V26.0885C107.927 26.3997 107.365 26.4029 107.365 26.0921Z" fill="#F56F18"/>
<path d="M108.349 22.1731V19.7054C108.349 19.3942 108.912 19.3914 108.912 19.7018V22.1695C108.912 22.4807 108.349 22.4835 108.349 22.1731Z" fill="#F56F18"/>
<path d="M109.334 22.7152V19.1824C109.334 18.8712 109.897 18.8688 109.897 19.1792V22.712C109.897 23.0232 109.334 23.0256 109.334 22.7152Z" fill="#F56F18"/>
<path d="M110.32 22.8828V19.0336C110.32 18.7224 110.881 18.7192 110.881 19.03V22.8788C110.881 23.1899 110.32 23.1935 110.32 22.8828Z" fill="#F56F18"/>
<path d="M111.305 18.2094C111.305 17.8987 111.867 17.8959 111.867 18.2066V23.7225C111.867 24.0341 111.305 24.0369 111.305 23.7261V18.2094Z" fill="#F56F18"/>
<path d="M112.289 23.991V17.9637C112.289 17.6521 112.852 17.6489 112.852 17.9597V23.987C112.852 24.2981 112.289 24.3009 112.289 23.991Z" fill="#F56F18"/>
<path d="M113.274 26.8899V15.0839C113.274 14.7723 113.836 14.7691 113.836 15.0799V26.8859C113.836 27.1971 113.274 27.2003 113.274 26.8899Z" fill="#F56F18"/>
<path d="M114.26 23.8426V18.15C114.26 17.8384 114.822 17.8352 114.822 18.146V23.839C114.822 24.1502 114.26 24.1533 114.26 23.8426Z" fill="#F56F18"/>
<path d="M115.244 28.2335V13.7782C115.244 13.4667 115.807 13.4635 115.807 13.7742V28.2303C115.807 28.5415 115.244 28.5439 115.244 28.2335Z" fill="#F56F18"/>
<path d="M116.229 25.8627V16.1669C116.229 15.8562 116.792 15.8534 116.792 16.163V25.8591C116.792 26.1703 116.229 26.1735 116.229 25.8627Z" fill="#F56F18"/>
<path d="M117.214 24.5012V17.5468C117.214 17.2361 117.776 17.2333 117.776 17.5436V24.4976C117.776 24.8088 117.214 24.812 117.214 24.5012Z" fill="#F56F18"/>
<path d="M118.2 27.8589V14.2095C118.2 13.8979 118.762 13.8947 118.762 14.2055V27.8554C118.762 28.1665 118.2 28.1689 118.2 27.8589Z" fill="#F56F18"/>
<path d="M119.184 30.7874V11.2993C119.184 10.9878 119.747 10.9858 119.747 11.2953V30.7842C119.747 31.0954 119.184 31.0982 119.184 30.7874Z" fill="#F56F18"/>
<path d="M120.169 28.3668V13.7387C120.169 13.428 120.731 13.4252 120.731 13.7347V28.3632C120.731 28.6743 120.169 28.6775 120.169 28.3668Z" fill="#F56F18"/>
<path d="M121.154 16.0724C121.154 15.7617 121.716 15.7589 121.716 16.0696V26.0486C121.716 26.3598 121.154 26.3626 121.154 26.0526V16.0724Z" fill="#F56F18"/>
<path d="M122.14 31.6251V10.5182C122.14 10.2075 122.702 10.2047 122.702 10.5154V31.6215C122.702 31.9327 122.14 31.9355 122.14 31.6251Z" fill="#F56F18"/>
<path d="M123.124 34.1124V8.05012C123.124 7.73857 123.687 7.73537 123.687 8.04613V34.1092C123.687 34.4204 123.124 34.4228 123.124 34.1124Z" fill="#F56F18"/>
<path d="M124.109 3.27184C124.109 2.96028 124.671 2.95829 124.671 3.26785V38.9062C124.671 39.2174 124.109 39.2198 124.109 38.9098V3.27184Z" fill="#F56F18"/>
<path d="M125.095 27.6423V14.5581C125.095 14.2474 125.656 14.2446 125.656 14.5541V27.6387C125.656 27.9499 125.095 27.9531 125.095 27.6423Z" fill="#F56F18"/>
<path d="M126.079 30.1535V12.0657C126.079 11.7549 126.642 11.7521 126.642 12.0617V30.1499C126.642 30.4611 126.079 30.4643 126.079 30.1535Z" fill="#F56F18"/>
<path d="M127.064 35.0674V7.17088C127.064 6.86012 127.627 6.85733 127.627 7.16769V35.0638C127.627 35.375 127.064 35.3778 127.064 35.0674Z" fill="#F56F18"/>
<path d="M128.049 26.0833V16.1737C128.049 15.8622 128.611 15.8602 128.611 16.1697V26.0797C128.611 26.3909 128.049 26.3937 128.049 26.0833Z" fill="#F56F18"/>
<path d="M129.035 24.9935V17.2827C129.035 16.9712 129.596 16.968 129.596 17.2787V24.9899C129.596 25.301 129.035 25.3038 129.035 24.9935Z" fill="#F56F18"/>
<path d="M130.019 25.0653V17.2297C130.019 16.9189 130.582 16.9161 130.582 17.2269V25.0621C130.582 25.3733 130.019 25.3757 130.019 25.0653Z" fill="#F56F18"/>
<path d="M131.004 24.6217V17.6924C131.004 17.3817 131.567 17.3789 131.567 17.6892V24.6181C131.567 24.9293 131.004 24.9316 131.004 24.6217Z" fill="#F56F18"/>
<path d="M131.989 26.2102V16.1231C131.989 15.8123 132.552 15.8095 132.552 16.1191V26.2066C132.552 26.5177 131.989 26.5205 131.989 26.2102Z" fill="#F56F18"/>
<path d="M132.975 26.1918V16.1598C132.975 15.8482 133.535 15.845 133.535 16.1558V26.1883C133.535 26.4994 132.975 26.5018 132.975 26.1918Z" fill="#F56F18"/>
<path d="M133.96 23.2199V19.1505C133.96 18.8393 134.522 18.8361 134.522 19.1469V23.2163C134.522 23.5274 133.96 23.5306 133.96 23.2199Z" fill="#F56F18"/>
<path d="M134.944 23.9467V18.444C134.944 18.1325 135.507 18.1293 135.507 18.44V23.9427C135.507 24.2539 134.944 24.2571 134.944 23.9467Z" fill="#F56F18"/>
<path d="M135.929 17.2137C135.929 16.903 136.491 16.9002 136.491 17.2109V25.191C136.491 25.5025 135.929 25.5049 135.929 25.1949V17.2137Z" fill="#F56F18"/>
<path d="M136.915 24.8435V17.5839C136.915 17.2724 137.476 17.2704 137.476 17.5799V24.8399C137.476 25.151 136.915 25.1538 136.915 24.8435Z" fill="#F56F18"/>
<path d="M137.899 23.5211V18.9255C137.899 18.6143 138.462 18.612 138.462 18.9223V23.5171C138.462 23.8282 137.899 23.831 137.899 23.5211Z" fill="#F56F18"/>
<path d="M138.884 23.0683V19.3978C138.884 19.0863 139.447 19.0839 139.447 19.3938V23.0643C139.447 23.3758 138.884 23.3782 138.884 23.0683Z" fill="#F56F18"/>
<path d="M139.869 24.964V17.5205C139.869 17.2097 140.431 17.2069 140.431 17.5177V24.96C140.431 25.2711 139.869 25.2739 139.869 24.964Z" fill="#F56F18"/>
<path d="M140.855 26.0338V16.4701C140.855 16.1586 141.416 16.1554 141.416 16.4661V26.0307C141.416 26.3418 140.855 26.3442 140.855 26.0338Z" fill="#F56F18"/>
<path d="M141.839 28.7218V13.8001C141.839 13.4894 142.402 13.4866 142.402 13.7973V28.7182C142.402 29.0293 141.839 29.0325 141.839 28.7218Z" fill="#F56F18"/>
<path d="M142.824 24.7326V17.8089C142.824 17.4973 143.386 17.4953 143.386 17.8049V24.7286C143.386 25.0401 142.824 25.0425 142.824 24.7326Z" fill="#F56F18"/>
<path d="M143.809 18.3068C143.809 17.996 144.371 17.9932 144.371 18.304V24.2499C144.371 24.5611 143.809 24.5639 143.809 24.2539V18.3068Z" fill="#F56F18"/>
<path d="M144.794 24.3081V18.2717C144.794 17.9601 145.357 17.9569 145.357 18.2677V24.3045C145.357 24.6157 144.794 24.6189 144.794 24.3081Z" fill="#F56F18"/>
<path d="M145.779 29.9493V12.6489C145.779 12.3373 146.342 12.3341 146.342 12.6449V29.9461C146.342 30.2572 145.779 30.2596 145.779 29.9493Z" fill="#F56F18"/>
<path d="M146.764 26.9494V15.6683C146.764 15.3567 147.326 15.3535 147.326 15.6643V26.9454C147.326 27.2569 146.764 27.2593 146.764 26.9494Z" fill="#F56F18"/>
<path d="M147.748 28.2598V14.3762C147.748 14.0654 148.311 14.0627 148.311 14.373V28.2563C148.311 28.5674 147.748 28.5698 147.748 28.2598Z" fill="#F56F18"/>
<path d="M148.734 33.0377V9.61707C148.734 9.3063 149.297 9.30351 149.297 9.61308V33.0345C149.297 33.3457 148.734 33.3481 148.734 33.0377Z" fill="#F56F18"/>
<path d="M149.719 38.4921V4.18177C149.719 3.87021 150.281 3.86702 150.281 4.17778V38.4882C150.281 38.7997 149.719 38.8029 149.719 38.4921Z" fill="#F56F18"/>
<path d="M150.764 34.8341V4.696C150.764 4.38444 151.326 4.38125 151.326 4.69201V34.8309C151.326 35.142 150.764 35.1448 150.764 34.8341Z" fill="#F56F18"/>
<path d="M151.748 29.838V9.71081C151.748 9.40005 152.311 9.39726 152.311 9.70802V29.834C152.311 30.1451 151.748 30.1479 151.748 29.838Z" fill="#F56F18"/>
<path d="M152.734 28.2084V11.3596C152.734 11.048 153.296 11.0448 153.296 11.3556V28.2052C153.296 28.5164 152.734 28.5187 152.734 28.2084Z" fill="#F56F18"/>
<path d="M153.718 26.5708V13.0163C153.718 12.7047 154.281 12.7015 154.281 13.0123V26.5672C154.281 26.8784 153.718 26.8816 153.718 26.5708Z" fill="#F56F18"/>
<path d="M154.704 25.3928V14.2123C154.704 13.9015 155.266 13.8987 155.266 14.2095V25.3896C155.266 25.7008 154.704 25.7036 154.704 25.3928Z" fill="#F56F18"/>
<path d="M155.688 30.1344V9.4898C155.688 9.17904 156.251 9.17625 156.251 9.48701V30.1312C156.251 30.4423 155.688 30.4447 155.688 30.1344Z" fill="#F56F18"/>
<path d="M156.674 25.1538V14.4899C156.674 14.1783 157.236 14.1751 157.236 14.4859V25.1507C157.236 25.4618 156.674 25.4646 156.674 25.1538Z" fill="#F56F18"/>
<path d="M157.658 10.0455C157.658 9.73475 158.221 9.73196 158.221 10.0427V29.613C158.221 29.9241 157.658 29.9265 157.658 29.6166V10.0455Z" fill="#F56F18"/>
<path d="M158.643 14.0068C158.643 13.696 159.206 13.6932 159.206 14.004V25.6708C159.206 25.982 158.643 25.9848 158.643 25.6748V14.0068Z" fill="#F56F18"/>
<path d="M159.628 24.7437V14.9562C159.628 14.6455 160.191 14.6427 160.191 14.9534V24.7402C160.191 25.0513 159.628 25.0545 159.628 24.7437Z" fill="#F56F18"/>
<path d="M160.613 26.0187V13.7008C160.613 13.3893 161.176 13.3861 161.176 13.6968V26.0151C161.176 26.3263 160.613 26.3291 160.613 26.0187Z" fill="#F56F18"/>
<path d="M161.599 25.1893V14.5493C161.599 14.2378 162.16 14.235 162.16 14.5453V25.1861C162.16 25.4973 161.599 25.4997 161.599 25.1893Z" fill="#F56F18"/>
<path d="M162.583 23.7337V16.0238C162.583 15.7122 163.146 15.709 163.146 16.0198V23.7301C163.146 24.0413 162.583 24.0437 162.583 23.7337Z" fill="#F56F18"/>
<path d="M163.569 24.2032V15.573C163.569 15.2614 164.131 15.2594 164.131 15.5698V24.1992C164.131 24.5108 163.569 24.5132 163.569 24.2032Z" fill="#F56F18"/>
<path d="M164.553 22.5154V17.2792C164.553 16.9684 165.116 16.9656 165.116 17.2764V22.5122C165.116 22.8234 164.553 22.8262 164.553 22.5154Z" fill="#F56F18"/>
<path d="M165.538 23.8873V15.9264C165.538 15.6157 166.1 15.6129 166.1 15.9232V23.8837C166.1 24.1948 165.538 24.198 165.538 23.8873Z" fill="#F56F18"/>
<path d="M166.523 24.6053V15.2267C166.523 14.9159 167.086 14.9132 167.086 15.2239V24.6013C167.086 24.9129 166.523 24.9153 166.523 24.6053Z" fill="#F56F18"/>
<path d="M167.508 24.9755V14.8764C167.508 14.5649 168.071 14.5617 168.071 14.8724V24.9719C168.071 25.2831 167.508 25.2859 167.508 24.9755Z" fill="#F56F18"/>
<path d="M168.493 23.8366V16.0345C168.493 15.7229 169.056 15.7198 169.056 16.0305V23.833C169.056 24.1442 168.493 24.1474 168.493 23.8366Z" fill="#F56F18"/>
<path d="M169.478 25.5647V14.3251C169.478 14.0136 170.041 14.0104 170.041 14.3211V25.5611C170.041 25.8723 169.478 25.8755 169.478 25.5647Z" fill="#F56F18"/>
<path d="M170.463 26.2616V13.6474C170.463 13.3358 171.026 13.333 171.026 13.6434V26.258C171.026 26.5692 170.463 26.572 170.463 26.2616Z" fill="#F56F18"/>
<path d="M171.448 26.5888V13.3382C171.448 13.0266 172.011 13.0235 172.011 13.3342V26.5848C172.011 26.8959 171.448 26.8991 171.448 26.5888Z" fill="#F56F18"/>
<path d="M172.433 29.4243V10.5218C172.433 10.2111 172.995 10.2083 172.995 10.519V29.4203C172.995 29.7319 172.433 29.7342 172.433 29.4243Z" fill="#F56F18"/>
<path d="M173.418 24.4685V15.4968C173.418 15.186 173.981 15.1832 173.981 15.494V24.4653C173.981 24.7765 173.418 24.7789 173.418 24.4685Z" fill="#F56F18"/>
<path d="M174.403 32.9611V7.0225C174.403 6.71173 174.965 6.70894 174.965 7.0197V32.9579C174.965 33.2691 174.403 33.2719 174.403 32.9611Z" fill="#F56F18"/>
<path d="M175.388 39.7687V0.234467C175.388 -0.0762939 175.951 -0.0790825 175.951 0.231674V39.7651C175.951 40.0763 175.388 40.0791 175.388 39.7687Z" fill="#F56F18"/>
<path d="M176.373 30.3957V9.62706C176.373 9.3155 176.936 9.31351 176.936 9.62307V30.3921C176.936 30.7032 176.373 30.7056 176.373 30.3957Z" fill="#F56F18"/>
<path d="M177.359 34.4938V5.54808C177.359 5.23653 177.921 5.23333 177.921 5.54409V34.4898C177.921 34.8013 177.359 34.8037 177.359 34.4938Z" fill="#F56F18"/>
<path d="M178.343 31.7663V8.29345C178.343 7.98189 178.906 7.97989 178.906 8.28946V31.7628C178.906 32.0739 178.343 32.0767 178.343 31.7663Z" fill="#F56F18"/>
<path d="M179.328 28.21V11.869C179.328 11.5582 179.891 11.5554 179.891 11.8662V28.206C179.891 28.5175 179.328 28.5199 179.328 28.21Z" fill="#F56F18"/>
<path d="M180.313 26.9187V13.1799C180.313 12.8683 180.876 12.8651 180.876 13.1759V26.9151C180.876 27.2263 180.313 27.229 180.313 26.9187Z" fill="#F56F18"/>
<path d="M181.298 28.8175V11.2989C181.298 10.9874 181.861 10.9854 181.861 11.2949V28.8139C181.861 29.1251 181.298 29.1279 181.298 28.8175Z" fill="#F56F18"/>
<path d="M182.283 16.3062C182.283 15.9954 182.846 15.9926 182.846 16.3034V23.8262C182.846 24.1374 182.283 24.1402 182.283 23.8302V16.3062Z" fill="#F56F18"/>
<path d="M183.268 28.3352V11.8195C183.268 11.5088 183.831 11.506 183.831 11.8167V28.332C183.831 28.6432 183.268 28.646 183.268 28.3352Z" fill="#F56F18"/>
<path d="M184.253 23.6734V16.5C184.253 16.1893 184.815 16.1865 184.815 16.4972V23.6702C184.815 23.9814 184.253 23.9838 184.253 23.6734Z" fill="#F56F18"/>
<path d="M185.238 25.2472V14.9455C185.238 14.6339 185.801 14.6307 185.801 14.9415V25.2436C185.801 25.5548 185.238 25.558 185.238 25.2472Z" fill="#F56F18"/>
<path d="M186.223 24.3021V15.9096C186.223 15.5981 186.785 15.5961 186.785 15.9056V24.2981C186.785 24.6097 186.223 24.6121 186.223 24.3021Z" fill="#F56F18"/>
<path d="M187.208 23.8466V16.3839C187.208 16.0724 187.771 16.0692 187.771 16.38V23.8426C187.771 24.1537 187.208 24.1569 187.208 23.8466Z" fill="#F56F18"/>
<path d="M188.193 21.9234V18.3263C188.193 18.0147 188.755 18.0127 188.755 18.3223V21.9202C188.755 22.2313 188.193 22.2337 188.193 21.9234Z" fill="#F56F18"/>
<path d="M189.178 25.7239V14.545C189.178 14.2334 189.741 14.2302 189.741 14.541V25.7195C189.741 26.0307 189.178 26.0339 189.178 25.7239Z" fill="#F56F18"/>
<path d="M190.163 22.9103V17.3773C190.163 17.0657 190.725 17.0625 190.725 17.3733V22.9067C190.725 23.2179 190.163 23.2211 190.163 22.9103Z" fill="#F56F18"/>
<path d="M191.148 23.6918V16.6137C191.148 16.303 191.711 16.3002 191.711 16.6109V23.6886C191.711 23.9998 191.148 24.0025 191.148 23.6918Z" fill="#F56F18"/>
<path d="M192.133 17.7886C192.133 17.477 192.695 17.4738 192.695 17.7846V22.5337C192.695 22.8449 192.133 22.8477 192.133 22.5373V17.7886Z" fill="#F56F18"/>
<path d="M193.118 22.1735V18.1711C193.118 17.8596 193.68 17.8568 193.68 18.1672V22.1699C193.68 22.4811 193.118 22.4839 193.118 22.1735Z" fill="#F56F18"/>
<path d="M194.103 23.5761V16.7873C194.103 16.4757 194.665 16.4725 194.665 16.7833V23.5725C194.665 23.8837 194.103 23.8869 194.103 23.5761Z" fill="#F56F18"/>
<path d="M195.088 22.288V18.0942C195.088 17.7826 195.65 17.7794 195.65 18.0902V22.2844C195.65 22.5956 195.088 22.5988 195.088 22.288Z" fill="#F56F18"/>
<path d="M196.073 25.9924V14.4089C196.073 14.0973 196.635 14.0942 196.635 14.4049V25.9888C196.635 26.2999 196.073 26.3031 196.073 25.9924Z" fill="#F56F18"/>
<path d="M197.058 25.2616V15.1589C197.058 14.8473 197.62 14.8441 197.62 15.1549V25.258C197.62 25.5691 197.058 25.5719 197.058 25.2616Z" fill="#F56F18"/>
<path d="M198.043 26.4388V13.9996C198.043 13.6889 198.606 13.6861 198.606 13.9968V26.4356C198.606 26.7467 198.043 26.7495 198.043 26.4388Z" fill="#F56F18"/>
<path d="M199.028 24.4988V15.9595C199.028 15.648 199.59 15.6448 199.59 15.9555V24.4952C199.59 24.8064 199.028 24.8088 199.028 24.4988Z" fill="#F56F18"/>
<path d="M200.014 24.9564V15.5199C200.014 15.2091 200.576 15.2063 200.576 15.5171V24.9524C200.576 25.2635 200.014 25.2663 200.014 24.9564Z" fill="#F56F18"/>
<path d="M200.998 28.8279V11.6671C200.998 11.3564 201.561 11.3536 201.561 11.6643V28.8243C201.561 29.1355 200.998 29.1383 200.998 28.8279Z" fill="#F56F18"/>
<path d="M201.983 27.3842V13.1304C201.983 12.8196 202.546 12.8168 202.546 13.1276V27.381C202.546 27.6922 201.983 27.695 201.983 27.3842Z" fill="#F56F18"/>
<path d="M202.968 30.9805V9.55404C202.968 9.24248 203.531 9.23929 203.531 9.55005V30.9769C203.531 31.288 202.968 31.2912 202.968 30.9805Z" fill="#F56F18"/>
<path d="M203.953 28.5072V12.0453C203.953 11.7337 204.516 11.7317 204.516 12.0413V28.5036C204.516 28.8147 203.953 28.8179 203.953 28.5072Z" fill="#F56F18"/>
<path d="M204.938 27.9611V12.6102C204.938 12.2994 205.501 12.2966 205.501 12.6074V27.9579C205.501 28.269 204.938 28.2718 204.938 27.9611Z" fill="#F56F18"/>
<path d="M205.923 29.394V11.196C205.923 10.8853 206.486 10.8825 206.486 11.1932V29.3904C206.486 29.702 205.923 29.7047 205.923 29.394Z" fill="#F56F18"/>
<path d="M206.908 31.3064V9.30234C206.908 8.99158 207.47 8.98879 207.47 9.29955V31.3032C207.47 31.6144 206.908 31.6168 206.908 31.3064Z" fill="#F56F18"/>
<path d="M207.893 14.2074C207.893 13.8959 208.456 13.8939 208.456 14.2035V26.4172C208.456 26.7288 207.893 26.7312 207.893 26.4212V14.2074Z" fill="#F56F18"/>
<path d="M208.878 29.3421V11.3049C208.878 10.9934 209.44 10.9914 209.44 11.3009V29.3385C209.44 29.6497 208.878 29.6525 208.878 29.3421Z" fill="#F56F18"/>
<path d="M209.863 30.8078V9.85843C209.863 9.54688 210.426 9.54369 210.426 9.85445V30.8046C210.426 31.1157 209.863 31.1181 209.863 30.8078Z" fill="#F56F18"/>
<path d="M210.848 25.2248V15.4597C210.848 15.1489 211.41 15.1461 211.41 15.4569V25.2212C211.41 25.5324 210.848 25.5356 210.848 25.2248Z" fill="#F56F18"/>
<path d="M211.833 25.4315V15.273C211.833 14.9614 212.396 14.9582 212.396 15.269V25.4279C212.396 25.7391 211.833 25.7423 211.833 25.4315Z" fill="#F56F18"/>
<path d="M212.818 26.422V14.3012C212.818 13.9896 213.38 13.9877 213.38 14.2972V26.4188C213.38 26.73 212.818 26.7328 212.818 26.422Z" fill="#F56F18"/>
<path d="M213.803 23.5558V17.1866C213.803 16.8751 214.365 16.8719 214.365 17.1826V23.5518C214.365 23.8629 213.803 23.8657 213.803 23.5558Z" fill="#F56F18"/>
<path d="M214.788 15.2826C214.788 14.9718 215.35 14.969 215.35 15.2798V25.475C215.35 25.7857 214.788 25.7885 214.788 25.4786V15.2826Z" fill="#F56F18"/>
<path d="M215.773 22.4719V18.3072C215.773 17.9964 216.335 17.9936 216.335 18.3044V22.4683C216.335 22.7795 215.773 22.7819 215.773 22.4719Z" fill="#F56F18"/>
<path d="M216.758 17.7116C216.758 17.4008 217.32 17.398 217.32 17.7088V23.0835C217.32 23.3946 216.758 23.3978 216.758 23.0874V17.7116Z" fill="#F56F18"/>
<path d="M217.743 23.8549V16.9624C217.743 16.6508 218.305 16.6488 218.305 16.9584V23.8513C218.305 24.1625 217.743 24.1657 217.743 23.8549Z" fill="#F56F18"/>
<path d="M218.728 23.9471V16.8898C218.728 16.579 219.29 16.5762 219.29 16.8858V23.9439C219.29 24.2551 218.728 24.2575 218.728 23.9471Z" fill="#F56F18"/>
<path d="M219.713 23.1983V17.6569C219.713 17.3461 220.275 17.3434 220.275 17.6541V23.1947C220.275 23.5059 219.713 23.5091 219.713 23.1983Z" fill="#F56F18"/>
<path d="M220.698 22.8533V18.0211C220.698 17.7096 221.261 17.7076 221.261 18.0172V22.8497C221.261 23.1608 220.698 23.164 220.698 22.8533Z" fill="#F56F18"/>
<path d="M221.683 24.9332V15.9603C221.683 15.6487 222.245 15.6467 222.245 15.9563V24.9296C222.245 25.2408 221.683 25.2432 221.683 24.9332Z" fill="#F56F18"/>
<path d="M222.668 26.5752V14.3367C222.668 14.026 223.23 14.0232 223.23 14.3327V26.5716C223.23 26.8828 222.668 26.886 222.668 26.5752Z" fill="#F56F18"/>
<path d="M223.653 27.1205V13.8109C223.653 13.4994 224.216 13.4962 224.216 13.8069V27.1169C224.216 27.4281 223.653 27.4309 223.653 27.1205Z" fill="#F56F18"/>
<path d="M224.638 13.4164C224.638 13.1056 225.201 13.1028 225.201 13.4136V27.5302C225.201 27.8414 224.638 27.8438 224.638 27.5338V13.4164Z" fill="#F56F18"/>
<path d="M225.623 25.3932V15.5753C225.623 15.2638 226.186 15.2618 226.186 15.5726V25.3896C226.186 25.7008 225.623 25.7032 225.623 25.3932Z" fill="#F56F18"/>
<path d="M226.608 29.7239V11.2642C226.608 10.9534 227.171 10.9507 227.171 11.2614V29.7207C227.171 30.0318 226.608 30.0346 226.608 29.7239Z" fill="#F56F18"/>
<path d="M227.592 9.16228C227.592 8.85073 228.155 8.84753 228.155 9.15829V31.8413C228.155 32.1525 227.592 32.1553 227.592 31.8449V9.16228Z" fill="#F56F18"/>
<path d="M228.578 26.4671V14.5589C228.578 14.2474 229.141 14.2442 229.141 14.5549V26.4635C229.141 26.7747 228.578 26.7779 228.578 26.4671Z" fill="#F56F18"/>
<path d="M229.562 33.38V7.66555C229.562 7.35399 230.125 7.3508 230.125 7.66156V33.3768C230.125 33.688 229.562 33.6903 229.562 33.38Z" fill="#F56F18"/>
<path d="M230.548 37.6704V3.39391C230.548 3.08315 231.111 3.08036 231.111 3.39112V37.666C231.111 37.9775 230.548 37.9803 230.548 37.6704Z" fill="#F56F18"/>
<path d="M231.532 38.3657V2.71815C231.532 2.40659 232.095 2.4034 232.095 2.71416V38.3621C232.095 38.6733 231.532 38.6757 231.532 38.3657Z" fill="#F56F18"/>
<path d="M232.518 38.9525V2.14926C232.518 1.8385 233.081 1.83571 233.081 2.14647V38.9489C233.081 39.2601 232.518 39.2629 232.518 38.9525Z" fill="#F56F18"/>
<path d="M233.503 33.6812V7.43977C233.503 7.12901 234.065 7.12621 234.065 7.43697V33.6776C234.065 33.9887 233.503 33.9919 233.503 33.6812Z" fill="#F56F18"/>
<path d="M234.488 38.6262V2.51347C234.488 2.20272 235.051 2.19992 235.051 2.51068V38.6226C235.051 38.9337 234.488 38.9361 234.488 38.6262Z" fill="#F56F18"/>
<path d="M235.473 30.489V10.6698C235.473 10.3583 236.035 10.3551 236.035 10.6658V30.4854C236.035 30.7966 235.473 30.799 235.473 30.489Z" fill="#F56F18"/>
<path d="M236.457 10.9902C236.457 10.6786 237.02 10.6754 237.02 10.9862V30.1843C237.02 30.4954 236.457 30.4982 236.457 30.1878V10.9902Z" fill="#F56F18"/>
<path d="M237.443 28.3121V12.8846C237.443 12.5731 238.006 12.5699 238.006 12.8807V28.3085C238.006 28.6197 237.443 28.6229 237.443 28.3121Z" fill="#F56F18"/>
<path d="M238.428 13.9641C238.428 13.6526 238.99 13.6506 238.99 13.9601V27.249C238.99 27.5601 238.428 27.5625 238.428 27.2526V13.9641Z" fill="#F56F18"/>
<path d="M239.413 28.6117V12.6229C239.413 12.3114 239.975 12.3082 239.975 12.6189V28.6085C239.975 28.9196 239.413 28.9224 239.413 28.6117Z" fill="#F56F18"/>
<path d="M240.398 23.2921V17.9609C240.398 17.6501 240.959 17.6474 240.959 17.9581V23.2889C240.959 23.6001 240.398 23.6028 240.398 23.2921Z" fill="#F56F18"/>
<path d="M241.383 16.8176C241.383 16.506 241.946 16.5029 241.946 16.8136V24.4518C241.946 24.7629 241.383 24.7657 241.383 24.4553V16.8176Z" fill="#F56F18"/>
<path d="M242.368 23.9272V17.3649C242.368 17.0534 242.93 17.0506 242.93 17.3609V23.9232C242.93 24.2343 242.368 24.2375 242.368 23.9272Z" fill="#F56F18"/>
<path d="M243.352 23.1257V18.1851C243.352 17.8735 243.915 17.8703 243.915 18.1811V23.1221C243.915 23.4333 243.352 23.4357 243.352 23.1257Z" fill="#F56F18"/>
<path d="M244.337 23.1201V18.2082C244.337 17.8975 244.9 17.8947 244.9 18.2054V23.1169C244.9 23.4281 244.337 23.4305 244.337 23.1201Z" fill="#F56F18"/>
<path d="M245.323 23.6491V17.6988C245.323 17.3873 245.885 17.3845 245.885 17.6948V23.6455C245.885 23.9567 245.323 23.9595 245.323 23.6491Z" fill="#F56F18"/>
<path d="M246.308 23.8538V17.5129C246.308 17.2022 246.87 17.1994 246.87 17.5097V23.8502C246.87 24.1613 246.308 24.1641 246.308 23.8538Z" fill="#F56F18"/>
<path d="M247.292 23.7712V17.6138C247.292 17.3031 247.855 17.3003 247.855 17.611V23.7676C247.855 24.0787 247.292 24.0811 247.292 23.7712Z" fill="#F56F18"/>
<path d="M248.278 24.5603V16.8447C248.278 16.5332 248.839 16.53 248.839 16.8407V24.5567C248.839 24.8678 248.278 24.8706 248.278 24.5603Z" fill="#F56F18"/>
<path d="M249.263 23.8219V17.6023C249.263 17.2907 249.825 17.2875 249.825 17.5983V23.8179C249.825 24.129 249.263 24.1322 249.263 23.8219Z" fill="#F56F18"/>
<path d="M250.247 24.2666V17.1762C250.247 16.8655 250.81 16.8627 250.81 17.1722V24.2635C250.81 24.575 250.247 24.5778 250.247 24.2666Z" fill="#F56F18"/>
<path d="M251.232 26.039V15.4217C251.232 15.111 251.795 15.1082 251.795 15.419V26.0358C251.795 26.347 251.232 26.3498 251.232 26.039Z" fill="#F56F18"/>
<path d="M252.218 23.7157V17.765C252.218 17.4535 252.78 17.4515 252.78 17.7611V23.7122C252.78 24.0233 252.218 24.0261 252.218 23.7157Z" fill="#F56F18"/>
<path d="M253.203 25.8823V15.6164C253.203 15.3057 253.765 15.3029 253.765 15.6136V25.8787C253.765 26.1898 253.203 26.193 253.203 25.8823Z" fill="#F56F18"/>
<path d="M254.187 27.6977V13.8209C254.187 13.5101 254.75 13.5073 254.75 13.8181V27.6945C254.75 28.0057 254.187 28.0081 254.187 27.6977Z" fill="#F56F18"/>
<path d="M255.172 26.1065V15.4317C255.172 15.1202 255.734 15.117 255.734 15.4278V26.1029C255.734 26.414 255.172 26.4172 255.172 26.1065Z" fill="#F56F18"/>
<path d="M256.158 26.282V15.2745C256.158 14.963 256.721 14.9602 256.721 15.2706V26.2784C256.721 26.5895 256.158 26.5923 256.158 26.282Z" fill="#F56F18"/>
<path d="M257.143 28.4545V13.1204C257.143 12.8096 257.705 12.8069 257.705 13.1172V28.4505C257.705 28.7617 257.143 28.7645 257.143 28.4545Z" fill="#F56F18"/>
<path d="M258.128 33.1849V8.40953C258.128 8.09797 258.69 8.09598 258.69 8.40554V33.1813C258.69 33.4925 258.128 33.4957 258.128 33.1849Z" fill="#F56F18"/>
<path d="M259.112 32.4238V9.18981C259.112 8.87825 259.675 8.87626 259.675 9.18582V32.4202C259.675 32.7313 259.112 32.7345 259.112 32.4238Z" fill="#F56F18"/>
<path d="M260.098 34.9266V6.70617C260.098 6.39461 260.661 6.39181 260.661 6.70217V34.9226C260.661 35.2338 260.098 35.2366 260.098 34.9266Z" fill="#F56F18"/>
<path d="M261.083 26.9769V14.6738C261.083 14.363 261.645 14.3602 261.645 14.671V26.9737C261.645 27.2849 261.083 27.2873 261.083 26.9769Z" fill="#F56F18"/>
<path d="M262.068 31.3315V10.3391C262.068 10.0275 262.63 10.0244 262.63 10.3351V31.3279C262.63 31.6391 262.068 31.6419 262.068 31.3315Z" fill="#F56F18"/>
<path d="M263.053 28.0604V13.6286C263.053 13.317 263.614 13.3139 263.614 13.6246V28.0568C263.614 28.3679 263.053 28.3707 263.053 28.0604Z" fill="#F56F18"/>
<path d="M264.038 15.5837C264.038 15.273 264.601 15.2702 264.601 15.581V26.1208C264.601 26.4324 264.038 26.4352 264.038 26.1244V15.5837Z" fill="#F56F18"/>
<path d="M265.023 29.303V12.4239C265.023 12.1123 265.585 12.1091 265.585 12.4199V29.2994C265.585 29.6106 265.023 29.6134 265.023 29.303Z" fill="#F56F18"/>
<path d="M266.007 25.5739V16.1717C266.007 15.8602 266.57 15.8582 266.57 16.1678V25.5707C266.57 25.8819 266.007 25.8843 266.007 25.5739Z" fill="#F56F18"/>
<path d="M266.993 24.3026V17.4623C266.993 17.1507 267.554 17.1487 267.554 17.4583V24.299C267.554 24.6101 266.993 24.6129 266.993 24.3026Z" fill="#F56F18"/>
<path d="M267.978 14.7005C267.978 14.389 268.54 14.3858 268.54 14.6965V27.0806C268.54 27.3922 267.978 27.395 267.978 27.0846V14.7005Z" fill="#F56F18"/>
<path d="M268.963 25.4754V16.3277C268.963 16.0162 269.525 16.0134 269.525 16.3237V25.4718C269.525 25.783 268.963 25.7854 268.963 25.4754Z" fill="#F56F18"/>
<path d="M269.947 26.442V15.3803C269.947 15.0687 270.51 15.0655 270.51 15.3763V26.4388C270.51 26.7499 269.947 26.7523 269.947 26.442Z" fill="#F56F18"/>
<path d="M270.933 18.5892C270.933 18.2776 271.495 18.2745 271.495 18.586V23.2482C271.495 23.5594 270.933 23.5622 270.933 23.2522V18.5892Z" fill="#F56F18"/>
<path d="M271.918 26.0921V15.7664C271.918 15.4557 272.48 15.4529 272.48 15.7636V26.0885C272.48 26.3997 271.918 26.4029 271.918 26.0921Z" fill="#F56F18"/>
<path d="M272.902 22.1731V19.7054C272.902 19.3942 273.465 19.3914 273.465 19.7018V22.1695C273.465 22.4807 272.902 22.4835 272.902 22.1731Z" fill="#F56F18"/>
<path d="M273.887 22.7152V19.1824C273.887 18.8712 274.45 18.8688 274.45 19.1792V22.712C274.45 23.0232 273.887 23.0256 273.887 22.7152Z" fill="#F56F18"/>
<path d="M274.873 22.8828V19.0336C274.873 18.7224 275.434 18.7192 275.434 19.03V22.8788C275.434 23.1899 274.873 23.1935 274.873 22.8828Z" fill="#F56F18"/>
<path d="M275.858 18.2094C275.858 17.8987 276.42 17.8959 276.42 18.2066V23.7225C276.42 24.0341 275.858 24.0369 275.858 23.7261V18.2094Z" fill="#F56F18"/>
<path d="M276.842 23.991V17.9637C276.842 17.6521 277.405 17.6489 277.405 17.9597V23.987C277.405 24.2981 276.842 24.3009 276.842 23.991Z" fill="#F56F18"/>
<path d="M277.827 26.8899V15.0839C277.827 14.7723 278.389 14.7691 278.389 15.0799V26.8859C278.389 27.1971 277.827 27.2003 277.827 26.8899Z" fill="#F56F18"/>
<path d="M278.813 23.8426V18.15C278.813 17.8384 279.376 17.8352 279.376 18.146V23.839C279.376 24.1502 278.813 24.1533 278.813 23.8426Z" fill="#F56F18"/>
<path d="M279.797 28.2335V13.7782C279.797 13.4667 280.36 13.4635 280.36 13.7742V28.2303C280.36 28.5415 279.797 28.5439 279.797 28.2335Z" fill="#F56F18"/>
<path d="M280.783 25.8627V16.1669C280.783 15.8562 281.345 15.8534 281.345 16.163V25.8591C281.345 26.1703 280.783 26.1735 280.783 25.8627Z" fill="#F56F18"/>
<path d="M281.767 24.5012V17.5468C281.767 17.2361 282.33 17.2333 282.33 17.5436V24.4976C282.33 24.8088 281.767 24.812 281.767 24.5012Z" fill="#F56F18"/>
<path d="M282.753 27.8589V14.2095C282.753 13.8979 283.316 13.8947 283.316 14.2055V27.8554C283.316 28.1665 282.753 28.1689 282.753 27.8589Z" fill="#F56F18"/>
<path d="M283.738 30.7874V11.2993C283.738 10.9878 284.3 10.9858 284.3 11.2953V30.7842C284.3 31.0954 283.738 31.0982 283.738 30.7874Z" fill="#F56F18"/>
<path d="M284.722 28.3668V13.7387C284.722 13.428 285.285 13.4252 285.285 13.7347V28.3632C285.285 28.6743 284.722 28.6775 284.722 28.3668Z" fill="#F56F18"/>
<path d="M285.707 16.0724C285.707 15.7617 286.27 15.7589 286.27 16.0696V26.0486C286.27 26.3598 285.707 26.3626 285.707 26.0526V16.0724Z" fill="#F56F18"/>
<path d="M286.693 31.6251V10.5182C286.693 10.2075 287.256 10.2047 287.256 10.5154V31.6215C287.256 31.9327 286.693 31.9355 286.693 31.6251Z" fill="#F56F18"/>
<path d="M287.678 34.1124V8.05012C287.678 7.73857 288.24 7.73537 288.24 8.04613V34.1092C288.24 34.4204 287.678 34.4228 287.678 34.1124Z" fill="#F56F18"/>
<path d="M288.662 3.27184C288.662 2.96028 289.225 2.95829 289.225 3.26785V38.9062C289.225 39.2174 288.662 39.2198 288.662 38.9098V3.27184Z" fill="#F56F18"/>
<path d="M289.648 27.6423V14.5581C289.648 14.2474 290.21 14.2446 290.21 14.5541V27.6387C290.21 27.9499 289.648 27.9531 289.648 27.6423Z" fill="#F56F18"/>
<path d="M290.633 30.1535V12.0657C290.633 11.7549 291.195 11.7521 291.195 12.0617V30.1499C291.195 30.4611 290.633 30.4643 290.633 30.1535Z" fill="#F56F18"/>
<path d="M291.618 35.0674V7.17088C291.618 6.86012 292.18 6.85733 292.18 7.16769V35.0638C292.18 35.375 291.618 35.3778 291.618 35.0674Z" fill="#F56F18"/>
<path d="M292.602 26.0833V16.1737C292.602 15.8622 293.165 15.8602 293.165 16.1697V26.0797C293.165 26.3909 292.602 26.3937 292.602 26.0833Z" fill="#F56F18"/>
<path d="M293.588 24.9935V17.2827C293.588 16.9712 294.15 16.968 294.15 17.2787V24.9899C294.15 25.301 293.588 25.3038 293.588 24.9935Z" fill="#F56F18"/>
<path d="M294.573 25.0653V17.2297C294.573 16.9189 295.135 16.9161 295.135 17.2269V25.0621C295.135 25.3733 294.573 25.3757 294.573 25.0653Z" fill="#F56F18"/>
<path d="M295.557 24.6217V17.6924C295.557 17.3817 296.12 17.3789 296.12 17.6892V24.6181C296.12 24.9293 295.557 24.9316 295.557 24.6217Z" fill="#F56F18"/>
<path d="M296.542 26.2102V16.1231C296.542 15.8123 297.105 15.8095 297.105 16.1191V26.2066C297.105 26.5177 296.542 26.5205 296.542 26.2102Z" fill="#F56F18"/>
<path d="M297.528 26.1918V16.1598C297.528 15.8482 298.089 15.845 298.089 16.1558V26.1883C298.089 26.4994 297.528 26.5018 297.528 26.1918Z" fill="#F56F18"/>
<path d="M298.513 23.2199V19.1505C298.513 18.8393 299.075 18.8361 299.075 19.1469V23.2163C299.075 23.5274 298.513 23.5306 298.513 23.2199Z" fill="#F56F18"/>
<path d="M299.497 23.9467V18.444C299.497 18.1325 300.06 18.1293 300.06 18.44V23.9427C300.06 24.2539 299.497 24.2571 299.497 23.9467Z" fill="#F56F18"/>
<path d="M300.482 17.2137C300.482 16.903 301.044 16.9002 301.044 17.2109V25.191C301.044 25.5025 300.482 25.5049 300.482 25.1949V17.2137Z" fill="#F56F18"/>
<path d="M301.468 24.8435V17.5839C301.468 17.2724 302.029 17.2704 302.029 17.5799V24.8399C302.029 25.151 301.468 25.1538 301.468 24.8435Z" fill="#F56F18"/>
<path d="M302.452 23.5211V18.9255C302.452 18.6143 303.015 18.612 303.015 18.9223V23.5171C303.015 23.8282 302.452 23.831 302.452 23.5211Z" fill="#F56F18"/>
<path d="M303.437 23.0683V19.3978C303.437 19.0863 304 19.0839 304 19.3938V23.0643C304 23.3758 303.437 23.3782 303.437 23.0683Z" fill="#F56F18"/>
</svg>
