<svg width="1440" height="460" viewBox="0 0 1440 460" fill="none" xmlns="http://www.w3.org/2000/svg">
<path d="M-254 59.4083V405.996C-254 409.579 -250.842 409.616 -250.842 406.042V59.445C-250.842 55.8666 -254 55.8345 -254 59.4083Z" fill="#212931"/>
<path d="M-248.473 116.863V348.326C-248.473 351.899 -245.314 351.931 -245.314 348.358V116.909C-245.314 113.331 -248.473 113.299 -248.473 116.863Z" fill="#212931"/>
<path d="M-242.94 135.604V329.365C-242.94 332.948 -239.781 332.985 -239.781 329.411V135.64C-239.781 132.062 -242.94 132.034 -242.94 135.604Z" fill="#212931"/>
<path d="M-237.412 154.436V310.313C-237.412 313.896 -234.254 313.932 -234.254 310.359V154.477C-234.254 150.899 -237.412 150.867 -237.412 154.44V154.436Z" fill="#212931"/>
<path d="M-231.879 167.983V296.559C-231.879 300.133 -228.721 300.165 -228.721 296.591V168.019C-228.721 164.441 -231.879 164.409 -231.879 167.983Z" fill="#212931"/>
<path d="M-226.352 113.455V350.867C-226.352 354.441 -223.194 354.473 -223.194 350.899V113.492C-223.194 109.913 -226.352 109.886 -226.352 113.455Z" fill="#212931"/>
<path d="M-220.819 170.731V293.366C-220.819 296.949 -217.66 296.986 -217.66 293.412V170.767C-217.66 167.189 -220.819 167.157 -220.819 170.731Z" fill="#212931"/>
<path d="M-215.291 344.477C-215.291 348.05 -212.133 348.082 -212.133 344.509V119.451C-212.133 115.872 -215.291 115.845 -215.291 119.409V344.477Z" fill="#212931"/>
<path d="M-209.761 298.922C-209.761 302.496 -206.603 302.528 -206.603 298.954V164.786C-206.603 161.207 -209.761 161.175 -209.761 164.74V298.922Z" fill="#212931"/>
<path d="M-204.231 175.447V288.003C-204.231 291.577 -201.073 291.609 -201.073 288.036V175.488C-201.073 171.91 -204.231 171.873 -204.231 175.447Z" fill="#212931"/>
<path d="M-198.701 160.785V302.441C-198.701 306.023 -195.542 306.06 -195.542 302.486V160.826C-195.542 157.248 -198.701 157.22 -198.701 160.79V160.785Z" fill="#212931"/>
<path d="M-193.168 170.323V292.683C-193.168 296.266 -190.015 296.298 -190.015 292.729V170.359C-190.015 166.781 -193.168 166.754 -193.168 170.323Z" fill="#212931"/>
<path d="M-187.64 187.062V275.727C-187.64 279.31 -184.482 279.346 -184.482 275.773V187.104C-184.482 183.525 -187.64 183.498 -187.64 187.062Z" fill="#212931"/>
<path d="M-182.107 181.663V280.911C-182.107 284.494 -178.952 284.517 -178.952 280.948V181.709C-178.952 178.126 -182.107 178.098 -182.107 181.663Z" fill="#212931"/>
<path d="M-176.58 201.073V261.29C-176.58 264.863 -173.422 264.895 -173.422 261.322V201.11C-173.422 197.531 -176.58 197.499 -176.58 201.073Z" fill="#212931"/>
<path d="M-171.053 185.296V276.846C-171.053 280.42 -167.894 280.452 -167.894 276.883V185.338C-167.894 181.759 -171.053 181.727 -171.053 185.301V185.296Z" fill="#212931"/>
<path d="M-165.52 177.039V284.893C-165.52 288.467 -162.361 288.499 -162.361 284.925V177.085C-162.361 173.502 -165.52 173.474 -165.52 177.039Z" fill="#212931"/>
<path d="M-159.989 172.782V288.921C-159.989 292.504 -156.831 292.541 -156.831 288.967V172.823C-156.831 169.245 -159.989 169.217 -159.989 172.786V172.782Z" fill="#212931"/>
<path d="M-154.459 185.879V275.603C-154.459 279.186 -151.301 279.223 -151.301 275.649V185.92C-151.301 182.342 -154.459 182.31 -154.459 185.884V185.879Z" fill="#212931"/>
<path d="M-148.929 166.006V295.261C-148.929 298.844 -145.771 298.88 -145.771 295.307V166.047C-145.771 162.469 -148.929 162.436 -148.929 166.01V166.006Z" fill="#212931"/>
<path d="M-143.399 157.991V303.055C-143.399 306.638 -140.24 306.67 -140.24 303.101V158.033C-140.24 154.454 -143.399 154.427 -143.399 157.996V157.991Z" fill="#212931"/>
<path d="M-137.868 154.229V306.611C-137.868 310.194 -134.71 310.23 -134.71 306.657V154.275C-134.71 150.697 -137.868 150.665 -137.868 154.234V154.229Z" fill="#212931"/>
<path d="M-132.341 121.621V338.999C-132.341 342.573 -129.183 342.605 -129.183 339.031V121.667C-129.183 118.084 -132.341 118.056 -132.341 121.621Z" fill="#212931"/>
<path d="M-126.808 178.612V281.787C-126.808 285.361 -123.65 285.393 -123.65 281.819V178.649C-123.65 175.071 -126.808 175.043 -126.808 178.612Z" fill="#212931"/>
<path d="M-121.281 80.9471V379.241C-121.281 382.815 -118.122 382.847 -118.122 379.273V80.9838C-118.122 77.4055 -121.281 77.3734 -121.281 80.9471Z" fill="#212931"/>
<path d="M-115.748 2.65973V457.304C-115.748 460.877 -112.589 460.909 -112.589 457.336V2.70101C-112.589 -0.877306 -115.748 -0.909419 -115.748 2.65973Z" fill="#212931"/>
<path d="M-110.22 110.45V349.289C-110.22 352.872 -107.062 352.895 -107.062 349.335V110.491C-107.062 106.913 -110.22 106.885 -110.22 110.45Z" fill="#212931"/>
<path d="M-104.687 63.3216V396.197C-104.687 399.78 -101.529 399.817 -101.529 396.243V63.3675C-101.529 59.7845 -104.687 59.757 -104.687 63.3216Z" fill="#212931"/>
<path d="M-99.1599 94.687V364.625C-99.1599 368.208 -96.0016 368.231 -96.0016 364.671V94.7283C-96.0016 91.15 -99.1599 91.1179 -99.1599 94.687Z" fill="#212931"/>
<path d="M-93.6297 135.586V323.507C-93.6297 327.081 -90.4714 327.113 -90.4714 323.539V135.631C-90.4714 132.048 -93.6297 132.021 -93.6297 135.586Z" fill="#212931"/>
<path d="M-88.0995 150.435V308.432C-88.0995 312.015 -84.9411 312.051 -84.9411 308.478V150.476C-84.9411 146.898 -88.0995 146.871 -88.0995 150.44V150.435Z" fill="#212931"/>
<path d="M-82.5693 128.598V330.062C-82.5693 333.645 -79.4109 333.668 -79.4109 330.108V128.64C-79.4109 125.061 -82.5693 125.029 -82.5693 128.598Z" fill="#212931"/>
<path d="M-77.0391 272.479C-77.0391 276.053 -73.8807 276.085 -73.8807 272.511V185.998C-73.8807 182.42 -77.0391 182.388 -77.0391 185.952V272.479Z" fill="#212931"/>
<path d="M-71.5089 134.145V324.076C-71.5089 327.649 -68.3505 327.681 -68.3505 324.108V134.181C-68.3505 130.603 -71.5089 130.571 -71.5089 134.145Z" fill="#212931"/>
<path d="M-65.9817 187.756V270.25C-65.9817 273.823 -62.8233 273.855 -62.8233 270.282V187.792C-62.8233 184.214 -65.9817 184.186 -65.9817 187.756Z" fill="#212931"/>
<path d="M-60.4484 169.657V288.127C-60.4484 291.71 -57.2901 291.747 -57.2901 288.173V169.699C-57.2901 166.12 -60.4484 166.088 -60.4484 169.662V169.657Z" fill="#212931"/>
<path d="M-54.9212 180.526V277.039C-54.9212 280.622 -51.7628 280.645 -51.7628 277.085V180.571C-51.7628 176.988 -54.9212 176.961 -54.9212 180.526Z" fill="#212931"/>
<path d="M-49.388 185.765V271.585C-49.388 275.167 -46.2296 275.204 -46.2296 271.63V185.81C-46.2296 182.232 -49.388 182.195 -49.388 185.765Z" fill="#212931"/>
<path d="M-43.8578 207.881V249.248C-43.8578 252.831 -40.7025 252.853 -40.7025 249.294V207.918C-40.7025 204.34 -43.8578 204.312 -43.8578 207.881Z" fill="#212931"/>
<path d="M-38.3276 164.175V292.733C-38.3276 296.316 -35.1692 296.353 -35.1692 292.779V164.225C-35.1692 160.647 -38.3276 160.615 -38.3276 164.18V164.175Z" fill="#212931"/>
<path d="M-32.8004 196.531V260.161C-32.8004 263.744 -29.642 263.781 -29.642 260.207V196.573C-29.642 192.994 -32.8004 192.962 -32.8004 196.536V196.531Z" fill="#212931"/>
<path d="M-27.2671 187.544V268.942C-27.2671 272.516 -24.1088 272.548 -24.1088 268.974V187.581C-24.1088 184.003 -27.2671 183.971 -27.2671 187.544Z" fill="#212931"/>
<path d="M-21.7399 255.431C-21.7399 259.014 -18.5815 259.051 -18.5815 255.477V200.862C-18.5815 197.284 -21.7399 197.252 -21.7399 200.821V255.431Z" fill="#212931"/>
<path d="M-16.2097 205.005V251.032C-16.2097 254.615 -13.0513 254.647 -13.0513 251.078V205.046C-13.0513 201.468 -16.2097 201.44 -16.2097 205.009V205.005Z" fill="#212931"/>
<path d="M-10.6765 188.875V266.946C-10.6765 270.529 -7.52119 270.566 -7.52119 266.992V188.916C-7.52119 185.338 -10.6765 185.301 -10.6765 188.875Z" fill="#212931"/>
<path d="M-5.14928 203.688V251.917C-5.14928 255.5 -1.99091 255.537 -1.99091 251.963V203.729C-1.99091 200.151 -5.14928 200.114 -5.14928 203.688Z" fill="#212931"/>
<path d="M0.383942 161.088V294.298C0.383942 297.88 3.53925 297.917 3.53925 294.343V161.129C3.53925 157.551 0.383942 157.519 0.383942 161.092V161.088Z" fill="#212931"/>
<path d="M5.91116 169.492V285.673C5.91116 289.256 9.06952 289.292 9.06952 285.719V169.533C9.06952 165.955 5.91116 165.927 5.91116 169.497V169.492Z" fill="#212931"/>
<path d="M11.4444 155.954V299.004C11.4444 302.578 14.6028 302.61 14.6028 299.036V155.991C14.6028 152.413 11.4444 152.38 11.4444 155.954Z" fill="#212931"/>
<path d="M16.9716 178.264V276.466C16.9716 280.048 20.13 280.085 20.13 276.511V178.305C20.13 174.727 16.9716 174.699 16.9716 178.264Z" fill="#212931"/>
<path d="M22.5048 173.002V281.521C22.5048 285.095 25.6632 285.127 25.6632 281.553V173.048C25.6632 169.469 22.5048 169.437 22.5048 173.002Z" fill="#212931"/>
<path d="M28.032 128.479V325.828C28.032 329.402 31.1904 329.434 31.1904 325.86V128.52C31.1904 124.942 28.032 124.915 28.032 128.484V128.479Z" fill="#212931"/>
<path d="M33.5622 145.081V309.001C33.5622 312.574 36.7206 312.607 36.7206 309.033V145.118C36.7206 141.54 33.5622 141.508 33.5622 145.081Z" fill="#212931"/>
<path d="M39.0924 103.725V350.129C39.0924 353.711 42.2508 353.748 42.2508 350.174V103.766C42.2508 100.188 39.0924 100.155 39.0924 103.729V103.725Z" fill="#212931"/>
<path d="M44.6227 132.168V321.479C44.6227 325.062 47.781 325.085 47.781 321.525V132.209C47.781 128.631 44.6227 128.598 44.6227 132.172V132.168Z" fill="#212931"/>
<path d="M50.1529 138.448V314.983C50.1529 318.557 53.3112 318.589 53.3112 315.015V138.485C53.3112 134.906 50.1529 134.874 50.1529 138.448Z" fill="#212931"/>
<path d="M55.6831 121.969V331.246C55.6831 334.82 58.8415 334.852 58.8415 331.278V122.01C58.8415 118.428 55.6831 118.395 55.6831 121.969Z" fill="#212931"/>
<path d="M61.2103 99.9762V353.023C61.2103 356.597 64.3687 356.629 64.3687 353.055V100.013C64.3687 96.4346 61.2103 96.4071 61.2103 99.9762Z" fill="#212931"/>
<path d="M66.7435 296.614C66.7435 300.197 69.9019 300.22 69.9019 296.66V156.202C69.9019 152.619 66.7435 152.592 66.7435 156.156V296.614Z" fill="#212931"/>
<path d="M72.2708 122.566V329.993C72.2708 333.576 75.4291 333.599 75.4291 330.039V122.607C75.4291 119.029 72.2708 119.001 72.2708 122.57V122.566Z" fill="#212931"/>
<path d="M77.804 105.711V346.628C77.804 350.211 80.9623 350.248 80.9623 346.674V105.747C80.9623 102.169 77.804 102.142 77.804 105.711Z" fill="#212931"/>
<path d="M83.3312 169.914V282.214C83.3312 285.788 86.4896 285.82 86.4896 282.246V169.956C86.4896 166.377 83.3312 166.345 83.3312 169.919V169.914Z" fill="#212931"/>
<path d="M88.8644 167.538V284.361C88.8644 287.944 92.0228 287.98 92.0228 284.407V167.579C92.0228 164.001 88.8644 163.969 88.8644 167.542V167.538Z" fill="#212931"/>
<path d="M94.3916 156.147V295.536C94.3916 299.119 97.55 299.142 97.55 295.582V156.184C97.55 152.605 94.3916 152.573 94.3916 156.147Z" fill="#212931"/>
<path d="M99.9218 189.109V262.354C99.9218 265.937 103.08 265.974 103.08 262.4V189.154C103.08 185.576 99.9218 185.544 99.9218 189.109Z" fill="#212931"/>
<path d="M105.452 284.251C105.452 287.824 108.61 287.856 108.61 284.283V167.038C108.61 163.464 105.452 163.432 105.452 166.996V284.251Z" fill="#212931"/>
<path d="M110.982 201.573V249.467C110.982 253.041 114.141 253.073 114.141 249.5V201.614C114.141 198.036 110.982 198.008 110.982 201.573Z" fill="#212931"/>
<path d="M116.512 256.317C116.512 259.89 119.671 259.923 119.671 256.349V194.54C119.671 190.962 116.512 190.925 116.512 194.494V256.317Z" fill="#212931"/>
<path d="M122.043 185.668V264.933C122.043 268.515 125.201 268.538 125.201 264.978V185.709C125.201 182.131 122.043 182.094 122.043 185.668Z" fill="#212931"/>
<path d="M127.576 184.608V265.767C127.576 269.341 130.731 269.373 130.731 265.813V184.645C130.731 181.067 127.576 181.039 127.576 184.608Z" fill="#212931"/>
<path d="M133.103 193.219V256.946C133.103 260.519 136.262 260.551 136.262 256.978V193.261C136.262 189.682 133.103 189.646 133.103 193.219Z" fill="#212931"/>
<path d="M138.636 197.187V252.757C138.636 256.34 141.795 256.363 141.795 252.803V197.229C141.795 193.65 138.636 193.614 138.636 197.187Z" fill="#212931"/>
<path d="M144.164 173.268V276.457C144.164 280.039 147.322 280.062 147.322 276.502V173.309C147.322 169.731 144.164 169.703 144.164 173.268Z" fill="#212931"/>
<path d="M149.694 154.385V295.128C149.694 298.702 152.852 298.734 152.852 295.174V154.426C152.852 150.848 149.694 150.816 149.694 154.39V154.385Z" fill="#212931"/>
<path d="M155.224 148.114V301.174C155.224 304.757 158.382 304.794 158.382 301.22V148.155C158.382 144.577 155.224 144.545 155.224 148.114Z" fill="#212931"/>
<path d="M160.754 305.711C160.754 309.285 163.913 309.317 163.913 305.744V143.403C163.913 139.824 160.754 139.797 160.754 143.361V305.711Z" fill="#212931"/>
<path d="M166.284 167.978V280.883C166.284 284.466 169.443 284.489 169.443 280.916V168.02C169.443 164.441 166.284 164.414 166.284 167.978Z" fill="#212931"/>
<path d="M171.815 118.176V330.462C171.815 334.035 174.973 334.068 174.973 330.494V118.212C174.973 114.634 171.815 114.602 171.815 118.176Z" fill="#212931"/>
<path d="M177.341 354.634C177.341 358.217 180.5 358.253 180.5 354.68V93.8247C180.5 90.2464 177.341 90.2143 177.341 93.7834V354.634Z" fill="#212931"/>
<path d="M182.875 155.628V292.572C182.875 296.155 186.033 296.192 186.033 292.618V155.67C186.033 152.091 182.875 152.059 182.875 155.633V155.628Z" fill="#212931"/>
<path d="M188.402 76.1302V371.846C188.402 375.429 191.56 375.466 191.56 371.892V76.1669C191.56 72.5886 188.402 72.561 188.402 76.1302Z" fill="#212931"/>
<path d="M193.936 26.7906V420.97C193.936 424.544 197.094 424.576 197.094 421.002V26.8411C197.094 23.2582 193.936 23.2261 193.936 26.7906Z" fill="#212931"/>
<path d="M199.462 18.7943V428.741C199.462 432.324 202.62 432.361 202.62 428.787V18.8356C202.62 15.2573 199.462 15.2297 199.462 18.7943Z" fill="#212931"/>
<path d="M204.996 12.0463V435.284C204.996 438.857 208.154 438.889 208.154 435.316V12.0876C208.154 8.50926 204.996 8.48174 204.996 12.0509V12.0463Z" fill="#212931"/>
<path d="M210.523 72.6665V374.443C210.523 378.016 213.681 378.049 213.681 374.475V72.7078C213.681 69.1294 210.523 69.0973 210.523 72.6711V72.6665Z" fill="#212931"/>
<path d="M216.056 15.7989V431.095C216.056 434.669 219.215 434.701 219.215 431.127V15.8402C219.215 12.2619 216.056 12.2344 216.056 15.7989Z" fill="#212931"/>
<path d="M221.583 109.376V337.297C221.583 340.88 224.741 340.917 224.741 337.343V109.418C224.741 105.839 221.583 105.812 221.583 109.376Z" fill="#212931"/>
<path d="M227.11 333.613C227.11 337.196 230.269 337.233 230.269 333.659V112.881C230.269 109.303 227.11 109.271 227.11 112.84V333.613Z" fill="#212931"/>
<path d="M232.647 134.411V311.827C232.647 315.409 235.805 315.446 235.805 311.872V134.452C235.805 130.874 232.647 130.842 232.647 134.415V134.411Z" fill="#212931"/>
<path d="M238.174 299.413C238.174 302.995 241.332 303.018 241.332 299.458V146.637C241.332 143.058 238.174 143.031 238.174 146.595V299.413Z" fill="#212931"/>
<path d="M243.704 130.966V314.836C243.704 318.419 246.862 318.456 246.862 314.882V131.002C246.862 127.424 243.704 127.392 243.704 130.966Z" fill="#212931"/>
<path d="M249.238 192.141V253.45C249.238 257.023 252.387 257.055 252.387 253.482V192.178C252.387 188.599 249.238 188.567 249.238 192.141Z" fill="#212931"/>
<path d="M254.768 266.598C254.768 270.18 257.926 270.217 257.926 266.643V178.805C257.926 175.227 254.768 175.194 254.768 178.764V266.598Z" fill="#212931"/>
<path d="M260.294 184.838V260.303C260.294 263.886 263.453 263.918 263.453 260.349V184.883C263.453 181.305 260.294 181.268 260.294 184.838Z" fill="#212931"/>
<path d="M265.822 194.054V250.871C265.822 254.454 268.98 254.491 268.98 250.917V194.095C268.98 190.517 265.822 190.49 265.822 194.054Z" fill="#212931"/>
<path d="M271.352 194.119V250.606C271.352 254.179 274.51 254.211 274.51 250.638V194.155C274.51 190.577 271.352 190.549 271.352 194.119Z" fill="#212931"/>
<path d="M276.885 188.035V256.464C276.885 260.046 280.044 260.079 280.044 256.509V188.076C280.044 184.498 276.885 184.466 276.885 188.035Z" fill="#212931"/>
<path d="M282.415 185.682V258.601C282.415 262.175 285.574 262.207 285.574 258.638V185.723C285.574 182.145 282.415 182.113 282.415 185.682Z" fill="#212931"/>
<path d="M287.943 186.632V257.441C287.943 261.015 291.101 261.047 291.101 257.473V186.673C291.101 183.094 287.943 183.067 287.943 186.632Z" fill="#212931"/>
<path d="M293.479 177.557V266.286C293.479 269.869 296.629 269.905 296.629 266.332V177.598C296.629 174.02 293.479 173.988 293.479 177.557Z" fill="#212931"/>
<path d="M299.006 186.049V257.574C299.006 261.157 302.164 261.193 302.164 257.62V186.094C302.164 182.516 299.006 182.479 299.006 186.049Z" fill="#212931"/>
<path d="M304.533 180.934V262.473C304.533 266.047 307.692 266.079 307.692 262.519V180.97C307.692 177.387 304.533 177.355 304.533 180.934Z" fill="#212931"/>
<path d="M310.063 160.551V282.65C310.063 286.224 313.222 286.256 313.222 282.682V160.588C313.222 157.01 310.063 156.977 310.063 160.551Z" fill="#212931"/>
<path d="M315.597 187.269V255.702C315.597 259.285 318.755 259.308 318.755 255.748V187.31C318.755 183.732 315.597 183.704 315.597 187.273V187.269Z" fill="#212931"/>
<path d="M321.127 162.354V280.411C321.127 283.985 324.285 284.017 324.285 280.443V162.395C324.285 158.817 321.127 158.78 321.127 162.354Z" fill="#212931"/>
<path d="M326.654 141.476V301.06C326.654 304.634 329.812 304.666 329.812 301.092V141.513C329.812 137.934 326.654 137.907 326.654 141.476Z" fill="#212931"/>
<path d="M332.181 159.776V282.535C332.181 286.118 335.34 286.154 335.34 282.581V159.817C335.34 156.239 332.181 156.206 332.181 159.78V159.776Z" fill="#212931"/>
<path d="M337.718 157.757V284.343C337.718 287.926 340.876 287.958 340.876 284.389V157.799C340.876 154.22 337.718 154.193 337.718 157.762V157.757Z" fill="#212931"/>
<path d="M343.245 132.773V309.115C343.245 312.689 346.403 312.721 346.403 309.152V132.819C346.403 129.24 343.245 129.213 343.245 132.778V132.773Z" fill="#212931"/>
<path d="M348.775 78.3736V363.29C348.775 366.873 351.933 366.896 351.933 363.336V78.4149C351.933 74.8366 348.775 74.8045 348.775 78.3782V78.3736Z" fill="#212931"/>
<path d="M354.302 87.1268V354.317C354.302 357.9 357.461 357.923 357.461 354.363V87.1681C357.461 83.5898 354.302 83.5576 354.302 87.1314V87.1268Z" fill="#212931"/>
<path d="M359.838 58.3439V382.879C359.838 386.462 362.997 386.494 362.997 382.925V58.3897C362.997 54.8114 359.838 54.7793 359.838 58.3439Z" fill="#212931"/>
<path d="M365.366 149.765V291.251C365.366 294.825 368.524 294.857 368.524 291.283V149.802C368.524 146.224 365.366 146.196 365.366 149.765Z" fill="#212931"/>
<path d="M370.896 99.6876V341.1C370.896 344.683 374.054 344.72 374.054 341.146V99.7289C374.054 96.1506 370.896 96.1231 370.896 99.6922V99.6876Z" fill="#212931"/>
<path d="M376.429 137.306V303.271C376.429 306.854 379.578 306.891 379.578 303.317V137.347C379.578 133.769 376.429 133.741 376.429 137.31V137.306Z" fill="#212931"/>
<path d="M381.959 280.787C381.959 284.361 385.118 284.393 385.118 280.819V159.61C385.118 156.027 381.959 155.995 381.959 159.569V280.787Z" fill="#212931"/>
<path d="M387.486 123.015V317.125C387.486 320.708 390.645 320.745 390.645 317.171V123.057C390.645 119.478 387.486 119.451 387.486 123.02V123.015Z" fill="#212931"/>
<path d="M393.014 165.9V274.025C393.014 277.608 396.172 277.631 396.172 274.071V165.937C396.172 162.358 393.014 162.331 393.014 165.9Z" fill="#212931"/>
<path d="M398.55 180.521V259.184C398.55 262.767 401.699 262.79 401.699 259.23V180.562C401.699 176.984 398.55 176.952 398.55 180.521Z" fill="#212931"/>
<path d="M404.077 290.944C404.077 294.527 407.235 294.564 407.235 290.99V148.573C407.235 144.99 404.077 144.958 404.077 148.527V290.944Z" fill="#212931"/>
<path d="M409.607 167.033V272.231C409.607 275.814 412.766 275.846 412.766 272.277V167.074C412.766 163.496 409.607 163.468 409.607 167.033Z" fill="#212931"/>
<path d="M415.135 155.917V283.127C415.135 286.71 418.293 286.746 418.293 283.173V155.954C418.293 152.376 415.135 152.348 415.135 155.917Z" fill="#212931"/>
<path d="M420.671 246.224C420.671 249.807 423.823 249.844 423.823 246.261V192.646C423.823 189.067 420.671 189.035 420.671 192.6V246.224Z" fill="#212931"/>
<path d="M426.198 159.941V278.686C426.198 282.26 429.356 282.292 429.356 278.718V159.982C429.356 156.404 426.198 156.372 426.198 159.945V159.941Z" fill="#212931"/>
<path d="M431.725 205.009V233.388C431.725 236.966 434.884 236.998 434.884 233.429V205.05C434.884 201.472 431.725 201.44 431.725 205.009Z" fill="#212931"/>
<path d="M437.255 198.775V239.402C437.255 242.981 440.414 243.008 440.414 239.439V198.811C440.414 195.233 437.255 195.206 437.255 198.775Z" fill="#212931"/>
<path d="M442.789 196.848V241.114C442.789 244.692 445.938 244.729 445.938 241.155V196.894C445.938 193.316 442.789 193.279 442.789 196.853V196.848Z" fill="#212931"/>
<path d="M448.319 250.591C448.319 254.165 451.477 254.197 451.477 250.624V187.191C451.477 183.608 448.319 183.576 448.319 187.15V250.591Z" fill="#212931"/>
<path d="M453.846 184.104V253.418C453.846 257.001 457.004 257.037 457.004 253.464V184.15C457.004 180.571 453.846 180.539 453.846 184.104Z" fill="#212931"/>
<path d="M459.373 150.766V286.536C459.373 290.118 462.532 290.155 462.532 286.581V150.812C462.532 147.233 459.373 147.197 459.373 150.766Z" fill="#212931"/>
<path d="M464.909 185.81V251.275C464.909 254.858 468.068 254.895 468.068 251.321V185.851C468.068 182.273 464.909 182.236 464.909 185.81Z" fill="#212931"/>
<path d="M470.437 135.315V301.55C470.437 305.133 473.595 305.17 473.595 301.596V135.351C473.595 131.773 470.437 131.745 470.437 135.315Z" fill="#212931"/>
<path d="M475.967 162.579V274.08C475.967 277.654 479.125 277.686 479.125 274.126V162.62C479.125 159.042 475.967 159.01 475.967 162.583V162.579Z" fill="#212931"/>
<path d="M481.494 178.236V258.212C481.494 261.785 484.653 261.817 484.653 258.248V178.277C484.653 174.699 481.494 174.667 481.494 178.241V178.236Z" fill="#212931"/>
<path d="M487.03 139.622V296.591C487.03 300.174 490.189 300.211 490.189 296.637V139.663C490.189 136.085 487.03 136.058 487.03 139.622Z" fill="#212931"/>
<path d="M492.558 105.945V330.058C492.558 333.641 495.716 333.664 495.716 330.104V105.982C495.716 102.403 492.558 102.371 492.558 105.945Z" fill="#212931"/>
<path d="M498.085 133.782V302.005C498.085 305.578 501.243 305.61 501.243 302.05V133.824C501.243 130.245 498.085 130.213 498.085 133.787V133.782Z" fill="#212931"/>
<path d="M503.615 275.167C503.615 278.741 506.773 278.773 506.773 275.199V160.441C506.773 156.862 503.615 156.83 503.615 160.395V275.167Z" fill="#212931"/>
<path d="M509.151 96.3111V339.04C509.151 342.614 512.31 342.646 512.31 339.073V96.3523C512.31 92.774 509.151 92.7419 509.151 96.3111Z" fill="#212931"/>
<path d="M514.678 67.7072V367.424C514.678 371.007 517.837 371.043 517.837 367.469V67.7439C517.837 64.1656 514.678 64.1381 514.678 67.7072Z" fill="#212931"/>
<path d="M520.206 422.374C520.206 425.957 523.364 425.98 523.364 422.42V12.5783C523.364 8.99996 520.206 8.97244 520.206 12.537V422.374Z" fill="#212931"/>
<path d="M525.742 142.113V292.582C525.742 296.155 528.894 296.188 528.894 292.628V142.155C528.894 138.576 525.742 138.544 525.742 142.118V142.113Z" fill="#212931"/>
<path d="M531.269 113.234V321.245C531.269 324.819 534.427 324.851 534.427 321.291V113.276C534.427 109.697 531.269 109.665 531.269 113.239V113.234Z" fill="#212931"/>
<path d="M536.799 56.7247V377.535C536.799 381.109 539.958 381.141 539.958 377.572V56.766C539.958 53.1877 536.799 53.1556 536.799 56.7247Z" fill="#212931"/>
<path d="M542.327 160.042V274.002C542.327 277.585 545.485 277.608 545.485 274.048V160.083C545.485 156.505 542.327 156.477 542.327 160.046V160.042Z" fill="#212931"/>
<path d="M547.863 172.575V261.249C547.863 264.832 551.015 264.868 551.015 261.295V172.617C551.015 169.038 547.863 169.006 547.863 172.575Z" fill="#212931"/>
<path d="M553.39 171.749V261.859C553.39 265.432 556.548 265.464 556.548 261.891V171.786C556.548 168.208 553.39 168.18 553.39 171.749Z" fill="#212931"/>
<path d="M558.917 176.851V256.537C558.917 260.111 562.076 260.143 562.076 256.574V176.892C562.076 173.314 558.917 173.286 558.917 176.851Z" fill="#212931"/>
<path d="M564.447 158.583V274.585C564.447 278.159 567.606 278.191 567.606 274.631V158.624C567.606 155.046 564.447 155.018 564.447 158.588V158.583Z" fill="#212931"/>
<path d="M569.981 158.794V274.162C569.981 277.745 573.13 277.782 573.13 274.208V158.835C573.13 155.257 569.981 155.229 569.981 158.794Z" fill="#212931"/>
<path d="M575.511 192.972V239.77C575.511 243.348 578.669 243.385 578.669 239.811V193.013C578.669 189.435 575.511 189.398 575.511 192.972Z" fill="#212931"/>
<path d="M581.038 184.613V247.894C581.038 251.477 584.196 251.514 584.196 247.94V184.659C584.196 181.08 581.038 181.044 581.038 184.613Z" fill="#212931"/>
<path d="M586.565 262.042C586.565 265.616 589.724 265.648 589.724 262.074V170.304C589.724 166.721 586.565 166.694 586.565 170.258V262.042Z" fill="#212931"/>
<path d="M592.101 174.3V257.785C592.101 261.368 595.251 261.391 595.251 257.831V174.341C595.251 170.763 592.101 170.731 592.101 174.3Z" fill="#212931"/>
<path d="M597.629 189.508V242.357C597.629 245.935 600.787 245.963 600.787 242.393V189.554C600.787 185.975 597.629 185.943 597.629 189.508Z" fill="#212931"/>
<path d="M603.159 194.715V236.925C603.159 240.508 606.317 240.536 606.317 236.971V194.761C606.317 191.178 603.159 191.15 603.159 194.715Z" fill="#212931"/>
<path d="M608.686 172.914V258.514C608.686 262.088 611.844 262.12 611.844 258.546V172.96C611.844 169.382 608.686 169.35 608.686 172.914Z" fill="#212931"/>
<path d="M614.222 160.611V270.594C614.222 274.177 617.371 274.213 617.371 270.64V160.648C617.371 157.069 614.222 157.042 614.222 160.611Z" fill="#212931"/>
<path d="M619.75 129.7V301.298C619.75 304.872 622.908 304.904 622.908 301.331V129.741C622.908 126.163 619.75 126.126 619.75 129.7Z" fill="#212931"/>
<path d="M625.277 175.576V255.198C625.277 258.781 628.435 258.804 628.435 255.244V175.621C628.435 172.038 625.277 172.011 625.277 175.576Z" fill="#212931"/>
<path d="M630.807 249.472C630.807 253.046 633.965 253.078 633.965 249.504V181.126C633.965 177.548 630.807 177.516 630.807 181.08V249.472Z" fill="#212931"/>
<path d="M636.34 180.457V249.876C636.34 253.459 639.499 253.496 639.499 249.922V180.498C639.499 176.919 636.34 176.883 636.34 180.457Z" fill="#212931"/>
<path d="M641.87 115.583V314.538C641.87 318.121 645.029 318.158 645.029 314.584V115.62C645.029 112.042 641.87 112.014 641.87 115.583Z" fill="#212931"/>
<path d="M647.398 150.082V279.815C647.398 283.397 650.556 283.434 650.556 279.86V150.128C650.556 146.545 647.398 146.518 647.398 150.082Z" fill="#212931"/>
<path d="M652.925 135.012V294.674C652.925 298.247 656.083 298.279 656.083 294.71V135.053C656.083 131.475 652.925 131.447 652.925 135.012Z" fill="#212931"/>
<path d="M658.461 80.0664V349.404C658.461 352.977 661.619 353.01 661.619 349.45V80.1031C661.619 76.5247 658.461 76.4972 658.461 80.0664Z" fill="#212931"/>
<path d="M663.988 17.3403V411.91C663.988 415.493 667.147 415.529 667.147 411.956V17.3862C667.147 13.8033 663.988 13.7665 663.988 17.3403Z" fill="#212931"/>
<path d="M669.853 59.4083V405.996C669.853 409.579 673.012 409.616 673.012 406.042V59.445C673.012 55.8666 669.853 55.8345 669.853 59.4083Z" fill="#212931"/>
<path d="M675.381 116.863V348.326C675.381 351.899 678.539 351.931 678.539 348.358V116.909C678.539 113.331 675.381 113.299 675.381 116.863Z" fill="#212931"/>
<path d="M680.914 135.604V329.365C680.914 332.948 684.072 332.985 684.072 329.411V135.64C684.072 132.062 680.914 132.034 680.914 135.604Z" fill="#212931"/>
<path d="M686.441 154.436V310.313C686.441 313.896 689.599 313.932 689.599 310.359V154.477C689.599 150.899 686.441 150.867 686.441 154.44V154.436Z" fill="#212931"/>
<path d="M691.974 167.983V296.559C691.974 300.133 695.133 300.165 695.133 296.591V168.019C695.133 164.441 691.974 164.409 691.974 167.983Z" fill="#212931"/>
<path d="M697.501 113.455V350.867C697.501 354.441 700.66 354.473 700.66 350.899V113.492C700.66 109.913 697.501 109.886 697.501 113.455Z" fill="#212931"/>
<path d="M703.035 170.731V293.366C703.035 296.949 706.193 296.986 706.193 293.412V170.767C706.193 167.189 703.035 167.157 703.035 170.731Z" fill="#212931"/>
<path d="M708.562 344.477C708.562 348.05 711.72 348.082 711.72 344.509V119.451C711.72 115.872 708.562 115.845 708.562 119.409V344.477Z" fill="#212931"/>
<path d="M714.092 298.922C714.092 302.496 717.25 302.528 717.25 298.954V164.786C717.25 161.207 714.092 161.175 714.092 164.74V298.922Z" fill="#212931"/>
<path d="M719.622 175.447V288.003C719.622 291.577 722.781 291.609 722.781 288.036V175.488C722.781 171.91 719.622 171.873 719.622 175.447Z" fill="#212931"/>
<path d="M725.152 160.785V302.441C725.152 306.023 728.311 306.06 728.311 302.486V160.826C728.311 157.248 725.152 157.22 725.152 160.79V160.785Z" fill="#212931"/>
<path d="M730.686 170.323V292.683C730.686 296.266 733.838 296.298 733.838 292.729V170.359C733.838 166.781 730.686 166.754 730.686 170.323Z" fill="#212931"/>
<path d="M736.213 187.062V275.727C736.213 279.31 739.371 279.346 739.371 275.773V187.104C739.371 183.525 736.213 183.498 736.213 187.062Z" fill="#212931"/>
<path d="M741.746 181.663V280.911C741.746 284.494 744.901 284.517 744.901 280.948V181.709C744.901 178.126 741.746 178.098 741.746 181.663Z" fill="#212931"/>
<path d="M747.273 201.073V261.29C747.273 264.863 750.432 264.895 750.432 261.322V201.11C750.432 197.531 747.273 197.499 747.273 201.073Z" fill="#212931"/>
<path d="M752.801 185.296V276.846C752.801 280.42 755.959 280.452 755.959 276.883V185.338C755.959 181.759 752.801 181.727 752.801 185.301V185.296Z" fill="#212931"/>
<path d="M758.334 177.039V284.893C758.334 288.467 761.492 288.499 761.492 284.925V177.085C761.492 173.502 758.334 173.474 758.334 177.039Z" fill="#212931"/>
<path d="M763.864 172.782V288.921C763.864 292.504 767.022 292.541 767.022 288.967V172.823C767.022 169.245 763.864 169.217 763.864 172.786V172.782Z" fill="#212931"/>
<path d="M769.394 185.879V275.603C769.394 279.186 772.553 279.223 772.553 275.649V185.92C772.553 182.342 769.394 182.31 769.394 185.884V185.879Z" fill="#212931"/>
<path d="M774.924 166.006V295.261C774.924 298.844 778.083 298.88 778.083 295.307V166.047C778.083 162.469 774.924 162.436 774.924 166.01V166.006Z" fill="#212931"/>
<path d="M780.455 157.991V303.055C780.455 306.638 783.613 306.67 783.613 303.101V158.033C783.613 154.454 780.455 154.427 780.455 157.996V157.991Z" fill="#212931"/>
<path d="M785.985 154.229V306.611C785.985 310.194 789.143 310.23 789.143 306.657V154.275C789.143 150.697 785.985 150.665 785.985 154.234V154.229Z" fill="#212931"/>
<path d="M791.512 121.621V338.999C791.512 342.573 794.67 342.605 794.67 339.031V121.667C794.67 118.084 791.512 118.056 791.512 121.621Z" fill="#212931"/>
<path d="M797.045 178.612V281.787C797.045 285.361 800.204 285.393 800.204 281.819V178.649C800.204 175.071 797.045 175.043 797.045 178.612Z" fill="#212931"/>
<path d="M802.573 80.9471V379.241C802.573 382.815 805.731 382.847 805.731 379.273V80.9838C805.731 77.4055 802.573 77.3734 802.573 80.9471Z" fill="#212931"/>
<path d="M808.106 2.65973V457.304C808.106 460.877 811.264 460.909 811.264 457.336V2.70101C811.264 -0.877306 808.106 -0.909419 808.106 2.65973Z" fill="#212931"/>
<path d="M813.633 110.45V349.289C813.633 352.872 816.791 352.895 816.791 349.335V110.491C816.791 106.913 813.633 106.885 813.633 110.45Z" fill="#212931"/>
<path d="M819.166 63.3216V396.197C819.166 399.78 822.325 399.817 822.325 396.243V63.3675C822.325 59.7845 819.166 59.757 819.166 63.3216Z" fill="#212931"/>
<path d="M824.693 94.687V364.625C824.693 368.208 827.852 368.231 827.852 364.671V94.7283C827.852 91.15 824.693 91.1179 824.693 94.687Z" fill="#212931"/>
<path d="M830.224 135.586V323.507C830.224 327.081 833.382 327.113 833.382 323.539V135.631C833.382 132.048 830.224 132.021 830.224 135.586Z" fill="#212931"/>
<path d="M835.754 150.435V308.432C835.754 312.015 838.912 312.051 838.912 308.478V150.476C838.912 146.898 835.754 146.871 835.754 150.44V150.435Z" fill="#212931"/>
<path d="M841.284 128.598V330.062C841.284 333.645 844.442 333.668 844.442 330.108V128.64C844.442 125.061 841.284 125.029 841.284 128.598Z" fill="#212931"/>
<path d="M846.814 272.479C846.814 276.053 849.973 276.085 849.973 272.511V185.998C849.973 182.42 846.814 182.388 846.814 185.952V272.479Z" fill="#212931"/>
<path d="M852.344 134.145V324.076C852.344 327.649 855.503 327.681 855.503 324.108V134.181C855.503 130.603 852.344 130.571 852.344 134.145Z" fill="#212931"/>
<path d="M857.872 187.756V270.25C857.872 273.823 861.03 273.855 861.03 270.282V187.792C861.03 184.214 857.872 184.186 857.872 187.756Z" fill="#212931"/>
<path d="M863.405 169.657V288.127C863.405 291.71 866.563 291.747 866.563 288.173V169.699C866.563 166.12 863.405 166.088 863.405 169.662V169.657Z" fill="#212931"/>
<path d="M868.932 180.526V277.039C868.932 280.622 872.09 280.645 872.09 277.085V180.571C872.09 176.988 868.932 176.961 868.932 180.526Z" fill="#212931"/>
<path d="M874.465 185.765V271.585C874.465 275.167 877.624 275.204 877.624 271.63V185.81C877.624 182.232 874.465 182.195 874.465 185.765Z" fill="#212931"/>
<path d="M879.995 207.881V249.248C879.995 252.831 883.151 252.853 883.151 249.294V207.918C883.151 204.34 879.995 204.312 879.995 207.881Z" fill="#212931"/>
<path d="M885.526 164.175V292.733C885.526 296.316 888.684 296.353 888.684 292.779V164.225C888.684 160.647 885.526 160.615 885.526 164.18V164.175Z" fill="#212931"/>
<path d="M891.053 196.531V260.161C891.053 263.744 894.211 263.781 894.211 260.207V196.573C894.211 192.994 891.053 192.962 891.053 196.536V196.531Z" fill="#212931"/>
<path d="M896.586 187.544V268.942C896.586 272.516 899.745 272.548 899.745 268.974V187.581C899.745 184.003 896.586 183.971 896.586 187.544Z" fill="#212931"/>
<path d="M902.113 255.431C902.113 259.014 905.272 259.051 905.272 255.477V200.862C905.272 197.284 902.113 197.252 902.113 200.821V255.431Z" fill="#212931"/>
<path d="M907.644 205.005V251.032C907.644 254.615 910.802 254.647 910.802 251.078V205.046C910.802 201.468 907.644 201.44 907.644 205.009V205.005Z" fill="#212931"/>
<path d="M913.177 188.875V266.946C913.177 270.529 916.332 270.566 916.332 266.992V188.916C916.332 185.338 913.177 185.301 913.177 188.875Z" fill="#212931"/>
<path d="M918.704 203.688V251.917C918.704 255.5 921.862 255.537 921.862 251.963V203.729C921.862 200.151 918.704 200.114 918.704 203.688Z" fill="#212931"/>
<path d="M924.237 161.088V294.298C924.237 297.88 927.393 297.917 927.393 294.343V161.129C927.393 157.551 924.237 157.519 924.237 161.092V161.088Z" fill="#212931"/>
<path d="M929.765 169.492V285.673C929.765 289.256 932.923 289.292 932.923 285.719V169.533C932.923 165.955 929.765 165.927 929.765 169.497V169.492Z" fill="#212931"/>
<path d="M935.298 155.954V299.004C935.298 302.578 938.456 302.61 938.456 299.036V155.991C938.456 152.413 935.298 152.38 935.298 155.954Z" fill="#212931"/>
<path d="M940.825 178.264V276.466C940.825 280.048 943.983 280.085 943.983 276.511V178.305C943.983 174.727 940.825 174.699 940.825 178.264Z" fill="#212931"/>
<path d="M946.358 173.002V281.521C946.358 285.095 949.516 285.127 949.516 281.553V173.048C949.516 169.469 946.358 169.437 946.358 173.002Z" fill="#212931"/>
<path d="M951.885 128.479V325.828C951.885 329.402 955.044 329.434 955.044 325.86V128.52C955.044 124.942 951.885 124.915 951.885 128.484V128.479Z" fill="#212931"/>
<path d="M957.416 145.081V309.001C957.416 312.574 960.574 312.607 960.574 309.033V145.118C960.574 141.54 957.416 141.508 957.416 145.081Z" fill="#212931"/>
<path d="M962.946 103.725V350.129C962.946 353.711 966.104 353.748 966.104 350.174V103.766C966.104 100.188 962.946 100.155 962.946 103.729V103.725Z" fill="#212931"/>
<path d="M968.476 132.168V321.479C968.476 325.062 971.634 325.085 971.634 321.525V132.209C971.634 128.631 968.476 128.598 968.476 132.172V132.168Z" fill="#212931"/>
<path d="M974.006 138.448V314.983C974.006 318.557 977.165 318.589 977.165 315.015V138.485C977.165 134.906 974.006 134.874 974.006 138.448Z" fill="#212931"/>
<path d="M979.536 121.969V331.246C979.536 334.82 982.695 334.852 982.695 331.278V122.01C982.695 118.428 979.536 118.395 979.536 121.969Z" fill="#212931"/>
<path d="M985.064 99.9762V353.023C985.064 356.597 988.222 356.629 988.222 353.055V100.013C988.222 96.4346 985.064 96.4071 985.064 99.9762Z" fill="#212931"/>
<path d="M990.597 296.614C990.597 300.197 993.755 300.22 993.755 296.66V156.202C993.755 152.619 990.597 152.592 990.597 156.156V296.614Z" fill="#212931"/>
<path d="M996.124 122.566V329.993C996.124 333.576 999.282 333.599 999.282 330.039V122.607C999.282 119.029 996.124 119.001 996.124 122.57V122.566Z" fill="#212931"/>
<path d="M1001.66 105.711V346.628C1001.66 350.211 1004.82 350.248 1004.82 346.674V105.747C1004.82 102.169 1001.66 102.142 1001.66 105.711Z" fill="#212931"/>
<path d="M1007.18 169.914V282.214C1007.18 285.788 1010.34 285.82 1010.34 282.246V169.956C1010.34 166.377 1007.18 166.345 1007.18 169.919V169.914Z" fill="#212931"/>
<path d="M1012.72 167.538V284.361C1012.72 287.944 1015.88 287.98 1015.88 284.407V167.579C1015.88 164.001 1012.72 163.969 1012.72 167.542V167.538Z" fill="#212931"/>
<path d="M1018.24 156.147V295.536C1018.24 299.119 1021.4 299.142 1021.4 295.582V156.184C1021.4 152.605 1018.24 152.573 1018.24 156.147Z" fill="#212931"/>
<path d="M1023.78 189.109V262.354C1023.78 265.937 1026.93 265.974 1026.93 262.4V189.154C1026.93 185.576 1023.78 185.544 1023.78 189.109Z" fill="#212931"/>
<path d="M1029.31 284.251C1029.31 287.824 1032.46 287.856 1032.46 284.283V167.038C1032.46 163.464 1029.31 163.432 1029.31 166.996V284.251Z" fill="#212931"/>
<path d="M1034.84 201.573V249.467C1034.84 253.041 1037.99 253.073 1037.99 249.5V201.614C1037.99 198.036 1034.84 198.008 1034.84 201.573Z" fill="#212931"/>
<path d="M1040.37 256.317C1040.37 259.89 1043.52 259.923 1043.52 256.349V194.54C1043.52 190.962 1040.37 190.925 1040.37 194.494V256.317Z" fill="#212931"/>
<path d="M1045.9 185.668V264.933C1045.9 268.515 1049.05 268.538 1049.05 264.978V185.709C1049.05 182.131 1045.9 182.094 1045.9 185.668Z" fill="#212931"/>
<path d="M1051.43 184.608V265.767C1051.43 269.341 1054.58 269.373 1054.58 265.813V184.645C1054.58 181.067 1051.43 181.039 1051.43 184.608Z" fill="#212931"/>
<path d="M1056.96 193.219V256.946C1056.96 260.519 1060.11 260.551 1060.11 256.978V193.261C1060.11 189.682 1056.96 189.646 1056.96 193.219Z" fill="#212931"/>
<path d="M1062.49 197.187V252.757C1062.49 256.34 1065.65 256.363 1065.65 252.803V197.229C1065.65 193.65 1062.49 193.614 1062.49 197.187Z" fill="#212931"/>
<path d="M1068.02 173.268V276.457C1068.02 280.039 1071.18 280.062 1071.18 276.502V173.309C1071.18 169.731 1068.02 169.703 1068.02 173.268Z" fill="#212931"/>
<path d="M1073.55 154.385V295.128C1073.55 298.702 1076.71 298.734 1076.71 295.174V154.426C1076.71 150.848 1073.55 150.816 1073.55 154.39V154.385Z" fill="#212931"/>
<path d="M1079.08 148.114V301.174C1079.08 304.757 1082.24 304.794 1082.24 301.22V148.155C1082.24 144.577 1079.08 144.545 1079.08 148.114Z" fill="#212931"/>
<path d="M1084.61 305.711C1084.61 309.285 1087.77 309.317 1087.77 305.744V143.403C1087.77 139.824 1084.61 139.797 1084.61 143.361V305.711Z" fill="#212931"/>
<path d="M1090.14 167.978V280.883C1090.14 284.466 1093.3 284.489 1093.3 280.916V168.02C1093.3 164.441 1090.14 164.414 1090.14 167.978Z" fill="#212931"/>
<path d="M1095.67 118.176V330.462C1095.67 334.035 1098.83 334.068 1098.83 330.494V118.212C1098.83 114.634 1095.67 114.602 1095.67 118.176Z" fill="#212931"/>
<path d="M1101.19 354.634C1101.19 358.217 1104.35 358.253 1104.35 354.68V93.8247C1104.35 90.2464 1101.19 90.2143 1101.19 93.7834V354.634Z" fill="#212931"/>
<path d="M1106.73 155.628V292.572C1106.73 296.155 1109.89 296.192 1109.89 292.618V155.67C1109.89 152.091 1106.73 152.059 1106.73 155.633V155.628Z" fill="#212931"/>
<path d="M1112.26 76.1302V371.846C1112.26 375.429 1115.41 375.466 1115.41 371.892V76.1669C1115.41 72.5886 1112.26 72.561 1112.26 76.1302Z" fill="#212931"/>
<path d="M1117.79 26.7906V420.97C1117.79 424.544 1120.95 424.576 1120.95 421.002V26.8411C1120.95 23.2582 1117.79 23.2261 1117.79 26.7906Z" fill="#212931"/>
<path d="M1123.32 18.7943V428.741C1123.32 432.324 1126.47 432.361 1126.47 428.787V18.8356C1126.47 15.2573 1123.32 15.2297 1123.32 18.7943Z" fill="#212931"/>
<path d="M1128.85 12.0463V435.284C1128.85 438.857 1132.01 438.889 1132.01 435.316V12.0876C1132.01 8.50926 1128.85 8.48174 1128.85 12.0509V12.0463Z" fill="#212931"/>
<path d="M1134.38 72.6665V374.443C1134.38 378.016 1137.53 378.049 1137.53 374.475V72.7078C1137.53 69.1294 1134.38 69.0973 1134.38 72.6711V72.6665Z" fill="#212931"/>
<path d="M1139.91 15.7989V431.095C1139.91 434.669 1143.07 434.701 1143.07 431.127V15.8402C1143.07 12.2619 1139.91 12.2344 1139.91 15.7989Z" fill="#212931"/>
<path d="M1145.44 109.376V337.297C1145.44 340.88 1148.59 340.917 1148.59 337.343V109.418C1148.59 105.839 1145.44 105.812 1145.44 109.376Z" fill="#212931"/>
<path d="M1150.96 333.613C1150.96 337.196 1154.12 337.233 1154.12 333.659V112.881C1154.12 109.303 1150.96 109.271 1150.96 112.84V333.613Z" fill="#212931"/>
<path d="M1156.5 134.411V311.827C1156.5 315.409 1159.66 315.446 1159.66 311.872V134.452C1159.66 130.874 1156.5 130.842 1156.5 134.415V134.411Z" fill="#212931"/>
<path d="M1162.03 299.413C1162.03 302.995 1165.19 303.018 1165.19 299.458V146.637C1165.19 143.058 1162.03 143.031 1162.03 146.595V299.413Z" fill="#212931"/>
<path d="M1167.56 130.966V314.836C1167.56 318.419 1170.72 318.456 1170.72 314.882V131.002C1170.72 127.424 1167.56 127.392 1167.56 130.966Z" fill="#212931"/>
<path d="M1173.09 192.141V253.45C1173.09 257.023 1176.24 257.055 1176.24 253.482V192.178C1176.24 188.599 1173.09 188.567 1173.09 192.141Z" fill="#212931"/>
<path d="M1178.62 266.598C1178.62 270.18 1181.78 270.217 1181.78 266.643V178.805C1181.78 175.227 1178.62 175.194 1178.62 178.764V266.598Z" fill="#212931"/>
<path d="M1184.15 184.838V260.303C1184.15 263.886 1187.31 263.918 1187.31 260.349V184.883C1187.31 181.305 1184.15 181.268 1184.15 184.838Z" fill="#212931"/>
<path d="M1189.68 194.054V250.871C1189.68 254.454 1192.83 254.491 1192.83 250.917V194.095C1192.83 190.517 1189.68 190.49 1189.68 194.054Z" fill="#212931"/>
<path d="M1195.21 194.119V250.606C1195.21 254.179 1198.36 254.211 1198.36 250.638V194.155C1198.36 190.577 1195.21 190.549 1195.21 194.119Z" fill="#212931"/>
<path d="M1200.74 188.035V256.464C1200.74 260.046 1203.9 260.079 1203.9 256.509V188.076C1203.9 184.498 1200.74 184.466 1200.74 188.035Z" fill="#212931"/>
<path d="M1206.27 185.682V258.601C1206.27 262.175 1209.43 262.207 1209.43 258.638V185.723C1209.43 182.145 1206.27 182.113 1206.27 185.682Z" fill="#212931"/>
<path d="M1211.8 186.632V257.441C1211.8 261.015 1214.95 261.047 1214.95 257.473V186.673C1214.95 183.094 1211.8 183.067 1211.8 186.632Z" fill="#212931"/>
<path d="M1217.33 177.557V266.286C1217.33 269.869 1220.48 269.905 1220.48 266.332V177.598C1220.48 174.02 1217.33 173.988 1217.33 177.557Z" fill="#212931"/>
<path d="M1222.86 186.049V257.574C1222.86 261.157 1226.02 261.193 1226.02 257.62V186.094C1226.02 182.516 1222.86 182.479 1222.86 186.049Z" fill="#212931"/>
<path d="M1228.39 180.934V262.473C1228.39 266.047 1231.55 266.079 1231.55 262.519V180.97C1231.55 177.387 1228.39 177.355 1228.39 180.934Z" fill="#212931"/>
<path d="M1233.92 160.551V282.65C1233.92 286.224 1237.08 286.256 1237.08 282.682V160.588C1237.08 157.01 1233.92 156.977 1233.92 160.551Z" fill="#212931"/>
<path d="M1239.45 187.269V255.702C1239.45 259.285 1242.61 259.308 1242.61 255.748V187.31C1242.61 183.732 1239.45 183.704 1239.45 187.273V187.269Z" fill="#212931"/>
<path d="M1244.98 162.354V280.411C1244.98 283.985 1248.14 284.017 1248.14 280.443V162.395C1248.14 158.817 1244.98 158.78 1244.98 162.354Z" fill="#212931"/>
<path d="M1250.51 141.476V301.06C1250.51 304.634 1253.67 304.666 1253.67 301.092V141.513C1253.67 137.934 1250.51 137.907 1250.51 141.476Z" fill="#212931"/>
<path d="M1256.03 159.776V282.535C1256.03 286.118 1259.19 286.154 1259.19 282.581V159.817C1259.19 156.239 1256.03 156.206 1256.03 159.78V159.776Z" fill="#212931"/>
<path d="M1261.57 157.757V284.343C1261.57 287.926 1264.73 287.958 1264.73 284.389V157.799C1264.73 154.22 1261.57 154.193 1261.57 157.762V157.757Z" fill="#212931"/>
<path d="M1267.1 132.773V309.115C1267.1 312.689 1270.26 312.721 1270.26 309.152V132.819C1270.26 129.24 1267.1 129.213 1267.1 132.778V132.773Z" fill="#212931"/>
<path d="M1272.63 78.3736V363.29C1272.63 366.873 1275.79 366.896 1275.79 363.336V78.4149C1275.79 74.8366 1272.63 74.8045 1272.63 78.3782V78.3736Z" fill="#212931"/>
<path d="M1278.16 87.1268V354.317C1278.16 357.9 1281.31 357.923 1281.31 354.363V87.1681C1281.31 83.5898 1278.16 83.5576 1278.16 87.1314V87.1268Z" fill="#212931"/>
<path d="M1283.69 58.3439V382.879C1283.69 386.462 1286.85 386.494 1286.85 382.925V58.3897C1286.85 54.8114 1283.69 54.7793 1283.69 58.3439Z" fill="#212931"/>
<path d="M1289.22 149.765V291.251C1289.22 294.825 1292.38 294.857 1292.38 291.283V149.802C1292.38 146.224 1289.22 146.196 1289.22 149.765Z" fill="#212931"/>
<path d="M1294.75 99.6876V341.1C1294.75 344.683 1297.91 344.72 1297.91 341.146V99.7289C1297.91 96.1506 1294.75 96.1231 1294.75 99.6922V99.6876Z" fill="#212931"/>
<path d="M1300.28 137.306V303.271C1300.28 306.854 1303.43 306.891 1303.43 303.317V137.347C1303.43 133.769 1300.28 133.741 1300.28 137.31V137.306Z" fill="#212931"/>
<path d="M1305.81 280.787C1305.81 284.361 1308.97 284.393 1308.97 280.819V159.61C1308.97 156.027 1305.81 155.995 1305.81 159.569V280.787Z" fill="#212931"/>
<path d="M1311.34 123.015V317.125C1311.34 320.708 1314.5 320.745 1314.5 317.171V123.057C1314.5 119.478 1311.34 119.451 1311.34 123.02V123.015Z" fill="#212931"/>
<path d="M1316.87 165.9V274.025C1316.87 277.608 1320.03 277.631 1320.03 274.071V165.937C1320.03 162.358 1316.87 162.331 1316.87 165.9Z" fill="#212931"/>
<path d="M1322.4 180.521V259.184C1322.4 262.767 1325.55 262.79 1325.55 259.23V180.562C1325.55 176.984 1322.4 176.952 1322.4 180.521Z" fill="#212931"/>
<path d="M1327.93 290.944C1327.93 294.527 1331.09 294.564 1331.09 290.99V148.573C1331.09 144.99 1327.93 144.958 1327.93 148.527V290.944Z" fill="#212931"/>
<path d="M1333.46 167.033V272.231C1333.46 275.814 1336.62 275.846 1336.62 272.277V167.074C1336.62 163.496 1333.46 163.468 1333.46 167.033Z" fill="#212931"/>
<path d="M1338.99 155.917V283.127C1338.99 286.71 1342.15 286.746 1342.15 283.173V155.954C1342.15 152.376 1338.99 152.348 1338.99 155.917Z" fill="#212931"/>
<path d="M1344.52 246.224C1344.52 249.807 1347.68 249.844 1347.68 246.261V192.646C1347.68 189.067 1344.52 189.035 1344.52 192.6V246.224Z" fill="#212931"/>
<path d="M1350.05 159.941V278.686C1350.05 282.26 1353.21 282.292 1353.21 278.718V159.982C1353.21 156.404 1350.05 156.372 1350.05 159.945V159.941Z" fill="#212931"/>
<path d="M1355.58 205.009V233.388C1355.58 236.966 1358.74 236.998 1358.74 233.429V205.05C1358.74 201.472 1355.58 201.44 1355.58 205.009Z" fill="#212931"/>
<path d="M1361.11 198.775V239.402C1361.11 242.981 1364.27 243.008 1364.27 239.439V198.811C1364.27 195.233 1361.11 195.206 1361.11 198.775Z" fill="#212931"/>
<path d="M1366.64 196.848V241.114C1366.64 244.692 1369.79 244.729 1369.79 241.155V196.894C1369.79 193.316 1366.64 193.279 1366.64 196.853V196.848Z" fill="#212931"/>
<path d="M1372.17 250.591C1372.17 254.165 1375.33 254.197 1375.33 250.624V187.191C1375.33 183.608 1372.17 183.576 1372.17 187.15V250.591Z" fill="#212931"/>
<path d="M1377.7 184.104V253.418C1377.7 257.001 1380.86 257.037 1380.86 253.464V184.15C1380.86 180.571 1377.7 180.539 1377.7 184.104Z" fill="#212931"/>
<path d="M1383.23 150.766V286.536C1383.23 290.118 1386.39 290.155 1386.39 286.581V150.812C1386.39 147.233 1383.23 147.197 1383.23 150.766Z" fill="#212931"/>
<path d="M1388.76 185.81V251.275C1388.76 254.858 1391.92 254.895 1391.92 251.321V185.851C1391.92 182.273 1388.76 182.236 1388.76 185.81Z" fill="#212931"/>
<path d="M1394.29 135.315V301.55C1394.29 305.133 1397.45 305.17 1397.45 301.596V135.351C1397.45 131.773 1394.29 131.745 1394.29 135.315Z" fill="#212931"/>
<path d="M1399.82 162.579V274.08C1399.82 277.654 1402.98 277.686 1402.98 274.126V162.62C1402.98 159.042 1399.82 159.01 1399.82 162.583V162.579Z" fill="#212931"/>
<path d="M1405.35 178.236V258.212C1405.35 261.785 1408.51 261.817 1408.51 258.248V178.277C1408.51 174.699 1405.35 174.667 1405.35 178.241V178.236Z" fill="#212931"/>
<path d="M1410.88 139.622V296.591C1410.88 300.174 1414.04 300.211 1414.04 296.637V139.663C1414.04 136.085 1410.88 136.058 1410.88 139.622Z" fill="#212931"/>
<path d="M1416.41 105.945V330.058C1416.41 333.641 1419.57 333.664 1419.57 330.104V105.982C1419.57 102.403 1416.41 102.371 1416.41 105.945Z" fill="#212931"/>
<path d="M1421.94 133.782V302.005C1421.94 305.578 1425.1 305.61 1425.1 302.05V133.824C1425.1 130.245 1421.94 130.213 1421.94 133.787V133.782Z" fill="#212931"/>
<path d="M1427.47 275.167C1427.47 278.741 1430.63 278.773 1430.63 275.199V160.441C1430.63 156.862 1427.47 156.83 1427.47 160.395V275.167Z" fill="#212931"/>
<path d="M1433 96.3111V339.04C1433 342.614 1436.16 342.646 1436.16 339.073V96.3523C1436.16 92.774 1433 92.7419 1433 96.3111Z" fill="#212931"/>
<path d="M1438.53 67.7072V367.424C1438.53 371.007 1441.69 371.043 1441.69 367.469V67.7439C1441.69 64.1656 1438.53 64.1381 1438.53 67.7072Z" fill="#212931"/>
<path d="M1444.06 422.374C1444.06 425.957 1447.22 425.98 1447.22 422.42V12.5783C1447.22 8.99996 1444.06 8.97244 1444.06 12.537V422.374Z" fill="#212931"/>
<path d="M1449.6 142.113V292.582C1449.6 296.155 1452.75 296.188 1452.75 292.628V142.155C1452.75 138.576 1449.6 138.544 1449.6 142.118V142.113Z" fill="#212931"/>
<path d="M1455.12 113.234V321.245C1455.12 324.819 1458.28 324.851 1458.28 321.291V113.276C1458.28 109.697 1455.12 109.665 1455.12 113.239V113.234Z" fill="#212931"/>
<path d="M1460.65 56.7247V377.535C1460.65 381.109 1463.81 381.141 1463.81 377.572V56.766C1463.81 53.1877 1460.65 53.1556 1460.65 56.7247Z" fill="#212931"/>
<path d="M1466.18 160.042V274.002C1466.18 277.585 1469.34 277.608 1469.34 274.048V160.083C1469.34 156.505 1466.18 156.477 1466.18 160.046V160.042Z" fill="#212931"/>
<path d="M1471.72 172.575V261.249C1471.72 264.832 1474.87 264.868 1474.87 261.295V172.617C1474.87 169.038 1471.72 169.006 1471.72 172.575Z" fill="#212931"/>
<path d="M1477.24 171.749V261.859C1477.24 265.432 1480.4 265.464 1480.4 261.891V171.786C1480.4 168.208 1477.24 168.18 1477.24 171.749Z" fill="#212931"/>
<path d="M1482.77 176.851V256.537C1482.77 260.111 1485.93 260.143 1485.93 256.574V176.892C1485.93 173.314 1482.77 173.286 1482.77 176.851Z" fill="#212931"/>
<path d="M1488.3 158.583V274.585C1488.3 278.159 1491.46 278.191 1491.46 274.631V158.624C1491.46 155.046 1488.3 155.018 1488.3 158.588V158.583Z" fill="#212931"/>
<path d="M1493.83 158.794V274.162C1493.83 277.745 1496.98 277.782 1496.98 274.208V158.835C1496.98 155.257 1493.83 155.229 1493.83 158.794Z" fill="#212931"/>
<path d="M1499.36 192.972V239.77C1499.36 243.348 1502.52 243.385 1502.52 239.811V193.013C1502.52 189.435 1499.36 189.398 1499.36 192.972Z" fill="#212931"/>
<path d="M1504.89 184.613V247.894C1504.89 251.477 1508.05 251.514 1508.05 247.94V184.659C1508.05 181.08 1504.89 181.044 1504.89 184.613Z" fill="#212931"/>
<path d="M1510.42 262.042C1510.42 265.616 1513.58 265.648 1513.58 262.074V170.304C1513.58 166.721 1510.42 166.694 1510.42 170.258V262.042Z" fill="#212931"/>
<path d="M1515.95 174.3V257.785C1515.95 261.368 1519.1 261.391 1519.1 257.831V174.341C1519.1 170.763 1515.95 170.731 1515.95 174.3Z" fill="#212931"/>
<path d="M1521.48 189.508V242.357C1521.48 245.935 1524.64 245.963 1524.64 242.393V189.554C1524.64 185.975 1521.48 185.943 1521.48 189.508Z" fill="#212931"/>
<path d="M1527.01 194.715V236.925C1527.01 240.508 1530.17 240.536 1530.17 236.971V194.761C1530.17 191.178 1527.01 191.15 1527.01 194.715Z" fill="#212931"/>
<path d="M1532.54 172.914V258.514C1532.54 262.088 1535.7 262.12 1535.7 258.546V172.96C1535.7 169.382 1532.54 169.35 1532.54 172.914Z" fill="#212931"/>
<path d="M1538.08 160.611V270.594C1538.08 274.177 1541.22 274.213 1541.22 270.64V160.648C1541.22 157.069 1538.08 157.042 1538.08 160.611Z" fill="#212931"/>
<path d="M1543.6 129.7V301.298C1543.6 304.872 1546.76 304.904 1546.76 301.331V129.741C1546.76 126.163 1543.6 126.126 1543.6 129.7Z" fill="#212931"/>
<path d="M1549.13 175.576V255.198C1549.13 258.781 1552.29 258.804 1552.29 255.244V175.621C1552.29 172.038 1549.13 172.011 1549.13 175.576Z" fill="#212931"/>
<path d="M1554.66 249.472C1554.66 253.046 1557.82 253.078 1557.82 249.504V181.126C1557.82 177.548 1554.66 177.516 1554.66 181.08V249.472Z" fill="#212931"/>
<path d="M1560.19 180.457V249.876C1560.19 253.459 1563.35 253.496 1563.35 249.922V180.498C1563.35 176.919 1560.19 176.883 1560.19 180.457Z" fill="#212931"/>
<path d="M1565.72 115.583V314.538C1565.72 318.121 1568.88 318.158 1568.88 314.584V115.62C1568.88 112.042 1565.72 112.014 1565.72 115.583Z" fill="#212931"/>
<path d="M1571.25 150.082V279.815C1571.25 283.397 1574.41 283.434 1574.41 279.86V150.128C1574.41 146.545 1571.25 146.518 1571.25 150.082Z" fill="#212931"/>
<path d="M1576.78 135.012V294.674C1576.78 298.247 1579.94 298.279 1579.94 294.71V135.053C1579.94 131.475 1576.78 131.447 1576.78 135.012Z" fill="#212931"/>
<path d="M1582.31 80.0664V349.404C1582.31 352.977 1585.47 353.01 1585.47 349.45V80.1031C1585.47 76.5247 1582.31 76.4972 1582.31 80.0664Z" fill="#212931"/>
<path d="M1587.84 17.3403V411.91C1587.84 415.493 1591 415.529 1591 411.956V17.3862C1591 13.8033 1587.84 13.7665 1587.84 17.3403Z" fill="#212931"/>
</svg>
