<svg width="40" height="40" viewBox="0 0 40 40" fill="none" xmlns="http://www.w3.org/2000/svg">
<g clip-path="url(#clip0_360_2732)">
<path d="M10.1216 35.9757L10.1481 20.9348L22.6498 16.5518L22.6639 32.9223M5.61761 33.0593C7.50349 33.0593 9.11304 33.8098 9.79058 34.8733C10.0076 35.2174 10.1231 35.588 10.1231 35.9772C10.1231 37.5919 8.10453 38.8998 5.61761 38.8998C3.13068 38.8998 1.10742 37.5934 1.10742 35.9772C1.10742 34.361 3.126 33.0593 5.61761 33.0593ZM18.1553 29.9827C20.0677 29.9827 21.7038 30.7549 22.3595 31.8449C22.5546 32.1718 22.6655 32.5284 22.6655 32.9036C22.6655 34.5152 20.6469 35.8215 18.1553 35.8215C16.2085 35.8215 14.549 35.0228 13.9198 33.9017C13.7434 33.5934 13.6498 33.2524 13.6498 32.9036C13.6498 31.289 15.6683 29.9811 18.1553 29.9811V29.9827Z" stroke="#F56F18" stroke-width="2.5" stroke-miterlimit="10"/>
<path d="M24.5296 34.2405C26.3624 34.2405 27.844 32.7754 27.8534 30.9614C27.8487 30.0833 28.1984 29.244 28.8228 28.6228C29.4473 28.0047 30.2966 27.6559 31.1771 27.6605C31.7344 27.6777 32.2839 27.8287 32.7694 28.1012C34.354 29.0105 36.3804 28.4718 37.3015 26.9054L38.4427 25.012C38.8845 24.2569 39.0094 23.3569 38.783 22.5146C38.5535 21.6676 37.9993 20.9482 37.2344 20.5154C36.4725 20.0778 35.9152 19.3585 35.6904 18.5161C35.4609 17.6691 35.5842 16.7723 36.026 16.0187C36.3133 15.5204 36.7301 15.1047 37.2344 14.8182C38.8049 13.9042 39.345 11.905 38.4427 10.3386V10.3215L37.3624 8.4593C36.446 6.88359 34.4196 6.34019 32.8303 7.24482C32.0732 7.68546 31.1708 7.81469 30.3215 7.5936C29.4723 7.3725 28.7417 6.83065 28.2998 6.0755C28.0126 5.59905 27.8612 5.05564 27.8534 4.49979C27.8799 3.60761 27.5442 2.74346 26.9151 2.10352C26.2906 1.46826 25.4289 1.10547 24.5296 1.10547H22.3518C21.4713 1.10547 20.6299 1.45424 20.007 2.07238C19.3872 2.69052 19.0422 3.5282 19.0469 4.40325C19.0203 6.20784 17.5372 7.65588 15.7232 7.65588C15.1611 7.65121 14.6132 7.49706 14.1339 7.21524C12.5415 6.31061 10.5136 6.85401 9.60185 8.42972L8.43722 10.3231C7.52551 11.8988 8.06567 13.9073 9.64556 14.8213C10.6759 15.413 11.3098 16.4982 11.3098 17.6769" stroke="#F56F18" stroke-width="2.5" stroke-linecap="round" stroke-linejoin="round"/>
<path d="M23.4456 23.8872C26.8707 23.9619 29.6761 21.1063 29.6761 17.6731C29.6761 14.2398 26.8879 11.459 23.4456 11.459C20.0032 11.459 17.1931 14.3286 17.215 17.6731" stroke="#F56F18" stroke-width="2.5" stroke-linecap="round" stroke-linejoin="round"/>
</g>
<defs>
<clipPath id="clip0_360_2732">
<rect width="40" height="40" fill="white"/>
</clipPath>
</defs>
</svg>
