<svg width="40" height="40" viewBox="0 0 40 40" fill="none" xmlns="http://www.w3.org/2000/svg">
<g clip-path="url(#clip0_360_2737)">
<path d="M19.9981 32.1094C26.6658 32.1094 32.1075 26.6678 32.1075 20C32.1075 13.3323 26.6658 7.89062 19.9981 7.89062C13.3303 7.89062 7.88867 13.3323 7.88867 20C7.88867 26.6678 13.3303 32.1094 19.9981 32.1094Z" stroke="#F56F18" stroke-width="2.5" stroke-linecap="round" stroke-linejoin="round"/>
<path d="M20 1.14062V4.60643M20 35.3932V38.859" stroke="#F56F18" stroke-width="2.5" stroke-linecap="round" stroke-linejoin="round"/>
<path d="M33.3347 6.66309L30.8809 9.11683M9.11585 30.8819L6.66211 33.3357" stroke="#F56F18" stroke-width="2.5" stroke-linecap="round" stroke-linejoin="round"/>
<path d="M38.859 20H35.3932M4.60643 20H1.14062" stroke="#F56F18" stroke-width="2.5" stroke-linecap="round" stroke-linejoin="round"/>
<path d="M33.3347 33.3357L30.8809 30.8819M9.11585 9.11683L6.66211 6.66309" stroke="#F56F18" stroke-width="2.5" stroke-linecap="round" stroke-linejoin="round"/>
<path d="M21.4692 21.291C20.4974 21.291 19.709 22.1068 19.709 23.1156C19.709 24.1245 20.4974 24.9451 21.4692 24.9451C22.4411 24.9451 23.2295 24.1245 23.2295 23.1156C23.2295 23.0658 23.2295 23.011 23.2247 22.9612C23.1474 22.0263 22.3896 21.2926 21.4692 21.2926V21.291Z" stroke="#F56F18" stroke-width="2.5" stroke-linecap="round" stroke-linejoin="round"/>
<path d="M19.0003 23.0107H14.4355" stroke="#F56F18" stroke-width="2.5" stroke-linecap="round" stroke-linejoin="round"/>
<path d="M25.5641 23.0107H23.4805" stroke="#F56F18" stroke-width="2.5" stroke-linecap="round" stroke-linejoin="round"/>
<path d="M18.5298 15.0605C19.5016 15.0605 20.29 15.8763 20.29 16.8852C20.29 17.894 19.5016 18.7146 18.5298 18.7146C17.5579 18.7146 16.7695 17.894 16.7695 16.8852C16.7695 16.8305 16.7744 16.7806 16.7744 16.7307V16.7259C16.8516 15.791 17.6094 15.0605 18.5298 15.0605Z" stroke="#F56F18" stroke-width="2.5" stroke-linecap="round" stroke-linejoin="round"/>
<path d="M20.998 16.7803H25.5628" stroke="#F56F18" stroke-width="2.5" stroke-linecap="round" stroke-linejoin="round"/>
<path d="M14.4355 16.7803H16.5192" stroke="#F56F18" stroke-width="2.5" stroke-linecap="round" stroke-linejoin="round"/>
</g>
<defs>
<clipPath id="clip0_360_2737">
<rect width="40" height="40" fill="white"/>
</clipPath>
</defs>
</svg>
