<svg width="30" height="48" viewBox="0 0 30 48" fill="none" xmlns="http://www.w3.org/2000/svg">
<path d="M14.5827 32.2917C17.3444 32.2886 19.9922 31.1902 21.945 29.2374C23.8978 27.2845 24.9963 24.6368 24.9994 21.8751V10.4167C24.9994 7.65402 23.9019 5.00449 21.9484 3.05098C19.9949 1.09747 17.3454 0 14.5827 0C11.82 0 9.17051 1.09747 7.217 3.05098C5.26349 5.00449 4.16602 7.65402 4.16602 10.4167V21.8751C4.16912 24.6368 5.26759 27.2845 7.22043 29.2374C9.17327 31.1902 11.821 32.2886 14.5827 32.2917ZM9.37442 19.7917H6.24942V17.7084H9.37442C9.64893 17.7057 9.9113 17.5948 10.1045 17.3998C10.2977 17.2047 10.406 16.9413 10.406 16.6667C10.406 16.3922 10.2977 16.1288 10.1045 15.9337C9.9113 15.7387 9.64893 15.6278 9.37442 15.6251H6.24942V13.5417H9.37442C9.64893 13.539 9.9113 13.4281 10.1045 13.2331C10.2977 13.038 10.406 12.7746 10.406 12.5C10.406 12.2255 10.2977 11.9621 10.1045 11.767C9.9113 11.572 9.64893 11.4611 9.37442 11.4584H6.24942V10.4167C6.24942 8.20657 7.12739 6.08696 8.69018 4.52417C10.253 2.96137 12.3726 2.0834 14.5827 2.0834C16.7928 2.0834 18.9125 2.96137 20.4752 4.52417C22.038 6.08696 22.916 8.20657 22.916 10.4167V11.4584H19.791C19.5165 11.4611 19.2541 11.572 19.061 11.767C18.8678 11.9621 18.7594 12.2255 18.7594 12.5C18.7594 12.7746 18.8678 13.038 19.061 13.2331C19.2541 13.4281 19.5165 13.539 19.791 13.5417H22.916V15.6251H19.791C19.5165 15.6278 19.2541 15.7387 19.061 15.9337C18.8678 16.1288 18.7594 16.3922 18.7594 16.6667C18.7594 16.9413 18.8678 17.2047 19.061 17.3998C19.2541 17.5948 19.5165 17.7057 19.791 17.7084H22.916V19.7917H19.791C19.5147 19.7917 19.2498 19.9014 19.0544 20.0968C18.8591 20.2922 18.7493 20.5571 18.7493 20.8334C18.7493 21.1097 18.8591 21.3746 19.0544 21.57C19.2498 21.7653 19.5147 21.8751 19.791 21.8751H22.916C22.916 24.0852 22.038 26.2048 20.4752 27.7676C18.9125 29.3304 16.7928 30.2084 14.5827 30.2084C12.3726 30.2084 10.253 29.3304 8.69018 27.7676C7.12739 26.2048 6.24942 24.0852 6.24942 21.8751H9.37442C9.65069 21.8751 9.91565 21.7653 10.111 21.57C10.3064 21.3746 10.4161 21.1097 10.4161 20.8334C10.4161 20.5571 10.3064 20.2922 10.111 20.0968C9.91565 19.9014 9.65069 19.7917 9.37442 19.7917Z" fill="#F56F18"/>
<path d="M29.1667 21.8752V17.7085C29.168 17.5709 29.142 17.4343 29.0903 17.3068C29.0385 17.1792 28.962 17.0632 28.8652 16.9654C28.7683 16.8676 28.653 16.79 28.526 16.737C28.3989 16.684 28.2626 16.6567 28.125 16.6567C27.9874 16.6567 27.8511 16.684 27.724 16.737C27.597 16.79 27.4817 16.8676 27.3848 16.9654C27.288 17.0632 27.2115 17.1792 27.1597 17.3068C27.108 17.4343 27.082 17.5709 27.0833 17.7085V21.8752C27.0833 25.1904 25.7664 28.3699 23.4222 30.7141C21.078 33.0583 17.8986 34.3752 14.5833 34.3752C11.2681 34.3752 8.08872 33.0583 5.74451 30.7141C3.40031 28.3699 2.08335 25.1904 2.08335 21.8752V17.7085C2.08468 17.5709 2.05872 17.4343 2.00697 17.3068C1.95522 17.1792 1.87871 17.0632 1.78185 16.9654C1.68499 16.8676 1.56971 16.79 1.44267 16.737C1.31563 16.684 1.17935 16.6567 1.0417 16.6567C0.904053 16.6567 0.76777 16.684 0.640729 16.737C0.513689 16.79 0.398408 16.8676 0.301549 16.9654C0.204691 17.0632 0.128176 17.1792 0.0764255 17.3068C0.0246753 17.4343 -0.00128389 17.5709 4.88316e-05 17.7085V21.8752C4.88316e-05 29.605 6.04585 35.946 13.6566 36.426C13.5821 36.5703 13.5427 36.7301 13.5416 36.8924V41.6668H3.12505C2.29653 41.6677 1.50219 41.9973 0.916339 42.5831C0.330484 43.169 0.000953546 43.9633 4.88316e-05 44.7918V45.8335C0.000565957 46.3859 0.220222 46.9155 0.610805 47.3061C1.00139 47.6966 1.53098 47.9163 2.08335 47.9168H27.0833C27.6357 47.9163 28.1653 47.6966 28.5559 47.3061C28.9465 46.9155 29.1661 46.3859 29.1667 45.8335V44.7918C29.1657 43.9633 28.8362 43.169 28.2504 42.5831C27.6645 41.9973 26.8702 41.6677 26.0417 41.6668H15.625V36.8924C15.624 36.7301 15.5846 36.5703 15.5101 36.426C23.1208 35.946 29.1667 29.605 29.1667 21.8752ZM26.0417 43.7502C26.3178 43.7506 26.5826 43.8604 26.7778 44.0557C26.9731 44.2509 27.083 44.5157 27.0833 44.7918L27.0849 45.8335H2.08335V44.7918C2.08371 44.5157 2.19358 44.2509 2.38886 44.0557C2.58414 43.8604 2.84889 43.7506 3.12505 43.7502H26.0417Z" fill="#F56F18"/>
</svg>
