<svg width="40" height="40" viewBox="0 0 40 40" fill="none" xmlns="http://www.w3.org/2000/svg">
<path d="M37.3359 37.0879L24.4678 37.0225C24.3231 36.218 24.0299 35.5567 23.5986 35.0088C22.9921 34.2381 22.2031 33.8193 21.6426 33.5264C21.0096 33.1955 20.6746 33.0215 20.4316 32.7578C20.2576 32.5688 20.0586 32.2472 20.0596 31.4746V31.4727C20.0596 30.8292 20.2366 30.5695 20.3945 30.4111C20.6244 30.1807 20.9594 30.0154 21.5654 29.7402C22.085 29.5043 22.8708 29.1613 23.4795 28.5322C24.113 27.8774 24.4764 27.0136 24.5107 25.8955L24.5127 25.668C24.5019 24.4443 24.1031 23.5375 23.4014 22.875C22.7947 22.3023 21.996 21.9736 21.5303 21.7539C20.98 21.4944 20.663 21.3033 20.4473 21.0332C20.2609 20.7998 20.0451 20.3686 20.0596 19.4238V19.4209C20.0695 18.6985 20.2682 18.4061 20.4326 18.2422C20.6573 18.0184 20.9937 17.8559 21.5869 17.626C22.0857 17.4326 22.8938 17.1533 23.5273 16.6309C24.2624 16.0247 24.7157 15.1578 24.7559 13.9678L24.7568 13.9668C24.8008 12.6243 24.4494 11.6035 23.7578 10.832C23.1283 10.1298 22.2963 9.74489 21.7393 9.47559C21.099 9.16608 20.7259 8.96925 20.4658 8.68555C20.2663 8.46763 20.0512 8.10152 20.0596 7.27246V7.27051C20.0654 6.62053 20.2335 6.39258 20.3525 6.27051C20.5505 6.06763 20.8249 5.93527 21.4248 5.6416C21.9518 5.38363 22.6958 5.00898 23.2988 4.29883C23.7271 3.79446 24.0393 3.17794 24.2246 2.41992L37.3359 2.3418V37.0879Z" stroke="white" stroke-width="2.5" stroke-miterlimit="10"/>
<path d="M30.7676 38.3448V1.08496" stroke="white" stroke-width="2.5" stroke-miterlimit="10"/>
<path d="M10.3431 5.74414C13.8312 8.79577 16.1598 13.9357 16.1925 19.7639C16.231 25.6615 13.8754 30.8725 10.3008 33.9145" stroke="white" stroke-width="2.5" stroke-linecap="round" stroke-linejoin="round"/>
<path d="M6.18512 10.1768C8.57336 12.2708 10.1694 15.7916 10.1963 19.7854C10.2174 23.8235 8.60412 27.3943 6.1582 29.4826" stroke="white" stroke-width="2.5" stroke-linecap="round" stroke-linejoin="round"/>
<path d="M2.68131 13.665C4.24077 15.0284 5.28106 17.3281 5.29836 19.9394C5.31567 22.5776 4.26193 24.9101 2.66016 26.2734" stroke="white" stroke-width="2.5" stroke-linecap="round" stroke-linejoin="round"/>
</svg>
